<svg xmlns="http://www.w3.org/2000/svg" width="132" height="40" viewBox="0 0 132 40" fill="none">
<path d="M13.7568 13.315V9.89319C13.7568 9.45743 13.5247 9.05464 13.1477 8.8361L8.53572 6.16272C7.31387 5.45446 5.78381 6.33608 5.78381 7.74836V11.1858C5.78381 11.6227 6.01707 12.0263 6.39559 12.2444L11.0089 14.903C12.2308 15.6071 13.7568 14.7252 13.7568 13.315Z" fill="#389F58"/>
<path d="M13.7568 19.211V15.7817C13.7568 15.3478 13.9869 14.9464 14.3614 14.7272L21.2955 10.6687C22.5173 9.95357 24.0541 10.8347 24.0541 12.2505V15.7525C24.0541 16.1899 23.8203 16.5939 23.4411 16.8118L16.5029 20.8C15.2811 21.5023 13.7568 20.6203 13.7568 19.211Z" fill="#389F58"/>
<path d="M13.7568 7.49977V4.0744C13.7568 3.64295 13.9843 3.24348 14.3554 3.02342L16.3676 1.83028C17.5893 1.10584 19.1351 1.98638 19.1351 3.40674V6.86249C19.1351 7.29884 18.9024 7.70207 18.5246 7.92039L16.5066 9.08662C15.2847 9.79272 13.7568 8.91097 13.7568 7.49977Z" fill="#389F58"/>
<path d="M13.7297 25.0379V21.6199C13.7297 21.1857 13.4994 20.7842 13.1246 20.5651L2.7578 14.5042C1.53598 13.7899 0 14.6711 0 16.0864V19.5656C0 20.0017 0.232402 20.4047 0.609821 20.6232L10.9789 26.6242C12.2008 27.3313 13.7297 26.4496 13.7297 25.0379Z" fill="#389F58"/>
<path d="M13.7567 30.8735V27.4577C13.7567 27.0236 13.9871 26.6221 14.3619 26.4029L24.7403 20.3352C25.9596 19.6224 27.4929 20.4984 27.4981 21.9107L27.5109 25.374C27.5125 25.8114 27.2801 26.2163 26.9017 26.4356L16.5085 32.4592C15.2866 33.1673 13.7567 32.2857 13.7567 30.8735Z" fill="#389F58"/>
<path d="M12.1355 31.61L13.1692 32.2378C13.534 32.4594 13.7567 32.8553 13.7567 33.2821V36.8105C13.7567 38.2247 12.2229 39.1061 11.0011 38.394L9.95791 37.786C9.58231 37.5671 9.35132 37.1651 9.35132 36.7304V33.1765C9.35132 31.7474 10.9141 30.8681 12.1355 31.61Z" fill="#389F58"/>
<path fill-rule="evenodd" clip-rule="evenodd" d="M95.3718 17.0284C95.3718 22.096 91.2636 26.2042 86.196 26.2042C81.1283 26.2042 77.0201 22.096 77.0201 17.0284C77.0201 11.9607 81.1283 7.85254 86.196 7.85254C91.2636 7.85254 95.3718 11.9607 95.3718 17.0284ZM91.1187 17.0678C91.1187 19.7648 88.9323 21.9511 86.2354 21.9511C83.5384 21.9511 81.3521 19.7648 81.3521 17.0678C81.3521 14.3709 83.5384 12.1845 86.2354 12.1845C88.9323 12.1845 91.1187 14.3709 91.1187 17.0678Z" fill="#1A1B1E"/>
<path d="M70.9525 15.4376V26.2201H66.4388V13.23C66.4388 10.258 68.8481 7.84876 71.8201 7.84876L77.1292 7.84875V12.3624L70.7854 12.331C70.4219 12.3292 70.1816 12.7083 70.3385 13.0362L70.4704 13.312C70.7877 13.9756 70.9525 14.7019 70.9525 15.4376Z" fill="#1A1B1E"/>
<path fill-rule="evenodd" clip-rule="evenodd" d="M122.464 26.2065C126.785 26.2065 130.409 23.219 131.382 19.1965H126.9C126.11 20.8282 124.438 21.9533 122.503 21.9533C119.806 21.9533 117.619 19.7669 117.619 17.0699L130.726 17.0699C131.231 17.0699 131.646 16.6608 131.598 16.1581C131.537 15.5036 131.405 14.8558 131.204 14.2294C130.02 10.5315 126.554 7.85449 122.464 7.85449C117.396 7.85449 113.288 11.9627 113.288 17.0305C113.288 22.0983 117.396 26.2065 122.464 26.2065ZM127.153 15.5734C126.521 13.6084 124.678 12.1865 122.503 12.1865C120.354 12.1865 118.529 13.5745 117.876 15.5028C117.731 15.9306 118.175 16.2664 118.587 16.0819Lnan nanL118.587 16.0819C119.336 15.7466 120.147 15.5734 120.967 15.5734H127.153Z" fill="#1A1B1E"/>
<path d="M100.541 7.84106L95.7102 7.84106L99.6696 26.2253C102.847 26.2253 106.024 26.2253 109.201 26.2253L113.161 7.84106L108.33 7.84106L105.044 23.1021C104.903 23.757 103.968 23.757 103.827 23.1021L100.541 7.84106Z" fill="#1A1B1E"/>
<path fill-rule="evenodd" clip-rule="evenodd" d="M63.558 7.84863H59.0443V9.97567C59.0443 10.2677 58.6667 10.4082 58.4586 10.2034C56.9793 8.74715 54.9493 7.84863 52.7094 7.84863C48.183 7.84863 44.5135 11.518 44.5135 16.0445C44.5135 20.5709 48.183 24.2403 52.7094 24.2403C54.9493 24.2403 56.9793 23.3418 58.4586 21.8855C58.6667 21.6807 59.0443 21.8213 59.0443 22.1133V26.7121C59.0443 27.2275 58.6265 27.6453 58.1111 27.6453H47.0871V32.159H57.3369C60.7727 32.159 63.558 29.3737 63.558 25.9379L63.558 7.84863ZM54.0556 21.152C56.8327 21.152 59.0839 18.9008 59.0839 16.1237C59.0839 13.3466 56.8327 11.0953 54.0556 11.0953C51.2785 11.0953 49.0272 13.3466 49.0272 16.1237C49.0272 18.9008 51.2785 21.152 54.0556 21.152Z" fill="#1A1B1E"/>
</svg>