<svg width="283" height="366" viewBox="0 0 283 366" fill="none" xmlns="http://www.w3.org/2000/svg">
<path d="M237.357 113.989C237.357 127.755 226.198 138.914 212.432 138.914C198.667 138.914 187.507 127.755 187.507 113.989C187.507 100.224 198.667 89.0643 212.432 89.0643C226.198 89.0643 237.357 100.224 237.357 113.989Z" fill="#46BD6B" stroke="#242224"/>
<path d="M112.189 202.521C85.7199 202.872 64.466 224.691 64.811 251.163L65.3206 290.241L88.8553 289.93L88.3457 250.851C88.1692 237.359 99.0032 226.236 112.495 226.058C125.987 225.879 137.106 236.712 137.281 250.205L137.791 289.284L161.325 288.973L160.816 249.894C160.47 223.423 138.656 202.172 112.187 202.521L112.189 202.521Z" fill="#33B0FF" stroke="#242224" stroke-miterlimit="10"/>
<path d="M111.641 160.514C86.7387 160.843 66.2149 140.849 65.8903 115.944L65.4175 79.7054L83.2721 79.47L83.7438 115.708C83.9396 130.767 96.3493 142.857 111.408 142.657C126.466 142.459 138.556 130.046 138.359 114.986L137.888 78.7477L155.742 78.5123L156.214 114.75C156.538 139.655 136.542 160.184 111.64 160.513L111.641 160.514Z" fill="#33B0FF"/>
<path d="M136.021 115.019L135.518 76.4388L158.054 76.1414L158.557 114.72C158.899 140.867 137.943 162.43 111.816 162.853L111.815 162.853L111.672 162.854C85.4795 163.201 63.8915 142.171 63.5501 115.975L63.0481 77.3964L85.5829 77.0985L86.086 115.677L86.5859 115.671L86.086 115.677C86.266 129.446 97.6115 140.499 111.379 140.318L111.379 140.318C125.147 140.136 136.201 128.787 136.021 115.019Z" fill="#33B0FF" stroke="#242224"/>
<path d="M86.1299 156.543C83.0143 154.652 80.118 152.408 77.4696 149.828C72.9873 145.462 69.4447 140.357 66.9427 134.657C64.3508 128.754 62.9938 122.471 62.9088 115.983L62.3978 76.7627L62.5396 76.7602L86.2165 76.4482L86.7269 115.669C86.9018 129.084 97.9554 139.853 111.37 139.676C124.783 139.499 135.553 128.442 135.379 115.028L134.868 75.8051L135.01 75.8025L158.688 75.4912L158.69 75.633L159.199 114.713C159.545 141.262 138.229 163.147 111.681 163.498C105.193 163.584 98.8766 162.392 92.909 159.956C90.5506 158.993 88.2876 157.853 86.1303 156.544L86.1299 156.543ZM62.6851 77.0434L63.1922 115.98C63.4156 133.094 72.6404 148.021 86.2933 156.305C93.6954 160.796 102.398 163.336 111.676 163.213C138.067 162.864 159.257 141.108 158.913 114.715L158.407 75.7786L135.155 76.0858L135.662 115.023C135.84 128.594 124.943 139.781 111.374 139.959C106.604 140.022 102.128 138.716 98.3228 136.408C91.3016 132.148 86.5586 124.473 86.4446 115.672L85.9375 76.7352L62.6851 77.0434Z" fill="#242224"/>
<path d="M111.069 116.648C84.6003 116.998 63.3463 138.817 63.6913 165.289L64.1794 202.717C64.5251 229.188 86.3381 250.44 112.808 250.09C139.276 249.74 160.529 227.92 160.185 201.449L159.697 164.021C159.353 137.551 137.538 116.299 111.069 116.648ZM136.162 164.331L136.65 201.759C136.826 215.252 125.992 226.375 112.502 226.552C99.0103 226.731 87.8905 215.898 87.7147 202.405L87.2267 164.977C87.0503 151.484 97.8842 140.362 111.376 140.184C124.867 140.006 135.987 150.839 136.162 164.331Z" fill="#AACEAA" stroke="#242224" stroke-miterlimit="10"/>
<path d="M110.612 143.096C125.67 142.898 138.556 130.044 138.36 114.986L137.888 78.7481L155.742 78.5127L156.214 114.751C156.539 139.655 136.542 160.185 111.64 160.514" fill="#46BD6B"/>
<path d="M111.644 160.655L111.64 160.371C136.465 160.044 156.399 139.579 156.074 114.752L155.604 78.6551L138.033 78.8872L138.503 114.984C138.551 118.674 137.829 122.3 136.357 125.759C134.943 129.08 132.908 132.093 130.308 134.714C127.716 137.326 124.715 139.396 121.386 140.868C117.937 142.392 114.312 143.189 110.615 143.239L110.611 142.955C114.271 142.907 117.857 142.117 121.272 140.608C124.568 139.152 127.54 137.101 130.108 134.514C132.681 131.92 134.696 128.936 136.096 125.648C137.553 122.225 138.268 118.64 138.22 114.988L137.747 78.6072L137.889 78.6046L155.886 78.3672L155.889 78.5091L156.361 114.748C156.687 139.731 136.628 160.325 111.647 160.655L111.644 160.655Z" fill="#242224"/>
<path d="M110.577 140.256C117.038 140.171 123.459 137.385 128.192 132.614C133.002 127.763 135.607 121.517 135.521 115.024L135.012 75.9446L158.548 75.6341L159.057 114.713C159.403 141.184 138.178 162.507 111.708 162.857" fill="#33B0FF"/>
<path d="M110.577 140.256C117.038 140.171 123.459 137.385 128.192 132.614C133.002 127.763 135.607 121.517 135.521 115.024L135.012 75.9446L158.548 75.6341L159.057 114.713C159.403 141.184 138.178 162.507 111.708 162.857" stroke="#242224"/>
<path d="M111.681 163.496L111.678 163.211C138.069 162.863 159.259 141.107 158.915 114.714L158.407 75.7779L135.155 76.0851L135.663 115.022C135.747 121.553 133.129 127.836 128.292 132.713C123.533 137.511 117.076 140.312 110.577 140.398L110.574 140.114C116.998 140.029 123.383 137.259 128.09 132.514C132.873 127.691 135.462 121.481 135.378 115.025L134.868 75.8044L135.01 75.8018L158.688 75.4904L158.69 75.6323L159.199 114.712C159.545 141.261 138.229 163.146 111.681 163.497L111.681 163.496Z" fill="#242224"/>
<path d="M112.188 202.521C138.656 202.171 160.471 223.423 160.816 249.895L161.326 288.973L137.791 289.285L137.282 250.206C137.105 236.713 125.986 225.881 112.496 226.059" fill="#33B0FF"/>
<path d="M112.188 202.521C138.656 202.171 160.471 223.423 160.816 249.895L161.326 288.973L137.791 289.285L137.282 250.206C137.105 236.713 125.986 225.881 112.496 226.059" stroke="#242224"/>
<path d="M137.649 289.428L137.647 289.286L137.137 250.207C136.962 236.792 125.909 226.023 112.495 226.2L112.492 225.916C126.062 225.737 137.246 236.632 137.421 250.204L137.928 289.141L161.18 288.833L160.673 249.897C160.589 243.445 159.24 237.2 156.663 231.333C154.176 225.668 150.655 220.593 146.198 216.253C141.742 211.912 136.579 208.525 130.849 206.185C124.917 203.763 118.639 202.578 112.188 202.664L112.185 202.38C118.673 202.293 124.99 203.485 130.957 205.923C136.719 208.276 141.914 211.682 146.397 216.05C150.879 220.418 154.422 225.52 156.924 231.221C159.515 237.123 160.872 243.406 160.957 249.895L161.468 289.116L161.326 289.118L137.649 289.43L137.649 289.428Z" fill="#242224"/>
<path d="M77.143 293.69C83.6423 293.604 88.89 291.918 88.8639 289.925C88.8379 287.932 83.5481 286.386 77.0488 286.472C70.5495 286.558 65.3019 288.243 65.3279 290.237C65.3539 292.23 70.6438 293.776 77.143 293.69Z" fill="#33B0FF" stroke="#242224" stroke-miterlimit="10"/>
<path d="M149.611 292.731C156.111 292.645 161.358 290.96 161.332 288.966C161.306 286.973 156.016 285.427 149.517 285.513C143.018 285.599 137.77 287.285 137.796 289.278C137.822 291.271 143.112 292.817 149.611 292.731Z" fill="#33B0FF" stroke="#242224" stroke-miterlimit="10"/>
<path d="M74.3677 81.2178C80.8669 81.1317 86.1146 79.4461 86.0885 77.4528C86.0625 75.4596 80.7727 73.9135 74.2734 73.9996C67.7741 74.0856 62.5265 75.7713 62.5525 77.7645C62.5785 79.7578 67.8684 81.3039 74.3677 81.2178Z" fill="#33B0FF" stroke="#242224" stroke-miterlimit="10"/>
<path d="M146.838 80.2591C153.338 80.173 158.585 78.4874 158.559 76.4941C158.533 74.5008 153.243 72.9548 146.744 73.0408C140.245 73.1269 134.997 74.8125 135.023 76.8058C135.049 78.799 140.339 80.3451 146.838 80.2591Z" fill="#33B0FF" stroke="#242224" stroke-miterlimit="10"/>
</svg>
