<svg width="429" height="258" viewBox="0 0 429 258" fill="none" xmlns="http://www.w3.org/2000/svg">
<g clip-path="url(#clip0_142_5768)">
<path d="M239.113 105.37H215.291C212.65 105.37 210.508 103.229 210.508 100.587V76.7655C210.508 74.1238 208.367 71.9824 205.725 71.9824H189.609C186.967 71.9824 184.826 74.1238 184.826 76.7655V100.587C184.826 103.229 182.684 105.37 180.043 105.37H156.221C153.579 105.37 151.438 107.512 151.438 110.153V126.269C151.438 128.911 153.579 131.053 156.221 131.053H180.043C182.684 131.053 184.826 133.194 184.826 135.836V159.657C184.826 162.299 186.967 164.44 189.609 164.44H205.725C208.367 164.44 210.508 162.299 210.508 159.657V135.836C210.508 133.194 212.65 131.053 215.291 131.053H239.113C241.754 131.053 243.896 128.911 243.896 126.269V110.153C243.896 107.512 241.754 105.37 239.113 105.37Z" fill="#ADDCF6" stroke="#242224" stroke-miterlimit="10"/>
<path d="M239.113 101.022H215.291C212.65 101.022 210.508 98.881 210.508 96.2394V72.4177C210.508 69.776 208.367 67.6346 205.725 67.6346H189.609C186.967 67.6346 184.826 69.776 184.826 72.4177V96.2394C184.826 98.881 182.684 101.022 180.043 101.022H156.221C153.579 101.022 151.438 103.164 151.438 105.805V121.922C151.438 124.563 153.579 126.705 156.221 126.705H180.043C182.684 126.705 184.826 128.846 184.826 131.488V155.309C184.826 157.951 186.967 160.093 189.609 160.093H205.725C208.367 160.093 210.508 157.951 210.508 155.309V131.488C210.508 128.846 212.65 126.705 215.291 126.705H239.113C241.754 126.705 243.896 124.563 243.896 121.922V105.805C243.896 103.164 241.754 101.022 239.113 101.022Z" fill="#ADDCF6" stroke="#242224" stroke-miterlimit="10"/>
<path d="M279.475 134.636C289.154 134.636 297 126.79 297 117.111C297 107.432 289.154 99.5857 279.475 99.5857C269.796 99.5857 261.95 107.432 261.95 117.111C261.95 126.79 269.796 134.636 279.475 134.636Z" fill="#33B0FF" stroke="#242224" stroke-miterlimit="10"/>
<path d="M149.525 86.1101C159.204 86.1101 167.05 78.2639 167.05 68.5851C167.05 58.9063 159.204 51.0601 149.525 51.0601C139.846 51.0601 132 58.9063 132 68.5851C132 78.2639 139.846 86.1101 149.525 86.1101Z" fill="#46BD6B" stroke="#242224" stroke-miterlimit="10"/>
<path d="M279.475 131.737C289.154 131.737 297 123.89 297 114.212C297 104.533 289.154 96.6865 279.475 96.6865C269.796 96.6865 261.95 104.533 261.95 114.212C261.95 123.89 269.796 131.737 279.475 131.737Z" fill="#33B0FF" stroke="#242224" stroke-miterlimit="10"/>
<path d="M149.525 83.2108C159.204 83.2108 167.05 75.3646 167.05 65.6858C167.05 56.007 159.204 48.1608 149.525 48.1608C139.846 48.1608 132 56.007 132 65.6858C132 75.3646 139.846 83.2108 149.525 83.2108Z" fill="#46BD6B" stroke="#242224" stroke-miterlimit="10"/>
</g>
<defs>
<clipPath id="clip0_142_5768">
<rect width="429" height="258" fill="white"/>
</clipPath>
</defs>
</svg>
