<?xml version="1.0" encoding="UTF-8" standalone="no"?>
<!DOCTYPE svg PUBLIC "-//W3C//DTD SVG 1.1//EN" "http://www.w3.org/Graphics/SVG/1.1/DTD/svg11.dtd">
<svg xmlns="http://www.w3.org/2000/svg" width="96" height="20" viewBox="0 0 96 20" fill="none">
    <path d="M28.4003 0.66172V4.30447C28.4003 5.48486 27.4425 6.4411 26.2621 6.4411H26.2314C25.638 6.43788 25.1075 6.4411 25.1075 6.4411C25.0059 6.4411 24.8946 6.42981 24.7979 6.4411C24.1319 6.50883 23.5546 6.81199 23.0676 7.34897C23.0547 7.36348 23.0418 7.37961 23.0273 7.39412C22.6371 7.90207 22.421 8.55515 22.421 9.26306V9.29693C22.421 9.75167 22.5129 10.1838 22.6822 10.5708C22.8515 10.9579 22.7661 11.4078 22.4419 11.6787C22.1243 11.9447 21.7469 12.2592 21.4921 12.4624C20.7552 11.6255 20.3214 10.5289 20.3214 9.3324V9.29854C20.3214 6.69588 22.4032 4.527 25.2316 4.527H26.254V0.268258C26.025 0.252133 25.7944 0.240845 25.5622 0.240845C20.1715 0.240845 15.8015 4.61086 15.8015 10.0016C15.8015 14.4055 18.7169 18.1256 22.7225 19.3415V15.7278C22.7225 14.5345 23.69 13.5686 24.8817 13.5686H24.8914C25.4848 13.5718 26.0153 13.5686 26.0153 13.5686C26.1169 13.5686 26.2282 13.5799 26.325 13.5686C26.9909 13.5008 27.5682 13.1977 28.0552 12.6607C28.0681 12.6462 28.0826 12.6301 28.0955 12.6156C28.4858 12.1076 28.7019 11.4545 28.7019 10.7466V10.7127C28.7019 10.358 28.5535 9.88712 28.4035 9.50172C28.2391 9.07601 28.3648 8.58741 28.7148 8.29392C29.0163 8.04075 29.3227 7.79242 29.6307 7.5457C30.3676 8.38261 30.8014 9.47915 30.8014 10.6757V10.7095C30.8014 13.3122 28.7196 15.4811 25.8912 15.4811H24.8688V19.7317C25.0978 19.7479 25.3284 19.7592 25.5606 19.7592C30.9514 19.7592 35.3214 15.3891 35.3214 9.99839C35.3214 5.59451 32.4059 1.87436 28.4003 0.658495V0.66172Z" fill="#0079E8"/>
    <path d="M3.16705 9.88874H7.6967C7.87569 9.88874 8.07243 9.88067 8.29012 9.86294C8.50781 9.8452 8.70938 9.81133 8.89805 9.76135C9.42213 9.6275 9.83333 9.3953 10.1365 9.06311C10.438 8.73093 10.6525 8.35359 10.7783 7.9311C10.9041 7.50861 10.9686 7.0958 10.9686 6.69266C10.9686 6.28953 10.9057 5.87671 10.7783 5.45422C10.6525 5.03174 10.438 4.6544 10.1365 4.32221C9.83494 3.99003 9.42213 3.75621 8.89805 3.62398C8.70938 3.57238 8.5062 3.53851 8.29012 3.52239C8.07243 3.50626 7.87569 3.49659 7.6967 3.49659H3.97332C3.75885 3.49659 3.55406 3.58205 3.40248 3.73202C3.2509 3.8836 3.16705 4.08839 3.16705 4.30286V9.89035V9.88874ZM0 19.4705V3.74976C0 1.9695 1.44323 0.524658 3.2251 0.524658H7.82893C8.01276 0.524658 8.25142 0.531108 8.54329 0.544009C8.83516 0.556909 9.10285 0.585935 9.34634 0.629474C10.4413 0.798792 11.3459 1.16484 12.0603 1.72762C12.7746 2.2904 13.3052 2.9967 13.6519 3.84974C13.9969 4.70278 14.1711 5.64934 14.1711 6.69105C14.1711 7.73276 13.9969 8.68094 13.647 9.53236C13.2971 10.3854 12.7649 11.0917 12.0506 11.6545C11.3362 12.2173 10.4348 12.5817 9.34634 12.7526C9.10285 12.7881 8.83194 12.8139 8.53684 12.8316C8.24174 12.8494 8.0047 12.8574 7.82893 12.8574H3.16705V16.3051C3.16705 18.0531 1.748 19.4705 0 19.4705Z" fill="#E6EDF3"/>
    <path d="M51.8758 19.0077C51.2582 17.7418 49.5295 14.1942 48.6023 12.2914C49.4473 11.927 50.123 11.39 50.6245 10.6772C51.4049 9.56781 51.7952 8.24069 51.7952 6.69264C51.7952 5.65093 51.6226 4.70275 51.2759 3.85132C50.9308 2.99828 50.4003 2.29199 49.6843 1.72921C48.97 1.16643 48.0637 0.800379 46.9704 0.631061C46.7269 0.587522 46.4592 0.558496 46.1674 0.545596C45.8755 0.532695 45.6385 0.526245 45.453 0.526245H40.8492C39.0673 0.526245 37.6241 1.96948 37.6241 3.75135V19.4721C39.3721 19.4721 40.7895 18.0547 40.7895 16.3067V12.859H45.2982C46.04 14.3893 47.3719 17.1387 48.0621 18.5626C48.3314 19.119 48.8958 19.4721 49.5134 19.4721H51.5823C51.6936 19.4721 51.7968 19.414 51.8564 19.3205C51.9145 19.227 51.921 19.1077 51.8726 19.0077H51.8758ZM40.7911 4.30123C40.7911 4.08676 40.8766 3.88196 41.0282 3.73038C41.1798 3.5788 41.3845 3.49495 41.5974 3.49495H45.3224C45.5014 3.49495 45.6981 3.50301 45.9158 3.52075C46.1335 3.53688 46.3351 3.57235 46.5237 3.62234C47.0462 3.75618 47.459 3.98839 47.7622 4.32058C48.0637 4.65276 48.2782 5.0301 48.404 5.45259C48.5298 5.87507 48.5943 6.28789 48.5943 6.69102C48.5943 7.09416 48.5314 7.50698 48.404 7.92946C48.2782 8.35195 48.0637 8.72929 47.7622 9.06147C47.4606 9.39366 47.0478 9.62748 46.5237 9.75971C46.3351 9.8097 46.1319 9.84356 45.9158 9.8613C45.6981 9.87904 45.5014 9.8871 45.3224 9.8871H40.7911V4.30123Z" fill="#E6EDF3"/>
    <path d="M59.2532 19.4705V3.49495H53.1174C53.1174 1.85499 54.4462 0.526245 56.0861 0.526245H68.5544C68.5544 1.31317 68.2415 2.06946 67.6852 2.62579C67.1289 3.18212 66.3726 3.49495 65.5857 3.49495H62.4186V16.3051C62.4186 18.0531 61.0012 19.4721 59.2516 19.4721L59.2532 19.4705Z" fill="#E6EDF3"/>
    <path d="M82.3304 19.0512C81.6305 16.8292 78.3345 6.3766 77.0267 2.22751C76.7074 1.21322 75.7673 0.524658 74.7046 0.524658H74.166C72.7824 0.524658 71.5585 1.42124 71.1425 2.74191C69.7428 7.17965 66.6741 16.9162 66.0001 19.0512C65.9694 19.1496 65.9872 19.256 66.0468 19.3383C66.1081 19.4205 66.2048 19.4705 66.3064 19.4705H67.9512C68.6559 19.4705 69.2784 19.0142 69.4896 18.3417C69.7202 17.608 70.0476 16.5647 70.4265 15.3617H77.8862C78.2716 16.5695 78.6037 17.6145 78.8376 18.3482C79.0504 19.0174 79.6713 19.4705 80.3743 19.4705H82.0224C82.1256 19.4705 82.2223 19.4221 82.282 19.3383C82.3433 19.256 82.361 19.148 82.3287 19.0512H82.3304ZM71.3586 12.4011C72.4164 9.03892 73.5694 5.37037 74.1321 3.58044C74.703 5.37037 75.8721 9.03892 76.9428 12.4011H71.3586Z" fill="#E6EDF3"/>
    <path d="M95.1292 17.371C94.5729 16.8146 93.8166 16.5018 93.0297 16.5018H87.6309V0.524658C85.8829 0.524658 84.4655 1.94209 84.4655 3.69009V19.4705H96C96 18.6836 95.6872 17.9273 95.1309 17.371H95.1292Z" fill="#E6EDF3"/>
</svg>