<svg width="135" height="28" viewBox="0 0 135 28" fill="none" xmlns="http://www.w3.org/2000/svg">
<path d="M45.3122 7H41.5239L44.7253 22.185H52.1476L55.349 7H51.6096L48.886 19.9439C48.7882 20.4115 48.1336 20.4115 48.0358 19.9439L45.3122 7Z" fill="#242224"/>
<path fill-rule="evenodd" clip-rule="evenodd" d="M41.2308 14.5964C41.2308 18.7887 37.9052 22.1889 33.8085 22.1889C29.7118 22.1889 26.3862 18.7887 26.3862 14.5964C26.3862 10.4041 29.708 7.00391 33.8085 7.00391C37.909 7.00391 41.2308 10.4041 41.2308 14.5964ZM37.7886 14.6273C37.7886 16.8606 36.0205 18.6689 33.8386 18.6689C31.6567 18.6689 29.8886 16.8606 29.8886 14.6273C29.8886 12.394 31.6567 10.5857 33.8386 10.5857C36.0205 10.5857 37.7886 12.394 37.7886 14.6273Z" fill="#242224"/>
<path d="M21.3867 13.1784V22.2044H17.7339V11.4783C17.7339 9.01699 19.6826 7.0271 22.0864 7.0271H26.3825V10.7635L21.1648 10.7364C20.9089 10.7364 20.7434 11.0069 20.8525 11.2426L21.0481 11.6637C21.2701 12.139 21.3867 12.6567 21.3867 13.1861V13.1784Z" fill="#242224"/>
<path fill-rule="evenodd" clip-rule="evenodd" d="M15.4051 7.00366H11.7522V8.86218C11.7522 9.07083 11.4889 9.17129 11.346 9.0206C10.1459 7.77643 8.47561 7.00366 6.62851 7.00366C2.96816 7.00366 0 10.0407 0 13.7847C0 17.5288 2.96816 20.5658 6.62851 20.5658C8.47561 20.5658 10.1459 19.793 11.346 18.5489C11.4889 18.4021 11.7522 18.4987 11.7522 18.7073V22.7141C11.7522 23.0812 11.4588 23.3826 11.0977 23.3826H2.08034V27.1189H11.0525C13.4564 27.1189 15.4051 25.1252 15.4051 22.6678V7.00366ZM7.83608 17.8959C10.082 17.8959 11.7861 16.1494 11.7861 13.8504C11.7861 11.5514 9.96533 9.68905 7.71946 9.68905C5.4736 9.68905 3.65283 11.5514 3.65283 13.8504C3.65283 16.1494 5.59022 17.8959 7.83985 17.8959H7.83608Z" fill="#242224"/>
<path d="M69.8928 14.9673C70.1712 14.9673 70.4082 14.7432 70.4007 14.4534C70.3894 13.9743 70.333 13.5029 70.2389 13.047C69.5204 9.64679 66.5222 7.00391 62.9784 7.00391C61.6429 7.00391 60.3902 7.36325 59.3106 7.99692C57.4935 9.05562 56.1543 10.8794 55.7142 13.0354C55.6126 13.5416 55.5562 14.0632 55.5562 14.5964C55.5562 18.7887 58.8817 22.1889 62.9784 22.1889C66.1949 22.1889 68.9335 20.0947 69.9643 17.1697H66.0895C65.3635 18.1086 64.2387 18.7114 62.9747 18.7114C61.0373 18.7114 59.4272 17.2934 59.0773 15.4155C59.051 15.2687 59.0284 15.118 59.0171 14.9673H69.8853H69.8928ZM66.3604 13.047H61.6806C61.1652 13.047 60.6573 13.1668 60.1946 13.3909L59.7846 13.5918C59.5551 13.7038 59.2917 13.5338 59.2917 13.2788C59.2917 13.1513 59.3218 12.9852 59.4535 12.734C59.54 12.5833 59.6341 12.4404 59.7356 12.3013C60.488 11.2928 61.6956 10.5896 62.9859 10.5896C64.6186 10.5896 66.0256 11.6019 66.6313 13.0431H66.3642L66.3604 13.047Z" fill="#242224"/>
<path d="M76.71 14.6498C76.71 16.0498 77.06 17.1798 77.76 18.0398C78.48 18.8798 79.44 19.2998 80.64 19.2998C81.2 19.2998 81.72 19.1898 82.2 18.9698C82.68 18.7298 83.09 18.4098 83.43 18.0098C83.77 17.5898 84.03 17.0998 84.21 16.5398C84.41 15.9598 84.51 15.3198 84.51 14.6198C84.51 13.2198 84.15 12.1198 83.43 11.3198C82.73 10.4998 81.81 10.0898 80.67 10.0898C79.53 10.0898 78.58 10.4998 77.82 11.3198C77.08 12.1398 76.71 13.2498 76.71 14.6498ZM87.87 19.3298C87.87 19.9898 87.89 20.5698 87.93 21.0698C87.97 21.5698 88 21.8798 88.02 21.9998H84.69C84.65 21.8398 84.61 21.5598 84.57 21.1598C84.55 20.7598 84.54 20.4098 84.54 20.1098C84.2 20.7298 83.66 21.2598 82.92 21.6998C82.18 22.1398 81.29 22.3598 80.25 22.3598C79.19 22.3598 78.23 22.1698 77.37 21.7898C76.51 21.3898 75.77 20.8498 75.15 20.1698C74.55 19.4698 74.08 18.6498 73.74 17.7098C73.4 16.7698 73.23 15.7498 73.23 14.6498C73.23 13.6098 73.4 12.6298 73.74 11.7098C74.08 10.7698 74.55 9.94979 75.15 9.24979C75.77 8.54979 76.51 7.99979 77.37 7.59979C78.23 7.19979 79.17 6.99979 80.19 6.99979C80.83 6.99979 81.39 7.06979 81.87 7.20979C82.35 7.32979 82.76 7.49979 83.1 7.71979C83.46 7.91979 83.75 8.13979 83.97 8.37979C84.19 8.61979 84.36 8.85979 84.48 9.09979V0.279785H87.87V19.3298Z" fill="#389F58"/>
<path d="M97.9076 19.3298C98.4476 19.3298 98.9576 19.2298 99.4376 19.0298C99.9376 18.8298 100.378 18.5398 100.758 18.1598C101.138 17.7598 101.438 17.2698 101.658 16.6898C101.878 16.1098 101.988 15.4398 101.988 14.6798C101.988 13.9198 101.878 13.2598 101.658 12.6998C101.438 12.1198 101.138 11.6398 100.758 11.2598C100.378 10.8598 99.9376 10.5698 99.4376 10.3898C98.9576 10.1898 98.4476 10.0898 97.9076 10.0898C97.3676 10.0898 96.8476 10.1898 96.3476 10.3898C95.8676 10.5698 95.4376 10.8598 95.0576 11.2598C94.6976 11.6398 94.3976 12.1198 94.1576 12.6998C93.9376 13.2598 93.8276 13.9198 93.8276 14.6798C93.8276 15.4398 93.9376 16.1098 94.1576 16.6898C94.3976 17.2698 94.6976 17.7598 95.0576 18.1598C95.4376 18.5398 95.8676 18.8298 96.3476 19.0298C96.8476 19.2298 97.3676 19.3298 97.9076 19.3298ZM97.9076 6.93979C99.0076 6.93979 100.018 7.13979 100.938 7.53979C101.858 7.91979 102.658 8.45979 103.338 9.15979C104.018 9.83979 104.548 10.6498 104.928 11.5898C105.308 12.5298 105.498 13.5598 105.498 14.6798C105.498 15.7998 105.308 16.8398 104.928 17.7998C104.548 18.7398 104.018 19.5598 103.338 20.2598C102.658 20.9398 101.858 21.4798 100.938 21.8798C100.018 22.2598 99.0076 22.4498 97.9076 22.4498C96.8276 22.4498 95.8176 22.2598 94.8776 21.8798C93.9576 21.4798 93.1576 20.9398 92.4776 20.2598C91.8176 19.5598 91.2976 18.7398 90.9176 17.7998C90.5376 16.8398 90.3476 15.7998 90.3476 14.6798C90.3476 13.5598 90.5376 12.5298 90.9176 11.5898C91.2976 10.6498 91.8176 9.83979 92.4776 9.15979C93.1576 8.45979 93.9576 7.91979 94.8776 7.53979C95.8176 7.13979 96.8276 6.93979 97.9076 6.93979Z" fill="#389F58"/>
<path d="M114.555 10.1498C114.015 10.1498 113.505 10.2498 113.025 10.4498C112.545 10.6498 112.115 10.9398 111.735 11.3198C111.375 11.6998 111.085 12.1698 110.865 12.7298C110.645 13.2898 110.535 13.9398 110.535 14.6798C110.535 15.4198 110.645 16.0798 110.865 16.6598C111.085 17.2198 111.375 17.6998 111.735 18.0998C112.115 18.4798 112.555 18.7698 113.055 18.9698C113.555 19.1698 114.075 19.2698 114.615 19.2698C115.175 19.2698 115.665 19.1798 116.085 18.9998C116.525 18.8198 116.885 18.5998 117.165 18.3398C117.465 18.0598 117.705 17.7698 117.885 17.4698C118.065 17.1498 118.195 16.8498 118.275 16.5698L121.335 17.6798C121.155 18.2598 120.885 18.8298 120.525 19.3898C120.165 19.9498 119.705 20.4598 119.145 20.9198C118.605 21.3798 117.955 21.7498 117.195 22.0298C116.435 22.3098 115.575 22.4498 114.615 22.4498C113.535 22.4498 112.535 22.2598 111.615 21.8798C110.695 21.4798 109.895 20.9298 109.215 20.2298C108.555 19.5298 108.025 18.7098 107.625 17.7698C107.245 16.8298 107.055 15.7998 107.055 14.6798C107.055 13.5598 107.245 12.5298 107.625 11.5898C108.005 10.6298 108.535 9.80979 109.215 9.12979C109.895 8.42979 110.685 7.88979 111.585 7.50979C112.485 7.12979 113.465 6.93979 114.525 6.93979C115.505 6.93979 116.375 7.07979 117.135 7.35979C117.895 7.63979 118.555 8.00979 119.115 8.46979C119.675 8.90979 120.125 9.41979 120.465 9.99979C120.805 10.5798 121.055 11.1598 121.215 11.7398L118.095 12.8798C118.015 12.5598 117.885 12.2398 117.705 11.9198C117.545 11.5798 117.315 11.2798 117.015 11.0198C116.735 10.7598 116.395 10.5498 115.995 10.3898C115.595 10.2298 115.115 10.1498 114.555 10.1498Z" fill="#389F58"/>
<path d="M125.56 17.1998C125.62 17.8598 125.89 18.4398 126.37 18.9398C126.87 19.4398 127.59 19.6898 128.53 19.6898C129.25 19.6898 129.79 19.5298 130.15 19.2098C130.53 18.8698 130.72 18.4698 130.72 18.0098C130.72 17.6098 130.58 17.2698 130.3 16.9898C130.02 16.7098 129.59 16.5098 129.01 16.3898L126.85 15.9098C125.55 15.6298 124.57 15.1098 123.91 14.3498C123.25 13.5698 122.92 12.6698 122.92 11.6498C122.92 11.0098 123.06 10.4098 123.34 9.84978C123.62 9.26979 124 8.76979 124.48 8.34979C124.96 7.90979 125.52 7.56979 126.16 7.32979C126.82 7.06979 127.53 6.93979 128.29 6.93979C129.31 6.93979 130.16 7.08979 130.84 7.38979C131.54 7.66979 132.11 8.01979 132.55 8.43979C132.99 8.85979 133.31 9.30979 133.51 9.78979C133.73 10.2498 133.87 10.6598 133.93 11.0198L130.99 11.8598C130.95 11.6598 130.88 11.4298 130.78 11.1698C130.68 10.9098 130.52 10.6698 130.3 10.4498C130.1 10.2298 129.83 10.0498 129.49 9.90979C129.17 9.74979 128.77 9.66979 128.29 9.66979C127.67 9.66979 127.16 9.83978 126.76 10.1798C126.38 10.4998 126.19 10.8898 126.19 11.3498C126.19 11.7498 126.32 12.0798 126.58 12.3398C126.84 12.5998 127.2 12.7798 127.66 12.8798L129.88 13.3298C131.26 13.6298 132.3 14.1798 133 14.9798C133.72 15.7598 134.08 16.6898 134.08 17.7698C134.08 18.3298 133.96 18.8898 133.72 19.4498C133.5 19.9898 133.16 20.4898 132.7 20.9498C132.26 21.3898 131.69 21.7498 130.99 22.0298C130.29 22.3098 129.48 22.4498 128.56 22.4498C127.5 22.4498 126.6 22.2998 125.86 21.9998C125.12 21.6998 124.51 21.3298 124.03 20.8898C123.55 20.4298 123.19 19.9498 122.95 19.4498C122.71 18.9298 122.57 18.4598 122.53 18.0398L125.56 17.1998Z" fill="#389F58"/>
</svg>
