<?xml version="1.0" encoding="UTF-8" standalone="no"?>
<!DOCTYPE svg PUBLIC "-//W3C//DTD SVG 1.1//EN" "http://www.w3.org/Graphics/SVG/1.1/DTD/svg11.dtd">
<svg xmlns="http://www.w3.org/2000/svg" width="96" height="20" viewBox="0 0 96 20" fill="none">
    <path d="M28.4003 0.420876V4.06363C28.4003 5.24401 27.4425 6.20026 26.2621 6.20026H26.2314C25.638 6.19703 25.1075 6.20026 25.1075 6.20026C25.0059 6.20026 24.8946 6.18897 24.7979 6.20026C24.1319 6.26798 23.5546 6.57114 23.0676 7.10812C23.0547 7.12263 23.0418 7.13876 23.0273 7.15327C22.6371 7.66123 22.421 8.31431 22.421 9.02222V9.05608C22.421 9.51082 22.5129 9.94298 22.6822 10.33C22.8515 10.717 22.7661 11.1669 22.4419 11.4378C22.1243 11.7039 21.7469 12.0183 21.4921 12.2215C20.7552 11.3846 20.3214 10.2881 20.3214 9.09156V9.05769C20.3214 6.45504 22.4032 4.28616 25.2317 4.28616H26.254V0.0274134C26.025 0.0112879 25.7944 0 25.5622 0C20.1715 0 15.8015 4.37001 15.8015 9.76077C15.8015 14.1646 18.717 17.8848 22.7225 19.1007V15.4869C22.7225 14.2936 23.6901 13.3277 24.8817 13.3277H24.8914C25.4848 13.331 26.0154 13.3277 26.0154 13.3277C26.1169 13.3277 26.2282 13.339 26.325 13.3277C26.9909 13.26 27.5682 12.9568 28.0552 12.4199C28.0681 12.4053 28.0826 12.3892 28.0955 12.3747C28.4858 11.8668 28.7019 11.2137 28.7019 10.5058V10.4719C28.7019 10.1171 28.5535 9.64628 28.4035 9.26088C28.2391 8.83516 28.3648 8.34656 28.7148 8.05308C29.0163 7.79991 29.3227 7.55157 29.6307 7.30485C30.3676 8.14177 30.8014 9.2383 30.8014 10.4348V10.4687C30.8014 13.0713 28.7196 15.2402 25.8912 15.2402H24.8688V19.4909C25.0978 19.507 25.3284 19.5183 25.5606 19.5183C30.9514 19.5183 35.3214 15.1483 35.3214 9.75754C35.3214 5.35367 32.4059 1.63351 28.4003 0.417651V0.420876Z" fill="#1D8AED"/>
    <path d="M3.16708 9.64789H7.69673C7.87573 9.64789 8.07246 9.63983 8.29015 9.62209C8.50784 9.60435 8.70941 9.57049 8.89808 9.5205C9.42216 9.38666 9.83336 9.15445 10.1365 8.82227C10.4381 8.49008 10.6525 8.11274 10.7783 7.69026C10.9041 7.26777 10.9686 6.85496 10.9686 6.45182C10.9686 6.04868 10.9057 5.63587 10.7783 5.21338C10.6525 4.79089 10.4381 4.41355 10.1365 4.08137C9.83497 3.74918 9.42216 3.51536 8.89808 3.38313C8.70941 3.33153 8.50623 3.29767 8.29015 3.28154C8.07246 3.26542 7.87573 3.25574 7.69673 3.25574H3.97335C3.75888 3.25574 3.55409 3.34121 3.40251 3.49118C3.25093 3.64276 3.16708 3.84755 3.16708 4.06202V9.64951V9.64789ZM3.05176e-05 19.2297V3.50891C3.05176e-05 1.72866 1.44326 0.283813 3.22513 0.283813H7.82896C8.01279 0.283813 8.25145 0.290264 8.54332 0.303164C8.83519 0.316064 9.10288 0.34509 9.34637 0.388629C10.4413 0.557947 11.3459 0.923996 12.0603 1.48678C12.7747 2.04956 13.3052 2.75585 13.6519 3.60889C13.997 4.46193 14.1711 5.4085 14.1711 6.45021C14.1711 7.49191 13.997 8.44009 13.647 9.29152C13.2971 10.1446 12.765 10.8509 12.0506 11.4136C11.3363 11.9764 10.4348 12.3408 9.34637 12.5118C9.10288 12.5473 8.83197 12.5731 8.53687 12.5908C8.24177 12.6085 8.00473 12.6166 7.82896 12.6166H3.16708V16.0642C3.16708 17.8122 1.74803 19.2297 3.05176e-05 19.2297Z" fill="#373A40"/>
    <path d="M51.8758 18.7668C51.2582 17.501 49.5296 13.9534 48.6024 12.0506C49.4473 11.6861 50.123 11.1492 50.6245 10.4364C51.405 9.32697 51.7952 7.99984 51.7952 6.45179C51.7952 5.41008 51.6227 4.46191 51.276 3.61048C50.9309 2.75744 50.4003 2.05114 49.6844 1.48836C48.97 0.925583 48.0638 0.559534 46.9705 0.390216C46.727 0.346677 46.4593 0.317651 46.1674 0.304751C45.8755 0.291851 45.6385 0.2854 45.453 0.2854H40.8492C39.0673 0.2854 37.6241 1.72863 37.6241 3.5105V19.2313C39.3721 19.2313 40.7895 17.8138 40.7895 16.0658V12.6182H45.2982C46.04 14.1485 47.372 16.8979 48.0621 18.3218C48.3314 18.8781 48.8958 19.2313 49.5134 19.2313H51.5823C51.6936 19.2313 51.7968 19.1732 51.8565 19.0797C51.9145 18.9861 51.921 18.8668 51.8726 18.7668H51.8758ZM40.7912 4.06038C40.7912 3.84591 40.8766 3.64112 41.0282 3.48954C41.1798 3.33796 41.3846 3.25411 41.5974 3.25411H45.3224C45.5014 3.25411 45.6982 3.26217 45.9158 3.27991C46.1335 3.29603 46.3351 3.33151 46.5238 3.3815C47.0462 3.51534 47.4591 3.74755 47.7622 4.07973C48.0638 4.41192 48.2782 4.78925 48.404 5.21174C48.5298 5.63423 48.5943 6.04704 48.5943 6.45018C48.5943 6.85332 48.5314 7.26613 48.404 7.68862C48.2782 8.11111 48.0638 8.48844 47.7622 8.82063C47.4607 9.15281 47.0479 9.38663 46.5238 9.51886C46.3351 9.56885 46.1319 9.60272 45.9158 9.62045C45.6982 9.63819 45.5014 9.64625 45.3224 9.64625H40.7912V4.06038Z" fill="#373A40"/>
    <path d="M59.2532 19.2296V3.25411H53.1175C53.1175 1.61414 54.4462 0.2854 56.0862 0.2854H68.5544C68.5544 1.07232 68.2416 1.82861 67.6853 2.38494C67.1289 2.94127 66.3726 3.25411 65.5857 3.25411H62.4187V16.0642C62.4187 17.8122 61.0012 19.2313 59.2516 19.2313L59.2532 19.2296Z" fill="#373A40"/>
    <path d="M82.3304 18.8104C81.6305 16.5883 78.3345 6.13576 77.0267 1.98667C76.7074 0.972372 75.7673 0.283813 74.7046 0.283813H74.166C72.7824 0.283813 71.5585 1.18039 71.1425 2.50107C69.7428 6.93881 66.6741 16.6754 66.0001 18.8104C65.9694 18.9088 65.9872 19.0152 66.0468 19.0974C66.1081 19.1797 66.2048 19.2297 66.3064 19.2297H67.9512C68.6559 19.2297 69.2784 18.7733 69.4896 18.1009C69.7202 17.3672 70.0476 16.3238 70.4265 15.1209H77.8862C78.2716 16.3287 78.6037 17.3736 78.8376 18.1073C79.0504 18.7765 79.6713 19.2297 80.3743 19.2297H82.0224C82.1256 19.2297 82.2223 19.1813 82.282 19.0974C82.3433 19.0152 82.361 18.9072 82.3287 18.8104H82.3304ZM71.3586 12.1602C72.4164 8.79808 73.5694 5.12953 74.1321 3.3396C74.703 5.12953 75.8721 8.79808 76.9428 12.1602H71.3586Z" fill="#373A40"/>
    <path d="M95.1292 17.1301C94.5729 16.5738 93.8166 16.261 93.0297 16.261H87.6309V0.283813C85.8829 0.283813 84.4655 1.70124 84.4655 3.44925V19.2297H96C96 18.4427 95.6872 17.6865 95.1309 17.1301H95.1292Z" fill="#373A40"/>
</svg>