<svg width="640" height="427" viewBox="0 0 640 427" fill="none" xmlns="http://www.w3.org/2000/svg">
<g clip-path="url(#clip0_114_8344)">
<mask id="mask0_114_8344" style="mask-type:luminance" maskUnits="userSpaceOnUse" x="0" y="0" width="641" height="427">
<path d="M0 0.367828H640.002V426.46H0V0.367828Z" fill="white"/>
</mask>
<g mask="url(#mask0_114_8344)">
<path d="M186.103 395.73L43.4792 319.12C40.7123 317.61 38.7186 314.235 38.805 311.367C38.8165 310.984 38.5977 306.256 38.7198 305.892C39.2817 304.209 40.8608 307.077 42.725 306.226L425.488 131.453C427.448 130.559 429.715 130.637 431.609 131.666L578.078 203.11C583.046 205.81 581.617 218.827 576.47 221.168L192.225 395.951C190.263 396.844 187.996 396.762 186.103 395.73Z" stroke="#343438" stroke-width="0.917188" stroke-miterlimit="10"/>
<path d="M186.104 389.127L42.29 311.868C37.3343 309.165 37.5905 301.968 42.7252 299.623L425.488 124.85C427.448 123.956 429.715 124.034 431.609 125.063L576.905 202.311C581.873 205.011 581.617 212.224 576.47 214.565L192.226 389.348C190.264 390.241 187.996 390.159 186.104 389.127Z" stroke="#343438" stroke-width="0.917188" stroke-miterlimit="10"/>
<path d="M189.191 389.965V396.563" stroke="#343438" stroke-width="0.917188" stroke-miterlimit="10"/>
<path d="M186.095 382.226L56.267 312.596C51.4892 309.989 51.7356 303.05 56.6867 300.789L425.768 132.263C427.658 131.4 429.845 131.476 431.67 132.468L562.928 202.089C567.718 204.691 567.472 211.647 562.509 213.904L191.999 382.44C190.106 383.301 187.92 383.221 186.095 382.226Z" stroke="#343438" stroke-width="0.917188" stroke-miterlimit="10" stroke-dasharray="4.88 7.63"/>
</g>
<mask id="mask1_114_8344" style="mask-type:luminance" maskUnits="userSpaceOnUse" x="0" y="0" width="641" height="427">
<path d="M0 0.367828H640.002V426.46H0V0.367828Z" fill="white"/>
</mask>
<g mask="url(#mask1_114_8344)">
<mask id="mask2_114_8344" style="mask-type:luminance" maskUnits="userSpaceOnUse" x="128" y="50" width="367" height="293">
<path d="M128.43 50.5398H494.383V342.689H128.43V50.5398Z" fill="white"/>
</mask>
<g mask="url(#mask2_114_8344)">
<g opacity="0.800003">
<path d="M130.679 202.148L457.582 50.5396L448.496 71.6245C446.542 76.1596 446.624 81.3139 448.722 85.7845L453.749 96.497C454.265 97.5979 454.664 98.7499 454.938 99.9348L462.979 134.658C463.663 137.61 465.111 140.329 467.18 142.544L489.734 166.696C497.725 175.254 495.059 189.112 484.462 194.096L169.703 342.14C166.863 343.475 163.477 342.292 162.088 339.479L137.914 290.489L129.613 269.249C128.753 267.047 128.354 264.69 128.442 262.327L130.679 202.148Z" fill="#33B0FF"/>
</g>
</g>
<path d="M130.679 202.148L457.582 50.5396L448.496 71.6245C446.542 76.1596 446.624 81.3139 448.722 85.7845L453.749 96.497C454.265 97.5979 454.664 98.7499 454.938 99.9348L462.979 134.658C463.663 137.61 465.111 140.329 467.18 142.544L489.734 166.696C497.725 175.254 495.059 189.112 484.462 194.096L169.703 342.14C166.863 343.475 163.477 342.292 162.088 339.479L137.914 290.489L129.613 269.249C128.753 267.047 128.354 264.69 128.442 262.327L130.679 202.148Z" stroke="#242224" stroke-width="0.82265"/>
<path d="M97.8748 244.402L428.924 87.5248" stroke="#FCF8F2" stroke-width="0.913871" stroke-dasharray="5.48 5.48"/>
<path d="M485.775 151.041C473.175 141.613 462.954 118.667 462.954 99.8099C462.954 80.9526 473.175 73.3043 485.775 82.733C498.375 92.1617 508.597 115.107 508.597 133.964C508.597 152.822 498.375 160.47 485.775 151.041ZM525.537 119.577L502.165 69.6451C494.824 53.166 486.574 45.5408 476.914 44.2241C472.014 43.556 467.969 45.2553 464.096 47.1566L461.155 48.6004L445.993 62.5901C436.939 69.3648 436.939 91.3543 445.993 111.679L469.364 164.146C477.086 181.48 479.581 196.442 488.509 194.967C490.05 194.713 503.187 189.725 505.264 188.056L517.303 178.772L528.486 169.814C537.539 163.039 534.59 139.901 525.537 119.577Z" fill="#33B0FF"/>
<path d="M485.775 151.041C473.175 141.613 462.954 118.667 462.954 99.8099C462.954 80.9526 473.175 73.3043 485.775 82.733C498.375 92.1617 508.597 115.107 508.597 133.964C508.597 152.822 498.375 160.47 485.775 151.041ZM525.537 119.577L502.165 69.645C494.824 53.166 486.574 45.5408 476.914 44.2241C472.014 43.556 467.969 45.2553 464.096 47.1566L461.155 48.6004L445.993 62.5901C436.939 69.3648 436.939 91.3543 445.993 111.679L469.364 164.146C477.086 181.48 479.581 196.442 488.509 194.967C490.05 194.713 503.187 189.725 505.264 188.056L517.303 178.772L528.486 169.814C537.539 163.039 534.59 139.901 525.537 119.577Z" stroke="#242224" stroke-width="1.09631"/>
<path d="M475.546 155.693C462.946 146.264 452.725 123.319 452.725 104.461C452.725 85.6038 462.946 77.9556 475.546 87.3843C488.147 96.813 498.368 119.758 498.368 138.616C498.368 157.473 488.147 165.121 475.546 155.693ZM515.308 124.228L491.936 74.2963C482.882 53.9721 468.189 42.9771 459.136 49.7518L435.764 67.2413C426.71 74.0161 426.71 96.0056 435.764 116.33L459.136 168.797C468.189 189.122 482.882 200.116 491.936 193.342L515.308 173.317C524.361 166.542 524.361 144.553 515.308 124.228Z" fill="#33B0FF"/>
<path d="M475.546 155.693C462.946 146.264 452.725 123.319 452.725 104.461C452.725 85.6038 462.946 77.9556 475.546 87.3843C488.147 96.813 498.368 119.758 498.368 138.616C498.368 157.473 488.147 165.121 475.546 155.693ZM515.308 124.228L491.936 74.2963C482.882 53.9721 468.189 42.9771 459.136 49.7518L435.764 67.2414C426.71 74.0161 426.71 96.0056 435.764 116.33L459.136 168.797C468.189 189.122 482.882 200.116 491.936 193.342L515.308 173.317C524.361 166.542 524.361 144.553 515.308 124.228Z" stroke="#242224" stroke-width="1.09631"/>
<path fill-rule="evenodd" clip-rule="evenodd" d="M410.735 39.3702L427.281 40.9268L417.659 54.471L414.797 48.2286L157.034 166.315L159.896 172.558L143.35 171.002L152.972 157.457L155.834 163.7L413.598 45.6132L410.735 39.3702Z" fill="#242224"/>
<path d="M342.356 229.597C347.551 247.142 346.259 262.028 337.112 264.938C335.641 265.406 330.475 267.417 328.912 267.158C320.76 265.81 313.59 254.856 309.231 240.134C306.016 229.275 303.058 219.981 305.695 212.873C306.255 209.576 306.895 208.92 309.344 207.314C311.246 206.067 314.863 203.582 316.387 203.097C325.534 200.188 337.161 212.052 342.356 229.597Z" fill="#ADDCF6"/>
<mask id="mask3_114_8344" style="mask-type:luminance" maskUnits="userSpaceOnUse" x="304" y="202" width="42" height="66">
<mask id="mask4_114_8344" style="mask-type:luminance" maskUnits="userSpaceOnUse" x="304" y="202" width="42" height="66">
<path d="M304.101 202.082H345.969V267.756H304.101V202.082Z" fill="white"/>
</mask>
<g mask="url(#mask4_114_8344)">
<path d="M303.784 200.995H346.514V267.81H303.784V200.995Z" fill="black"/>
<mask id="mask5_114_8344" style="mask-type:luminance" maskUnits="userSpaceOnUse" x="303" y="200" width="44" height="68">
<path d="M303.784 200.995H346.514V267.811H303.784V200.995Z" fill="white"/>
</mask>
<g mask="url(#mask5_114_8344)">
<path d="M342.356 229.597C347.551 247.142 346.259 262.028 337.112 264.938C335.641 265.406 330.474 267.417 328.912 267.158C320.76 265.809 313.59 254.856 309.231 240.134C306.016 229.275 303.057 219.981 305.694 212.873C306.255 209.576 306.895 208.92 309.344 207.314C311.246 206.067 314.862 203.582 316.387 203.097C325.534 200.188 337.161 212.052 342.356 229.597Z" fill="white"/>
</g>
</g>
</mask>
<g mask="url(#mask3_114_8344)">
<mask id="mask6_114_8344" style="mask-type:luminance" maskUnits="userSpaceOnUse" x="304" y="202" width="42" height="66">
<path d="M304.101 202.082H345.969V267.756H304.101V202.082Z" fill="white"/>
</mask>
<g mask="url(#mask6_114_8344)">
<path d="M309.659 207.796C310.62 207.165 311.986 206.241 313.313 205.407C314.661 204.56 315.882 203.862 316.561 203.646L316.211 202.549C315.366 202.818 314.017 203.605 312.7 204.433C311.362 205.274 309.968 206.216 309.027 206.833L309.659 207.796ZM306.261 212.969C306.54 211.336 306.824 210.453 307.285 209.787C307.749 209.114 308.428 208.603 309.659 207.796L309.027 206.833C307.81 207.631 306.945 208.251 306.337 209.133C305.725 210.018 305.409 211.113 305.127 212.777L306.261 212.969ZM329.005 266.591C325.151 265.953 321.437 263.022 318.119 258.329C314.81 253.649 311.951 247.293 309.783 239.97L308.678 240.297C310.869 247.698 313.775 254.18 317.179 258.993C320.574 263.795 324.521 267.015 328.818 267.726L329.005 266.591ZM336.936 264.39C336.558 264.51 335.946 264.728 335.239 264.976C334.524 265.226 333.699 265.51 332.872 265.772C332.043 266.035 331.224 266.271 330.522 266.424C329.792 266.584 329.275 266.635 329.005 266.591L328.818 267.726C329.329 267.811 330.043 267.707 330.768 267.549C331.52 267.384 332.377 267.136 333.22 266.87C334.063 266.602 334.902 266.313 335.619 266.062C336.343 265.809 336.928 265.6 337.286 265.486L336.936 264.39ZM309.783 239.97C308.171 234.527 306.639 229.526 305.834 224.996C305.03 220.467 304.967 216.486 306.234 213.073L305.154 212.673C303.784 216.367 303.881 220.588 304.701 225.198C305.519 229.806 307.075 234.882 308.678 240.297L309.783 239.97ZM316.561 203.646C320.825 202.29 325.8 204.343 330.441 209.08C335.063 213.795 339.227 221.058 341.804 229.76L342.907 229.434C340.289 220.591 336.042 213.15 331.264 208.274C326.506 203.42 321.095 200.996 316.211 202.549L316.561 203.646ZM341.804 229.76C344.388 238.488 345.344 246.511 344.54 252.681C343.736 258.866 341.197 263.034 336.936 264.39L337.286 265.486C342.172 263.932 344.853 259.203 345.683 252.83C346.513 246.444 345.518 238.251 342.907 229.434L341.804 229.76ZM305.694 212.873L306.234 213.073L306.253 213.023L306.261 212.969L305.694 212.873Z" fill="#242224"/>
</g>
</g>
<path d="M332.274 232.797C335.287 241.019 336.625 248.994 336.362 255.236C336.231 258.358 335.7 261.032 334.789 263.082C333.879 265.132 332.6 266.539 330.979 267.177C329.358 267.815 327.501 267.643 325.508 266.736C323.513 265.83 321.403 264.196 319.305 261.952C315.11 257.464 311.002 250.58 307.989 242.358C304.976 234.137 303.638 226.161 303.901 219.919C304.033 216.797 304.563 214.123 305.474 212.073C306.384 210.023 307.663 208.616 309.284 207.979C310.905 207.341 312.762 207.513 314.755 208.419C316.75 209.326 318.86 210.96 320.958 213.204C325.153 217.691 329.261 224.576 332.274 232.797Z" fill="#ADDCF6"/>
<path d="M332.274 232.797C335.287 241.019 336.625 248.994 336.362 255.236C336.231 258.358 335.7 261.032 334.789 263.082C333.879 265.132 332.6 266.539 330.979 267.177C329.358 267.815 327.501 267.643 325.508 266.736C323.513 265.83 321.403 264.196 319.305 261.952C315.11 257.464 311.002 250.58 307.989 242.358C304.976 234.137 303.638 226.161 303.901 219.919C304.033 216.797 304.563 214.123 305.474 212.073C306.384 210.023 307.663 208.616 309.284 207.979C310.905 207.341 312.762 207.513 314.755 208.419C316.75 209.326 318.86 210.96 320.958 213.204C325.153 217.691 329.261 224.576 332.274 232.797Z" stroke="#242224" stroke-width="0.829284"/>
<path d="M307.617 160.099C312.811 177.644 311.52 192.53 302.372 195.44C300.901 195.908 295.735 197.919 294.173 197.661C286.021 196.312 278.851 185.359 274.492 170.636C271.276 159.777 268.318 150.483 270.956 143.375C271.516 140.078 272.157 139.422 274.604 137.816C276.507 136.569 280.123 134.085 281.648 133.6C290.795 130.69 302.422 142.554 307.617 160.099Z" fill="#ADDCF6"/>
<mask id="mask7_114_8344" style="mask-type:luminance" maskUnits="userSpaceOnUse" x="269" y="132" width="43" height="67">
<mask id="mask8_114_8344" style="mask-type:luminance" maskUnits="userSpaceOnUse" x="269" y="132" width="43" height="67">
<path d="M269.362 132.584H311.229V198.259H269.362V132.584Z" fill="white"/>
</mask>
<g mask="url(#mask8_114_8344)">
<path d="M269.045 131.498H311.775V198.313H269.045V131.498Z" fill="black"/>
<mask id="mask9_114_8344" style="mask-type:luminance" maskUnits="userSpaceOnUse" x="269" y="131" width="43" height="68">
<path d="M269.045 131.498H311.775V198.313H269.045V131.498Z" fill="white"/>
</mask>
<g mask="url(#mask9_114_8344)">
<path d="M307.617 160.099C312.811 177.644 311.519 192.53 302.372 195.44C300.901 195.908 295.735 197.919 294.173 197.661C286.021 196.312 278.851 185.359 274.492 170.636C271.276 159.777 268.318 150.483 270.955 143.375C271.516 140.078 272.156 139.422 274.604 137.816C276.507 136.569 280.123 134.085 281.648 133.6C290.794 130.69 302.422 142.554 307.617 160.099Z" fill="white"/>
</g>
</g>
</mask>
<g mask="url(#mask7_114_8344)">
<mask id="mask10_114_8344" style="mask-type:luminance" maskUnits="userSpaceOnUse" x="269" y="132" width="43" height="67">
<path d="M269.362 132.584H311.229V198.259H269.362V132.584Z" fill="white"/>
</mask>
<g mask="url(#mask10_114_8344)">
<path d="M274.92 138.298C275.881 137.667 277.248 136.743 278.574 135.909C279.922 135.062 281.143 134.364 281.822 134.148L281.472 133.051C280.627 133.321 279.278 134.107 277.961 134.935C276.623 135.777 275.229 136.719 274.289 137.335L274.92 138.298ZM271.523 143.471C271.801 141.838 272.085 140.956 272.546 140.288C273.01 139.616 273.689 139.105 274.92 138.298L274.289 137.335C273.071 138.134 272.206 138.753 271.598 139.635C270.986 140.52 270.67 141.615 270.388 143.279L271.523 143.471ZM294.267 197.093C290.412 196.455 286.698 193.524 283.38 188.832C280.071 184.151 277.212 177.795 275.044 170.472L273.939 170.799C276.13 178.2 279.036 184.681 282.44 189.496C285.835 194.297 289.782 197.517 294.079 198.229L294.267 197.093ZM302.197 194.892C301.819 195.012 301.207 195.23 300.5 195.478C299.785 195.728 298.96 196.012 298.133 196.274C297.305 196.537 296.485 196.773 295.783 196.926C295.054 197.086 294.536 197.137 294.267 197.093L294.079 198.229C294.59 198.313 295.304 198.21 296.03 198.051C296.781 197.886 297.638 197.638 298.481 197.371C299.324 197.104 300.163 196.815 300.88 196.564C301.604 196.311 302.189 196.102 302.547 195.988L302.197 194.892ZM275.044 170.472C273.432 165.029 271.9 160.028 271.095 155.498C270.291 150.969 270.229 146.989 271.495 143.575L270.415 143.175C269.045 146.869 269.143 151.09 269.962 155.7C270.78 160.308 272.336 165.384 273.939 170.799L275.044 170.472ZM281.822 134.148C286.086 132.792 291.061 134.845 295.702 139.581C300.324 144.297 304.488 151.56 307.065 160.262L308.168 159.935C305.55 151.093 301.303 143.652 296.525 138.776C291.768 133.922 286.356 131.498 281.472 133.051L281.822 134.148ZM307.065 160.262C309.649 168.99 310.605 177.012 309.802 183.184C308.997 189.368 306.458 193.536 302.197 194.892L302.547 195.988C307.433 194.434 310.114 189.705 310.944 183.332C311.774 176.946 310.779 168.752 308.168 159.935L307.065 160.262ZM270.955 143.375L271.495 143.575L271.514 143.524L271.523 143.471L270.955 143.375Z" fill="#242224"/>
</g>
</g>
<path d="M297.535 163.299C300.548 171.52 301.886 179.496 301.623 185.738C301.492 188.86 300.96 191.534 300.05 193.585C299.139 195.634 297.861 197.041 296.24 197.679C294.619 198.317 292.762 198.145 290.769 197.239C288.774 196.332 286.664 194.698 284.566 192.454C280.371 187.967 276.262 181.081 273.25 172.86C270.236 164.639 268.898 156.663 269.162 150.421C269.293 147.299 269.825 144.626 270.736 142.575C271.646 140.526 272.924 139.119 274.545 138.48C276.166 137.842 278.023 138.015 280.017 138.921C282.011 139.828 284.121 141.462 286.219 143.706C290.414 148.193 294.522 155.078 297.535 163.299Z" fill="#ADDCF6"/>
<path d="M297.535 163.299C300.548 171.52 301.886 179.496 301.623 185.738C301.492 188.86 300.96 191.534 300.05 193.585C299.139 195.634 297.861 197.041 296.24 197.679C294.619 198.317 292.762 198.145 290.769 197.239C288.774 196.332 286.664 194.698 284.566 192.454C280.371 187.967 276.262 181.081 273.25 172.86C270.236 164.639 268.898 156.663 269.162 150.421C269.293 147.299 269.825 144.626 270.736 142.575C271.646 140.526 272.924 139.119 274.545 138.48C276.166 137.842 278.023 138.015 280.017 138.921C282.011 139.828 284.121 141.462 286.219 143.706C290.414 148.193 294.522 155.078 297.535 163.299Z" stroke="#242224" stroke-width="0.829284"/>
<path d="M376.263 203.403C381.459 220.948 380.166 235.834 371.019 238.744C369.548 239.212 364.382 241.223 362.82 240.965C354.668 239.616 347.498 228.663 343.138 213.94C339.923 203.081 336.965 193.787 339.602 186.679C340.162 183.382 340.803 182.726 343.251 181.121C345.154 179.873 348.77 177.389 350.294 176.904C359.441 173.994 371.068 185.859 376.263 203.403Z" fill="#ADDCF6"/>
<mask id="mask11_114_8344" style="mask-type:luminance" maskUnits="userSpaceOnUse" x="338" y="175" width="42" height="67">
<mask id="mask12_114_8344" style="mask-type:luminance" maskUnits="userSpaceOnUse" x="338" y="175" width="42" height="67">
<path d="M338.009 175.888H379.877V241.563H338.009V175.888Z" fill="white"/>
</mask>
<g mask="url(#mask12_114_8344)">
<path d="M337.691 174.802H380.422V241.617H337.691V174.802Z" fill="black"/>
<mask id="mask13_114_8344" style="mask-type:luminance" maskUnits="userSpaceOnUse" x="337" y="174" width="44" height="68">
<path d="M337.691 174.802H380.422V241.617H337.691V174.802Z" fill="white"/>
</mask>
<g mask="url(#mask13_114_8344)">
<path d="M376.263 203.404C381.459 220.948 380.166 235.835 371.02 238.745C369.548 239.212 364.382 241.224 362.82 240.965C354.668 239.616 347.498 228.663 343.138 213.94C339.923 203.081 336.965 193.787 339.602 186.679C340.162 183.382 340.803 182.727 343.251 181.121C345.154 179.874 348.77 177.389 350.295 176.904C359.441 173.994 371.069 185.859 376.263 203.404Z" fill="white"/>
</g>
</g>
</mask>
<g mask="url(#mask11_114_8344)">
<mask id="mask14_114_8344" style="mask-type:luminance" maskUnits="userSpaceOnUse" x="338" y="175" width="42" height="67">
<path d="M338.009 175.888H379.877V241.563H338.009V175.888Z" fill="white"/>
</mask>
<g mask="url(#mask14_114_8344)">
<path d="M343.567 181.602C344.528 180.972 345.894 180.048 347.221 179.214C348.569 178.367 349.79 177.669 350.468 177.452L350.12 176.356C349.274 176.625 347.925 177.411 346.608 178.239C345.269 179.081 343.877 180.023 342.935 180.64L343.567 181.602ZM340.17 186.776C340.447 185.143 340.731 184.26 341.193 183.593C341.657 182.921 342.336 182.41 343.567 181.602L342.935 180.64C341.718 181.438 340.853 182.058 340.244 182.939C339.633 183.825 339.317 184.919 339.034 186.583L340.17 186.776ZM362.914 240.397C359.058 239.759 355.345 236.829 352.027 232.136C348.718 227.456 345.858 221.099 343.69 213.777L342.586 214.104C344.778 221.504 347.683 227.986 351.087 232.8C354.481 237.602 358.429 240.822 362.725 241.533L362.914 240.397ZM370.844 238.196C370.466 238.317 369.854 238.535 369.147 238.782C368.432 239.032 367.606 239.317 366.779 239.579C365.951 239.841 365.132 240.077 364.429 240.231C363.701 240.391 363.183 240.442 362.914 240.397L362.725 241.533C363.237 241.617 363.951 241.514 364.676 241.355C365.428 241.19 366.285 240.942 367.127 240.676C367.971 240.409 368.81 240.119 369.527 239.869C370.251 239.615 370.836 239.407 371.193 239.293L370.844 238.196ZM343.69 213.777C342.078 208.334 340.547 203.332 339.742 198.802C338.938 194.274 338.875 190.293 340.142 186.88L339.062 186.479C337.691 190.174 337.79 194.394 338.608 199.004C339.427 203.613 340.982 208.689 342.586 214.104L343.69 213.777ZM350.468 177.452C354.732 176.096 359.708 178.15 364.349 182.886C368.97 187.601 373.134 194.865 375.711 203.567L376.815 203.24C374.197 194.397 369.95 186.956 365.172 182.081C360.414 177.226 355.003 174.802 350.12 176.356L350.468 177.452ZM375.711 203.567C378.295 212.295 379.252 220.317 378.449 226.488C377.644 232.672 375.105 236.841 370.844 238.196L371.193 239.293C376.08 237.739 378.761 233.009 379.59 226.637C380.421 220.25 379.426 212.057 376.815 203.24L375.711 203.567ZM339.602 186.68L340.142 186.88L340.16 186.829L340.17 186.776L339.602 186.68Z" fill="#242224"/>
</g>
</g>
<path d="M366.182 206.604C369.195 214.825 370.533 222.801 370.27 229.043C370.138 232.165 369.607 234.838 368.696 236.889C367.786 238.938 366.507 240.345 364.887 240.983C363.266 241.621 361.409 241.449 359.415 240.543C357.42 239.636 355.311 238.002 353.212 235.758C349.017 231.271 344.91 224.386 341.896 216.165C338.884 207.943 337.546 199.968 337.809 193.726C337.94 190.603 338.471 187.93 339.382 185.879C340.292 183.83 341.571 182.423 343.192 181.785C344.812 181.147 346.67 181.319 348.663 182.225C350.658 183.132 352.768 184.766 354.866 187.01C359.061 191.497 363.169 198.382 366.182 206.604Z" fill="#ADDCF6"/>
<path d="M366.182 206.604C369.195 214.825 370.533 222.801 370.27 229.043C370.138 232.165 369.607 234.838 368.696 236.889C367.786 238.938 366.507 240.345 364.887 240.983C363.266 241.621 361.409 241.449 359.415 240.543C357.42 239.636 355.311 238.002 353.212 235.758C349.017 231.271 344.91 224.386 341.896 216.165C338.884 207.943 337.546 199.968 337.809 193.726C337.94 190.603 338.471 187.93 339.382 185.879C340.292 183.83 341.571 182.423 343.192 181.785C344.812 181.147 346.67 181.319 348.663 182.225C350.658 183.132 352.768 184.766 354.866 187.01C359.061 191.497 363.169 198.382 366.182 206.604Z" stroke="#242224" stroke-width="0.829284"/>
<path d="M343.965 141.156C349.16 158.701 347.868 173.587 338.72 176.497C337.25 176.965 332.084 178.976 330.521 178.717C322.369 177.369 315.199 166.416 310.84 151.693C307.625 140.833 304.667 131.539 307.303 124.432C307.864 121.134 308.504 120.479 310.953 118.873C312.855 117.626 316.472 115.141 317.995 114.656C327.143 111.747 338.769 123.611 343.965 141.156Z" fill="#ADDCF6"/>
<mask id="mask15_114_8344" style="mask-type:luminance" maskUnits="userSpaceOnUse" x="305" y="113" width="43" height="67">
<mask id="mask16_114_8344" style="mask-type:luminance" maskUnits="userSpaceOnUse" x="305" y="113" width="43" height="67">
<path d="M305.711 113.64H347.578V179.315H305.711V113.64Z" fill="white"/>
</mask>
<g mask="url(#mask16_114_8344)">
<path d="M305.394 112.554H348.124V179.369H305.394V112.554Z" fill="black"/>
<mask id="mask17_114_8344" style="mask-type:luminance" maskUnits="userSpaceOnUse" x="305" y="112" width="44" height="68">
<path d="M305.394 112.554H348.124V179.37H305.394V112.554Z" fill="white"/>
</mask>
<g mask="url(#mask17_114_8344)">
<path d="M343.965 141.156C349.16 158.701 347.868 173.587 338.721 176.497C337.25 176.965 332.084 178.976 330.521 178.717C322.369 177.369 315.2 166.416 310.84 151.693C307.625 140.834 304.667 131.54 307.303 124.432C307.865 121.134 308.504 120.479 310.953 118.873C312.855 117.626 316.472 115.141 317.996 114.657C327.143 111.747 338.77 123.611 343.965 141.156Z" fill="white"/>
</g>
</g>
</mask>
<g mask="url(#mask15_114_8344)">
<mask id="mask18_114_8344" style="mask-type:luminance" maskUnits="userSpaceOnUse" x="305" y="113" width="43" height="67">
<path d="M305.711 113.64H347.578V179.315H305.711V113.64Z" fill="white"/>
</mask>
<g mask="url(#mask18_114_8344)">
<path d="M311.268 119.355C312.23 118.725 313.596 117.8 314.922 116.966C316.27 116.119 317.491 115.421 318.171 115.205L317.821 114.108C316.976 114.377 315.626 115.164 314.309 115.992C312.971 116.834 311.578 117.775 310.637 118.392L311.268 119.355ZM307.871 124.528C308.149 122.895 308.434 122.013 308.894 121.345C309.358 120.673 310.037 120.162 311.268 119.355L310.637 118.392C309.42 119.191 308.555 119.81 307.947 120.691C307.335 121.578 307.019 122.672 306.736 124.336L307.871 124.528ZM330.615 178.15C326.76 177.512 323.047 174.581 319.728 169.889C316.419 165.208 313.56 158.852 311.392 151.53L310.288 151.856C312.479 159.257 315.385 165.738 318.788 170.553C322.183 175.354 326.131 178.574 330.427 179.285L330.615 178.15ZM338.546 175.949C338.168 176.069 337.556 176.287 336.848 176.534C336.134 176.785 335.308 177.07 334.482 177.331C333.653 177.593 332.833 177.829 332.131 177.983C331.402 178.143 330.885 178.195 330.615 178.15L330.427 179.285C330.939 179.37 331.653 179.267 332.378 179.108C333.13 178.943 333.987 178.695 334.829 178.428C335.673 178.161 336.512 177.872 337.229 177.621C337.953 177.368 338.538 177.159 338.895 177.045L338.546 175.949ZM311.392 151.53C309.78 146.086 308.249 141.085 307.444 136.555C306.64 132.026 306.577 128.045 307.843 124.632L306.764 124.232C305.393 127.926 305.491 132.146 306.31 136.756C307.129 141.365 308.685 146.441 310.288 151.856L311.392 151.53ZM318.171 115.205C322.434 113.849 327.41 115.903 332.051 120.638C336.672 125.354 340.836 132.617 343.413 141.319L344.517 140.993C341.898 132.15 337.652 124.709 332.874 119.833C328.116 114.978 322.705 112.555 317.821 114.108L318.171 115.205ZM343.413 141.319C345.997 150.047 346.953 158.069 346.15 164.241C345.345 170.424 342.807 174.593 338.546 175.949L338.895 177.045C343.782 175.491 346.463 170.762 347.292 164.389C348.123 158.003 347.128 149.81 344.517 140.993L343.413 141.319ZM307.303 124.432L307.843 124.632L307.862 124.581L307.871 124.528L307.303 124.432Z" fill="#242224"/>
</g>
</g>
<path d="M333.883 144.356C336.897 152.577 338.235 160.553 337.972 166.795C337.84 169.917 337.309 172.591 336.398 174.641C335.488 176.691 334.209 178.098 332.588 178.736C330.968 179.374 329.11 179.201 327.117 178.295C325.122 177.388 323.012 175.754 320.914 173.511C316.719 169.023 312.611 162.138 309.598 153.917C306.585 145.696 305.247 137.72 305.51 131.478C305.641 128.356 306.173 125.682 307.084 123.632C307.994 121.582 309.272 120.175 310.894 119.537C312.514 118.899 314.372 119.071 316.365 119.978C318.359 120.884 320.469 122.518 322.567 124.762C326.763 129.25 330.871 136.135 333.883 144.356Z" fill="#ADDCF6"/>
<path d="M333.883 144.356C336.897 152.577 338.235 160.553 337.972 166.795C337.84 169.917 337.309 172.591 336.398 174.641C335.488 176.691 334.209 178.098 332.588 178.736C330.968 179.374 329.11 179.201 327.117 178.295C325.122 177.388 323.012 175.754 320.914 173.511C316.719 169.023 312.611 162.138 309.598 153.917C306.585 145.696 305.247 137.72 305.51 131.478C305.641 128.356 306.173 125.682 307.084 123.632C307.994 121.582 309.272 120.175 310.894 119.537C312.514 118.899 314.372 119.071 316.365 119.978C318.359 120.884 320.469 122.518 322.567 124.762C326.763 129.25 330.871 136.135 333.883 144.356Z" stroke="#242224" stroke-width="0.829284"/>
<path d="M217.336 210.522C217.336 218.035 219.804 227.092 223.793 235.21C227.783 243.329 233.31 250.541 239.435 254.316C245.56 258.09 251.087 257.69 255.076 254.489C259.066 251.287 261.534 245.272 261.534 237.758C261.534 222.728 251.651 204.428 239.435 196.9C227.219 189.372 217.336 195.491 217.336 210.522ZM201.442 226.642L201.44 226.637L201.439 226.631C200.797 224.65 200.398 222.125 200.169 219.308C199.94 216.498 199.881 213.424 199.904 210.354C199.928 207.285 200.034 204.227 200.134 201.446C200.14 201.293 200.145 201.14 200.151 200.989C200.245 198.393 200.329 196.054 200.329 194.207C200.329 190.18 199.192 187.137 198.247 184.612C198.125 184.283 198.005 183.963 197.892 183.651C197.401 182.298 197.035 181.116 196.987 179.966C196.938 178.82 197.203 177.667 198.037 176.42C210.119 162.969 225.055 161.201 239.435 170.062C261.022 183.365 278.541 215.747 278.542 242.407C278.542 250.969 276.856 255.609 273.542 262.947C267.99 273.925 260.342 284.739 254.079 292.812C250.948 296.848 248.164 300.198 246.163 302.538C245.162 303.708 244.357 304.626 243.802 305.252C243.525 305.564 243.311 305.804 243.165 305.965C243.092 306.045 243.037 306.107 243 306.148L242.961 306.191C238.368 308.217 229.205 312.937 226.977 314.115C223.768 305.939 218.555 287.991 213.567 270.147C211.603 263.126 209.676 256.123 207.922 249.749C205.149 239.676 202.809 231.172 201.442 226.642Z" fill="#FF6721"/>
<path d="M217.336 210.522C217.336 218.035 219.804 227.092 223.793 235.21C227.783 243.329 233.31 250.541 239.435 254.316C245.56 258.09 251.087 257.69 255.076 254.489C259.066 251.287 261.534 245.272 261.534 237.758C261.534 222.728 251.651 204.428 239.435 196.9C227.219 189.372 217.336 195.491 217.336 210.522ZM201.442 226.642L201.44 226.637L201.439 226.631C200.797 224.65 200.398 222.125 200.169 219.308C199.94 216.498 199.881 213.424 199.904 210.354C199.928 207.285 200.034 204.227 200.134 201.446C200.14 201.293 200.145 201.14 200.151 200.989C200.245 198.393 200.329 196.054 200.329 194.207C200.329 190.18 199.192 187.137 198.247 184.612C198.125 184.283 198.005 183.963 197.892 183.651C197.401 182.298 197.035 181.116 196.987 179.966C196.938 178.82 197.203 177.667 198.037 176.42C210.119 162.969 225.055 161.201 239.435 170.062C261.022 183.365 278.541 215.747 278.542 242.407C278.542 250.969 276.856 255.609 273.542 262.947C267.99 273.925 260.342 284.739 254.079 292.812C250.948 296.848 248.164 300.198 246.163 302.538C245.162 303.708 244.357 304.626 243.802 305.252C243.525 305.564 243.311 305.804 243.165 305.965C243.092 306.045 243.037 306.107 243 306.148L242.961 306.191C238.368 308.217 229.205 312.937 226.977 314.115C223.768 305.939 218.555 287.991 213.567 270.147C211.603 263.126 209.676 256.123 207.922 249.749C205.149 239.676 202.809 231.172 201.442 226.642Z" stroke="#242224" stroke-width="0.829284"/>
<path d="M204.616 217.344C204.616 224.813 207.085 233.829 211.073 241.917C215.063 250.006 220.59 257.2 226.715 260.973C232.839 264.748 238.367 264.367 242.356 261.195C246.345 258.023 248.813 252.049 248.813 244.581C248.813 229.639 238.929 211.414 226.715 203.887C214.5 196.36 204.616 202.403 204.616 217.344ZM191.719 224.982L191.717 224.976L191.715 224.971C189.088 216.908 187.609 208.726 187.609 201.029C187.609 174.537 205.127 163.877 226.715 177.18C248.303 190.484 265.821 222.735 265.822 249.23C265.822 257.75 264.009 264.634 260.831 269.609L260.827 269.614L260.824 269.621C255.274 280.509 246.705 291.744 239.52 300.261C235.929 304.518 232.684 308.094 230.338 310.606C229.165 311.862 228.216 312.852 227.561 313.528C227.232 313.866 226.979 314.124 226.806 314.299C226.778 314.328 226.752 314.355 226.728 314.378C226.704 314.403 226.682 314.425 226.662 314.446C226.62 314.352 226.568 314.234 226.505 314.093C226.324 313.688 226.058 313.088 225.715 312.312C225.03 310.759 224.038 308.502 222.814 305.681C220.368 300.04 216.993 292.149 213.281 283.149C205.857 265.143 197.094 242.715 191.719 224.982Z" fill="#FF6721"/>
<path d="M204.616 217.344C204.616 224.813 207.085 233.829 211.073 241.917C215.063 250.006 220.59 257.2 226.715 260.973C232.839 264.748 238.367 264.367 242.356 261.195C246.345 258.023 248.813 252.049 248.813 244.581C248.813 229.639 238.929 211.414 226.715 203.887C214.5 196.36 204.616 202.403 204.616 217.344ZM191.719 224.982L191.717 224.976L191.715 224.971C189.088 216.908 187.609 208.726 187.609 201.029C187.609 174.537 205.127 163.877 226.715 177.18C248.303 190.484 265.821 222.735 265.822 249.23C265.822 257.75 264.009 264.634 260.831 269.609L260.827 269.614L260.824 269.621C255.274 280.509 246.705 291.744 239.52 300.261C235.929 304.518 232.684 308.094 230.338 310.606C229.165 311.862 228.216 312.852 227.561 313.528C227.232 313.866 226.979 314.124 226.806 314.299C226.778 314.328 226.752 314.355 226.728 314.378C226.704 314.403 226.682 314.425 226.662 314.446C226.62 314.352 226.568 314.234 226.505 314.093C226.324 313.688 226.058 313.088 225.715 312.312C225.03 310.759 224.038 308.502 222.814 305.681C220.368 300.04 216.993 292.149 213.281 283.149C205.857 265.143 197.094 242.715 191.719 224.982Z" stroke="#242224" stroke-width="0.829284"/>
<path fill-rule="evenodd" clip-rule="evenodd" d="M414.492 116.874C411.922 116.412 409.497 116.589 407.368 117.499C404.994 118.513 403.234 120.336 402.093 122.74L403.386 123.252L401.369 124.6C399.325 131.121 400.974 140.775 406.41 150.296C414.621 164.673 428.361 173.3 437.101 169.564C440.486 168.117 442.624 165.028 443.497 160.951L421.023 137.33L414.492 116.874ZM408.722 98.8L403.921 83.7613L404.004 82.6576L419.823 75.9761C421.103 75.2562 423.399 76.7846 424.152 79.2337L439.701 129.77C439.968 130.64 440.483 131.488 441.133 132.129L474.847 165.384C476.391 166.906 476.871 169.161 476.155 170.266C475.884 170.76 475.46 171.16 474.94 171.401L461.531 177.626L459.111 177.362L456.577 174.699L443.036 177.463C442.584 177.555 442.228 177.841 442.015 178.284L424.421 214.835C423.455 216.843 420.259 215.099 419.438 212.115L410.708 180.384L400.66 178.526L388.317 161.018L380.888 139.541L381.82 135.12L368.789 121.481C366.806 119.405 366.745 116.231 368.686 116.06L401.101 113.201C401.64 113.153 402.065 112.851 402.305 112.343L408.722 98.8Z" fill="#ADDCF6"/>
<path d="M414.352 116.918L420.883 137.374L421.163 137.285L414.632 116.829L414.352 116.918ZM420.917 137.431L443.391 161.052L443.603 160.85L421.13 137.229L420.917 137.431ZM443.353 160.92C442.488 164.964 440.373 168.005 437.044 169.429L437.159 169.698C440.599 168.228 442.761 165.092 443.64 160.982L443.353 160.92ZM437.044 169.429C432.738 171.269 427.172 170.074 421.636 166.598C416.105 163.125 410.633 157.393 406.538 150.222L406.283 150.368C410.399 157.575 415.903 163.345 421.48 166.846C427.051 170.344 432.725 171.594 437.159 169.698L437.044 169.429ZM406.538 150.222C401.112 140.722 399.482 131.111 401.509 124.643L401.229 124.556C399.169 131.13 400.835 140.828 406.283 150.368L406.538 150.222ZM401.451 124.722L403.468 123.374L403.305 123.13L401.288 124.478L401.451 124.722ZM403.44 123.115L402.147 122.603L402.039 122.876L403.332 123.388L403.44 123.115ZM402.226 122.803C403.353 120.426 405.089 118.632 407.426 117.634L407.311 117.364C404.9 118.394 403.115 120.245 401.961 122.677L402.226 122.803ZM407.426 117.634C409.523 116.737 411.918 116.561 414.466 117.018L414.518 116.729C411.926 116.264 409.471 116.44 407.311 117.364L407.426 117.634ZM402.439 112.406L408.855 98.8627L408.589 98.7372L402.173 112.28L402.439 112.406ZM401.115 113.346C401.708 113.294 402.177 112.958 402.439 112.406L402.173 112.28C401.954 112.743 401.574 113.011 401.089 113.054L401.115 113.346ZM368.698 116.206L401.115 113.346L401.089 113.054L368.673 115.914L368.698 116.206ZM368.895 121.379C367.927 120.366 367.432 119.088 367.413 118.053C367.403 117.536 367.512 117.091 367.727 116.769C367.938 116.451 368.258 116.245 368.698 116.206L368.673 115.914C368.143 115.96 367.743 116.215 367.483 116.606C367.225 116.992 367.109 117.502 367.119 118.059C367.141 119.173 367.669 120.52 368.683 121.582L368.895 121.379ZM381.927 135.019L368.895 121.379L368.683 121.582L381.714 135.221L381.927 135.019ZM381.031 139.571L381.964 135.15L381.677 135.089L380.744 139.51L381.031 139.571ZM388.456 160.97L381.026 139.493L380.749 139.589L388.178 161.066L388.456 160.97ZM400.78 178.441L388.437 160.934L388.197 161.103L400.54 178.61L400.78 178.441ZM410.735 180.24L400.687 178.382L400.634 178.67L410.682 180.528L410.735 180.24ZM419.58 212.076L410.85 180.345L410.566 180.423L419.297 212.154L419.58 212.076ZM424.289 214.771C424.067 215.233 423.725 215.468 423.327 215.532C422.921 215.598 422.439 215.488 421.946 215.218C420.96 214.68 419.98 213.531 419.58 212.076L419.297 212.154C419.718 213.683 420.747 214.898 421.805 215.476C422.335 215.765 422.883 215.901 423.374 215.822C423.872 215.742 424.293 215.442 424.554 214.899L424.289 214.771ZM441.883 178.22L424.289 214.771L424.554 214.899L442.148 178.347L441.883 178.22ZM443.007 177.319C442.507 177.421 442.115 177.739 441.883 178.22L442.148 178.347C442.343 177.943 442.662 177.689 443.066 177.607L443.007 177.319ZM456.548 174.555L443.007 177.319L443.066 177.607L456.607 174.842L456.548 174.555ZM456.471 174.8L459.004 177.463L459.217 177.261L456.684 174.598L456.471 174.8ZM459.095 177.508L461.515 177.771L461.547 177.48L459.127 177.216L459.095 177.508ZM461.593 177.759L475.002 171.533L474.879 171.268L461.469 177.493L461.593 177.759ZM475.002 171.533C475.551 171.279 475.998 170.857 476.284 170.337L476.026 170.196C475.77 170.662 475.37 171.04 474.879 171.268L475.002 171.533ZM474.744 165.488C475.496 166.23 475.989 167.15 476.206 168.017C476.425 168.889 476.359 169.682 476.032 170.186L476.279 170.346C476.667 169.746 476.72 168.858 476.491 167.946C476.261 167.028 475.741 166.06 474.95 165.28L474.744 165.488ZM441.03 132.234L474.744 165.488L474.95 165.28L441.236 132.025L441.03 132.234ZM439.56 129.813C439.835 130.707 440.363 131.576 441.03 132.234L441.236 132.025C440.604 131.401 440.102 130.574 439.841 129.727L439.56 129.813ZM424.013 79.2768L439.56 129.813L439.841 129.727L424.293 79.1905L424.013 79.2768ZM419.895 76.1038C420.461 75.7861 421.289 75.9501 422.1 76.5354C422.902 77.1148 423.645 78.0827 424.013 79.2768L424.293 79.1905C423.907 77.9354 423.126 76.9146 422.271 76.2977C421.425 75.6866 420.466 75.446 419.751 75.8483L419.895 76.1038ZM419.766 75.8408L403.947 82.5229L404.061 82.7928L419.88 76.1113L419.766 75.8408ZM403.858 82.6466L403.774 83.7503L404.067 83.7728L404.15 82.6685L403.858 82.6466ZM403.781 83.8061L408.582 98.8448L408.862 98.7556L404.06 83.7169L403.781 83.8061ZM421.023 137.33L420.883 137.374L420.894 137.407L420.917 137.431L421.023 137.33ZM443.497 160.951L443.64 160.982L443.657 160.906L443.603 160.85L443.497 160.951ZM401.369 124.6L401.288 124.478L401.245 124.506L401.229 124.556L401.369 124.6ZM403.386 123.252L403.468 123.374L403.701 123.218L403.44 123.115L403.386 123.252ZM402.093 122.74L401.961 122.677L401.893 122.819L402.039 122.876L402.093 122.74ZM414.492 116.874L414.632 116.829L414.605 116.745L414.518 116.729L414.492 116.874ZM381.821 135.12L381.964 135.15L381.98 135.074L381.927 135.019L381.821 135.12ZM380.888 139.541L380.744 139.51L380.736 139.55L380.749 139.589L380.888 139.541ZM388.317 161.018L388.178 161.066L388.185 161.086L388.197 161.103L388.317 161.018ZM400.66 178.526L400.54 178.61L400.575 178.659L400.634 178.67L400.66 178.526ZM410.708 180.384L410.85 180.345L410.825 180.257L410.735 180.24L410.708 180.384ZM456.577 174.699L456.684 174.598L456.627 174.539L456.548 174.555L456.577 174.699ZM459.111 177.362L459.004 177.463L459.042 177.502L459.095 177.508L459.111 177.362ZM461.531 177.626L461.515 177.771L461.555 177.776L461.593 177.759L461.531 177.626ZM476.155 170.266L476.032 170.186L476.029 170.191L476.026 170.196L476.155 170.266ZM419.823 75.976L419.88 76.1113L419.888 76.1078L419.895 76.1038L419.823 75.976ZM404.004 82.6575L403.947 82.5229L403.865 82.5574L403.858 82.6466L404.004 82.6575ZM408.722 98.8L408.855 98.8627L408.88 98.8103L408.862 98.7556L408.722 98.8ZM403.921 83.7612L403.774 83.7503L403.772 83.7791L403.781 83.8061L403.921 83.7612Z" fill="#242224"/>
<path d="M424.175 215.853L440.139 181.827L424.285 181.532L407.219 198.594L412.061 220.294L424.175 215.853Z" fill="#ADDCF6"/>
<path d="M424.175 215.853L440.139 181.827L424.285 181.532L407.219 198.594L412.061 220.294L424.175 215.853Z" stroke="#242224" stroke-width="0.422935"/>
<path d="M366.331 116.361L351.365 123.263L383.073 122.615L398.041 113.126L366.331 116.361Z" fill="#ADDCF6"/>
<path d="M366.331 116.361L351.365 123.263L383.073 122.615L398.041 113.126L366.331 116.361Z" stroke="#242224" stroke-width="0.422935"/>
<path fill-rule="evenodd" clip-rule="evenodd" d="M420.58 176.232C429.32 172.497 429.749 157.813 421.538 143.436C413.328 129.058 399.587 120.432 390.847 124.167C382.107 127.903 381.678 142.586 389.889 156.964C398.099 171.341 411.84 179.968 420.58 176.232ZM407.631 85.902C406.73 82.973 403.622 81.3612 402.686 83.3372L385.784 119.012C385.544 119.519 385.119 119.822 384.581 119.869L352.164 122.729C350.224 122.9 350.285 126.074 352.268 128.15L387.637 165.168C388.121 165.674 388.524 166.296 388.794 166.953L409.356 216.901C410.526 219.742 413.512 220.899 414.222 218.785L425.514 185.189C425.712 184.599 426.127 184.222 426.682 184.13L460.877 178.452C462.781 178.136 462.543 174.838 460.475 172.871L424.663 138.81C423.982 138.163 423.44 137.288 423.163 136.386L407.631 85.902Z" fill="#ADDCF6"/>
<mask id="mask19_114_8344" style="mask-type:luminance" maskUnits="userSpaceOnUse" x="350" y="81" width="113" height="140">
<mask id="mask20_114_8344" style="mask-type:luminance" maskUnits="userSpaceOnUse" x="350" y="81" width="113" height="140">
<path d="M350.157 81.8792H462.762V220.457H350.157V81.8792Z" fill="white"/>
</mask>
<g mask="url(#mask20_114_8344)">
<path d="M350.146 81.8039H462.797V220.54H350.146V81.8039Z" fill="black"/>
<mask id="mask21_114_8344" style="mask-type:luminance" maskUnits="userSpaceOnUse" x="350" y="81" width="113" height="140">
<path d="M350.146 81.8039H462.797V220.54H350.146V81.8039Z" fill="white"/>
</mask>
<g mask="url(#mask21_114_8344)">
<path fill-rule="evenodd" clip-rule="evenodd" d="M420.58 176.232C429.32 172.497 429.749 157.813 421.539 143.436C413.327 129.058 399.587 120.432 390.847 124.168C382.108 127.903 381.679 142.586 389.889 156.964C398.099 171.341 411.84 179.968 420.58 176.232ZM407.632 85.9021C406.73 82.9731 403.623 81.3613 402.687 83.3374L385.785 119.012C385.545 119.519 385.119 119.822 384.581 119.869L352.165 122.729C350.224 122.9 350.285 126.074 352.268 128.15L387.637 165.168C388.121 165.674 388.524 166.296 388.795 166.953L409.356 216.901C410.525 219.742 413.512 220.899 414.223 218.785L425.513 185.19C425.713 184.599 426.128 184.222 426.683 184.13L460.878 178.452C462.782 178.136 462.544 174.838 460.476 172.871L424.663 138.81C423.982 138.163 423.441 137.288 423.163 136.387L407.632 85.9021Z" fill="white"/>
</g>
</g>
</mask>
<g mask="url(#mask19_114_8344)">
<mask id="mask22_114_8344" style="mask-type:luminance" maskUnits="userSpaceOnUse" x="350" y="81" width="113" height="140">
<path d="M350.157 81.8792H462.762V220.457H350.157V81.8792Z" fill="white"/>
</mask>
<g mask="url(#mask22_114_8344)">
<path d="M420.349 175.693C416.237 177.451 410.831 176.336 405.348 172.894C399.886 169.465 394.463 163.789 390.399 156.673L389.379 157.255C393.527 164.517 399.078 170.343 404.724 173.887C410.349 177.419 416.183 178.75 420.811 176.772L420.349 175.693ZM390.399 156.673C386.334 149.555 384.429 142.396 384.598 136.592C384.768 130.78 387.001 126.449 391.078 124.707L390.616 123.628C385.954 125.621 383.602 130.5 383.425 136.558C383.248 142.624 385.234 149.995 389.379 157.255L390.399 156.673ZM391.078 124.707C395.19 122.949 400.596 124.063 406.079 127.506C411.541 130.935 416.965 136.611 421.028 143.726L422.048 143.145C417.901 135.884 412.349 130.057 406.703 126.513C401.078 122.981 395.244 121.65 390.616 123.628L391.078 124.707ZM421.028 143.726C425.093 150.845 426.998 158.004 426.828 163.808C426.659 169.62 424.426 173.951 420.349 175.693L420.811 176.772C425.473 174.779 427.825 169.899 428.002 163.842C428.179 157.775 426.193 150.404 422.048 143.145L421.028 143.726ZM407.071 86.0748L422.602 136.559L423.724 136.214L408.192 85.7301L407.071 86.0748ZM422.602 136.559C422.909 137.556 423.504 138.519 424.259 139.236L425.067 138.386C424.46 137.808 423.972 137.019 423.724 136.214L422.602 136.559ZM424.259 139.236L460.071 173.296L460.88 172.446L425.067 138.386L424.259 139.236ZM460.071 173.296C461.003 174.182 461.511 175.363 461.58 176.323C461.615 176.802 461.537 177.183 461.395 177.439C461.263 177.676 461.07 177.825 460.781 177.873L460.973 179.031C461.637 178.921 462.127 178.539 462.422 178.007C462.706 177.495 462.797 176.869 462.751 176.239C462.66 174.978 462.016 173.526 460.88 172.446L460.071 173.296ZM460.781 177.873L426.586 183.551L426.778 184.709L460.973 179.031L460.781 177.873ZM426.586 183.551C425.79 183.684 425.215 184.234 424.957 185.003L426.07 185.376C426.208 184.964 426.465 184.761 426.778 184.709L426.586 183.551ZM424.957 185.003L413.665 218.598L414.778 218.972L426.07 185.376L424.957 185.003ZM413.665 218.598C413.536 218.983 413.333 219.156 413.126 219.231C412.9 219.313 412.575 219.31 412.173 219.154C411.365 218.842 410.433 217.975 409.899 216.677L408.813 217.124C409.448 218.668 410.593 219.8 411.749 220.248C412.329 220.473 412.957 220.54 413.527 220.333C414.116 220.12 414.552 219.644 414.778 218.972L413.665 218.598ZM409.899 216.677L389.336 166.73L388.251 167.176L408.813 217.124L409.899 216.677ZM389.336 166.73C389.039 166.006 388.596 165.322 388.061 164.762L387.212 165.573C387.644 166.026 388.008 166.585 388.251 167.176L389.336 166.73ZM388.061 164.762L352.693 127.745L351.843 128.555L387.212 165.573L388.061 164.762ZM352.693 127.745C351.794 126.804 351.349 125.629 351.332 124.714C351.323 124.256 351.421 123.907 351.572 123.681C351.71 123.474 351.91 123.34 352.216 123.313L352.113 122.144C351.449 122.203 350.929 122.53 350.595 123.03C350.273 123.513 350.146 124.119 350.158 124.736C350.182 125.97 350.759 127.419 351.843 128.555L352.693 127.745ZM352.216 123.313L384.632 120.454L384.529 119.285L352.113 122.144L352.216 123.313ZM384.632 120.454C385.388 120.387 385.989 119.95 386.315 119.263L385.254 118.761C385.099 119.089 384.851 119.256 384.529 119.285L384.632 120.454ZM386.315 119.263L403.216 83.5883L402.155 83.0859L385.254 118.761L386.315 119.263ZM403.216 83.5883C403.375 83.2539 403.593 83.1141 403.834 83.0692C404.103 83.0197 404.472 83.0784 404.901 83.3011C405.759 83.7459 406.663 84.7501 407.071 86.0748L408.192 85.7301C407.699 84.1257 406.598 82.8592 405.442 82.2596C404.865 81.9597 404.225 81.8038 403.62 81.9154C402.987 82.0328 402.465 82.4322 402.155 83.0859L403.216 83.5883Z" fill="#242224"/>
</g>
</g>
<path d="M188.55 319.566L519.537 167.306C519.723 167.221 519.911 167.422 519.812 167.602C518.844 169.938 517.318 172.001 515.368 173.611L512.243 176.189L511.575 176.547L506.198 180.696C504.49 182.014 502.638 183.136 500.679 184.041L169.297 337.042L166.36 336.165L188.55 319.566Z" fill="#33B0FF"/>
<path d="M188.55 319.566L519.537 167.306C519.723 167.221 519.911 167.422 519.812 167.602C518.844 169.938 517.318 172.001 515.368 173.611L512.243 176.189L511.575 176.547L506.198 180.696C504.49 182.014 502.638 183.136 500.679 184.041L169.297 337.042L166.36 336.165L188.55 319.566Z" stroke="#242224" stroke-width="0.829284"/>
<path d="M177.612 329.924L511.888 176.429L495.764 190.378C493.724 192.142 491.446 193.612 488.997 194.743L173.662 340.95L158.359 347.4L155.422 346.523L177.612 329.924Z" fill="#33B0FF"/>
<path d="M177.612 329.924L511.888 176.429L495.764 190.378C493.724 192.142 491.446 193.612 488.997 194.743L173.662 340.95L158.359 347.4L155.422 346.523L177.612 329.924Z" stroke="#242224" stroke-width="0.829284"/>
<path d="M203.68 298.937L520.854 149.449" stroke="#FCF8F2" stroke-width="0.913871" stroke-dasharray="5.48 5.48"/>
<path d="M473.34 51.1576L138.242 200.327L129.479 200.116L132.998 197.759L463.717 47.7446C467.502 46.0281 471.973 47.2515 474.355 50.6558L473.34 51.1576Z" fill="#33B0FF"/>
<path d="M473.34 51.1576L138.242 200.327L129.479 200.116L132.998 197.759L463.717 47.7446C467.502 46.0281 471.973 47.2515 474.355 50.6558L473.34 51.1576Z" stroke="#242224" stroke-width="0.829284"/>
<path d="M154.173 303.395C141.572 293.829 131.351 270.549 131.351 251.416C131.351 232.284 141.572 224.524 154.173 234.09C166.773 243.657 176.994 266.936 176.994 286.069C176.994 305.201 166.773 312.961 154.173 303.395ZM193.934 271.472L170.562 220.811C161.508 200.19 149.58 190.796 138.313 195.097L129.552 199.459L114.39 213.653C105.336 220.527 105.336 242.837 114.39 263.458L137.762 316.691C145.483 334.277 147.978 349.458 156.907 347.962C158.447 347.704 171.584 342.642 173.662 340.95L185.701 331.529L196.883 322.441C205.936 315.567 202.987 292.092 193.934 271.472Z" fill="#33B0FF"/>
<path d="M154.173 303.395C141.572 293.829 131.351 270.549 131.351 251.416C131.351 232.284 141.572 224.524 154.173 234.09C166.773 243.657 176.994 266.936 176.994 286.069C176.994 305.201 166.773 312.961 154.173 303.395ZM193.934 271.472L170.562 220.811C161.508 200.19 149.58 190.796 138.313 195.097L129.552 199.459L114.39 213.653C105.336 220.527 105.336 242.837 114.39 263.458L137.762 316.691C145.483 334.277 147.978 349.458 156.907 347.962C158.447 347.704 171.584 342.642 173.662 340.95L185.701 331.529L196.883 322.441C205.936 315.567 202.987 292.092 193.934 271.472Z" stroke="#242224" stroke-width="1.09631"/>
<path d="M143.943 308.114C131.343 298.548 121.122 275.267 121.122 256.136C121.122 237.003 131.343 229.243 143.943 238.809C156.543 248.375 166.764 271.655 166.764 290.788C166.764 309.92 156.543 317.68 143.943 308.114ZM183.704 276.19L160.332 225.53C151.279 204.909 136.586 193.754 127.532 200.628L104.16 218.373C95.1065 225.246 95.1065 247.556 104.16 268.177L127.532 321.41C136.586 342.031 151.279 353.186 160.332 346.312L183.704 325.995C192.758 319.122 192.758 296.812 183.704 276.19Z" fill="#33B0FF"/>
<path d="M143.943 308.114C131.343 298.548 121.122 275.267 121.122 256.136C121.122 237.003 131.343 229.243 143.943 238.809C156.543 248.375 166.764 271.655 166.764 290.788C166.764 309.92 156.543 317.68 143.943 308.114ZM183.704 276.19L160.332 225.53C151.279 204.909 136.586 193.754 127.532 200.628L104.16 218.373C95.1065 225.246 95.1065 247.556 104.16 268.177L127.532 321.41C136.586 342.031 151.279 353.186 160.332 346.312L183.704 325.995C192.758 319.122 192.758 296.812 183.704 276.19Z" stroke="#242224" stroke-width="1.09631"/>
<path d="M473.505 49.6803L472.61 48.9115L149.202 195.267L149.344 195.323C151.026 195.984 152.641 196.801 154.169 197.765L154.417 197.921L476.333 52.5012L473.505 49.6803Z" fill="#1D8AED"/>
<path d="M473.505 49.6803L472.61 48.9115L149.202 195.267L149.344 195.323C151.026 195.984 152.641 196.801 154.169 197.765L154.417 197.921L476.333 52.5012L473.505 49.6803Z" stroke="#242224" stroke-width="0.829284"/>
<path d="M515.587 173.449L511.765 176.482L199.32 319.893L200.189 318.397L201.299 315.647L201.734 313.426L520.028 167.166L519.263 168.787C518.716 169.944 517.981 171 517.088 171.914L515.587 173.449Z" fill="#1D8AED"/>
<path d="M515.587 173.449L511.765 176.482L199.32 319.893L200.189 318.397L201.299 315.647L201.734 313.426L520.028 167.166L519.263 168.787C518.716 169.944 517.981 171 517.088 171.914L515.587 173.449Z" stroke="#242224" stroke-width="0.829284"/>
</g>
<path d="M410.604 39.4301L413.467 45.6732L413.728 45.5529L410.866 39.3105L410.604 39.4301ZM413.538 45.4821L155.774 163.569L155.895 163.831L413.658 45.7439L413.538 45.4821ZM155.966 163.64L153.103 157.397L152.841 157.517L155.704 163.76L155.966 163.64ZM152.854 157.374L143.233 170.918L143.467 171.085L153.089 157.54L152.854 157.374ZM143.337 171.145L159.883 172.702L159.91 172.415L143.364 170.859L143.337 171.145ZM160.027 172.499L157.165 166.256L156.903 166.376L159.766 172.618L160.027 172.499ZM157.094 166.447L414.857 48.3593L414.737 48.0981L156.974 166.185L157.094 166.447ZM414.666 48.2886L417.529 54.531L417.791 54.4113L414.928 48.1689L414.666 48.2886ZM417.777 54.5546L427.399 41.0098L427.164 40.8434L417.542 54.3883L417.777 54.5546ZM427.295 40.7836L410.748 39.227L410.721 39.5136L427.268 41.0702L427.295 40.7836ZM413.598 45.6127L413.658 45.7439L413.788 45.6835L413.728 45.5529L413.598 45.6127ZM155.834 163.7L155.704 163.76L155.763 163.891L155.895 163.831L155.834 163.7ZM152.972 157.458L153.103 157.397L152.999 157.171L152.854 157.374L152.972 157.458ZM143.35 171.002L143.233 170.918L143.089 171.122L143.337 171.145L143.35 171.002ZM159.896 172.558L159.883 172.702L160.131 172.725L160.027 172.499L159.896 172.558ZM157.034 166.315L156.974 166.185L156.843 166.245L156.903 166.376L157.034 166.315ZM414.797 48.2287L414.928 48.1689L414.868 48.0377L414.737 48.0981L414.797 48.2287ZM417.659 54.4712L417.529 54.531L417.633 54.7577L417.777 54.5546L417.659 54.4712ZM410.735 39.3703L410.748 39.227L410.5 39.2034L410.604 39.4301L410.735 39.3703ZM427.281 40.9269L427.399 41.0098L427.543 40.8066L427.295 40.7836L427.281 40.9269Z" fill="#FCF8F2"/>
</g>
<defs>
<clipPath id="clip0_114_8344">
<rect width="640" height="426.092" fill="white" transform="translate(0 0.367798)"/>
</clipPath>
</defs>
</svg>
