<svg width="640" height="427" viewBox="0 0 640 427" fill="none" xmlns="http://www.w3.org/2000/svg">
<g clip-path="url(#clip0_114_8343)">
<mask id="mask0_114_8343" style="mask-type:luminance" maskUnits="userSpaceOnUse" x="0" y="0" width="641" height="427">
<path d="M0 0.464935H640.002V426.368H0V0.464935Z" fill="white"/>
</mask>
<g mask="url(#mask0_114_8343)">
<path d="M186.103 395.652L43.4792 319.075C40.7123 317.567 38.7186 314.192 38.805 311.326C38.8165 310.943 38.5977 306.217 38.7198 305.853C39.2817 304.171 40.8608 307.038 42.725 306.188L425.488 131.492C427.448 130.598 429.715 130.677 431.609 131.705L578.078 203.117C583.046 205.816 581.617 218.827 576.47 221.167L192.225 395.873C190.263 396.765 187.996 396.683 186.103 395.652Z" stroke="#343438" stroke-width="0.917188" stroke-miterlimit="10"/>
<path d="M186.104 389.051L42.29 311.826C37.3343 309.125 37.5905 301.931 42.7252 299.587L425.488 124.892C427.448 123.998 429.715 124.077 431.609 125.105L576.905 202.319C581.873 205.018 581.617 212.227 576.47 214.567L192.226 389.273C190.264 390.165 187.996 390.083 186.104 389.051Z" stroke="#343438" stroke-width="0.917188" stroke-miterlimit="10"/>
<path d="M189.191 389.888V396.484" stroke="#343438" stroke-width="0.917188" stroke-miterlimit="10"/>
<path d="M186.095 382.154L56.267 312.554C51.4892 309.949 51.7356 303.012 56.6867 300.752L425.768 132.302C427.658 131.439 429.845 131.515 431.67 132.507L562.928 202.096C567.718 204.698 567.472 211.65 562.509 213.907L191.999 382.368C190.106 383.228 187.92 383.148 186.095 382.154Z" stroke="#343438" stroke-width="0.917188" stroke-miterlimit="10" stroke-dasharray="4.88 7.63"/>
</g>
<mask id="mask1_114_8343" style="mask-type:luminance" maskUnits="userSpaceOnUse" x="0" y="0" width="641" height="427">
<path d="M0 0.464935H640.002V426.368H0V0.464935Z" fill="white"/>
</mask>
<g mask="url(#mask1_114_8343)">
<mask id="mask2_114_8343" style="mask-type:luminance" maskUnits="userSpaceOnUse" x="128" y="50" width="367" height="293">
<path d="M128.43 50.6146H494.383V342.634H128.43V50.6146Z" fill="white"/>
</mask>
<g mask="url(#mask2_114_8343)">
<g opacity="0.800003">
<path d="M130.679 202.156L457.582 50.6144L448.496 71.69C446.542 76.2231 446.624 81.3751 448.722 85.8437L453.749 96.5515C454.265 97.6518 454.664 98.8033 454.938 99.9877L462.979 134.695C463.663 137.646 465.111 140.364 467.18 142.578L489.734 166.72C497.725 175.273 495.059 189.126 484.462 194.107L169.703 342.085C166.863 343.42 163.477 342.237 162.088 339.425L137.914 290.457L129.613 269.227C128.753 267.025 128.354 264.67 128.442 262.308L130.679 202.156Z" fill="#FF6721"/>
</g>
</g>
<path d="M130.679 202.156L457.582 50.6144L448.496 71.69C446.542 76.2231 446.624 81.3751 448.722 85.8437L453.749 96.5515C454.265 97.6518 454.664 98.8033 454.938 99.9877L462.979 134.695C463.663 137.646 465.111 140.364 467.18 142.578L489.734 166.72C497.725 175.273 495.059 189.126 484.462 194.107L169.703 342.085C166.863 343.42 163.477 342.237 162.088 339.425L137.914 290.457L129.613 269.227C128.753 267.025 128.354 264.67 128.442 262.308L130.679 202.156Z" stroke="#242224" stroke-width="0.82265"/>
<path d="M97.8748 244.391L428.924 87.5832" stroke="#FCF8F2" stroke-width="0.913871" stroke-dasharray="5.48 5.48"/>
<path d="M485.775 151.072C473.175 141.647 462.954 118.712 462.954 99.8629C462.954 81.0139 473.175 73.369 485.775 82.7935C498.375 92.218 508.597 115.153 508.597 134.002C508.597 152.851 498.375 160.496 485.775 151.072ZM525.537 119.621L502.165 69.7114C494.824 53.2397 486.574 45.6178 476.914 44.3018C472.014 43.634 467.969 45.3325 464.096 47.233L461.155 48.6761L445.993 62.6596C436.939 69.4313 436.939 91.411 445.993 111.726L469.364 164.17C477.086 181.497 479.581 196.452 488.509 194.978C490.05 194.724 503.187 189.738 505.264 188.07L517.303 178.789L528.486 169.835C537.539 163.064 534.59 139.936 525.537 119.621Z" fill="#FF6721"/>
<path d="M485.775 151.072C473.175 141.647 462.954 118.712 462.954 99.8629C462.954 81.0139 473.175 73.369 485.775 82.7935C498.375 92.218 508.597 115.153 508.597 134.002C508.597 152.851 498.375 160.496 485.775 151.072ZM525.537 119.621L502.165 69.7114C494.824 53.2397 486.574 45.6178 476.914 44.3018C472.014 43.634 467.969 45.3325 464.096 47.233L461.155 48.6761L445.993 62.6596C436.939 69.4313 436.939 91.4111 445.993 111.726L469.364 164.17C477.086 181.497 479.581 196.452 488.509 194.978C490.05 194.724 503.187 189.738 505.264 188.07L517.303 178.789L528.486 169.835C537.539 163.064 534.59 139.936 525.537 119.621Z" stroke="#242224" stroke-width="1.09631"/>
<path d="M475.546 155.721C462.946 146.296 452.725 123.361 452.725 104.512C452.725 85.6631 462.946 78.0183 475.546 87.4428C488.147 96.8673 498.368 119.802 498.368 138.651C498.368 157.5 488.147 165.145 475.546 155.721ZM515.308 124.27L491.936 74.3606C482.882 54.0455 468.189 43.0553 459.136 49.827L435.764 67.3088C426.71 74.0805 426.71 96.0603 435.764 116.375L459.136 168.82C468.189 189.135 482.882 200.125 491.936 193.353L515.308 173.337C524.361 166.565 524.361 144.586 515.308 124.27Z" fill="#FF6721"/>
<path d="M475.546 155.721C462.946 146.296 452.725 123.361 452.725 104.512C452.725 85.6631 462.946 78.0183 475.546 87.4428C488.147 96.8673 498.368 119.802 498.368 138.651C498.368 157.5 488.147 165.145 475.546 155.721ZM515.308 124.27L491.936 74.3606C482.882 54.0455 468.189 43.0553 459.136 49.827L435.764 67.3088C426.71 74.0805 426.71 96.0603 435.764 116.375L459.136 168.82C468.189 189.135 482.882 200.125 491.936 193.353L515.308 173.337C524.361 166.565 524.361 144.586 515.308 124.27Z" stroke="#242224" stroke-width="1.09631"/>
<path fill-rule="evenodd" clip-rule="evenodd" d="M410.735 39.4499L427.281 41.0058L417.659 54.5441L414.797 48.3044L157.034 166.339L159.896 172.579L143.35 171.023L152.972 157.485L155.834 163.724L413.598 45.6902L410.735 39.4499Z" fill="#242224"/>
<path d="M342.356 229.592C347.551 247.13 346.259 262.009 337.112 264.917C335.641 265.386 330.475 267.396 328.912 267.137C320.76 265.789 313.59 254.841 309.231 240.124C306.016 229.27 303.058 219.981 305.695 212.876C306.255 209.58 306.895 208.924 309.344 207.319C311.246 206.073 314.863 203.589 316.387 203.104C325.534 200.196 337.161 212.055 342.356 229.592Z" fill="#ADDCF6"/>
<mask id="mask3_114_8343" style="mask-type:luminance" maskUnits="userSpaceOnUse" x="304" y="202" width="42" height="66">
<mask id="mask4_114_8343" style="mask-type:luminance" maskUnits="userSpaceOnUse" x="304" y="202" width="42" height="66">
<path d="M304.101 202.089H345.969V267.735H304.101V202.089Z" fill="white"/>
</mask>
<g mask="url(#mask4_114_8343)">
<path d="M303.784 201.003H346.514V267.789H303.784V201.003Z" fill="black"/>
<mask id="mask5_114_8343" style="mask-type:luminance" maskUnits="userSpaceOnUse" x="303" y="201" width="44" height="67">
<path d="M303.784 201.003H346.514V267.789H303.784V201.003Z" fill="white"/>
</mask>
<g mask="url(#mask5_114_8343)">
<path d="M342.356 229.592C347.551 247.129 346.259 262.009 337.112 264.917C335.641 265.385 330.474 267.396 328.912 267.137C320.76 265.788 313.59 254.84 309.231 240.125C306.016 229.27 303.057 219.98 305.694 212.876C306.255 209.58 306.895 208.924 309.344 207.319C311.246 206.073 314.862 203.589 316.387 203.104C325.534 200.196 337.161 212.055 342.356 229.592Z" fill="white"/>
</g>
</g>
</mask>
<g mask="url(#mask3_114_8343)">
<mask id="mask6_114_8343" style="mask-type:luminance" maskUnits="userSpaceOnUse" x="304" y="202" width="42" height="66">
<path d="M304.101 202.089H345.969V267.735H304.101V202.089Z" fill="white"/>
</mask>
<g mask="url(#mask6_114_8343)">
<path d="M309.659 207.801C310.62 207.171 311.986 206.247 313.313 205.413C314.661 204.566 315.882 203.869 316.561 203.653L316.211 202.556C315.366 202.826 314.017 203.612 312.7 204.44C311.362 205.281 309.968 206.222 309.027 206.839L309.659 207.801ZM306.261 212.972C306.54 211.339 306.824 210.457 307.285 209.791C307.749 209.118 308.428 208.607 309.659 207.801L309.027 206.839C307.81 207.636 306.945 208.256 306.337 209.137C305.725 210.022 305.409 211.116 305.127 212.779L306.261 212.972ZM329.005 266.57C325.151 265.932 321.437 263.003 318.119 258.312C314.81 253.633 311.951 247.28 309.783 239.961L308.678 240.288C310.869 247.685 313.775 254.164 317.179 258.976C320.574 263.775 324.521 266.994 328.818 267.705L329.005 266.57ZM336.936 264.37C336.558 264.49 335.946 264.708 335.239 264.955C334.524 265.205 333.699 265.49 332.872 265.751C332.043 266.014 331.224 266.25 330.522 266.403C329.792 266.563 329.275 266.614 329.005 266.57L328.818 267.705C329.329 267.789 330.043 267.686 330.768 267.527C331.52 267.362 332.377 267.115 333.22 266.848C334.063 266.581 334.902 266.292 335.619 266.041C336.343 265.788 336.928 265.579 337.286 265.466L336.936 264.37ZM309.783 239.961C308.171 234.52 306.639 229.521 305.834 224.993C305.03 220.467 304.967 216.488 306.234 213.075L305.154 212.676C303.784 216.368 303.881 220.587 304.701 225.195C305.519 229.801 307.075 234.875 308.678 240.288L309.783 239.961ZM316.561 203.653C320.825 202.297 325.8 204.35 330.441 209.084C335.063 213.797 339.227 221.057 341.804 229.755L342.907 229.429C340.289 220.59 336.042 213.153 331.264 208.279C326.506 203.427 321.095 201.004 316.211 202.556L316.561 203.653ZM341.804 229.755C344.388 238.479 345.344 246.499 344.54 252.666C343.736 258.848 341.197 263.015 336.936 264.37L337.286 265.466C342.172 263.912 344.853 259.185 345.683 252.815C346.513 246.432 345.518 238.242 342.907 229.429L341.804 229.755ZM305.694 212.876L306.234 213.075L306.253 213.025L306.261 212.972L305.694 212.876Z" fill="#242224"/>
</g>
</g>
<path d="M332.274 232.791C335.287 241.009 336.625 248.981 336.362 255.22C336.231 258.341 335.699 261.014 334.789 263.063C333.878 265.112 332.6 266.518 330.979 267.155C329.358 267.793 327.501 267.621 325.508 266.715C323.513 265.809 321.403 264.176 319.305 261.933C315.11 257.447 311.001 250.566 307.989 242.348C304.975 234.13 303.637 226.158 303.901 219.918C304.032 216.798 304.563 214.126 305.474 212.076C306.384 210.027 307.663 208.621 309.284 207.984C310.905 207.346 312.762 207.518 314.755 208.424C316.75 209.33 318.86 210.963 320.958 213.207C325.153 217.692 329.261 224.573 332.274 232.791Z" fill="#ADDCF6"/>
<path d="M332.274 232.791C335.287 241.009 336.625 248.981 336.362 255.22C336.231 258.341 335.699 261.014 334.789 263.063C333.878 265.112 332.6 266.518 330.979 267.155C329.358 267.793 327.501 267.621 325.508 266.715C323.513 265.809 321.403 264.176 319.305 261.933C315.11 257.447 311.001 250.566 307.989 242.348C304.975 234.13 303.637 226.158 303.901 219.918C304.032 216.798 304.563 214.126 305.474 212.076C306.384 210.027 307.663 208.621 309.284 207.984C310.905 207.346 312.762 207.518 314.755 208.424C316.75 209.33 318.86 210.963 320.958 213.207C325.153 217.692 329.261 224.573 332.274 232.791Z" stroke="#242224" stroke-width="0.829284"/>
<path d="M307.617 160.125C312.811 177.662 311.52 192.542 302.372 195.45C300.901 195.919 295.735 197.928 294.173 197.67C286.021 196.322 278.851 185.374 274.492 170.657C271.276 159.804 268.318 150.513 270.956 143.408C271.516 140.113 272.157 139.457 274.604 137.853C276.507 136.606 280.123 134.122 281.648 133.638C290.795 130.729 302.422 142.588 307.617 160.125Z" fill="#ADDCF6"/>
<mask id="mask7_114_8343" style="mask-type:luminance" maskUnits="userSpaceOnUse" x="269" y="132" width="43" height="67">
<mask id="mask8_114_8343" style="mask-type:luminance" maskUnits="userSpaceOnUse" x="269" y="132" width="43" height="67">
<path d="M269.362 132.622H311.23V198.268H269.362V132.622Z" fill="white"/>
</mask>
<g mask="url(#mask8_114_8343)">
<path d="M269.045 131.536H311.775V198.322H269.045V131.536Z" fill="black"/>
<mask id="mask9_114_8343" style="mask-type:luminance" maskUnits="userSpaceOnUse" x="269" y="131" width="43" height="68">
<path d="M269.045 131.537H311.775V198.323H269.045V131.537Z" fill="white"/>
</mask>
<g mask="url(#mask9_114_8343)">
<path d="M307.617 160.125C312.811 177.662 311.52 192.542 302.373 195.45C300.901 195.918 295.735 197.928 294.173 197.67C286.021 196.322 278.851 185.373 274.492 170.657C271.276 159.803 268.318 150.513 270.956 143.408C271.516 140.113 272.157 139.457 274.604 137.852C276.508 136.605 280.123 134.122 281.648 133.637C290.795 130.729 302.422 142.588 307.617 160.125Z" fill="white"/>
</g>
</g>
</mask>
<g mask="url(#mask7_114_8343)">
<mask id="mask10_114_8343" style="mask-type:luminance" maskUnits="userSpaceOnUse" x="269" y="132" width="43" height="67">
<path d="M269.362 132.622H311.23V198.268H269.362V132.622Z" fill="white"/>
</mask>
<g mask="url(#mask10_114_8343)">
<path d="M274.921 138.333C275.881 137.704 277.248 136.78 278.575 135.946C279.922 135.099 281.143 134.401 281.822 134.186L281.473 133.089C280.628 133.359 279.279 134.145 277.961 134.973C276.623 135.813 275.23 136.755 274.289 137.372L274.921 138.333ZM271.523 143.505C271.801 141.872 272.085 140.99 272.546 140.323C273.01 139.651 273.689 139.14 274.921 138.333L274.289 137.372C273.071 138.169 272.207 138.789 271.598 139.67C270.987 140.555 270.671 141.649 270.388 143.312L271.523 143.505ZM294.267 197.103C290.412 196.465 286.698 193.536 283.381 188.845C280.071 184.166 277.212 177.813 275.044 170.494L273.94 170.821C276.131 178.218 279.036 184.697 282.44 189.509C285.835 194.308 289.783 197.527 294.079 198.238L294.267 197.103ZM302.198 194.902C301.819 195.022 301.207 195.241 300.5 195.488C299.785 195.738 298.96 196.023 298.133 196.284C297.305 196.547 296.486 196.783 295.783 196.936C295.054 197.096 294.537 197.147 294.267 197.103L294.079 198.238C294.59 198.322 295.305 198.219 296.03 198.06C296.781 197.895 297.639 197.648 298.481 197.381C299.324 197.114 300.164 196.825 300.88 196.574C301.604 196.321 302.19 196.112 302.547 195.999L302.198 194.902ZM275.044 170.494C273.432 165.053 271.9 160.054 271.096 155.526C270.291 151 270.229 147.02 271.495 143.608L270.416 143.209C269.045 146.901 269.143 151.12 269.962 155.728C270.781 160.334 272.336 165.408 273.94 170.821L275.044 170.494ZM281.822 134.186C286.086 132.83 291.061 134.883 295.703 139.617C300.324 144.33 304.488 151.59 307.065 160.288L308.168 159.962C305.55 151.123 301.304 143.686 296.525 138.812C291.768 133.96 286.356 131.537 281.473 133.089L281.822 134.186ZM307.065 160.288C309.649 169.012 310.605 177.031 309.802 183.199C308.997 189.381 306.459 193.548 302.198 194.902L302.547 195.999C307.433 194.445 310.114 189.718 310.944 183.348C311.775 176.965 310.779 168.775 308.168 159.962L307.065 160.288ZM270.956 143.408L271.495 143.608L271.514 143.558L271.523 143.505L270.956 143.408Z" fill="#242224"/>
</g>
</g>
<path d="M297.535 163.324C300.548 171.541 301.886 179.513 301.623 185.753C301.492 188.874 300.96 191.546 300.05 193.596C299.139 195.645 297.861 197.05 296.24 197.688C294.619 198.326 292.762 198.154 290.769 197.248C288.774 196.342 286.664 194.709 284.566 192.466C280.371 187.98 276.262 181.098 273.25 172.881C270.236 164.663 268.898 156.691 269.162 150.451C269.293 147.331 269.825 144.659 270.736 142.609C271.646 140.56 272.924 139.154 274.545 138.516C276.166 137.878 278.023 138.051 280.017 138.957C282.011 139.863 284.121 141.496 286.219 143.739C290.414 148.224 294.522 155.106 297.535 163.324Z" fill="#ADDCF6"/>
<path d="M297.535 163.324C300.548 171.541 301.886 179.513 301.623 185.753C301.492 188.874 300.96 191.546 300.05 193.596C299.139 195.645 297.861 197.05 296.24 197.688C294.619 198.326 292.762 198.154 290.769 197.248C288.774 196.342 286.664 194.709 284.566 192.466C280.371 187.98 276.262 181.098 273.25 172.881C270.236 164.663 268.898 156.691 269.162 150.451C269.293 147.331 269.825 144.659 270.736 142.609C271.646 140.56 272.924 139.154 274.545 138.516C276.166 137.878 278.023 138.051 280.017 138.957C282.011 139.863 284.121 141.496 286.219 143.739C290.414 148.224 294.522 155.106 297.535 163.324Z" stroke="#242224" stroke-width="0.829284"/>
<path d="M376.264 203.41C381.459 220.947 380.166 235.827 371.019 238.736C369.548 239.203 364.382 241.214 362.82 240.955C354.668 239.607 347.498 228.659 343.138 213.942C339.923 203.088 336.965 193.798 339.602 186.694C340.162 183.398 340.803 182.743 343.251 181.138C345.154 179.891 348.77 177.407 350.294 176.923C359.441 174.014 371.068 185.873 376.264 203.41Z" fill="#ADDCF6"/>
<mask id="mask11_114_8343" style="mask-type:luminance" maskUnits="userSpaceOnUse" x="338" y="175" width="42" height="67">
<mask id="mask12_114_8343" style="mask-type:luminance" maskUnits="userSpaceOnUse" x="338" y="175" width="42" height="67">
<path d="M338.009 175.907H379.877V241.553H338.009V175.907Z" fill="white"/>
</mask>
<g mask="url(#mask12_114_8343)">
<path d="M337.691 174.822H380.422V241.607H337.691V174.822Z" fill="black"/>
<mask id="mask13_114_8343" style="mask-type:luminance" maskUnits="userSpaceOnUse" x="337" y="174" width="44" height="68">
<path d="M337.691 174.822H380.422V241.607H337.691V174.822Z" fill="white"/>
</mask>
<g mask="url(#mask13_114_8343)">
<path d="M376.264 203.41C381.459 220.947 380.166 235.827 371.02 238.736C369.548 239.203 364.382 241.213 362.82 240.955C354.668 239.606 347.498 228.659 343.138 213.942C339.923 203.088 336.965 193.798 339.602 186.693C340.162 183.398 340.803 182.742 343.251 181.138C345.154 179.891 348.77 177.407 350.295 176.923C359.441 174.014 371.069 185.873 376.264 203.41Z" fill="white"/>
</g>
</g>
</mask>
<g mask="url(#mask11_114_8343)">
<mask id="mask14_114_8343" style="mask-type:luminance" maskUnits="userSpaceOnUse" x="338" y="175" width="42" height="67">
<path d="M338.009 175.907H379.877V241.553H338.009V175.907Z" fill="white"/>
</mask>
<g mask="url(#mask14_114_8343)">
<path d="M343.567 181.619C344.528 180.989 345.895 180.065 347.221 179.231C348.569 178.385 349.79 177.687 350.469 177.471L350.12 176.375C349.274 176.644 347.925 177.43 346.608 178.258C345.269 179.098 343.877 180.04 342.935 180.657L343.567 181.619ZM340.17 186.79C340.447 185.158 340.732 184.276 341.193 183.609C341.657 182.937 342.336 182.426 343.567 181.619L342.935 180.657C341.718 181.455 340.853 182.074 340.245 182.955C339.633 183.841 339.317 184.934 339.034 186.597L340.17 186.79ZM362.914 240.388C359.058 239.75 355.345 236.821 352.027 232.13C348.718 227.452 345.858 221.098 343.69 213.779L342.586 214.106C344.778 221.503 347.683 227.982 351.087 232.794C354.481 237.594 358.429 240.812 362.726 241.523L362.914 240.388ZM370.844 238.188C370.467 238.308 369.854 238.526 369.147 238.773C368.433 239.023 367.606 239.308 366.78 239.569C365.951 239.832 365.132 240.068 364.43 240.222C363.701 240.382 363.183 240.433 362.914 240.388L362.726 241.523C363.237 241.607 363.951 241.504 364.677 241.345C365.428 241.181 366.285 240.933 367.127 240.666C367.971 240.399 368.81 240.11 369.527 239.859C370.251 239.606 370.836 239.397 371.194 239.284L370.844 238.188ZM343.69 213.779C342.078 208.338 340.547 203.339 339.743 198.811C338.938 194.285 338.876 190.306 340.142 186.894L339.062 186.494C337.691 190.187 337.79 194.405 338.608 199.013C339.428 203.619 340.983 208.693 342.586 214.106L343.69 213.779ZM350.469 177.471C354.732 176.116 359.708 178.168 364.35 182.902C368.97 187.615 373.134 194.876 375.711 203.574L376.815 203.247C374.197 194.408 369.95 186.971 365.172 182.097C360.415 177.245 355.003 174.822 350.12 176.375L350.469 177.471ZM375.711 203.574C378.296 212.298 379.252 220.317 378.449 226.485C377.644 232.666 375.106 236.833 370.844 238.188L371.194 239.284C376.08 237.731 378.761 233.003 379.59 226.633C380.422 220.25 379.426 212.06 376.815 203.247L375.711 203.574ZM339.602 186.694L340.142 186.894L340.161 186.843L340.17 186.79L339.602 186.694Z" fill="#242224"/>
</g>
</g>
<path d="M366.182 206.609C369.195 214.827 370.533 222.799 370.27 229.039C370.138 232.159 369.607 234.831 368.696 236.881C367.786 238.93 366.507 240.336 364.887 240.973C363.266 241.611 361.409 241.439 359.415 240.533C357.42 239.627 355.311 237.994 353.212 235.75C349.017 231.265 344.91 224.384 341.896 216.166C338.884 207.948 337.546 199.976 337.809 193.737C337.94 190.616 338.471 187.943 339.382 185.894C340.292 183.845 341.571 182.439 343.192 181.802C344.812 181.164 346.67 181.336 348.663 182.242C350.658 183.148 352.768 184.781 354.866 187.024C359.061 191.51 363.169 198.391 366.182 206.609Z" fill="#ADDCF6"/>
<path d="M366.182 206.609C369.195 214.827 370.533 222.799 370.27 229.039C370.138 232.159 369.607 234.831 368.696 236.881C367.786 238.93 366.507 240.336 364.887 240.973C363.266 241.611 361.409 241.439 359.415 240.533C357.42 239.627 355.311 237.994 353.212 235.75C349.017 231.265 344.91 224.384 341.896 216.166C338.884 207.948 337.546 199.976 337.809 193.737C337.94 190.616 338.471 187.943 339.382 185.894C340.292 183.845 341.571 182.439 343.192 181.802C344.812 181.164 346.67 181.336 348.663 182.242C350.658 183.148 352.768 184.781 354.866 187.024C359.061 191.51 363.169 198.391 366.182 206.609Z" stroke="#242224" stroke-width="0.829284"/>
<path d="M343.965 141.19C349.16 158.727 347.868 173.608 338.72 176.516C337.25 176.983 332.084 178.994 330.521 178.735C322.369 177.387 315.199 166.439 310.84 151.723C307.625 140.868 304.667 131.578 307.303 124.474C307.864 121.178 308.504 120.523 310.953 118.918C312.855 117.671 316.472 115.187 317.995 114.703C327.143 111.795 338.769 123.653 343.965 141.19Z" fill="#ADDCF6"/>
<mask id="mask15_114_8343" style="mask-type:luminance" maskUnits="userSpaceOnUse" x="305" y="113" width="43" height="67">
<mask id="mask16_114_8343" style="mask-type:luminance" maskUnits="userSpaceOnUse" x="305" y="113" width="43" height="67">
<path d="M305.711 113.687H347.578V179.333H305.711V113.687Z" fill="white"/>
</mask>
<g mask="url(#mask16_114_8343)">
<path d="M305.394 112.601H348.124V179.387H305.394V112.601Z" fill="black"/>
<mask id="mask17_114_8343" style="mask-type:luminance" maskUnits="userSpaceOnUse" x="305" y="112" width="44" height="68">
<path d="M305.394 112.601H348.124V179.387H305.394V112.601Z" fill="white"/>
</mask>
<g mask="url(#mask17_114_8343)">
<path d="M343.965 141.19C349.16 158.727 347.868 173.607 338.721 176.515C337.25 176.983 332.084 178.993 330.521 178.735C322.369 177.387 315.2 166.439 310.84 151.722C307.625 140.868 304.667 131.578 307.303 124.473C307.865 121.178 308.504 120.522 310.953 118.918C312.855 117.671 316.472 115.187 317.996 114.703C327.143 111.794 338.77 123.653 343.965 141.19Z" fill="white"/>
</g>
</g>
</mask>
<g mask="url(#mask15_114_8343)">
<mask id="mask18_114_8343" style="mask-type:luminance" maskUnits="userSpaceOnUse" x="305" y="113" width="43" height="67">
<path d="M305.711 113.687H347.578V179.333H305.711V113.687Z" fill="white"/>
</mask>
<g mask="url(#mask18_114_8343)">
<path d="M311.268 119.399C312.23 118.769 313.596 117.845 314.922 117.011C316.27 116.165 317.491 115.467 318.171 115.251L317.821 114.155C316.976 114.423 315.626 115.21 314.309 116.037C312.971 116.879 311.578 117.82 310.637 118.437L311.268 119.399ZM307.871 124.57C308.149 122.937 308.434 122.056 308.894 121.388C309.358 120.717 310.037 120.206 311.268 119.399L310.637 118.437C309.42 119.235 308.555 119.854 307.947 120.735C307.335 121.621 307.019 122.715 306.736 124.378L307.871 124.57ZM330.615 178.168C326.76 177.531 323.047 174.601 319.728 169.91C316.419 165.232 313.56 158.878 311.392 151.56L310.288 151.886C312.479 159.283 315.385 165.762 318.788 170.574C322.183 175.374 326.131 178.592 330.427 179.303L330.615 178.168ZM338.546 175.968C338.168 176.088 337.556 176.306 336.848 176.553C336.134 176.803 335.308 177.088 334.482 177.35C333.653 177.612 332.833 177.847 332.131 178.002C331.402 178.162 330.885 178.213 330.615 178.168L330.427 179.303C330.939 179.387 331.653 179.284 332.378 179.126C333.13 178.96 333.987 178.713 334.829 178.446C335.673 178.179 336.512 177.89 337.229 177.639C337.953 177.386 338.538 177.177 338.895 177.064L338.546 175.968ZM311.392 151.56C309.78 146.118 308.249 141.119 307.444 136.592C306.64 132.065 306.577 128.085 307.843 124.674L306.764 124.274C305.393 127.967 305.491 132.185 306.31 136.793C307.129 141.4 308.685 146.473 310.288 151.886L311.392 151.56ZM318.171 115.251C322.434 113.895 327.41 115.948 332.051 120.682C336.672 125.395 340.836 132.656 343.413 141.354L344.517 141.027C341.898 132.188 337.652 124.751 332.874 119.877C328.116 115.025 322.705 112.602 317.821 114.155L318.171 115.251ZM343.413 141.354C345.997 150.078 346.953 158.097 346.15 164.265C345.345 170.446 342.807 174.613 338.546 175.968L338.895 177.064C343.782 175.51 346.463 170.783 347.292 164.413C348.123 158.03 347.128 149.84 344.517 141.027L343.413 141.354ZM307.303 124.474L307.843 124.674L307.862 124.623L307.871 124.57L307.303 124.474Z" fill="#242224"/>
</g>
</g>
<path d="M333.883 144.389C336.897 152.607 338.235 160.579 337.972 166.818C337.84 169.939 337.309 172.611 336.398 174.661C335.488 176.709 334.209 178.116 332.588 178.754C330.968 179.392 329.11 179.219 327.117 178.313C325.122 177.407 323.012 175.774 320.914 173.531C316.719 169.046 312.611 162.163 309.598 153.946C306.585 145.728 305.247 137.756 305.51 131.517C305.641 128.396 306.173 125.724 307.084 123.674C307.994 121.626 309.272 120.219 310.894 119.581C312.514 118.944 314.372 119.116 316.365 120.021C318.359 120.928 320.469 122.561 322.567 124.804C326.763 129.29 330.871 136.172 333.883 144.389Z" fill="#ADDCF6"/>
<path d="M333.883 144.389C336.897 152.607 338.235 160.579 337.972 166.818C337.84 169.939 337.309 172.611 336.398 174.661C335.488 176.709 334.209 178.116 332.588 178.754C330.968 179.392 329.11 179.219 327.117 178.313C325.122 177.407 323.012 175.774 320.914 173.531C316.719 169.046 312.611 162.163 309.598 153.946C306.585 145.728 305.247 137.756 305.51 131.517C305.641 128.396 306.173 125.724 307.084 123.674C307.994 121.626 309.272 120.219 310.894 119.581C312.514 118.944 314.372 119.116 316.365 120.021C318.359 120.928 320.469 122.561 322.567 124.804C326.763 129.29 330.871 136.172 333.883 144.389Z" stroke="#242224" stroke-width="0.829284"/>
<path d="M217.336 210.526C217.336 218.036 219.804 227.089 223.793 235.203C227.783 243.318 233.31 250.527 239.435 254.3C245.56 258.073 251.087 257.673 255.076 254.473C259.066 251.273 261.534 245.26 261.534 237.75C261.534 222.726 251.651 204.435 239.435 196.91C227.219 189.386 217.336 195.502 217.336 210.526ZM201.442 226.638L201.44 226.633L201.439 226.627C200.797 224.648 200.398 222.124 200.169 219.308C199.94 216.499 199.881 213.426 199.904 210.358C199.928 207.291 200.034 204.234 200.134 201.454C200.14 201.301 200.145 201.148 200.151 200.997C200.245 198.402 200.329 196.064 200.329 194.218C200.329 190.193 199.192 187.151 198.247 184.627C198.125 184.298 198.005 183.978 197.892 183.666C197.401 182.314 197.035 181.133 196.987 179.983C196.938 178.838 197.203 177.686 198.037 176.439C210.119 162.994 225.055 161.227 239.435 170.084C261.022 183.381 278.541 215.749 278.542 242.397C278.542 250.955 276.856 255.593 273.542 262.928C267.99 273.901 260.342 284.71 254.079 292.78C250.948 296.814 248.164 300.162 246.163 302.501C245.162 303.671 244.357 304.588 243.802 305.213C243.525 305.526 243.311 305.765 243.165 305.926C243.092 306.007 243.037 306.068 243 306.109L242.961 306.152C238.368 308.177 229.205 312.896 226.977 314.073C223.768 305.901 218.555 287.961 213.567 270.124C211.603 263.106 209.676 256.107 207.922 249.735C205.149 239.666 202.809 231.166 201.442 226.638Z" fill="#ADDCF6"/>
<path d="M217.336 210.526C217.336 218.036 219.804 227.089 223.793 235.203C227.783 243.318 233.31 250.527 239.435 254.3C245.56 258.073 251.087 257.673 255.076 254.473C259.066 251.273 261.534 245.26 261.534 237.75C261.534 222.726 251.651 204.435 239.435 196.91C227.219 189.386 217.336 195.502 217.336 210.526ZM201.442 226.638L201.44 226.633L201.439 226.627C200.797 224.648 200.398 222.124 200.169 219.308C199.94 216.499 199.881 213.426 199.904 210.358C199.928 207.291 200.034 204.234 200.134 201.454C200.14 201.301 200.145 201.148 200.151 200.997C200.245 198.402 200.329 196.064 200.329 194.218C200.329 190.193 199.192 187.151 198.247 184.627C198.125 184.298 198.005 183.978 197.892 183.666C197.401 182.314 197.035 181.133 196.987 179.983C196.938 178.838 197.203 177.686 198.037 176.439C210.119 162.994 225.055 161.227 239.435 170.084C261.022 183.381 278.541 215.749 278.542 242.397C278.542 250.955 276.856 255.593 273.542 262.928C267.99 273.901 260.342 284.71 254.079 292.78C250.948 296.814 248.164 300.162 246.163 302.501C245.162 303.671 244.357 304.588 243.802 305.213C243.525 305.526 243.311 305.765 243.165 305.926C243.092 306.007 243.037 306.068 243 306.109L242.961 306.152C238.368 308.177 229.205 312.896 226.977 314.073C223.768 305.901 218.555 287.961 213.567 270.124C211.603 263.106 209.676 256.107 207.922 249.735C205.149 239.666 202.809 231.166 201.442 226.638Z" stroke="#242224" stroke-width="0.829284"/>
<path d="M204.616 217.345C204.616 224.81 207.085 233.823 211.073 241.907C215.063 249.992 220.59 257.183 226.715 260.955C232.839 264.727 238.367 264.347 242.356 261.176C246.345 258.006 248.813 252.035 248.813 244.569C248.813 229.634 238.929 211.418 226.715 203.894C214.5 196.37 204.616 202.41 204.616 217.345ZM191.719 224.98L191.717 224.974L191.715 224.969C189.088 216.909 187.609 208.73 187.609 201.037C187.609 174.557 205.127 163.901 226.715 177.198C248.303 190.497 265.821 222.733 265.822 249.216C265.822 257.733 264.009 264.614 260.831 269.586L260.827 269.592L260.824 269.599C255.274 280.482 246.705 291.712 239.52 300.225C235.929 304.48 232.684 308.055 230.338 310.566C229.165 311.821 228.216 312.811 227.561 313.486C227.232 313.823 226.979 314.082 226.806 314.257C226.778 314.286 226.752 314.312 226.728 314.336C226.704 314.361 226.682 314.383 226.662 314.403C226.62 314.31 226.568 314.192 226.505 314.051C226.324 313.646 226.058 313.046 225.715 312.27C225.03 310.719 224.038 308.462 222.814 305.643C220.368 300.005 216.993 292.117 213.281 283.12C205.857 265.123 197.094 242.705 191.719 224.98Z" fill="#ADDCF6"/>
<path d="M204.616 217.345C204.616 224.81 207.085 233.823 211.073 241.907C215.063 249.992 220.59 257.183 226.715 260.955C232.839 264.727 238.367 264.347 242.356 261.176C246.345 258.006 248.813 252.035 248.813 244.569C248.813 229.634 238.929 211.418 226.715 203.894C214.5 196.37 204.616 202.41 204.616 217.345ZM191.719 224.98L191.717 224.974L191.715 224.969C189.088 216.909 187.609 208.73 187.609 201.037C187.609 174.557 205.127 163.901 226.715 177.198C248.303 190.497 265.821 222.733 265.822 249.216C265.822 257.733 264.009 264.614 260.831 269.586L260.827 269.592L260.824 269.599C255.274 280.482 246.705 291.712 239.52 300.225C235.929 304.48 232.684 308.055 230.338 310.566C229.165 311.821 228.216 312.811 227.561 313.486C227.232 313.823 226.979 314.082 226.806 314.257C226.778 314.286 226.752 314.312 226.728 314.336C226.704 314.361 226.682 314.383 226.662 314.403C226.62 314.31 226.568 314.192 226.505 314.051C226.324 313.646 226.058 313.046 225.715 312.27C225.03 310.719 224.038 308.462 222.814 305.643C220.368 300.005 216.993 292.117 213.281 283.12C205.857 265.123 197.094 242.705 191.719 224.98Z" stroke="#242224" stroke-width="0.829284"/>
<path fill-rule="evenodd" clip-rule="evenodd" d="M414.492 116.919C411.922 116.458 409.497 116.634 407.368 117.544C404.994 118.558 403.234 120.379 402.093 122.783L403.386 123.294L401.369 124.642C399.325 131.16 400.974 140.81 406.41 150.326C414.621 164.697 428.361 173.32 437.101 169.586C440.486 168.14 442.624 165.052 443.497 160.977L421.023 137.366L414.492 116.919ZM408.722 98.8534L403.921 83.8214L404.004 82.7182L419.823 76.0397C421.103 75.3201 423.399 76.8478 424.152 79.2958L439.701 129.81C439.968 130.679 440.483 131.527 441.133 132.168L474.847 165.408C476.391 166.93 476.871 169.183 476.155 170.288C475.884 170.781 475.46 171.181 474.94 171.422L461.531 177.644L459.111 177.38L456.577 174.719L443.036 177.481C442.584 177.573 442.228 177.859 442.015 178.302L424.421 214.837C423.455 216.844 420.259 215.101 419.438 212.118L410.708 180.401L400.66 178.544L388.317 161.044L380.888 139.576L381.82 135.157L368.789 121.524C366.806 119.449 366.745 116.277 368.686 116.106L401.101 113.248C401.64 113.2 402.065 112.898 402.305 112.391L408.722 98.8534Z" fill="#ADDCF6"/>
<path d="M414.352 116.963L420.883 137.411L421.163 137.322L414.632 116.875L414.352 116.963ZM420.917 137.467L443.391 161.078L443.603 160.876L421.13 137.265L420.917 137.467ZM443.353 160.946C442.488 164.988 440.373 168.028 437.044 169.451L437.159 169.72C440.599 168.251 442.761 165.116 443.64 161.007L443.353 160.946ZM437.044 169.451C432.738 171.291 427.172 170.095 421.636 166.621C416.105 163.15 410.633 157.42 406.538 150.253L406.283 150.399C410.399 157.602 415.903 163.37 421.48 166.869C427.051 170.366 432.725 171.615 437.159 169.72L437.044 169.451ZM406.538 150.253C401.112 140.757 399.482 131.15 401.509 124.685L401.229 124.598C399.169 131.169 400.835 140.863 406.283 150.399L406.538 150.253ZM401.451 124.763L403.468 123.416L403.305 123.172L401.288 124.52L401.451 124.763ZM403.44 123.158L402.147 122.646L402.039 122.919L403.332 123.431L403.44 123.158ZM402.226 122.846C403.353 120.47 405.089 118.677 407.426 117.679L407.311 117.409C404.9 118.439 403.115 120.288 401.961 122.72L402.226 122.846ZM407.426 117.679C409.523 116.783 411.918 116.606 414.466 117.063L414.518 116.775C411.926 116.31 409.471 116.486 407.311 117.409L407.426 117.679ZM402.439 112.453L408.855 98.9161L408.589 98.7907L402.173 112.328L402.439 112.453ZM401.115 113.393C401.708 113.341 402.177 113.005 402.439 112.453L402.173 112.328C401.954 112.79 401.574 113.058 401.089 113.101L401.115 113.393ZM368.698 116.252L401.115 113.393L401.089 113.101L368.673 115.96L368.698 116.252ZM368.895 121.423C367.927 120.41 367.432 119.132 367.413 118.098C367.403 117.581 367.512 117.136 367.727 116.814C367.938 116.497 368.258 116.291 368.698 116.252L368.673 115.96C368.143 116.006 367.743 116.261 367.483 116.652C367.225 117.037 367.109 117.547 367.119 118.104C367.141 119.217 367.669 120.563 368.683 121.625L368.895 121.423ZM381.927 135.056L368.895 121.423L368.683 121.625L381.714 135.258L381.927 135.056ZM381.031 139.606L381.964 135.187L381.677 135.127L380.744 139.546L381.031 139.606ZM388.456 160.996L381.026 139.528L380.749 139.624L388.178 161.092L388.456 160.996ZM400.78 178.459L388.437 160.96L388.197 161.129L400.54 178.628L400.78 178.459ZM410.735 180.257L400.687 178.4L400.634 178.688L410.682 180.545L410.735 180.257ZM419.58 212.079L410.85 180.363L410.566 180.44L419.297 212.157L419.58 212.079ZM424.289 214.773C424.067 215.235 423.725 215.469 423.327 215.534C422.921 215.599 422.439 215.489 421.946 215.22C420.96 214.682 419.98 213.534 419.58 212.079L419.297 212.157C419.718 213.685 420.747 214.9 421.805 215.477C422.335 215.766 422.883 215.902 423.374 215.823C423.872 215.743 424.293 215.443 424.554 214.9L424.289 214.773ZM441.883 178.238L424.289 214.773L424.554 214.9L442.148 178.365L441.883 178.238ZM443.007 177.338C442.507 177.44 442.115 177.757 441.883 178.238L442.148 178.365C442.343 177.961 442.662 177.707 443.066 177.625L443.007 177.338ZM456.548 174.575L443.007 177.338L443.066 177.625L456.607 174.862L456.548 174.575ZM456.471 174.819L459.004 177.481L459.217 177.279L456.684 174.618L456.471 174.819ZM459.095 177.526L461.515 177.79L461.547 177.498L459.127 177.235L459.095 177.526ZM461.593 177.777L475.002 171.555L474.879 171.289L461.469 177.511L461.593 177.777ZM475.002 171.555C475.551 171.3 475.998 170.879 476.284 170.358L476.026 170.217C475.77 170.683 475.37 171.061 474.879 171.289L475.002 171.555ZM474.744 165.512C475.496 166.254 475.989 167.173 476.206 168.04C476.425 168.911 476.359 169.704 476.032 170.208L476.279 170.367C476.667 169.767 476.72 168.881 476.491 167.968C476.261 167.051 475.741 166.083 474.95 165.303L474.744 165.512ZM441.03 132.273L474.744 165.512L474.95 165.303L441.236 132.064L441.03 132.273ZM439.56 129.853C439.835 130.746 440.363 131.615 441.03 132.273L441.236 132.064C440.604 131.44 440.102 130.613 439.841 129.766L439.56 129.853ZM424.013 79.3389L439.56 129.853L439.841 129.766L424.293 79.2526L424.013 79.3389ZM419.895 76.1673C420.461 75.8498 421.289 76.0137 422.1 76.5987C422.902 77.1779 423.645 78.1454 424.013 79.3389L424.293 79.2526C423.907 77.9981 423.126 76.9777 422.271 76.3611C421.425 75.7503 420.466 75.5098 419.751 75.9119L419.895 76.1673ZM419.766 75.9044L403.947 82.5835L404.061 82.8533L419.88 76.1748L419.766 75.9044ZM403.858 82.7072L403.774 83.8104L404.067 83.8329L404.15 82.7291L403.858 82.7072ZM403.781 83.8662L408.582 98.8982L408.862 98.8091L404.06 83.7771L403.781 83.8662ZM421.023 137.366L420.883 137.411L420.894 137.443L420.917 137.467L421.023 137.366ZM443.497 160.977L443.64 161.007L443.657 160.931L443.603 160.876L443.497 160.977ZM401.369 124.641L401.288 124.52L401.245 124.548L401.229 124.598L401.369 124.641ZM403.386 123.294L403.468 123.416L403.701 123.261L403.44 123.158L403.386 123.294ZM402.093 122.782L401.961 122.72L401.893 122.861L402.039 122.919L402.093 122.782ZM414.492 116.919L414.632 116.875L414.605 116.79L414.518 116.775L414.492 116.919ZM381.821 135.157L381.964 135.187L381.98 135.112L381.927 135.056L381.821 135.157ZM380.888 139.576L380.744 139.546L380.736 139.586L380.749 139.624L380.888 139.576ZM388.317 161.044L388.178 161.092L388.185 161.111L388.197 161.129L388.317 161.044ZM400.66 178.544L400.54 178.628L400.575 178.677L400.634 178.688L400.66 178.544ZM410.708 180.401L410.85 180.363L410.825 180.274L410.735 180.257L410.708 180.401ZM456.577 174.719L456.684 174.618L456.627 174.559L456.548 174.575L456.577 174.719ZM459.111 177.38L459.004 177.481L459.042 177.52L459.095 177.526L459.111 177.38ZM461.531 177.644L461.515 177.79L461.555 177.794L461.593 177.777L461.531 177.644ZM476.155 170.288L476.032 170.208L476.029 170.213L476.026 170.217L476.155 170.288ZM419.823 76.0396L419.88 76.1748L419.888 76.1713L419.895 76.1673L419.823 76.0396ZM404.004 82.7181L403.947 82.5835L403.865 82.618L403.858 82.7072L404.004 82.7181ZM408.722 98.8534L408.855 98.9161L408.88 98.8637L408.862 98.8091L408.722 98.8534ZM403.921 83.8214L403.774 83.8104L403.772 83.8392L403.781 83.8662L403.921 83.8214Z" fill="#242224"/>
<path d="M424.175 215.854L440.139 181.843L424.285 181.549L407.219 198.604L412.061 220.293L424.175 215.854Z" fill="#ADDCF6"/>
<path d="M424.175 215.854L440.139 181.843L424.285 181.549L407.219 198.604L412.061 220.293L424.175 215.854Z" stroke="#242224" stroke-width="0.422935"/>
<path d="M366.331 116.407L351.365 123.305L383.073 122.658L398.041 113.173L366.331 116.407Z" fill="#ADDCF6"/>
<path d="M366.331 116.407L351.365 123.305L383.073 122.658L398.041 113.173L366.331 116.407Z" stroke="#242224" stroke-width="0.422935"/>
<path fill-rule="evenodd" clip-rule="evenodd" d="M420.58 176.251C429.32 172.518 429.749 157.84 421.538 143.469C413.328 129.098 399.587 120.475 390.847 124.21C382.107 127.944 381.678 142.62 389.889 156.991C398.099 171.363 411.84 179.985 420.58 176.251ZM407.631 85.9611C406.73 83.0334 403.622 81.4223 402.686 83.3975L385.784 119.056C385.544 119.563 385.119 119.866 384.581 119.913L352.164 122.772C350.224 122.942 350.285 126.115 352.268 128.19L387.637 165.192C388.121 165.698 388.524 166.319 388.794 166.976L409.356 216.902C410.526 219.742 413.512 220.898 414.222 218.785L425.514 185.205C425.712 184.614 426.127 184.238 426.682 184.146L460.877 178.47C462.781 178.154 462.543 174.857 460.475 172.891L424.663 138.846C423.982 138.199 423.44 137.324 423.163 136.423L407.631 85.9611Z" fill="#ADDCF6"/>
<mask id="mask19_114_8343" style="mask-type:luminance" maskUnits="userSpaceOnUse" x="350" y="81" width="113" height="140">
<mask id="mask20_114_8343" style="mask-type:luminance" maskUnits="userSpaceOnUse" x="350" y="81" width="113" height="140">
<path d="M350.158 81.9401H462.763V220.456H350.158V81.9401Z" fill="white"/>
</mask>
<g mask="url(#mask20_114_8343)">
<path d="M350.146 81.8649H462.797V220.539H350.146V81.8649Z" fill="black"/>
<mask id="mask21_114_8343" style="mask-type:luminance" maskUnits="userSpaceOnUse" x="350" y="81" width="113" height="140">
<path d="M350.146 81.8649H462.797V220.539H350.146V81.8649Z" fill="white"/>
</mask>
<g mask="url(#mask21_114_8343)">
<path fill-rule="evenodd" clip-rule="evenodd" d="M420.58 176.251C429.32 172.517 429.749 157.84 421.539 143.469C413.328 129.098 399.587 120.475 390.847 124.209C382.108 127.944 381.679 142.62 389.889 156.991C398.1 171.362 411.841 179.985 420.58 176.251ZM407.632 85.961C406.731 83.0333 403.623 81.4222 402.687 83.3974L385.785 119.056C385.545 119.563 385.12 119.866 384.581 119.913L352.165 122.771C350.225 122.942 350.285 126.115 352.268 128.19L387.637 165.192C388.121 165.697 388.524 166.319 388.795 166.976L409.356 216.901C410.526 219.742 413.512 220.898 414.223 218.785L425.514 185.204C425.713 184.614 426.128 184.237 426.683 184.145L460.878 178.469C462.782 178.154 462.544 174.857 460.476 172.891L424.663 138.846C423.982 138.199 423.441 137.324 423.163 136.423L407.632 85.961Z" fill="white"/>
</g>
</g>
</mask>
<g mask="url(#mask19_114_8343)">
<mask id="mask22_114_8343" style="mask-type:luminance" maskUnits="userSpaceOnUse" x="350" y="81" width="113" height="140">
<path d="M350.158 81.9401H462.763V220.456H350.158V81.9401Z" fill="white"/>
</mask>
<g mask="url(#mask22_114_8343)">
<path d="M420.35 175.712C416.237 177.469 410.831 176.355 405.348 172.915C399.887 169.487 394.463 163.813 390.399 156.701L389.379 157.283C393.527 164.541 399.078 170.365 404.724 173.907C410.349 177.437 416.183 178.768 420.811 176.791L420.35 175.712ZM390.399 156.701C386.334 149.586 384.429 142.43 384.599 136.629C384.768 130.819 387.001 126.49 391.078 124.749L390.617 123.67C385.954 125.663 383.602 130.54 383.425 136.595C383.248 142.658 385.234 150.026 389.379 157.283L390.399 156.701ZM391.078 124.749C395.19 122.992 400.596 124.106 406.079 127.546C411.541 130.975 416.965 136.648 421.028 143.76L422.048 143.179C417.901 135.921 412.349 130.097 406.704 126.554C401.078 123.024 395.244 121.693 390.617 123.67L391.078 124.749ZM421.028 143.76C425.094 150.875 426.999 158.031 426.829 163.832C426.659 169.642 424.426 173.971 420.35 175.712L420.811 176.791C425.474 174.798 427.825 169.921 428.002 163.866C428.179 157.803 426.194 150.435 422.048 143.179L421.028 143.76ZM407.071 86.1338L422.602 136.596L423.724 136.251L408.192 85.7893L407.071 86.1338ZM422.602 136.596C422.909 137.592 423.505 138.554 424.259 139.271L425.068 138.422C424.46 137.844 423.972 137.055 423.724 136.251L422.602 136.596ZM424.259 139.271L460.071 173.317L460.88 172.467L425.068 138.422L424.259 139.271ZM460.071 173.317C461.003 174.202 461.511 175.383 461.58 176.342C461.615 176.821 461.537 177.201 461.395 177.457C461.264 177.694 461.07 177.843 460.781 177.892L460.974 179.048C461.637 178.939 462.127 178.557 462.422 178.026C462.706 177.513 462.797 176.887 462.751 176.258C462.66 174.997 462.016 173.547 460.88 172.467L460.071 173.317ZM460.781 177.892L426.586 183.567L426.779 184.724L460.974 179.048L460.781 177.892ZM426.586 183.567C425.79 183.699 425.216 184.249 424.957 185.018L426.07 185.391C426.209 184.979 426.465 184.776 426.779 184.724L426.586 183.567ZM424.957 185.018L413.666 218.598L414.779 218.972L426.07 185.391L424.957 185.018ZM413.666 218.598C413.537 218.983 413.333 219.156 413.126 219.231C412.9 219.313 412.575 219.309 412.173 219.154C411.366 218.842 410.433 217.976 409.899 216.679L408.813 217.125C409.449 218.668 410.594 219.8 411.749 220.248C412.329 220.472 412.957 220.539 413.527 220.333C414.116 220.119 414.552 219.644 414.779 218.972L413.666 218.598ZM409.899 216.679L389.337 166.753L388.252 167.199L408.813 217.125L409.899 216.679ZM389.337 166.753C389.039 166.03 388.596 165.346 388.062 164.787L387.212 165.597C387.645 166.049 388.008 166.609 388.252 167.199L389.337 166.753ZM388.062 164.787L352.693 127.785L351.844 128.595L387.212 165.597L388.062 164.787ZM352.693 127.785C351.794 126.845 351.349 125.671 351.332 124.756C351.323 124.298 351.421 123.95 351.572 123.724C351.71 123.517 351.91 123.383 352.216 123.356L352.113 122.187C351.449 122.246 350.929 122.573 350.595 123.073C350.273 123.555 350.146 124.161 350.159 124.778C350.182 126.011 350.759 127.46 351.844 128.595L352.693 127.785ZM352.216 123.356L384.633 120.497L384.53 119.329L352.113 122.187L352.216 123.356ZM384.633 120.497C385.389 120.431 385.99 119.994 386.315 119.307L385.254 118.805C385.099 119.133 384.851 119.3 384.53 119.329L384.633 120.497ZM386.315 119.307L403.217 83.6484L402.156 83.1463L385.254 118.805L386.315 119.307ZM403.217 83.6484C403.375 83.3142 403.593 83.1744 403.834 83.1296C404.103 83.0801 404.473 83.1388 404.902 83.3614C405.759 83.806 406.663 84.8097 407.071 86.1338L408.192 85.7893C407.699 84.1856 406.598 82.9196 405.442 82.3203C404.865 82.0206 404.225 81.8647 403.62 81.9763C402.987 82.0937 402.465 82.4928 402.156 83.1463L403.217 83.6484Z" fill="#242224"/>
</g>
</g>
<path d="M188.55 319.521L519.537 167.329C519.723 167.244 519.911 167.445 519.812 167.624C518.844 169.96 517.318 172.022 515.368 173.631L512.243 176.208L511.575 176.566L506.198 180.713C504.49 182.031 502.638 183.152 500.679 184.057L169.297 336.989L166.36 336.113L188.55 319.521Z" fill="#FF6721"/>
<path d="M188.55 319.521L519.537 167.329C519.723 167.244 519.911 167.445 519.812 167.624C518.844 169.96 517.318 172.022 515.368 173.631L512.243 176.208L511.575 176.566L506.198 180.713C504.49 182.031 502.638 183.152 500.679 184.057L169.297 336.989L166.36 336.113L188.55 319.521Z" stroke="#242224" stroke-width="0.829284"/>
<path d="M177.612 329.875L511.888 176.448L495.764 190.39C493.724 192.154 491.446 193.623 488.997 194.753L173.662 340.896L158.359 347.343L155.422 346.467L177.612 329.875Z" fill="#FF6721"/>
<path d="M177.612 329.875L511.888 176.448L495.764 190.39C493.724 192.154 491.446 193.623 488.997 194.753L173.662 340.896L158.359 347.343L155.422 346.467L177.612 329.875Z" stroke="#242224" stroke-width="0.829284"/>
<path d="M203.68 298.902L520.854 149.48" stroke="#FCF8F2" stroke-width="0.913871" stroke-dasharray="5.48 5.48"/>
<path d="M473.34 51.2321L138.242 200.335L129.479 200.124L132.998 197.769L463.717 47.8207C467.502 46.1049 471.973 47.3277 474.355 50.7306L473.34 51.2321Z" fill="#FF6721"/>
<path d="M473.34 51.2321L138.242 200.335L129.479 200.124L132.998 197.769L463.717 47.8207C467.502 46.1049 471.973 47.3277 474.355 50.7306L473.34 51.2321Z" stroke="#242224" stroke-width="0.829284"/>
<path d="M154.173 303.357C141.572 293.795 131.351 270.526 131.351 251.402C131.351 232.278 141.572 224.522 154.173 234.084C166.773 243.646 176.994 266.915 176.994 286.039C176.994 305.163 166.773 312.919 154.173 303.357ZM193.934 271.449L170.562 220.81C161.508 200.199 149.58 190.809 138.313 195.107L129.552 199.468L114.39 213.656C105.336 220.526 105.336 242.826 114.39 263.438L137.762 316.648C145.483 334.226 147.978 349.4 156.907 347.905C158.447 347.646 171.584 342.587 173.662 340.896L185.701 331.479L196.883 322.395C205.936 315.524 202.987 292.06 193.934 271.449Z" fill="#FF6721"/>
<path d="M154.173 303.357C141.572 293.795 131.351 270.526 131.351 251.402C131.351 232.278 141.572 224.522 154.173 234.084C166.773 243.646 176.994 266.915 176.994 286.039C176.994 305.163 166.773 312.919 154.173 303.357ZM193.934 271.449L170.562 220.81C161.508 200.199 149.58 190.809 138.313 195.107L129.552 199.468L114.39 213.656C105.336 220.526 105.336 242.826 114.39 263.438L137.762 316.648C145.483 334.226 147.978 349.4 156.907 347.905C158.447 347.646 171.584 342.587 173.662 340.896L185.701 331.479L196.883 322.395C205.936 315.524 202.987 292.06 193.934 271.449Z" stroke="#242224" stroke-width="1.09631"/>
<path d="M154.173 303.357C141.572 293.795 131.351 270.526 131.351 251.402C131.351 232.278 141.572 224.522 154.173 234.084C166.773 243.646 176.994 266.915 176.994 286.039C176.994 305.163 166.773 312.919 154.173 303.357ZM193.934 271.449L170.562 220.81C161.508 200.199 149.58 190.809 138.313 195.107L129.552 199.468L114.39 213.656C105.336 220.526 105.336 242.826 114.39 263.438L137.762 316.648C145.483 334.226 147.978 349.4 156.907 347.905C158.447 347.646 171.584 342.587 173.662 340.896L185.701 331.479L196.883 322.395C205.936 315.524 202.987 292.06 193.934 271.449Z" fill="#FF6721"/>
<path d="M154.173 303.357C141.572 293.795 131.351 270.526 131.351 251.402C131.351 232.278 141.572 224.522 154.173 234.084C166.773 243.646 176.994 266.915 176.994 286.039C176.994 305.163 166.773 312.919 154.173 303.357ZM193.934 271.449L170.562 220.81C161.508 200.199 149.58 190.809 138.313 195.107L129.552 199.468L114.39 213.656C105.336 220.526 105.336 242.826 114.39 263.438L137.762 316.648C145.483 334.226 147.978 349.4 156.907 347.905C158.447 347.646 171.584 342.587 173.662 340.896L185.701 331.479L196.883 322.395C205.936 315.524 202.987 292.06 193.934 271.449Z" stroke="#242224" stroke-width="1.09631"/>
<path d="M143.943 308.074C131.343 298.512 121.122 275.243 121.122 256.119C121.122 236.995 131.343 229.238 143.943 238.8C156.543 248.362 166.764 271.632 166.764 290.756C166.764 309.88 156.543 317.636 143.943 308.074ZM183.704 276.165L160.332 225.528C151.279 204.916 136.586 193.766 127.532 200.636L104.16 218.373C95.1065 225.243 95.1065 247.543 104.16 268.155L127.532 321.364C136.586 341.976 151.279 353.126 160.332 346.256L183.704 325.947C192.758 319.077 192.758 296.777 183.704 276.165Z" fill="#FF6721"/>
<path d="M154.173 303.357C141.572 293.795 131.351 270.526 131.351 251.402C131.351 232.278 141.572 224.522 154.173 234.084C166.773 243.646 176.994 266.915 176.994 286.039C176.994 305.163 166.773 312.919 154.173 303.357ZM193.934 271.449L170.562 220.81C161.508 200.199 149.58 190.809 138.313 195.107L129.552 199.468L114.39 213.656C105.336 220.526 105.336 242.826 114.39 263.438L137.762 316.648C145.483 334.226 147.978 349.4 156.907 347.905C158.447 347.646 171.584 342.587 173.662 340.896L185.701 331.479L196.883 322.395C205.936 315.524 202.987 292.06 193.934 271.449Z" fill="#FF6721"/>
<path d="M154.173 303.357C141.572 293.795 131.351 270.526 131.351 251.402C131.351 232.278 141.572 224.522 154.173 234.084C166.773 243.646 176.994 266.915 176.994 286.039C176.994 305.163 166.773 312.919 154.173 303.357ZM193.934 271.449L170.562 220.81C161.508 200.199 149.58 190.809 138.313 195.107L129.552 199.468L114.39 213.656C105.336 220.526 105.336 242.826 114.39 263.438L137.762 316.648C145.483 334.226 147.978 349.4 156.907 347.905C158.447 347.646 171.584 342.587 173.662 340.896L185.701 331.479L196.883 322.395C205.936 315.524 202.987 292.06 193.934 271.449Z" stroke="#242224" stroke-width="1.09631"/>
<path d="M143.943 308.074C131.343 298.512 121.122 275.243 121.122 256.119C121.122 236.995 131.343 229.238 143.943 238.8C156.543 248.362 166.764 271.632 166.764 290.756C166.764 309.88 156.543 317.636 143.943 308.074ZM183.704 276.165L160.332 225.528C151.279 204.916 136.586 193.766 127.532 200.636L104.16 218.373C95.1065 225.243 95.1065 247.543 104.16 268.155L127.532 321.364C136.586 341.976 151.279 353.126 160.332 346.256L183.704 325.947C192.758 319.077 192.758 296.777 183.704 276.165Z" fill="#FF6721"/>
<path d="M143.943 308.074C131.343 298.512 121.122 275.243 121.122 256.119C121.122 236.995 131.343 229.238 143.943 238.8C156.543 248.362 166.764 271.632 166.764 290.756C166.764 309.88 156.543 317.636 143.943 308.074ZM183.704 276.165L160.332 225.528C151.279 204.916 136.586 193.766 127.532 200.636L104.16 218.373C95.1065 225.243 95.1065 247.543 104.16 268.155L127.532 321.364C136.586 341.976 151.279 353.126 160.332 346.256L183.704 325.947C192.758 319.077 192.758 296.777 183.704 276.165Z" stroke="#242224" stroke-width="1.09631"/>
<path d="M473.505 49.7555L472.61 48.9871L149.202 195.278L149.344 195.333C151.026 195.994 152.641 196.811 154.169 197.774L154.417 197.93L476.333 52.5751L473.505 49.7555Z" fill="#CC521A"/>
<path d="M473.505 49.7555L472.61 48.9871L149.202 195.278L149.344 195.333C151.026 195.994 152.641 196.811 154.169 197.774L154.417 197.93L476.333 52.5751L473.505 49.7555Z" stroke="#242224" stroke-width="0.829284"/>
<path d="M515.587 173.469L511.765 176.501L199.32 319.849L200.189 318.353L201.299 315.604L201.734 313.384L520.028 167.189L519.263 168.81C518.716 169.965 517.981 171.021 517.088 171.935L515.587 173.469Z" fill="#CC521A"/>
<path d="M515.587 173.469L511.765 176.501L199.32 319.849L200.189 318.353L201.299 315.604L201.734 313.384L520.028 167.189L519.263 168.81C518.716 169.965 517.981 171.021 517.088 171.935L515.587 173.469Z" stroke="#242224" stroke-width="0.829284"/>
</g>
<path d="M410.604 39.5099L413.467 45.7502L413.728 45.63L410.866 39.3903L410.604 39.5099ZM413.538 45.5592L155.774 163.594L155.895 163.855L413.658 45.8209L413.538 45.5592ZM155.966 163.665L153.103 157.425L152.841 157.545L155.704 163.784L155.966 163.665ZM152.854 157.402L143.233 170.94L143.467 171.107L153.089 157.568L152.854 157.402ZM143.337 171.166L159.883 172.722L159.91 172.436L143.364 170.88L143.337 171.166ZM160.027 172.519L157.165 166.279L156.903 166.399L159.766 172.639L160.027 172.519ZM157.094 166.47L414.857 48.4352L414.737 48.174L156.974 166.208L157.094 166.47ZM414.666 48.3644L417.529 54.6041L417.791 54.4845L414.928 48.2448L414.666 48.3644ZM417.777 54.6277L427.399 41.0888L427.164 40.9226L417.542 54.4614L417.777 54.6277ZM427.295 40.8628L410.748 39.3069L410.721 39.5934L427.268 41.1492L427.295 40.8628ZM413.598 45.6898L413.658 45.8209L413.788 45.7605L413.728 45.63L413.598 45.6898ZM155.834 163.725L155.704 163.784L155.763 163.916L155.895 163.855L155.834 163.725ZM152.972 157.485L153.103 157.425L152.999 157.199L152.854 157.402L152.972 157.485ZM143.35 171.023L143.233 170.94L143.089 171.143L143.337 171.166L143.35 171.023ZM159.896 172.579L159.883 172.722L160.131 172.746L160.027 172.519L159.896 172.579ZM157.034 166.339L156.974 166.208L156.843 166.268L156.903 166.399L157.034 166.339ZM414.797 48.3046L414.928 48.2448L414.868 48.1136L414.737 48.174L414.797 48.3046ZM417.659 54.5443L417.529 54.6041L417.633 54.8307L417.777 54.6277L417.659 54.5443ZM410.735 39.4501L410.748 39.3069L410.5 39.2833L410.604 39.5099L410.735 39.4501ZM427.281 41.006L427.399 41.0888L427.543 40.8858L427.295 40.8628L427.281 41.006Z" fill="#FCF8F2"/>
</g>
<defs>
<clipPath id="clip0_114_8343">
<rect width="640" height="425.903" fill="white" transform="translate(0 0.464966)"/>
</clipPath>
</defs>
</svg>
