<svg width="640" height="427" viewBox="0 0 640 427" fill="none" xmlns="http://www.w3.org/2000/svg">
<g clip-path="url(#clip0_114_8346)">
<mask id="mask0_114_8346" style="mask-type:luminance" maskUnits="userSpaceOnUse" x="0" y="0" width="641" height="427">
<path d="M0 0.551727H640.002V426.644H0V0.551727Z" fill="white"/>
</mask>
<g mask="url(#mask0_114_8346)">
<path d="M186.103 395.914L43.4792 319.304C40.7123 317.794 38.7186 314.419 38.805 311.551C38.8165 311.168 38.5977 306.44 38.7198 306.076C39.2817 304.393 40.8608 307.261 42.725 306.41L425.488 131.637C427.448 130.743 429.715 130.821 431.609 131.85L578.078 203.294C583.046 205.994 581.617 219.011 576.47 221.352L192.225 396.135C190.263 397.028 187.996 396.946 186.103 395.914Z" stroke="#343438" stroke-width="0.917188" stroke-miterlimit="10"/>
<path d="M186.104 389.311L42.29 312.051C37.3343 309.349 37.5905 302.151 42.7252 299.807L425.488 125.034C427.448 124.14 429.715 124.218 431.609 125.247L576.905 202.495C581.873 205.195 581.617 212.408 576.47 214.749L192.226 389.532C190.264 390.425 187.996 390.343 186.104 389.311Z" stroke="#343438" stroke-width="0.917188" stroke-miterlimit="10"/>
<path d="M189.191 390.149V396.747" stroke="#343438" stroke-width="0.917188" stroke-miterlimit="10"/>
<path d="M186.095 382.41L56.267 312.78C51.4892 310.173 51.7356 303.234 56.6867 300.973L425.768 132.448C427.658 131.584 429.845 131.66 431.67 132.652L562.928 202.273C567.718 204.875 567.472 211.831 562.509 214.088L191.999 382.624C190.106 383.485 187.92 383.405 186.095 382.41Z" stroke="#343438" stroke-width="0.917188" stroke-miterlimit="10" stroke-dasharray="4.88 7.63"/>
</g>
<mask id="mask1_114_8346" style="mask-type:luminance" maskUnits="userSpaceOnUse" x="0" y="0" width="641" height="427">
<path d="M0 0.551727H640.002V426.644H0V0.551727Z" fill="white"/>
</mask>
<g mask="url(#mask1_114_8346)">
<mask id="mask2_114_8346" style="mask-type:luminance" maskUnits="userSpaceOnUse" x="128" y="50" width="367" height="293">
<path d="M128.43 50.7239H494.383V342.873H128.43V50.7239Z" fill="white"/>
</mask>
<g mask="url(#mask2_114_8346)">
<g opacity="0.800003">
<path d="M130.679 202.332L457.582 50.7237L448.496 71.8086C446.542 76.3437 446.624 81.498 448.722 85.9686L453.749 96.6811C454.265 97.782 454.664 98.934 454.938 100.119L462.979 134.842C463.663 137.794 465.111 140.513 467.18 142.728L489.734 166.88C497.725 175.438 495.059 189.296 484.462 194.28L169.703 342.324C166.863 343.659 163.477 342.476 162.088 339.663L137.914 290.673L129.613 269.434C128.753 267.231 128.354 264.874 128.442 262.511L130.679 202.332Z" fill="#33B0FF"/>
</g>
</g>
<path d="M130.679 202.332L457.582 50.7237L448.496 71.8086C446.542 76.3437 446.624 81.498 448.722 85.9686L453.749 96.6811C454.265 97.782 454.664 98.934 454.938 100.119L462.979 134.842C463.663 137.794 465.111 140.513 467.18 142.728L489.734 166.88C497.725 175.438 495.059 189.296 484.462 194.28L169.703 342.324C166.863 343.659 163.477 342.476 162.088 339.663L137.914 290.673L129.613 269.434C128.753 267.231 128.354 264.874 128.442 262.511L130.679 202.332Z" stroke="#242224" stroke-width="0.82265"/>
<path d="M97.8748 244.586L428.924 87.7088" stroke="#FCF8F2" stroke-width="0.913871" stroke-dasharray="5.48 5.48"/>
<path d="M485.775 151.225C473.175 141.797 462.954 118.851 462.954 99.994C462.954 81.1366 473.175 73.4883 485.775 82.917C498.375 92.3457 508.597 115.291 508.597 134.148C508.597 153.006 498.375 160.654 485.775 151.225ZM525.537 119.761L502.165 69.8291C494.824 53.35 486.574 45.7248 476.914 44.4082C472.014 43.7401 467.969 45.4394 464.096 47.3406L461.155 48.7844L445.993 62.7741C436.939 69.5488 436.939 91.5384 445.993 111.863L469.364 164.33C477.086 181.664 479.581 196.626 488.509 195.151C490.05 194.897 503.187 189.909 505.264 188.24L517.303 178.956L528.486 169.998C537.539 163.223 534.59 140.085 525.537 119.761Z" fill="#33B0FF"/>
<path d="M485.775 151.225C473.175 141.797 462.954 118.851 462.954 99.994C462.954 81.1366 473.175 73.4883 485.775 82.917C498.375 92.3457 508.597 115.291 508.597 134.148C508.597 153.006 498.375 160.654 485.775 151.225ZM525.537 119.761L502.165 69.8291C494.824 53.35 486.574 45.7248 476.914 44.4082C472.014 43.7401 467.969 45.4394 464.096 47.3406L461.155 48.7844L445.993 62.7741C436.939 69.5488 436.939 91.5383 445.993 111.863L469.364 164.33C477.086 181.664 479.581 196.626 488.509 195.151C490.05 194.897 503.187 189.909 505.264 188.24L517.303 178.956L528.486 169.998C537.539 163.223 534.59 140.085 525.537 119.761Z" stroke="#242224" stroke-width="1.09631"/>
<path d="M475.546 155.877C462.946 146.448 452.725 123.503 452.725 104.645C452.725 85.7879 462.946 78.1397 475.546 87.5684C488.147 96.997 498.368 119.942 498.368 138.8C498.368 157.657 488.147 165.305 475.546 155.877ZM515.308 124.412L491.936 74.4804C482.882 54.1562 468.189 43.1612 459.136 49.9359L435.764 67.4254C426.71 74.2002 426.71 96.1897 435.764 116.514L459.136 168.981C468.189 189.306 482.882 200.301 491.936 193.526L515.308 173.501C524.361 166.726 524.361 144.737 515.308 124.412Z" fill="#33B0FF"/>
<path d="M475.546 155.877C462.946 146.448 452.725 123.503 452.725 104.645C452.725 85.7879 462.946 78.1397 475.546 87.5684C488.147 96.997 498.368 119.942 498.368 138.8C498.368 157.657 488.147 165.305 475.546 155.877ZM515.308 124.412L491.936 74.4804C482.882 54.1562 468.189 43.1612 459.136 49.9359L435.764 67.4254C426.71 74.2002 426.71 96.1897 435.764 116.514L459.136 168.981C468.189 189.306 482.882 200.301 491.936 193.526L515.308 173.501C524.361 166.726 524.361 144.737 515.308 124.412Z" stroke="#242224" stroke-width="1.09631"/>
<path fill-rule="evenodd" clip-rule="evenodd" d="M410.735 39.5542L427.281 41.1108L417.659 54.6551L414.797 48.4127L157.034 166.499L159.896 172.742L143.35 171.186L152.972 157.642L155.834 163.884L413.598 45.7973L410.735 39.5542Z" fill="#242224"/>
<path d="M342.356 229.781C347.551 247.326 346.259 262.212 337.112 265.122C335.641 265.59 330.475 267.601 328.912 267.342C320.76 265.994 313.59 255.041 309.231 240.318C306.016 229.459 303.058 220.165 305.695 213.057C306.255 209.76 306.895 209.104 309.344 207.498C311.246 206.251 314.863 203.767 316.387 203.281C325.534 200.372 337.161 212.236 342.356 229.781Z" fill="#ADDCF6"/>
<mask id="mask3_114_8346" style="mask-type:luminance" maskUnits="userSpaceOnUse" x="304" y="202" width="42" height="66">
<mask id="mask4_114_8346" style="mask-type:luminance" maskUnits="userSpaceOnUse" x="304" y="202" width="42" height="66">
<path d="M304.101 202.266H345.969V267.94H304.101V202.266Z" fill="white"/>
</mask>
<g mask="url(#mask4_114_8346)">
<path d="M303.784 201.179H346.514V267.994H303.784V201.179Z" fill="black"/>
<mask id="mask5_114_8346" style="mask-type:luminance" maskUnits="userSpaceOnUse" x="303" y="201" width="44" height="67">
<path d="M303.784 201.179H346.514V267.995H303.784V201.179Z" fill="white"/>
</mask>
<g mask="url(#mask5_114_8346)">
<path d="M342.356 229.781C347.551 247.326 346.259 262.212 337.112 265.122C335.641 265.59 330.474 267.601 328.912 267.342C320.76 265.993 313.59 255.04 309.231 240.318C306.016 229.459 303.057 220.165 305.694 213.057C306.255 209.76 306.895 209.104 309.344 207.498C311.246 206.251 314.862 203.766 316.387 203.281C325.534 200.372 337.161 212.236 342.356 229.781Z" fill="white"/>
</g>
</g>
</mask>
<g mask="url(#mask3_114_8346)">
<mask id="mask6_114_8346" style="mask-type:luminance" maskUnits="userSpaceOnUse" x="304" y="202" width="42" height="66">
<path d="M304.101 202.266H345.969V267.94H304.101V202.266Z" fill="white"/>
</mask>
<g mask="url(#mask6_114_8346)">
<path d="M309.659 207.98C310.62 207.349 311.986 206.425 313.313 205.591C314.661 204.744 315.882 204.046 316.561 203.83L316.211 202.733C315.366 203.002 314.017 203.789 312.7 204.617C311.362 205.458 309.968 206.4 309.027 207.017L309.659 207.98ZM306.261 213.153C306.54 211.52 306.824 210.637 307.285 209.97C307.749 209.298 308.428 208.787 309.659 207.98L309.027 207.017C307.81 207.815 306.945 208.435 306.337 209.317C305.725 210.202 305.409 211.297 305.127 212.96L306.261 213.153ZM329.005 266.775C325.151 266.137 321.437 263.206 318.119 258.513C314.81 253.833 311.951 247.477 309.783 240.154L308.678 240.481C310.869 247.882 313.775 254.364 317.179 259.177C320.574 263.979 324.521 267.199 328.818 267.91L329.005 266.775ZM336.936 264.574C336.558 264.694 335.946 264.912 335.239 265.16C334.524 265.41 333.699 265.694 332.872 265.956C332.043 266.219 331.224 266.455 330.522 266.608C329.792 266.768 329.275 266.819 329.005 266.775L328.818 267.91C329.329 267.995 330.043 267.891 330.768 267.733C331.52 267.567 332.377 267.32 333.22 267.054C334.063 266.786 334.902 266.497 335.619 266.246C336.343 265.993 336.928 265.784 337.286 265.67L336.936 264.574ZM309.783 240.154C308.171 234.711 306.639 229.71 305.834 225.18C305.03 220.651 304.967 216.67 306.234 213.257L305.154 212.857C303.784 216.551 303.881 220.772 304.701 225.381C305.519 229.99 307.075 235.066 308.678 240.481L309.783 240.154ZM316.561 203.83C320.825 202.474 325.8 204.527 330.441 209.264C335.063 213.979 339.227 221.242 341.804 229.944L342.907 229.618C340.289 220.774 336.042 213.334 331.264 208.458C326.506 203.604 321.095 201.18 316.211 202.733L316.561 203.83ZM341.804 229.944C344.388 238.672 345.344 246.695 344.54 252.865C343.736 259.05 341.197 263.218 336.936 264.574L337.286 265.67C342.172 264.116 344.853 259.387 345.683 253.014C346.513 246.628 345.518 238.435 342.907 229.618L341.804 229.944ZM305.694 213.057L306.234 213.257L306.253 213.207L306.261 213.153L305.694 213.057Z" fill="#242224"/>
</g>
</g>
<path d="M332.274 232.981C335.287 241.203 336.625 249.178 336.362 255.42C336.231 258.542 335.7 261.216 334.789 263.266C333.879 265.316 332.6 266.723 330.979 267.361C329.358 267.999 327.501 267.827 325.508 266.921C323.513 266.014 321.403 264.38 319.305 262.136C315.11 257.648 311.002 250.764 307.989 242.542C304.976 234.321 303.638 226.345 303.901 220.103C304.033 216.981 304.563 214.308 305.474 212.257C306.384 210.207 307.663 208.801 309.284 208.163C310.905 207.525 312.762 207.697 314.755 208.603C316.75 209.51 318.86 211.144 320.958 213.388C325.153 217.875 329.261 224.76 332.274 232.981Z" fill="#ADDCF6"/>
<path d="M332.274 232.981C335.287 241.203 336.625 249.178 336.362 255.42C336.231 258.542 335.7 261.216 334.789 263.266C333.879 265.316 332.6 266.723 330.979 267.361C329.358 267.999 327.501 267.827 325.508 266.921C323.513 266.014 321.403 264.38 319.305 262.136C315.11 257.648 311.002 250.764 307.989 242.542C304.976 234.321 303.638 226.345 303.901 220.103C304.033 216.981 304.563 214.308 305.474 212.257C306.384 210.207 307.663 208.801 309.284 208.163C310.905 207.525 312.762 207.697 314.755 208.603C316.75 209.51 318.86 211.144 320.958 213.388C325.153 217.875 329.261 224.76 332.274 232.981Z" stroke="#242224" stroke-width="0.829284"/>
<path d="M307.617 160.283C312.811 177.828 311.52 192.715 302.372 195.624C300.901 196.092 295.735 198.103 294.173 197.845C286.021 196.496 278.851 185.543 274.492 170.82C271.276 159.961 268.318 150.667 270.956 143.559C271.516 140.262 272.157 139.606 274.604 138.001C276.507 136.753 280.123 134.269 281.648 133.784C290.795 130.874 302.422 142.738 307.617 160.283Z" fill="#ADDCF6"/>
<mask id="mask7_114_8346" style="mask-type:luminance" maskUnits="userSpaceOnUse" x="269" y="132" width="43" height="67">
<mask id="mask8_114_8346" style="mask-type:luminance" maskUnits="userSpaceOnUse" x="269" y="132" width="43" height="67">
<path d="M269.362 132.768H311.229V198.443H269.362V132.768Z" fill="white"/>
</mask>
<g mask="url(#mask8_114_8346)">
<path d="M269.045 131.682H311.775V198.497H269.045V131.682Z" fill="black"/>
<mask id="mask9_114_8346" style="mask-type:luminance" maskUnits="userSpaceOnUse" x="269" y="131" width="43" height="68">
<path d="M269.045 131.682H311.775V198.497H269.045V131.682Z" fill="white"/>
</mask>
<g mask="url(#mask9_114_8346)">
<path d="M307.617 160.283C312.811 177.828 311.519 192.715 302.372 195.624C300.901 196.092 295.735 198.103 294.173 197.845C286.021 196.496 278.851 185.543 274.492 170.82C271.276 159.961 268.318 150.667 270.955 143.559C271.516 140.262 272.156 139.606 274.604 138.001C276.507 136.753 280.123 134.269 281.648 133.784C290.794 130.874 302.422 142.738 307.617 160.283Z" fill="white"/>
</g>
</g>
</mask>
<g mask="url(#mask7_114_8346)">
<mask id="mask10_114_8346" style="mask-type:luminance" maskUnits="userSpaceOnUse" x="269" y="132" width="43" height="67">
<path d="M269.362 132.768H311.229V198.443H269.362V132.768Z" fill="white"/>
</mask>
<g mask="url(#mask10_114_8346)">
<path d="M274.92 138.482C275.881 137.852 277.248 136.927 278.574 136.094C279.922 135.246 281.143 134.548 281.822 134.332L281.472 133.235C280.627 133.505 279.278 134.291 277.961 135.119C276.623 135.961 275.229 136.903 274.289 137.519L274.92 138.482ZM271.523 143.655C271.801 142.022 272.085 141.14 272.546 140.472C273.01 139.8 273.689 139.289 274.92 138.482L274.289 137.519C273.071 138.318 272.206 138.937 271.598 139.819C270.986 140.705 270.67 141.799 270.388 143.463L271.523 143.655ZM294.267 197.277C290.412 196.639 286.698 193.708 283.38 189.016C280.071 184.335 277.212 177.979 275.044 170.657L273.939 170.983C276.13 178.384 279.036 184.865 282.44 189.68C285.835 194.481 289.782 197.701 294.079 198.413L294.267 197.277ZM302.197 195.076C301.819 195.196 301.207 195.415 300.5 195.662C299.785 195.912 298.96 196.197 298.133 196.458C297.305 196.721 296.485 196.957 295.783 197.11C295.054 197.27 294.536 197.322 294.267 197.277L294.079 198.413C294.59 198.497 295.304 198.394 296.03 198.235C296.781 198.07 297.638 197.822 298.481 197.555C299.324 197.288 300.163 196.999 300.88 196.748C301.604 196.495 302.189 196.286 302.547 196.172L302.197 195.076ZM275.044 170.657C273.432 165.213 271.9 160.212 271.095 155.682C270.291 151.154 270.229 147.173 271.495 143.759L270.415 143.359C269.045 147.053 269.143 151.274 269.962 155.884C270.78 160.492 272.336 165.568 273.939 170.983L275.044 170.657ZM281.822 134.332C286.086 132.976 291.061 135.03 295.702 139.765C300.324 144.481 304.488 151.745 307.065 160.446L308.168 160.12C305.55 151.277 301.303 143.836 296.525 138.96C291.768 134.106 286.356 131.682 281.472 133.235L281.822 134.332ZM307.065 160.446C309.649 169.174 310.605 177.196 309.802 183.368C308.997 189.552 306.458 193.72 302.197 195.076L302.547 196.172C307.433 194.618 310.114 189.889 310.944 183.516C311.774 177.13 310.779 168.937 308.168 160.12L307.065 160.446ZM270.955 143.559L271.495 143.759L271.514 143.708L271.523 143.655L270.955 143.559Z" fill="#242224"/>
</g>
</g>
<path d="M297.535 163.484C300.548 171.704 301.886 179.68 301.623 185.922C301.492 189.044 300.96 191.718 300.05 193.769C299.139 195.818 297.861 197.225 296.24 197.863C294.619 198.501 292.762 198.329 290.769 197.423C288.774 196.516 286.664 194.882 284.566 192.638C280.371 188.151 276.262 181.265 273.25 173.045C270.236 164.823 268.898 156.847 269.162 150.605C269.293 147.483 269.825 144.81 270.736 142.759C271.646 140.71 272.924 139.303 274.545 138.665C276.166 138.026 278.023 138.199 280.017 139.105C282.011 140.012 284.121 141.646 286.219 143.89C290.414 148.377 294.522 155.262 297.535 163.484Z" fill="#ADDCF6"/>
<path d="M297.535 163.484C300.548 171.704 301.886 179.68 301.623 185.922C301.492 189.044 300.96 191.718 300.05 193.769C299.139 195.818 297.861 197.225 296.24 197.863C294.619 198.501 292.762 198.329 290.769 197.423C288.774 196.516 286.664 194.882 284.566 192.638C280.371 188.151 276.262 181.265 273.25 173.045C270.236 164.823 268.898 156.847 269.162 150.605C269.293 147.483 269.825 144.81 270.736 142.759C271.646 140.71 272.924 139.303 274.545 138.665C276.166 138.026 278.023 138.199 280.017 139.105C282.011 140.012 284.121 141.646 286.219 143.89C290.414 148.377 294.522 155.262 297.535 163.484Z" stroke="#242224" stroke-width="0.829284"/>
<path d="M376.263 203.588C381.459 221.132 380.166 236.018 371.019 238.929C369.548 239.396 364.382 241.408 362.82 241.149C354.668 239.8 347.498 228.847 343.138 214.124C339.923 203.265 336.965 193.971 339.602 186.863C340.162 183.566 340.803 182.911 343.251 181.305C345.154 180.058 348.77 177.573 350.294 177.088C359.441 174.178 371.068 186.043 376.263 203.588Z" fill="#ADDCF6"/>
<mask id="mask11_114_8346" style="mask-type:luminance" maskUnits="userSpaceOnUse" x="338" y="176" width="42" height="66">
<mask id="mask12_114_8346" style="mask-type:luminance" maskUnits="userSpaceOnUse" x="338" y="176" width="42" height="66">
<path d="M338.009 176.072H379.877V241.747H338.009V176.072Z" fill="white"/>
</mask>
<g mask="url(#mask12_114_8346)">
<path d="M337.691 174.986H380.422V241.801H337.691V174.986Z" fill="black"/>
<mask id="mask13_114_8346" style="mask-type:luminance" maskUnits="userSpaceOnUse" x="337" y="174" width="44" height="68">
<path d="M337.691 174.986H380.422V241.801H337.691V174.986Z" fill="white"/>
</mask>
<g mask="url(#mask13_114_8346)">
<path d="M376.263 203.588C381.459 221.132 380.166 236.019 371.02 238.929C369.548 239.396 364.382 241.408 362.82 241.149C354.668 239.8 347.498 228.847 343.138 214.124C339.923 203.265 336.965 193.971 339.602 186.863C340.162 183.566 340.803 182.911 343.251 181.305C345.154 180.058 348.77 177.573 350.295 177.088C359.441 174.178 371.069 186.043 376.263 203.588Z" fill="white"/>
</g>
</g>
</mask>
<g mask="url(#mask11_114_8346)">
<mask id="mask14_114_8346" style="mask-type:luminance" maskUnits="userSpaceOnUse" x="338" y="176" width="42" height="66">
<path d="M338.009 176.072H379.877V241.747H338.009V176.072Z" fill="white"/>
</mask>
<g mask="url(#mask14_114_8346)">
<path d="M343.567 181.786C344.528 181.156 345.894 180.232 347.221 179.398C348.569 178.551 349.79 177.853 350.468 177.636L350.12 176.54C349.274 176.809 347.925 177.595 346.608 178.424C345.269 179.265 343.877 180.207 342.935 180.824L343.567 181.786ZM340.17 186.96C340.447 185.327 340.731 184.444 341.193 183.777C341.657 183.105 342.336 182.594 343.567 181.786L342.935 180.824C341.718 181.622 340.853 182.242 340.244 183.123C339.633 184.009 339.317 185.103 339.034 186.767L340.17 186.96ZM362.914 240.582C359.058 239.943 355.345 237.013 352.027 232.32C348.718 227.64 345.858 221.283 343.69 213.961L342.586 214.288C344.778 221.688 347.683 228.17 351.087 232.984C354.481 237.786 358.429 241.006 362.725 241.717L362.914 240.582ZM370.844 238.38C370.466 238.501 369.854 238.719 369.147 238.966C368.432 239.216 367.606 239.501 366.779 239.763C365.951 240.025 365.132 240.261 364.429 240.415C363.701 240.575 363.183 240.626 362.914 240.582L362.725 241.717C363.237 241.801 363.951 241.698 364.676 241.539C365.428 241.374 366.285 241.126 367.127 240.86C367.971 240.593 368.81 240.304 369.527 240.053C370.251 239.799 370.836 239.591 371.193 239.477L370.844 238.38ZM343.69 213.961C342.078 208.518 340.547 203.516 339.742 198.987C338.938 194.458 338.875 190.477 340.142 187.064L339.062 186.663C337.691 190.358 337.79 194.578 338.608 199.188C339.427 203.797 340.982 208.873 342.586 214.288L343.69 213.961ZM350.468 177.636C354.732 176.281 359.708 178.334 364.349 183.07C368.97 187.785 373.134 195.049 375.711 203.751L376.815 203.424C374.197 194.581 369.95 187.14 365.172 182.265C360.414 177.41 355.003 174.986 350.12 176.54L350.468 177.636ZM375.711 203.751C378.295 212.479 379.252 220.501 378.449 226.672C377.644 232.856 375.105 237.025 370.844 238.38L371.193 239.477C376.08 237.923 378.761 233.193 379.59 226.821C380.421 220.435 379.426 212.241 376.815 203.424L375.711 203.751ZM339.602 186.864L340.142 187.064L340.16 187.013L340.17 186.96L339.602 186.864Z" fill="#242224"/>
</g>
</g>
<path d="M366.182 206.788C369.195 215.009 370.533 222.985 370.27 229.227C370.138 232.349 369.607 235.022 368.696 237.073C367.786 239.123 366.507 240.529 364.887 241.167C363.266 241.805 361.409 241.633 359.415 240.727C357.42 239.82 355.311 238.186 353.212 235.942C349.017 231.455 344.91 224.57 341.896 216.349C338.884 208.127 337.546 200.152 337.809 193.91C337.94 190.787 338.471 188.114 339.382 186.063C340.292 184.014 341.571 182.607 343.192 181.969C344.812 181.331 346.67 181.503 348.663 182.409C350.658 183.316 352.768 184.95 354.866 187.194C359.061 191.682 363.169 198.566 366.182 206.788Z" fill="#ADDCF6"/>
<path d="M366.182 206.788C369.195 215.009 370.533 222.985 370.27 229.227C370.138 232.349 369.607 235.022 368.696 237.073C367.786 239.123 366.507 240.529 364.887 241.167C363.266 241.805 361.409 241.633 359.415 240.727C357.42 239.82 355.311 238.186 353.212 235.942C349.017 231.455 344.91 224.57 341.896 216.349C338.884 208.127 337.546 200.152 337.809 193.91C337.94 190.787 338.471 188.114 339.382 186.063C340.292 184.014 341.571 182.607 343.192 181.969C344.812 181.331 346.67 181.503 348.663 182.409C350.658 183.316 352.768 184.95 354.866 187.194C359.061 191.682 363.169 198.566 366.182 206.788Z" stroke="#242224" stroke-width="0.829284"/>
<path d="M343.965 141.34C349.16 158.885 347.868 173.771 338.72 176.681C337.25 177.149 332.084 179.16 330.521 178.901C322.369 177.553 315.199 166.6 310.84 151.877C307.625 141.018 304.667 131.724 307.303 124.616C307.864 121.318 308.504 120.663 310.953 119.057C312.855 117.81 316.472 115.325 317.995 114.841C327.143 111.931 338.769 123.795 343.965 141.34Z" fill="#ADDCF6"/>
<mask id="mask15_114_8346" style="mask-type:luminance" maskUnits="userSpaceOnUse" x="305" y="113" width="43" height="67">
<mask id="mask16_114_8346" style="mask-type:luminance" maskUnits="userSpaceOnUse" x="305" y="113" width="43" height="67">
<path d="M305.711 113.824H347.578V179.499H305.711V113.824Z" fill="white"/>
</mask>
<g mask="url(#mask16_114_8346)">
<path d="M305.394 112.738H348.124V179.553H305.394V112.738Z" fill="black"/>
<mask id="mask17_114_8346" style="mask-type:luminance" maskUnits="userSpaceOnUse" x="305" y="112" width="44" height="68">
<path d="M305.394 112.738H348.124V179.554H305.394V112.738Z" fill="white"/>
</mask>
<g mask="url(#mask17_114_8346)">
<path d="M343.965 141.34C349.16 158.885 347.868 173.771 338.721 176.681C337.25 177.149 332.084 179.16 330.521 178.901C322.369 177.553 315.2 166.6 310.84 151.877C307.625 141.018 304.667 131.724 307.303 124.616C307.865 121.318 308.504 120.663 310.953 119.057C312.855 117.81 316.472 115.325 317.996 114.841C327.143 111.931 338.77 123.795 343.965 141.34Z" fill="white"/>
</g>
</g>
</mask>
<g mask="url(#mask15_114_8346)">
<mask id="mask18_114_8346" style="mask-type:luminance" maskUnits="userSpaceOnUse" x="305" y="113" width="43" height="67">
<path d="M305.711 113.824H347.578V179.499H305.711V113.824Z" fill="white"/>
</mask>
<g mask="url(#mask18_114_8346)">
<path d="M311.268 119.539C312.23 118.909 313.596 117.984 314.922 117.15C316.27 116.303 317.491 115.605 318.171 115.389L317.821 114.292C316.976 114.561 315.626 115.348 314.309 116.176C312.971 117.018 311.578 117.959 310.637 118.576L311.268 119.539ZM307.871 124.712C308.149 123.079 308.434 122.197 308.894 121.529C309.358 120.857 310.037 120.346 311.268 119.539L310.637 118.576C309.42 119.375 308.555 119.994 307.947 120.875C307.335 121.762 307.019 122.856 306.736 124.52L307.871 124.712ZM330.615 178.334C326.76 177.696 323.047 174.765 319.728 170.073C316.419 165.392 313.56 159.036 311.392 151.714L310.288 152.04C312.479 159.441 315.385 165.922 318.788 170.737C322.183 175.538 326.131 178.758 330.427 179.469L330.615 178.334ZM338.546 176.133C338.168 176.253 337.556 176.471 336.848 176.718C336.134 176.969 335.308 177.254 334.482 177.515C333.653 177.777 332.833 178.013 332.131 178.167C331.402 178.327 330.885 178.379 330.615 178.334L330.427 179.469C330.939 179.554 331.653 179.451 332.378 179.292C333.13 179.127 333.987 178.879 334.829 178.612C335.673 178.345 336.512 178.056 337.229 177.805C337.953 177.552 338.538 177.343 338.895 177.229L338.546 176.133ZM311.392 151.714C309.78 146.27 308.249 141.269 307.444 136.739C306.64 132.21 306.577 128.229 307.843 124.816L306.764 124.416C305.393 128.11 305.491 132.33 306.31 136.94C307.129 141.549 308.685 146.625 310.288 152.04L311.392 151.714ZM318.171 115.389C322.434 114.033 327.41 116.087 332.051 120.822C336.672 125.538 340.836 132.802 343.413 141.503L344.517 141.177C341.898 132.334 337.652 124.893 332.874 120.017C328.116 115.162 322.705 112.739 317.821 114.292L318.171 115.389ZM343.413 141.503C345.997 150.231 346.953 158.254 346.15 164.425C345.345 170.608 342.807 174.777 338.546 176.133L338.895 177.229C343.782 175.675 346.463 170.946 347.292 164.573C348.123 158.187 347.128 149.994 344.517 141.177L343.413 141.503ZM307.303 124.616L307.843 124.816L307.862 124.765L307.871 124.712L307.303 124.616Z" fill="#242224"/>
</g>
</g>
<path d="M333.883 144.54C336.897 152.761 338.235 160.737 337.972 166.979C337.84 170.101 337.309 172.775 336.398 174.826C335.488 176.875 334.209 178.282 332.588 178.92C330.968 179.558 329.11 179.385 327.117 178.479C325.122 177.572 323.012 175.938 320.914 173.695C316.719 169.207 312.611 162.322 309.598 154.101C306.585 145.88 305.247 137.904 305.51 131.662C305.641 128.54 306.173 125.867 307.084 123.816C307.994 121.767 309.272 120.36 310.894 119.721C312.514 119.083 314.372 119.255 316.365 120.162C318.359 121.069 320.469 122.702 322.567 124.946C326.763 129.434 330.871 136.319 333.883 144.54Z" fill="#ADDCF6"/>
<path d="M333.883 144.54C336.897 152.761 338.235 160.737 337.972 166.979C337.84 170.101 337.309 172.775 336.398 174.826C335.488 176.875 334.209 178.282 332.588 178.92C330.968 179.558 329.11 179.385 327.117 178.479C325.122 177.572 323.012 175.938 320.914 173.695C316.719 169.207 312.611 162.322 309.598 154.101C306.585 145.88 305.247 137.904 305.51 131.662C305.641 128.54 306.173 125.867 307.084 123.816C307.994 121.767 309.272 120.36 310.894 119.721C312.514 119.083 314.372 119.255 316.365 120.162C318.359 121.069 320.469 122.702 322.567 124.946C326.763 129.434 330.871 136.319 333.883 144.54Z" stroke="#242224" stroke-width="0.829284"/>
<path d="M217.336 210.706C217.336 218.219 219.804 227.276 223.793 235.394C227.783 243.513 233.31 250.725 239.435 254.5C245.56 258.274 251.087 257.874 255.076 254.673C259.066 251.471 261.534 245.456 261.534 237.942C261.534 222.912 251.651 204.612 239.435 197.084C227.219 189.556 217.336 195.675 217.336 210.706ZM201.442 226.826L201.44 226.821L201.439 226.815C200.797 224.834 200.398 222.309 200.169 219.492C199.94 216.682 199.881 213.608 199.904 210.538C199.928 207.47 200.034 204.411 200.134 201.63C200.14 201.477 200.145 201.324 200.151 201.173C200.245 198.577 200.329 196.238 200.329 194.391C200.329 190.364 199.192 187.321 198.247 184.796C198.125 184.467 198.005 184.147 197.892 183.835C197.401 182.482 197.035 181.301 196.987 180.15C196.938 179.004 197.203 177.851 198.037 176.604C210.119 163.153 225.055 161.385 239.435 170.246C261.022 183.549 278.541 215.931 278.542 242.591C278.542 251.153 276.856 255.793 273.542 263.131C267.99 274.109 260.342 284.923 254.079 292.996C250.948 297.033 248.164 300.382 246.163 302.723C245.162 303.892 244.357 304.81 243.802 305.436C243.525 305.748 243.311 305.988 243.165 306.149C243.092 306.229 243.037 306.291 243 306.332L242.961 306.375C238.368 308.401 229.205 313.121 226.977 314.299C223.768 306.123 218.555 288.175 213.567 270.331C211.603 263.31 209.676 256.307 207.922 249.933C205.149 239.86 202.809 231.356 201.442 226.826Z" fill="#ADDCF6"/>
<path d="M217.336 210.706C217.336 218.219 219.804 227.276 223.793 235.394C227.783 243.513 233.31 250.725 239.435 254.5C245.56 258.274 251.087 257.874 255.076 254.673C259.066 251.471 261.534 245.456 261.534 237.942C261.534 222.912 251.651 204.612 239.435 197.084C227.219 189.556 217.336 195.675 217.336 210.706ZM201.442 226.826L201.44 226.821L201.439 226.815C200.797 224.834 200.398 222.309 200.169 219.492C199.94 216.682 199.881 213.608 199.904 210.538C199.928 207.47 200.034 204.411 200.134 201.63C200.14 201.477 200.145 201.324 200.151 201.173C200.245 198.577 200.329 196.238 200.329 194.391C200.329 190.364 199.192 187.321 198.247 184.796C198.125 184.467 198.005 184.147 197.892 183.835C197.401 182.482 197.035 181.301 196.987 180.15C196.938 179.004 197.203 177.851 198.037 176.604C210.119 163.153 225.055 161.385 239.435 170.246C261.022 183.549 278.541 215.931 278.542 242.591C278.542 251.153 276.856 255.793 273.542 263.131C267.99 274.109 260.342 284.923 254.079 292.996C250.948 297.033 248.164 300.382 246.163 302.723C245.162 303.892 244.357 304.81 243.802 305.436C243.525 305.748 243.311 305.988 243.165 306.149C243.092 306.229 243.037 306.291 243 306.332L242.961 306.375C238.368 308.401 229.205 313.121 226.977 314.299C223.768 306.123 218.555 288.175 213.567 270.331C211.603 263.31 209.676 256.307 207.922 249.933C205.149 239.86 202.809 231.356 201.442 226.826Z" stroke="#242224" stroke-width="0.829284"/>
<path d="M204.616 217.528C204.616 224.997 207.085 234.013 211.073 242.102C215.063 250.19 220.59 257.384 226.715 261.157C232.839 264.932 238.367 264.551 242.356 261.379C246.345 258.207 248.813 252.233 248.813 244.765C248.813 229.823 238.929 211.598 226.715 204.071C214.5 196.544 204.616 202.587 204.616 217.528ZM191.719 225.166L191.717 225.16L191.715 225.155C189.088 217.092 187.609 208.91 187.609 201.213C187.609 174.721 205.127 164.061 226.715 177.364C248.303 190.668 265.821 222.919 265.822 249.414C265.822 257.934 264.009 264.818 260.831 269.793L260.827 269.798L260.824 269.805C255.274 280.693 246.705 291.928 239.52 300.445C235.929 304.702 232.684 308.278 230.338 310.79C229.165 312.046 228.216 313.036 227.561 313.712C227.232 314.05 226.979 314.309 226.806 314.483C226.778 314.512 226.752 314.539 226.728 314.562C226.704 314.587 226.682 314.609 226.662 314.63C226.62 314.536 226.568 314.418 226.505 314.277C226.324 313.872 226.058 313.272 225.715 312.496C225.03 310.943 224.038 308.686 222.814 305.865C220.368 300.224 216.993 292.333 213.281 283.333C205.857 265.327 197.094 242.899 191.719 225.166Z" fill="#ADDCF6"/>
<path d="M204.616 217.528C204.616 224.997 207.085 234.013 211.073 242.102C215.063 250.19 220.59 257.384 226.715 261.157C232.839 264.932 238.367 264.551 242.356 261.379C246.345 258.207 248.813 252.233 248.813 244.765C248.813 229.823 238.929 211.598 226.715 204.071C214.5 196.544 204.616 202.587 204.616 217.528ZM191.719 225.166L191.717 225.16L191.715 225.155C189.088 217.092 187.609 208.91 187.609 201.213C187.609 174.721 205.127 164.061 226.715 177.364C248.303 190.668 265.821 222.919 265.822 249.414C265.822 257.934 264.009 264.818 260.831 269.793L260.827 269.798L260.824 269.805C255.274 280.693 246.705 291.928 239.52 300.445C235.929 304.702 232.684 308.278 230.338 310.79C229.165 312.046 228.216 313.036 227.561 313.712C227.232 314.05 226.979 314.309 226.806 314.483C226.778 314.512 226.752 314.539 226.728 314.562C226.704 314.587 226.682 314.609 226.662 314.63C226.62 314.536 226.568 314.418 226.505 314.277C226.324 313.872 226.058 313.272 225.715 312.496C225.03 310.943 224.038 308.686 222.814 305.865C220.368 300.224 216.993 292.333 213.281 283.333C205.857 265.327 197.094 242.899 191.719 225.166Z" stroke="#242224" stroke-width="0.829284"/>
<path fill-rule="evenodd" clip-rule="evenodd" d="M414.492 117.058C411.922 116.596 409.497 116.773 407.368 117.683C404.994 118.697 403.234 120.52 402.093 122.924L403.386 123.436L401.369 124.784C399.325 131.305 400.974 140.959 406.41 150.48C414.621 164.857 428.361 173.484 437.101 169.748C440.486 168.301 442.624 165.212 443.497 161.135L421.023 137.514L414.492 117.058ZM408.722 98.9841L403.921 83.9454L404.004 82.8417L419.823 76.1602C421.103 75.4403 423.399 76.9687 424.152 79.4178L439.701 129.954C439.968 130.824 440.483 131.672 441.133 132.313L474.847 165.568C476.391 167.09 476.871 169.345 476.155 170.45C475.884 170.944 475.46 171.344 474.94 171.585L461.531 177.81L459.111 177.546L456.577 174.883L443.036 177.647C442.584 177.739 442.228 178.025 442.015 178.468L424.421 215.019C423.455 217.027 420.259 215.283 419.438 212.299L410.708 180.568L400.66 178.71L388.317 161.202L380.888 139.725L381.82 135.304L368.789 121.665C366.806 119.589 366.745 116.416 368.686 116.244L401.101 113.385C401.64 113.337 402.065 113.035 402.305 112.527L408.722 98.9841Z" fill="#FF6721"/>
<path d="M414.352 117.102L420.883 137.558L421.163 137.469L414.632 117.013L414.352 117.102ZM420.917 137.615L443.391 161.236L443.603 161.034L421.13 137.413L420.917 137.615ZM443.353 161.104C442.488 165.148 440.373 168.189 437.044 169.613L437.159 169.882C440.599 168.412 442.761 165.276 443.64 161.166L443.353 161.104ZM437.044 169.613C432.738 171.453 427.172 170.258 421.636 166.782C416.105 163.309 410.633 157.577 406.538 150.406L406.283 150.552C410.399 157.759 415.903 163.529 421.48 167.03C427.051 170.528 432.725 171.778 437.159 169.882L437.044 169.613ZM406.538 150.406C401.112 140.906 399.482 131.295 401.509 124.827L401.229 124.74C399.169 131.314 400.835 141.012 406.283 150.552L406.538 150.406ZM401.451 124.906L403.468 123.558L403.305 123.314L401.288 124.662L401.451 124.906ZM403.44 123.3L402.147 122.787L402.039 123.06L403.332 123.572L403.44 123.3ZM402.226 122.987C403.353 120.61 405.089 118.816 407.426 117.818L407.311 117.548C404.9 118.579 403.115 120.429 401.961 122.861L402.226 122.987ZM407.426 117.818C409.523 116.921 411.918 116.745 414.466 117.202L414.518 116.913C411.926 116.448 409.471 116.624 407.311 117.548L407.426 117.818ZM402.439 112.59L408.855 99.0468L408.589 98.9213L402.173 112.464L402.439 112.59ZM401.115 113.53C401.708 113.478 402.177 113.142 402.439 112.59L402.173 112.464C401.954 112.927 401.574 113.195 401.089 113.238L401.115 113.53ZM368.698 116.39L401.115 113.53L401.089 113.238L368.673 116.098L368.698 116.39ZM368.895 121.563C367.927 120.55 367.432 119.272 367.413 118.237C367.403 117.72 367.512 117.275 367.727 116.953C367.938 116.635 368.258 116.429 368.698 116.39L368.673 116.098C368.143 116.144 367.743 116.399 367.483 116.79C367.225 117.176 367.109 117.686 367.119 118.243C367.141 119.357 367.669 120.704 368.683 121.766L368.895 121.563ZM381.927 135.203L368.895 121.563L368.683 121.766L381.714 135.405L381.927 135.203ZM381.031 139.755L381.964 135.334L381.677 135.273L380.744 139.695L381.031 139.755ZM388.456 161.154L381.026 139.677L380.749 139.773L388.178 161.25L388.456 161.154ZM400.78 178.625L388.437 161.118L388.197 161.287L400.54 178.794L400.78 178.625ZM410.735 180.424L400.687 178.566L400.634 178.854L410.682 180.712L410.735 180.424ZM419.58 212.26L410.85 180.529L410.566 180.607L419.297 212.338L419.58 212.26ZM424.289 214.955C424.067 215.417 423.725 215.652 423.327 215.716C422.921 215.782 422.439 215.672 421.946 215.403C420.96 214.864 419.98 213.715 419.58 212.26L419.297 212.338C419.718 213.867 420.747 215.082 421.805 215.66C422.335 215.949 422.883 216.085 423.374 216.006C423.872 215.926 424.293 215.626 424.554 215.083L424.289 214.955ZM441.883 178.404L424.289 214.955L424.554 215.083L442.148 178.531L441.883 178.404ZM443.007 177.503C442.507 177.606 442.115 177.923 441.883 178.404L442.148 178.531C442.343 178.127 442.662 177.873 443.066 177.791L443.007 177.503ZM456.548 174.739L443.007 177.503L443.066 177.791L456.607 175.026L456.548 174.739ZM456.471 174.984L459.004 177.647L459.217 177.445L456.684 174.782L456.471 174.984ZM459.095 177.692L461.515 177.955L461.547 177.664L459.127 177.4L459.095 177.692ZM461.593 177.943L475.002 171.718L474.879 171.452L461.469 177.677L461.593 177.943ZM475.002 171.718C475.551 171.463 475.998 171.041 476.284 170.521L476.026 170.38C475.77 170.846 475.37 171.224 474.879 171.452L475.002 171.718ZM474.744 165.672C475.496 166.414 475.989 167.334 476.206 168.201C476.425 169.073 476.359 169.866 476.032 170.37L476.279 170.53C476.667 169.93 476.72 169.042 476.491 168.13C476.261 167.212 475.741 166.244 474.95 165.464L474.744 165.672ZM441.03 132.418L474.744 165.672L474.95 165.464L441.236 132.209L441.03 132.418ZM439.56 129.997C439.835 130.891 440.363 131.76 441.03 132.418L441.236 132.209C440.604 131.585 440.102 130.758 439.841 129.911L439.56 129.997ZM424.013 79.4609L439.56 129.997L439.841 129.911L424.293 79.3745L424.013 79.4609ZM419.895 76.2879C420.461 75.9702 421.289 76.1342 422.1 76.7194C422.902 77.2989 423.645 78.2668 424.013 79.4609L424.293 79.3745C423.907 78.1195 423.126 77.0987 422.271 76.4818C421.425 75.8707 420.466 75.6301 419.751 76.0323L419.895 76.2879ZM419.766 76.0249L403.947 82.707L404.061 82.9768L419.88 76.2953L419.766 76.0249ZM403.858 82.8307L403.774 83.9344L404.067 83.9568L404.15 82.8525L403.858 82.8307ZM403.781 83.9902L408.582 99.0289L408.862 98.9397L404.06 83.901L403.781 83.9902ZM421.023 137.514L420.883 137.558L420.894 137.591L420.917 137.615L421.023 137.514ZM443.497 161.135L443.64 161.166L443.657 161.09L443.603 161.034L443.497 161.135ZM401.369 124.784L401.288 124.662L401.245 124.69L401.229 124.74L401.369 124.784ZM403.386 123.436L403.468 123.558L403.701 123.403L403.44 123.3L403.386 123.436ZM402.093 122.924L401.961 122.861L401.893 123.003L402.039 123.06L402.093 122.924ZM414.492 117.058L414.632 117.013L414.605 116.929L414.518 116.913L414.492 117.058ZM381.821 135.304L381.964 135.334L381.98 135.258L381.927 135.203L381.821 135.304ZM380.888 139.725L380.744 139.695L380.736 139.734L380.749 139.773L380.888 139.725ZM388.317 161.202L388.178 161.25L388.185 161.27L388.197 161.287L388.317 161.202ZM400.66 178.71L400.54 178.794L400.575 178.843L400.634 178.854L400.66 178.71ZM410.708 180.568L410.85 180.529L410.825 180.441L410.735 180.424L410.708 180.568ZM456.577 174.883L456.684 174.782L456.627 174.723L456.548 174.739L456.577 174.883ZM459.111 177.546L459.004 177.647L459.042 177.686L459.095 177.692L459.111 177.546ZM461.531 177.81L461.515 177.955L461.555 177.96L461.593 177.943L461.531 177.81ZM476.155 170.45L476.032 170.37L476.029 170.375L476.026 170.38L476.155 170.45ZM419.823 76.1601L419.88 76.2953L419.888 76.2919L419.895 76.2879L419.823 76.1601ZM404.004 82.8416L403.947 82.707L403.865 82.7415L403.858 82.8307L404.004 82.8416ZM408.722 98.984L408.855 99.0468L408.88 98.9944L408.862 98.9397L408.722 98.984ZM403.921 83.9453L403.774 83.9344L403.772 83.9632L403.781 83.9902L403.921 83.9453Z" fill="#242224"/>
<path d="M424.175 216.037L440.139 182.011L424.285 181.717L407.219 198.779L412.061 220.478L424.175 216.037Z" fill="#FF6721"/>
<path d="M424.175 216.037L440.139 182.011L424.285 181.717L407.219 198.779L412.061 220.478L424.175 216.037Z" stroke="#242224" stroke-width="0.422935"/>
<path d="M366.331 116.545L351.365 123.447L383.073 122.799L398.041 113.31L366.331 116.545Z" fill="#FF6721"/>
<path d="M366.331 116.545L351.365 123.447L383.073 122.799L398.041 113.31L366.331 116.545Z" stroke="#242224" stroke-width="0.422935"/>
<path fill-rule="evenodd" clip-rule="evenodd" d="M420.58 176.416C429.32 172.681 429.749 157.997 421.538 143.62C413.328 129.242 399.587 120.616 390.847 124.352C382.107 128.087 381.678 142.77 389.889 157.148C398.099 171.525 411.84 180.152 420.58 176.416ZM407.631 86.0861C406.73 83.1571 403.622 81.5452 402.686 83.5213L385.784 119.196C385.544 119.703 385.119 120.006 384.581 120.053L352.164 122.913C350.224 123.084 350.285 126.258 352.268 128.334L387.637 165.352C388.121 165.858 388.524 166.48 388.794 167.137L409.356 217.085C410.526 219.926 413.512 221.083 414.222 218.969L425.514 185.374C425.712 184.783 426.127 184.406 426.682 184.314L460.877 178.636C462.781 178.32 462.543 175.022 460.475 173.055L424.663 138.994C423.982 138.347 423.44 137.472 423.163 136.571L407.631 86.0861Z" fill="#FF6721"/>
<mask id="mask19_114_8346" style="mask-type:luminance" maskUnits="userSpaceOnUse" x="350" y="82" width="113" height="139">
<mask id="mask20_114_8346" style="mask-type:luminance" maskUnits="userSpaceOnUse" x="350" y="82" width="113" height="139">
<path d="M350.157 82.0633H462.762V220.641H350.157V82.0633Z" fill="white"/>
</mask>
<g mask="url(#mask20_114_8346)">
<path d="M350.146 81.9879H462.797V220.724H350.146V81.9879Z" fill="black"/>
<mask id="mask21_114_8346" style="mask-type:luminance" maskUnits="userSpaceOnUse" x="350" y="81" width="113" height="140">
<path d="M350.146 81.9879H462.797V220.724H350.146V81.9879Z" fill="white"/>
</mask>
<g mask="url(#mask21_114_8346)">
<path fill-rule="evenodd" clip-rule="evenodd" d="M420.58 176.416C429.32 172.681 429.749 157.997 421.539 143.62C413.327 129.242 399.587 120.616 390.847 124.352C382.108 128.087 381.679 142.771 389.889 157.148C398.099 171.526 411.84 180.152 420.58 176.416ZM407.632 86.0862C406.73 83.1572 403.623 81.5454 402.687 83.5215L385.785 119.196C385.545 119.703 385.119 120.006 384.581 120.053L352.165 122.913C350.224 123.084 350.285 126.258 352.268 128.334L387.637 165.352C388.121 165.858 388.524 166.48 388.795 167.137L409.356 217.085C410.525 219.926 413.512 221.083 414.223 218.969L425.513 185.374C425.713 184.783 426.128 184.406 426.683 184.314L460.878 178.636C462.782 178.32 462.544 175.022 460.476 173.055L424.663 138.994C423.982 138.347 423.441 137.472 423.163 136.571L407.632 86.0862Z" fill="white"/>
</g>
</g>
</mask>
<g mask="url(#mask19_114_8346)">
<mask id="mask22_114_8346" style="mask-type:luminance" maskUnits="userSpaceOnUse" x="350" y="82" width="113" height="139">
<path d="M350.157 82.0633H462.762V220.641H350.157V82.0633Z" fill="white"/>
</mask>
<g mask="url(#mask22_114_8346)">
<path d="M420.349 175.877C416.237 177.635 410.831 176.52 405.348 173.078C399.886 169.649 394.463 163.973 390.399 156.857L389.379 157.439C393.527 164.701 399.078 170.527 404.724 174.071C410.349 177.603 416.183 178.934 420.811 176.956L420.349 175.877ZM390.399 156.857C386.334 149.739 384.429 142.58 384.598 136.776C384.768 130.964 387.001 126.633 391.078 124.891L390.616 123.812C385.954 125.805 383.602 130.684 383.425 136.742C383.248 142.808 385.234 150.179 389.379 157.439L390.399 156.857ZM391.078 124.891C395.19 123.133 400.596 124.247 406.079 127.69C411.541 131.119 416.965 136.795 421.028 143.91L422.048 143.329C417.901 136.068 412.349 130.241 406.703 126.697C401.078 123.165 395.244 121.834 390.616 123.812L391.078 124.891ZM421.028 143.91C425.093 151.029 426.998 158.188 426.828 163.992C426.659 169.804 424.426 174.135 420.349 175.877L420.811 176.956C425.473 174.963 427.825 170.084 428.002 164.026C428.179 157.959 426.193 150.589 422.048 143.329L421.028 143.91ZM407.071 86.2588L422.602 136.743L423.724 136.398L408.192 85.9141L407.071 86.2588ZM422.602 136.743C422.909 137.74 423.504 138.703 424.259 139.42L425.067 138.57C424.46 137.992 423.972 137.203 423.724 136.398L422.602 136.743ZM424.259 139.42L460.071 173.48L460.88 172.63L425.067 138.57L424.259 139.42ZM460.071 173.48C461.003 174.367 461.511 175.547 461.58 176.507C461.615 176.986 461.537 177.367 461.395 177.623C461.263 177.86 461.07 178.009 460.781 178.057L460.973 179.215C461.637 179.105 462.127 178.723 462.422 178.192C462.706 177.679 462.797 177.053 462.751 176.423C462.66 175.162 462.016 173.711 460.88 172.63L460.071 173.48ZM460.781 178.057L426.586 183.735L426.778 184.893L460.973 179.215L460.781 178.057ZM426.586 183.735C425.79 183.868 425.215 184.418 424.957 185.187L426.07 185.56C426.208 185.148 426.465 184.945 426.778 184.893L426.586 183.735ZM424.957 185.187L413.665 218.782L414.778 219.156L426.07 185.56L424.957 185.187ZM413.665 218.782C413.536 219.167 413.333 219.34 413.126 219.415C412.9 219.497 412.575 219.494 412.173 219.338C411.365 219.026 410.433 218.159 409.899 216.862L408.813 217.308C409.448 218.852 410.593 219.984 411.749 220.432C412.329 220.657 412.957 220.724 413.527 220.517C414.116 220.304 414.552 219.829 414.778 219.156L413.665 218.782ZM409.899 216.862L389.336 166.914L388.251 167.36L408.813 217.308L409.899 216.862ZM389.336 166.914C389.039 166.19 388.596 165.506 388.061 164.946L387.212 165.757C387.644 166.21 388.008 166.77 388.251 167.36L389.336 166.914ZM388.061 164.946L352.693 127.929L351.843 128.739L387.212 165.757L388.061 164.946ZM352.693 127.929C351.794 126.988 351.349 125.813 351.332 124.898C351.323 124.44 351.421 124.092 351.572 123.865C351.71 123.658 351.91 123.524 352.216 123.497L352.113 122.328C351.449 122.387 350.929 122.714 350.595 123.215C350.273 123.697 350.146 124.303 350.158 124.92C350.182 126.154 350.759 127.603 351.843 128.739L352.693 127.929ZM352.216 123.497L384.632 120.638L384.529 119.469L352.113 122.328L352.216 123.497ZM384.632 120.638C385.388 120.571 385.989 120.134 386.315 119.447L385.254 118.945C385.099 119.273 384.851 119.44 384.529 119.469L384.632 120.638ZM386.315 119.447L403.216 83.7723L402.155 83.27L385.254 118.945L386.315 119.447ZM403.216 83.7723C403.375 83.438 403.593 83.2982 403.834 83.2533C404.103 83.2038 404.472 83.2625 404.901 83.4852C405.759 83.93 406.663 84.9342 407.071 86.2588L408.192 85.9141C407.699 84.3098 406.598 83.0432 405.442 82.4436C404.865 82.1438 404.225 81.9879 403.62 82.0995C402.987 82.2169 402.465 82.6163 402.155 83.27L403.216 83.7723Z" fill="#242224"/>
</g>
</g>
<path d="M188.55 319.75L519.537 167.49C519.723 167.405 519.911 167.606 519.812 167.785C518.844 170.122 517.318 172.185 515.368 173.795L512.243 176.373L511.575 176.731L506.198 180.88C504.49 182.198 502.638 183.32 500.679 184.225L169.297 337.226L166.36 336.349L188.55 319.75Z" fill="#33B0FF"/>
<path d="M188.55 319.75L519.537 167.49C519.723 167.405 519.911 167.606 519.812 167.785C518.844 170.122 517.318 172.185 515.368 173.795L512.243 176.373L511.575 176.731L506.198 180.88C504.49 182.198 502.638 183.32 500.679 184.225L169.297 337.226L166.36 336.349L188.55 319.75Z" stroke="#242224" stroke-width="0.829284"/>
<path d="M177.612 330.108L511.888 176.613L495.764 190.562C493.724 192.326 491.446 193.796 488.997 194.926L173.662 341.134L158.359 347.584L155.422 346.707L177.612 330.108Z" fill="#33B0FF"/>
<path d="M177.612 330.108L511.888 176.613L495.764 190.562C493.724 192.326 491.446 193.796 488.997 194.926L173.662 341.134L158.359 347.584L155.422 346.707L177.612 330.108Z" stroke="#242224" stroke-width="0.829284"/>
<path d="M203.68 299.121L520.854 149.633" stroke="#FCF8F2" stroke-width="0.913871" stroke-dasharray="5.48 5.48"/>
<path d="M473.34 51.3416L138.242 200.511L129.479 200.3L132.998 197.943L463.717 47.9287C467.502 46.2121 471.973 47.4355 474.355 50.8398L473.34 51.3416Z" fill="#33B0FF"/>
<path d="M473.34 51.3416L138.242 200.511L129.479 200.3L132.998 197.943L463.717 47.9287C467.502 46.2121 471.973 47.4355 474.355 50.8398L473.34 51.3416Z" stroke="#242224" stroke-width="0.829284"/>
<path d="M154.173 303.579C141.572 294.013 131.351 270.733 131.351 251.601C131.351 232.468 141.572 224.708 154.173 234.275C166.773 243.841 176.994 267.12 176.994 286.253C176.994 305.385 166.773 313.145 154.173 303.579ZM193.934 271.656L170.562 220.996C161.508 200.374 149.58 190.98 138.313 195.281L129.552 199.644L114.39 213.838C105.336 220.711 105.336 243.021 114.39 263.642L137.762 316.875C145.483 334.461 147.978 349.642 156.907 348.146C158.447 347.888 171.584 342.826 173.662 341.134L185.701 331.714L196.883 322.625C205.936 315.751 202.987 292.277 193.934 271.656Z" fill="#33B0FF"/>
<path d="M154.173 303.579C141.572 294.013 131.351 270.733 131.351 251.601C131.351 232.468 141.572 224.708 154.173 234.275C166.773 243.841 176.994 267.12 176.994 286.253C176.994 305.385 166.773 313.145 154.173 303.579ZM193.934 271.656L170.562 220.996C161.508 200.374 149.58 190.98 138.313 195.281L129.552 199.644L114.39 213.838C105.336 220.711 105.336 243.021 114.39 263.642L137.762 316.875C145.483 334.461 147.978 349.642 156.907 348.146C158.447 347.888 171.584 342.826 173.662 341.134L185.701 331.714L196.883 322.625C205.936 315.751 202.987 292.277 193.934 271.656Z" stroke="#242224" stroke-width="1.09631"/>
<path d="M143.943 308.298C131.343 298.732 121.122 275.452 121.122 256.32C121.122 237.187 131.343 229.427 143.943 238.993C156.543 248.559 166.764 271.839 166.764 290.972C166.764 310.104 156.543 317.864 143.943 308.298ZM183.704 276.375L160.332 225.715C151.279 205.093 136.586 193.938 127.532 200.812L104.16 218.557C95.1065 225.43 95.1065 247.74 104.16 268.361L127.532 321.594C136.586 342.215 151.279 353.37 160.332 346.496L183.704 326.179C192.758 319.306 192.758 296.996 183.704 276.375Z" fill="#33B0FF"/>
<path d="M143.943 308.298C131.343 298.732 121.122 275.452 121.122 256.32C121.122 237.187 131.343 229.427 143.943 238.993C156.543 248.559 166.764 271.839 166.764 290.972C166.764 310.104 156.543 317.864 143.943 308.298ZM183.704 276.375L160.332 225.715C151.279 205.093 136.586 193.938 127.532 200.812L104.16 218.557C95.1065 225.43 95.1065 247.74 104.16 268.361L127.532 321.594C136.586 342.215 151.279 353.37 160.332 346.496L183.704 326.179C192.758 319.306 192.758 296.996 183.704 276.375Z" stroke="#242224" stroke-width="1.09631"/>
<path d="M473.505 49.8644L472.61 49.0956L149.202 195.451L149.344 195.507C151.026 196.168 152.641 196.985 154.169 197.949L154.418 198.105L476.333 52.6852L473.505 49.8644Z" fill="#1D8AED"/>
<path d="M473.505 49.8644L472.61 49.0956L149.202 195.451L149.344 195.507C151.026 196.168 152.641 196.985 154.169 197.949L154.418 198.105L476.333 52.6852L473.505 49.8644Z" stroke="#242224" stroke-width="0.829284"/>
<path d="M515.587 173.633L511.765 176.666L199.32 320.077L200.189 318.581L201.299 315.831L201.734 313.61L520.028 167.351L519.263 168.972C518.716 170.128 517.981 171.184 517.088 172.098L515.587 173.633Z" fill="#1D8AED"/>
<path d="M515.587 173.633L511.765 176.666L199.32 320.077L200.189 318.581L201.299 315.831L201.734 313.61L520.028 167.351L519.263 168.972C518.716 170.128 517.981 171.184 517.088 172.098L515.587 173.633Z" stroke="#242224" stroke-width="0.829284"/>
</g>
<path d="M410.604 39.6141L413.467 45.8571L413.728 45.7368L410.866 39.4944L410.604 39.6141ZM413.538 45.6661L155.774 163.753L155.895 164.015L413.658 45.9279L413.538 45.6661ZM155.966 163.824L153.103 157.581L152.841 157.701L155.704 163.944L155.966 163.824ZM152.854 157.558L143.233 171.102L143.467 171.269L153.089 157.724L152.854 157.558ZM143.337 171.329L159.883 172.886L159.91 172.599L143.364 171.043L143.337 171.329ZM160.027 172.683L157.165 166.44L156.903 166.56L159.766 172.802L160.027 172.683ZM157.094 166.631L414.857 48.5433L414.737 48.282L156.974 166.369L157.094 166.631ZM414.666 48.4725L417.529 54.715L417.791 54.5953L414.928 48.3528L414.666 48.4725ZM417.777 54.7386L427.399 41.1937L427.164 41.0274L417.542 54.5723L417.777 54.7386ZM427.295 40.9675L410.748 39.411L410.721 39.6975L427.268 41.2541L427.295 40.9675ZM413.598 45.7967L413.658 45.9279L413.788 45.8675L413.728 45.7368L413.598 45.7967ZM155.834 163.884L155.704 163.944L155.763 164.075L155.895 164.015L155.834 163.884ZM152.972 157.642L153.103 157.581L152.999 157.355L152.854 157.558L152.972 157.642ZM143.35 171.186L143.233 171.102L143.089 171.306L143.337 171.329L143.35 171.186ZM159.896 172.742L159.883 172.886L160.131 172.909L160.027 172.683L159.896 172.742ZM157.034 166.499L156.974 166.369L156.843 166.429L156.903 166.56L157.034 166.499ZM414.797 48.4127L414.928 48.3528L414.868 48.2216L414.737 48.282L414.797 48.4127ZM417.659 54.6551L417.529 54.715L417.633 54.9417L417.777 54.7386L417.659 54.6551ZM410.735 39.5542L410.748 39.411L410.5 39.3874L410.604 39.6141L410.735 39.5542ZM427.281 41.1108L427.399 41.1937L427.543 40.9906L427.295 40.9675L427.281 41.1108Z" fill="#FCF8F2"/>
</g>
<defs>
<clipPath id="clip0_114_8346">
<rect width="640" height="426.092" fill="white" transform="translate(0 0.551758)"/>
</clipPath>
</defs>
</svg>
