<svg width="640" height="427" viewBox="0 0 640 427" fill="none" xmlns="http://www.w3.org/2000/svg">
<g clip-path="url(#clip0_114_8345)">
<mask id="mask0_114_8345" style="mask-type:luminance" maskUnits="userSpaceOnUse" x="0" y="0" width="641" height="427">
<path d="M0 0.459808H640.002V426.552H0V0.459808Z" fill="white"/>
</mask>
<g mask="url(#mask0_114_8345)">
<path d="M186.103 395.822L43.4792 319.212C40.7123 317.702 38.7186 314.327 38.805 311.459C38.8165 311.076 38.5977 306.348 38.7198 305.984C39.2817 304.301 40.8608 307.169 42.725 306.318L425.488 131.545C427.448 130.651 429.715 130.729 431.609 131.758L578.078 203.202C583.046 205.902 581.617 218.919 576.47 221.26L192.225 396.044C190.263 396.936 187.996 396.854 186.103 395.822Z" stroke="#343438" stroke-width="0.917188" stroke-miterlimit="10"/>
<path d="M186.104 389.219L42.29 311.96C37.3343 309.257 37.5905 302.06 42.7252 299.715L425.488 124.942C427.448 124.048 429.715 124.126 431.609 125.155L576.905 202.403C581.873 205.103 581.617 212.316 576.47 214.657L192.226 389.441C190.264 390.333 187.996 390.251 186.104 389.219Z" stroke="#343438" stroke-width="0.917188" stroke-miterlimit="10"/>
<path d="M189.191 390.057V396.655" stroke="#343438" stroke-width="0.917188" stroke-miterlimit="10"/>
<path d="M186.095 382.318L56.267 312.688C51.4892 310.081 51.7356 303.142 56.6867 300.881L425.768 132.355C427.658 131.492 429.845 131.568 431.67 132.56L562.928 202.181C567.718 204.783 567.472 211.739 562.509 213.996L191.999 382.532C190.106 383.393 187.92 383.313 186.095 382.318Z" stroke="#343438" stroke-width="0.917188" stroke-miterlimit="10" stroke-dasharray="4.88 7.63"/>
</g>
<mask id="mask1_114_8345" style="mask-type:luminance" maskUnits="userSpaceOnUse" x="0" y="0" width="641" height="427">
<path d="M0 0.459808H640.002V426.552H0V0.459808Z" fill="white"/>
</mask>
<g mask="url(#mask1_114_8345)">
<mask id="mask2_114_8345" style="mask-type:luminance" maskUnits="userSpaceOnUse" x="128" y="50" width="367" height="293">
<path d="M128.43 50.6319H494.384V342.781H128.43V50.6319Z" fill="white"/>
</mask>
<g mask="url(#mask2_114_8345)">
<g opacity="0.800003">
<path d="M130.68 202.24L457.582 50.6317L448.497 71.7166C446.543 76.2517 446.624 81.4059 448.722 85.8766L453.749 96.5891C454.265 97.6899 454.664 98.8419 454.938 100.027L462.979 134.75C463.663 137.702 465.112 140.421 467.18 142.636L489.734 166.788C497.726 175.346 495.059 189.204 484.462 194.188L169.703 342.232C166.864 343.567 163.477 342.384 162.089 339.571L137.914 290.581L129.613 269.341C128.753 267.139 128.354 264.782 128.442 262.419L130.68 202.24Z" fill="#33B0FF"/>
</g>
</g>
<path d="M130.679 202.24L457.582 50.6316L448.496 71.7166C446.542 76.2517 446.624 81.4059 448.722 85.8766L453.749 96.5891C454.265 97.6899 454.664 98.842 454.938 100.027L462.979 134.75C463.663 137.702 465.111 140.421 467.18 142.636L489.734 166.788C497.725 175.346 495.059 189.204 484.462 194.188L169.703 342.232C166.863 343.567 163.477 342.384 162.088 339.571L137.914 290.581L129.613 269.341C128.753 267.139 128.354 264.782 128.442 262.419L130.679 202.24Z" stroke="#242224" stroke-width="0.82265"/>
<path d="M97.8748 244.494L428.924 87.6168" stroke="#FCF8F2" stroke-width="0.913871" stroke-dasharray="5.48 5.48"/>
<path d="M485.775 151.133C473.175 141.705 462.954 118.759 462.954 99.9019C462.954 81.0445 473.175 73.3963 485.775 82.825C498.375 92.2537 508.597 115.199 508.597 134.056C508.597 152.914 498.375 160.562 485.775 151.133ZM525.537 119.669L502.165 69.737C494.824 53.258 486.574 45.6327 476.914 44.3161C472.014 43.648 467.969 45.3473 464.096 47.2486L461.155 48.6924L445.993 62.6821C436.939 69.4568 436.939 91.4463 445.993 111.77L469.364 164.238C477.086 181.572 479.581 196.534 488.509 195.059C490.05 194.805 503.187 189.817 505.264 188.148L517.303 178.863L528.486 169.906C537.539 163.131 534.59 139.993 525.537 119.669Z" fill="#33B0FF"/>
<path d="M485.775 151.133C473.175 141.705 462.954 118.759 462.954 99.9019C462.954 81.0445 473.175 73.3963 485.775 82.825C498.375 92.2537 508.597 115.199 508.597 134.056C508.597 152.914 498.375 160.562 485.775 151.133ZM525.537 119.669L502.165 69.737C494.824 53.258 486.574 45.6327 476.914 44.3161C472.014 43.648 467.969 45.3473 464.096 47.2486L461.155 48.6924L445.993 62.6821C436.939 69.4568 436.939 91.4463 445.993 111.77L469.364 164.238C477.086 181.572 479.581 196.534 488.509 195.059C490.05 194.805 503.187 189.817 505.264 188.148L517.303 178.863L528.486 169.906C537.539 163.131 534.59 139.993 525.537 119.669Z" stroke="#242224" stroke-width="1.09631"/>
<path d="M475.546 155.785C462.946 146.356 452.725 123.411 452.725 104.553C452.725 85.6959 462.946 78.0476 475.546 87.4763C488.147 96.905 498.368 119.85 498.368 138.708C498.368 157.565 488.147 165.213 475.546 155.785ZM515.308 124.32L491.936 74.3884C482.882 54.0642 468.189 43.0691 459.136 49.8439L435.764 67.3334C426.71 74.1081 426.71 96.0976 435.764 116.422L459.136 168.889C468.189 189.214 482.882 200.209 491.936 193.434L515.308 173.409C524.361 166.634 524.361 144.645 515.308 124.32Z" fill="#33B0FF"/>
<path d="M475.546 155.785C462.946 146.356 452.725 123.411 452.725 104.553C452.725 85.6959 462.946 78.0476 475.546 87.4763C488.147 96.905 498.368 119.85 498.368 138.708C498.368 157.565 488.147 165.213 475.546 155.785ZM515.308 124.32L491.936 74.3884C482.882 54.0642 468.189 43.0691 459.136 49.8439L435.764 67.3334C426.71 74.1081 426.71 96.0976 435.764 116.422L459.136 168.889C468.189 189.214 482.882 200.209 491.936 193.434L515.308 173.409C524.361 166.634 524.361 144.645 515.308 124.32Z" stroke="#242224" stroke-width="1.09631"/>
<path fill-rule="evenodd" clip-rule="evenodd" d="M410.735 39.4622L427.281 41.0188L417.659 54.5631L414.797 48.3206L157.034 166.407L159.896 172.65L143.35 171.094L152.972 157.55L155.834 163.792L413.598 45.7052L410.735 39.4622Z" fill="#242224"/>
<path d="M342.356 229.689C347.551 247.234 346.259 262.12 337.112 265.03C335.641 265.498 330.475 267.509 328.912 267.25C320.76 265.901 313.59 254.948 309.231 240.226C306.016 229.367 303.058 220.073 305.695 212.965C306.255 209.668 306.895 209.012 309.344 207.406C311.246 206.159 314.863 203.674 316.387 203.189C325.534 200.28 337.161 212.144 342.356 229.689Z" fill="#FF6721"/>
<mask id="mask3_114_8345" style="mask-type:luminance" maskUnits="userSpaceOnUse" x="304" y="202" width="42" height="66">
<mask id="mask4_114_8345" style="mask-type:luminance" maskUnits="userSpaceOnUse" x="304" y="202" width="42" height="66">
<path d="M304.101 202.174H345.969V267.848H304.101V202.174Z" fill="white"/>
</mask>
<g mask="url(#mask4_114_8345)">
<path d="M303.784 201.087H346.514V267.902H303.784V201.087Z" fill="black"/>
<mask id="mask5_114_8345" style="mask-type:luminance" maskUnits="userSpaceOnUse" x="303" y="201" width="44" height="67">
<path d="M303.784 201.087H346.514V267.903H303.784V201.087Z" fill="white"/>
</mask>
<g mask="url(#mask5_114_8345)">
<path d="M342.356 229.688C347.551 247.234 346.259 262.12 337.112 265.03C335.641 265.498 330.474 267.509 328.912 267.25C320.76 265.901 313.59 254.948 309.231 240.226C306.016 229.367 303.057 220.073 305.694 212.965C306.255 209.668 306.895 209.012 309.344 207.406C311.246 206.159 314.862 203.674 316.387 203.189C325.534 200.28 337.161 212.144 342.356 229.688Z" fill="white"/>
</g>
</g>
</mask>
<g mask="url(#mask3_114_8345)">
<mask id="mask6_114_8345" style="mask-type:luminance" maskUnits="userSpaceOnUse" x="304" y="202" width="42" height="66">
<path d="M304.101 202.174H345.969V267.848H304.101V202.174Z" fill="white"/>
</mask>
<g mask="url(#mask6_114_8345)">
<path d="M309.659 207.888C310.62 207.257 311.986 206.333 313.313 205.499C314.661 204.652 315.882 203.954 316.561 203.738L316.211 202.641C315.366 202.91 314.017 203.697 312.7 204.525C311.362 205.366 309.968 206.308 309.027 206.925L309.659 207.888ZM306.261 213.061C306.54 211.428 306.824 210.545 307.285 209.878C307.749 209.206 308.428 208.695 309.659 207.888L309.027 206.925C307.81 207.723 306.945 208.343 306.337 209.225C305.725 210.11 305.409 211.205 305.127 212.868L306.261 213.061ZM329.005 266.683C325.151 266.045 321.437 263.114 318.119 258.421C314.81 253.741 311.951 247.385 309.783 240.062L308.678 240.389C310.869 247.79 313.775 254.272 317.179 259.085C320.574 263.887 324.521 267.107 328.818 267.818L329.005 266.683ZM336.936 264.482C336.558 264.602 335.946 264.82 335.239 265.068C334.524 265.317 333.699 265.602 332.872 265.864C332.043 266.127 331.224 266.363 330.522 266.516C329.792 266.676 329.275 266.727 329.005 266.683L328.818 267.818C329.329 267.903 330.043 267.799 330.768 267.641C331.52 267.475 332.377 267.228 333.22 266.962C334.063 266.694 334.902 266.405 335.619 266.154C336.343 265.901 336.928 265.692 337.286 265.578L336.936 264.482ZM309.783 240.062C308.171 234.619 306.639 229.618 305.834 225.088C305.03 220.559 304.967 216.578 306.234 213.165L305.154 212.765C303.784 216.459 303.881 220.68 304.701 225.289C305.519 229.898 307.075 234.974 308.678 240.389L309.783 240.062ZM316.561 203.738C320.825 202.382 325.8 204.435 330.441 209.172C335.063 213.887 339.227 221.15 341.804 229.852L342.907 229.526C340.289 220.682 336.042 213.242 331.264 208.366C326.506 203.512 321.095 201.088 316.211 202.641L316.561 203.738ZM341.804 229.852C344.388 238.58 345.344 246.603 344.54 252.773C343.736 258.958 341.197 263.126 336.936 264.482L337.286 265.578C342.172 264.024 344.853 259.295 345.683 252.922C346.513 246.536 345.518 238.343 342.907 229.526L341.804 229.852ZM305.694 212.965L306.234 213.165L306.253 213.115L306.261 213.061L305.694 212.965Z" fill="#242224"/>
</g>
</g>
<path d="M332.274 232.889C335.287 241.111 336.625 249.086 336.362 255.328C336.231 258.45 335.699 261.124 334.789 263.175C333.878 265.224 332.6 266.631 330.979 267.269C329.358 267.907 327.501 267.735 325.508 266.829C323.513 265.922 321.403 264.288 319.305 262.044C315.11 257.556 311.001 250.672 307.989 242.45C304.975 234.229 303.637 226.253 303.901 220.011C304.032 216.889 304.563 214.216 305.474 212.165C306.384 210.116 307.663 208.709 309.284 208.071C310.905 207.433 312.762 207.605 314.755 208.511C316.75 209.418 318.86 211.052 320.958 213.296C325.153 217.783 329.261 224.668 332.274 232.889Z" fill="#FF6721"/>
<path d="M332.274 232.889C335.287 241.111 336.625 249.086 336.362 255.328C336.231 258.45 335.699 261.124 334.789 263.175C333.878 265.224 332.6 266.631 330.979 267.269C329.358 267.907 327.501 267.735 325.508 266.829C323.513 265.922 321.403 264.288 319.305 262.044C315.11 257.556 311.001 250.672 307.989 242.45C304.975 234.229 303.637 226.253 303.901 220.011C304.032 216.889 304.563 214.216 305.474 212.165C306.384 210.116 307.663 208.709 309.284 208.071C310.905 207.433 312.762 207.605 314.755 208.511C316.75 209.418 318.86 211.052 320.958 213.296C325.153 217.783 329.261 224.668 332.274 232.889Z" stroke="#242224" stroke-width="0.829284"/>
<path d="M307.617 160.191C312.811 177.736 311.52 192.622 302.372 195.532C300.901 196 295.735 198.011 294.173 197.753C286.021 196.404 278.851 185.451 274.492 170.728C271.276 159.869 268.318 150.575 270.956 143.467C271.516 140.17 272.157 139.514 274.604 137.908C276.507 136.661 280.123 134.177 281.648 133.692C290.795 130.782 302.422 142.646 307.617 160.191Z" fill="#FF6721"/>
<mask id="mask7_114_8345" style="mask-type:luminance" maskUnits="userSpaceOnUse" x="269" y="132" width="43" height="67">
<mask id="mask8_114_8345" style="mask-type:luminance" maskUnits="userSpaceOnUse" x="269" y="132" width="43" height="67">
<path d="M269.362 132.676H311.23V198.351H269.362V132.676Z" fill="white"/>
</mask>
<g mask="url(#mask8_114_8345)">
<path d="M269.045 131.589H311.775V198.405H269.045V131.589Z" fill="black"/>
<mask id="mask9_114_8345" style="mask-type:luminance" maskUnits="userSpaceOnUse" x="269" y="131" width="43" height="68">
<path d="M269.045 131.59H311.775V198.405H269.045V131.59Z" fill="white"/>
</mask>
<g mask="url(#mask9_114_8345)">
<path d="M307.617 160.191C312.811 177.736 311.52 192.622 302.373 195.532C300.901 196 295.735 198.011 294.173 197.753C286.021 196.404 278.851 185.451 274.492 170.728C271.276 159.869 268.318 150.575 270.956 143.467C271.516 140.17 272.157 139.514 274.604 137.908C276.508 136.661 280.123 134.177 281.648 133.692C290.795 130.782 302.422 142.646 307.617 160.191Z" fill="white"/>
</g>
</g>
</mask>
<g mask="url(#mask7_114_8345)">
<mask id="mask10_114_8345" style="mask-type:luminance" maskUnits="userSpaceOnUse" x="269" y="132" width="43" height="67">
<path d="M269.362 132.676H311.23V198.351H269.362V132.676Z" fill="white"/>
</mask>
<g mask="url(#mask10_114_8345)">
<path d="M274.921 138.39C275.881 137.759 277.248 136.835 278.575 136.001C279.922 135.154 281.143 134.456 281.822 134.24L281.473 133.143C280.628 133.413 279.279 134.199 277.961 135.027C276.623 135.869 275.23 136.811 274.289 137.427L274.921 138.39ZM271.523 143.563C271.801 141.93 272.085 141.048 272.546 140.38C273.01 139.708 273.689 139.197 274.921 138.39L274.289 137.427C273.071 138.226 272.207 138.845 271.598 139.727C270.987 140.613 270.671 141.707 270.388 143.371L271.523 143.563ZM294.267 197.185C290.412 196.547 286.698 193.616 283.381 188.924C280.071 184.243 277.212 177.887 275.044 170.565L273.94 170.891C276.131 178.292 279.036 184.773 282.44 189.588C285.835 194.389 289.783 197.609 294.079 198.321L294.267 197.185ZM302.198 194.984C301.819 195.104 301.207 195.323 300.5 195.57C299.785 195.82 298.96 196.105 298.133 196.366C297.305 196.629 296.486 196.865 295.783 197.018C295.054 197.178 294.537 197.23 294.267 197.185L294.079 198.321C294.59 198.405 295.305 198.302 296.03 198.143C296.781 197.978 297.639 197.73 298.481 197.463C299.324 197.196 300.164 196.907 300.88 196.656C301.604 196.403 302.19 196.194 302.547 196.08L302.198 194.984ZM275.044 170.565C273.432 165.121 271.9 160.12 271.096 155.59C270.291 151.061 270.229 147.081 271.495 143.667L270.416 143.267C269.045 146.961 269.143 151.182 269.962 155.792C270.781 160.4 272.336 165.476 273.94 170.891L275.044 170.565ZM281.822 134.24C286.086 132.884 291.061 134.937 295.703 139.673C300.324 144.389 304.488 151.652 307.065 160.354L308.168 160.028C305.55 151.185 301.304 143.744 296.525 138.868C291.768 134.014 286.356 131.59 281.473 133.143L281.822 134.24ZM307.065 160.354C309.649 169.082 310.605 177.104 309.802 183.276C308.997 189.46 306.459 193.628 302.198 194.984L302.547 196.08C307.433 194.526 310.114 189.797 310.944 183.424C311.775 177.038 310.779 168.845 308.168 160.028L307.065 160.354ZM270.956 143.467L271.495 143.667L271.514 143.616L271.523 143.563L270.956 143.467Z" fill="#242224"/>
</g>
</g>
<path d="M297.535 163.391C300.548 171.612 301.886 179.588 301.623 185.83C301.492 188.952 300.96 191.626 300.05 193.677C299.139 195.726 297.861 197.133 296.24 197.771C294.619 198.409 292.762 198.237 290.769 197.331C288.774 196.424 286.664 194.79 284.566 192.546C280.371 188.058 276.262 181.173 273.25 172.952C270.236 164.731 268.898 156.755 269.162 150.513C269.293 147.391 269.825 144.718 270.736 142.667C271.646 140.618 272.924 139.211 274.545 138.572C276.166 137.934 278.023 138.107 280.017 139.013C282.011 139.92 284.121 141.554 286.219 143.798C290.414 148.285 294.522 155.17 297.535 163.391Z" fill="#FF6721"/>
<path d="M297.535 163.391C300.548 171.612 301.886 179.588 301.623 185.83C301.492 188.952 300.96 191.626 300.05 193.677C299.139 195.726 297.861 197.133 296.24 197.771C294.619 198.409 292.762 198.237 290.769 197.331C288.774 196.424 286.664 194.79 284.566 192.546C280.371 188.058 276.262 181.173 273.25 172.952C270.236 164.731 268.898 156.755 269.162 150.513C269.293 147.391 269.825 144.718 270.736 142.667C271.646 140.618 272.924 139.211 274.545 138.572C276.166 137.934 278.023 138.107 280.017 139.013C282.011 139.92 284.121 141.554 286.219 143.798C290.414 148.285 294.522 155.17 297.535 163.391Z" stroke="#242224" stroke-width="0.829284"/>
<path d="M376.264 203.495C381.459 221.04 380.166 235.926 371.019 238.836C369.548 239.304 364.382 241.315 362.82 241.057C354.668 239.708 347.498 228.755 343.138 214.032C339.923 203.173 336.965 193.879 339.602 186.771C340.162 183.474 340.803 182.818 343.251 181.213C345.154 179.965 348.77 177.481 350.294 176.996C359.441 174.086 371.068 185.951 376.264 203.495Z" fill="#FF6721"/>
<mask id="mask11_114_8345" style="mask-type:luminance" maskUnits="userSpaceOnUse" x="338" y="175" width="42" height="67">
<mask id="mask12_114_8345" style="mask-type:luminance" maskUnits="userSpaceOnUse" x="338" y="175" width="42" height="67">
<path d="M338.009 175.98H379.877V241.655H338.009V175.98Z" fill="white"/>
</mask>
<g mask="url(#mask12_114_8345)">
<path d="M337.691 174.894H380.422V241.709H337.691V174.894Z" fill="black"/>
<mask id="mask13_114_8345" style="mask-type:luminance" maskUnits="userSpaceOnUse" x="337" y="174" width="44" height="68">
<path d="M337.691 174.894H380.422V241.709H337.691V174.894Z" fill="white"/>
</mask>
<g mask="url(#mask13_114_8345)">
<path d="M376.264 203.496C381.459 221.04 380.166 235.927 371.02 238.837C369.548 239.304 364.382 241.316 362.82 241.057C354.668 239.708 347.498 228.755 343.138 214.032C339.923 203.173 336.965 193.879 339.602 186.771C340.162 183.474 340.803 182.819 343.251 181.213C345.154 179.966 348.77 177.481 350.295 176.996C359.441 174.086 371.069 185.951 376.264 203.496Z" fill="white"/>
</g>
</g>
</mask>
<g mask="url(#mask11_114_8345)">
<mask id="mask14_114_8345" style="mask-type:luminance" maskUnits="userSpaceOnUse" x="338" y="175" width="42" height="67">
<path d="M338.009 175.98H379.877V241.655H338.009V175.98Z" fill="white"/>
</mask>
<g mask="url(#mask14_114_8345)">
<path d="M343.567 181.694C344.528 181.064 345.895 180.14 347.221 179.306C348.569 178.459 349.79 177.761 350.469 177.544L350.12 176.448C349.274 176.717 347.925 177.503 346.608 178.331C345.269 179.173 343.877 180.115 342.935 180.732L343.567 181.694ZM340.17 186.868C340.447 185.235 340.732 184.352 341.193 183.685C341.657 183.013 342.336 182.502 343.567 181.694L342.935 180.732C341.718 181.53 340.853 182.15 340.245 183.031C339.633 183.917 339.317 185.011 339.034 186.675L340.17 186.868ZM362.914 240.489C359.058 239.851 355.345 236.921 352.027 232.228C348.718 227.548 345.858 221.191 343.69 213.869L342.586 214.196C344.778 221.596 347.683 228.078 351.087 232.892C354.481 237.694 358.429 240.914 362.726 241.625L362.914 240.489ZM370.844 238.288C370.467 238.409 369.854 238.627 369.147 238.874C368.433 239.124 367.606 239.409 366.78 239.671C365.951 239.933 365.132 240.169 364.43 240.323C363.701 240.483 363.183 240.534 362.914 240.489L362.726 241.625C363.237 241.709 363.951 241.606 364.677 241.447C365.428 241.282 366.285 241.034 367.127 240.768C367.971 240.501 368.81 240.212 369.527 239.961C370.251 239.707 370.836 239.499 371.194 239.385L370.844 238.288ZM343.69 213.869C342.078 208.426 340.547 203.424 339.743 198.894C338.938 194.366 338.876 190.385 340.142 186.972L339.062 186.571C337.691 190.266 337.79 194.486 338.608 199.096C339.428 203.705 340.983 208.781 342.586 214.196L343.69 213.869ZM350.469 177.544C354.732 176.189 359.708 178.242 364.35 182.978C368.97 187.693 373.134 194.957 375.711 203.659L376.815 203.332C374.197 194.489 369.95 187.048 365.172 182.173C360.415 177.318 355.003 174.894 350.12 176.448L350.469 177.544ZM375.711 203.659C378.296 212.387 379.252 220.409 378.449 226.58C377.644 232.764 375.106 236.933 370.844 238.288L371.194 239.385C376.08 237.831 378.761 233.101 379.59 226.729C380.422 220.343 379.426 212.149 376.815 203.332L375.711 203.659ZM339.602 186.772L340.142 186.972L340.161 186.921L340.17 186.868L339.602 186.772Z" fill="#242224"/>
</g>
</g>
<path d="M366.182 206.696C369.195 214.917 370.532 222.893 370.27 229.135C370.138 232.257 369.607 234.93 368.696 236.981C367.786 239.03 366.507 240.437 364.886 241.075C363.266 241.713 361.409 241.541 359.415 240.635C357.42 239.728 355.311 238.094 353.212 235.85C349.017 231.363 344.909 224.478 341.896 216.257C338.883 208.035 337.545 200.06 337.809 193.818C337.94 190.695 338.471 188.022 339.382 185.971C340.292 183.922 341.571 182.515 343.191 181.877C344.812 181.239 346.67 181.411 348.663 182.317C350.658 183.224 352.768 184.858 354.866 187.102C359.061 191.59 363.169 198.474 366.182 206.696Z" fill="#FF6721"/>
<path d="M366.182 206.696C369.195 214.917 370.532 222.893 370.27 229.135C370.138 232.257 369.607 234.93 368.696 236.981C367.786 239.03 366.507 240.437 364.886 241.075C363.266 241.713 361.409 241.541 359.415 240.635C357.42 239.728 355.311 238.094 353.212 235.85C349.017 231.363 344.909 224.478 341.896 216.257C338.883 208.035 337.545 200.06 337.809 193.818C337.94 190.695 338.471 188.022 339.382 185.971C340.292 183.922 341.571 182.515 343.191 181.877C344.812 181.239 346.67 181.411 348.663 182.317C350.658 183.224 352.768 184.858 354.866 187.102C359.061 191.59 363.169 198.474 366.182 206.696Z" stroke="#242224" stroke-width="0.829284"/>
<path d="M343.965 141.248C349.16 158.793 347.868 173.679 338.72 176.589C337.25 177.057 332.084 179.068 330.521 178.809C322.369 177.461 315.199 166.508 310.84 151.785C307.625 140.926 304.667 131.632 307.303 124.524C307.864 121.226 308.504 120.571 310.953 118.965C312.855 117.718 316.472 115.233 317.995 114.748C327.143 111.839 338.769 123.703 343.965 141.248Z" fill="#FF6721"/>
<mask id="mask15_114_8345" style="mask-type:luminance" maskUnits="userSpaceOnUse" x="305" y="113" width="43" height="67">
<mask id="mask16_114_8345" style="mask-type:luminance" maskUnits="userSpaceOnUse" x="305" y="113" width="43" height="67">
<path d="M305.711 113.732H347.578V179.407H305.711V113.732Z" fill="white"/>
</mask>
<g mask="url(#mask16_114_8345)">
<path d="M305.394 112.646H348.124V179.461H305.394V112.646Z" fill="black"/>
<mask id="mask17_114_8345" style="mask-type:luminance" maskUnits="userSpaceOnUse" x="305" y="112" width="44" height="68">
<path d="M305.394 112.646H348.124V179.462H305.394V112.646Z" fill="white"/>
</mask>
<g mask="url(#mask17_114_8345)">
<path d="M343.965 141.248C349.16 158.793 347.868 173.679 338.721 176.589C337.25 177.057 332.084 179.068 330.521 178.81C322.369 177.461 315.2 166.508 310.84 151.785C307.625 140.926 304.667 131.632 307.303 124.524C307.865 121.226 308.504 120.571 310.953 118.965C312.855 117.718 316.472 115.233 317.996 114.749C327.143 111.839 338.77 123.703 343.965 141.248Z" fill="white"/>
</g>
</g>
</mask>
<g mask="url(#mask15_114_8345)">
<mask id="mask18_114_8345" style="mask-type:luminance" maskUnits="userSpaceOnUse" x="305" y="113" width="43" height="67">
<path d="M305.711 113.732H347.578V179.407H305.711V113.732Z" fill="white"/>
</mask>
<g mask="url(#mask18_114_8345)">
<path d="M311.268 119.447C312.23 118.817 313.596 117.892 314.922 117.058C316.27 116.211 317.491 115.513 318.171 115.297L317.821 114.2C316.976 114.469 315.626 115.256 314.309 116.084C312.971 116.926 311.578 117.867 310.637 118.485L311.268 119.447ZM307.871 124.621C308.149 122.987 308.434 122.105 308.894 121.437C309.358 120.765 310.037 120.254 311.268 119.447L310.637 118.485C309.42 119.283 308.555 119.902 307.947 120.783C307.335 121.67 307.019 122.764 306.736 124.428L307.871 124.621ZM330.615 178.242C326.76 177.604 323.047 174.673 319.728 169.981C316.419 165.3 313.56 158.944 311.392 151.622L310.288 151.948C312.479 159.349 315.385 165.831 318.788 170.645C322.183 175.446 326.131 178.666 330.427 179.377L330.615 178.242ZM338.546 176.041C338.168 176.161 337.556 176.379 336.848 176.627C336.134 176.877 335.308 177.162 334.482 177.423C333.653 177.685 332.833 177.921 332.131 178.075C331.402 178.235 330.885 178.287 330.615 178.242L330.427 179.377C330.939 179.462 331.653 179.359 332.378 179.2C333.13 179.035 333.987 178.787 334.829 178.52C335.673 178.253 336.512 177.964 337.229 177.713C337.953 177.46 338.538 177.251 338.895 177.137L338.546 176.041ZM311.392 151.622C309.78 146.178 308.249 141.177 307.444 136.647C306.64 132.118 306.577 128.137 307.843 124.724L306.764 124.324C305.393 128.019 305.491 132.238 306.31 136.848C307.129 141.458 308.685 146.533 310.288 151.948L311.392 151.622ZM318.171 115.297C322.434 113.941 327.41 115.995 332.051 120.731C336.672 125.446 340.836 132.71 343.413 141.411L344.517 141.085C341.898 132.242 337.652 124.801 332.874 119.925C328.116 115.07 322.705 112.647 317.821 114.2L318.171 115.297ZM343.413 141.411C345.997 150.139 346.953 158.162 346.15 164.333C345.345 170.516 342.807 174.686 338.546 176.041L338.895 177.137C343.782 175.583 346.463 170.854 347.292 164.481C348.123 158.095 347.128 149.902 344.517 141.085L343.413 141.411ZM307.303 124.524L307.843 124.724L307.862 124.673L307.871 124.621L307.303 124.524Z" fill="#242224"/>
</g>
</g>
<path d="M333.884 144.448C336.897 152.669 338.235 160.645 337.972 166.887C337.841 170.009 337.309 172.682 336.398 174.733C335.488 176.783 334.21 178.19 332.588 178.828C330.968 179.466 329.111 179.293 327.117 178.387C325.123 177.48 323.013 175.846 320.915 173.603C316.719 169.115 312.611 162.23 309.599 154.009C306.585 145.788 305.247 137.812 305.51 131.57C305.642 128.448 306.173 125.774 307.084 123.724C307.994 121.674 309.273 120.267 310.894 119.629C312.515 118.991 314.372 119.163 316.365 120.069C318.36 120.976 320.47 122.61 322.568 124.854C326.763 129.342 330.871 136.227 333.884 144.448Z" fill="#FF6721"/>
<path d="M333.884 144.448C336.897 152.669 338.235 160.645 337.972 166.887C337.841 170.009 337.309 172.682 336.398 174.733C335.488 176.783 334.21 178.19 332.588 178.828C330.968 179.466 329.111 179.293 327.117 178.387C325.123 177.48 323.013 175.846 320.915 173.603C316.719 169.115 312.611 162.23 309.599 154.009C306.585 145.788 305.247 137.812 305.51 131.57C305.642 128.448 306.173 125.774 307.084 123.724C307.994 121.674 309.273 120.267 310.894 119.629C312.515 118.991 314.372 119.163 316.365 120.069C318.36 120.976 320.47 122.61 322.568 124.854C326.763 129.342 330.871 136.227 333.884 144.448Z" stroke="#242224" stroke-width="0.829284"/>
<path d="M217.336 210.614C217.336 218.127 219.804 227.184 223.793 235.302C227.783 243.42 233.31 250.633 239.435 254.407C245.56 258.182 251.087 257.782 255.076 254.581C259.066 251.379 261.534 245.364 261.534 237.85C261.534 222.819 251.651 204.52 239.435 196.992C227.219 189.464 217.336 195.583 217.336 210.614ZM201.442 226.734L201.44 226.728L201.439 226.723C200.797 224.742 200.398 222.217 200.169 219.4C199.94 216.59 199.881 213.516 199.904 210.446C199.928 207.377 200.034 204.319 200.134 201.538C200.14 201.385 200.145 201.232 200.151 201.081C200.245 198.485 200.329 196.146 200.329 194.299C200.329 190.272 199.192 187.229 198.247 184.704C198.125 184.374 198.005 184.055 197.892 183.743C197.401 182.39 197.035 181.208 196.987 180.057C196.938 178.912 197.203 177.759 198.037 176.512C210.119 163.061 225.055 161.293 239.435 170.154C261.022 183.457 278.541 215.839 278.542 242.499C278.542 251.061 276.856 255.701 273.542 263.039C267.99 274.017 260.342 284.831 254.079 292.904C250.948 296.94 248.164 300.29 246.163 302.63C245.162 303.8 244.357 304.718 243.802 305.344C243.525 305.656 243.311 305.895 243.165 306.057C243.092 306.137 243.037 306.199 243 306.24L242.961 306.283C238.368 308.309 229.205 313.029 226.977 314.207C223.768 306.031 218.555 288.083 213.567 270.239C211.603 263.218 209.676 256.215 207.922 249.841C205.149 239.768 202.809 231.264 201.442 226.734Z" fill="#ADDCF6"/>
<path d="M217.336 210.614C217.336 218.127 219.804 227.184 223.793 235.302C227.783 243.42 233.31 250.633 239.435 254.407C245.56 258.182 251.087 257.782 255.076 254.581C259.066 251.379 261.534 245.364 261.534 237.85C261.534 222.819 251.651 204.52 239.435 196.992C227.219 189.464 217.336 195.583 217.336 210.614ZM201.442 226.734L201.44 226.728L201.439 226.723C200.797 224.742 200.398 222.217 200.169 219.4C199.94 216.59 199.881 213.516 199.904 210.446C199.928 207.377 200.034 204.319 200.134 201.538C200.14 201.385 200.145 201.232 200.151 201.081C200.245 198.485 200.329 196.146 200.329 194.299C200.329 190.272 199.192 187.229 198.247 184.704C198.125 184.374 198.005 184.055 197.892 183.743C197.401 182.39 197.035 181.208 196.987 180.057C196.938 178.912 197.203 177.759 198.037 176.512C210.119 163.061 225.055 161.293 239.435 170.154C261.022 183.457 278.541 215.839 278.542 242.499C278.542 251.061 276.856 255.701 273.542 263.039C267.99 274.017 260.342 284.831 254.079 292.904C250.948 296.94 248.164 300.29 246.163 302.63C245.162 303.8 244.357 304.718 243.802 305.344C243.525 305.656 243.311 305.895 243.165 306.057C243.092 306.137 243.037 306.199 243 306.24L242.961 306.283C238.368 308.309 229.205 313.029 226.977 314.207C223.768 306.031 218.555 288.083 213.567 270.239C211.603 263.218 209.676 256.215 207.922 249.841C205.149 239.768 202.809 231.264 201.442 226.734Z" stroke="#242224" stroke-width="0.829284"/>
<path d="M204.616 217.436C204.616 224.905 207.085 233.921 211.073 242.01C215.063 250.098 220.59 257.292 226.715 261.065C232.839 264.84 238.367 264.459 242.356 261.287C246.345 258.115 248.813 252.141 248.813 244.673C248.813 229.731 238.929 211.506 226.715 203.979C214.5 196.452 204.616 202.495 204.616 217.436ZM191.719 225.074L191.717 225.068L191.715 225.063C189.088 217 187.609 208.818 187.609 201.121C187.609 174.629 205.127 163.969 226.715 177.272C248.303 190.576 265.821 222.827 265.822 249.322C265.822 257.842 264.009 264.726 260.831 269.701L260.827 269.706L260.824 269.713C255.274 280.601 246.705 291.836 239.52 300.353C235.929 304.61 232.684 308.186 230.338 310.698C229.165 311.954 228.216 312.944 227.561 313.62C227.232 313.958 226.979 314.216 226.806 314.391C226.778 314.42 226.752 314.447 226.728 314.47C226.704 314.495 226.682 314.517 226.662 314.538C226.62 314.444 226.568 314.326 226.505 314.185C226.324 313.78 226.058 313.18 225.715 312.404C225.03 310.851 224.038 308.594 222.814 305.773C220.368 300.132 216.993 292.241 213.281 283.241C205.857 265.235 197.094 242.807 191.719 225.074Z" fill="#ADDCF6"/>
<path d="M204.616 217.436C204.616 224.905 207.085 233.921 211.073 242.01C215.063 250.098 220.59 257.292 226.715 261.065C232.839 264.84 238.367 264.459 242.356 261.287C246.345 258.115 248.813 252.141 248.813 244.673C248.813 229.731 238.929 211.506 226.715 203.979C214.5 196.452 204.616 202.495 204.616 217.436ZM191.719 225.074L191.717 225.068L191.715 225.063C189.088 217 187.609 208.818 187.609 201.121C187.609 174.629 205.127 163.969 226.715 177.272C248.303 190.576 265.821 222.827 265.822 249.322C265.822 257.842 264.009 264.726 260.831 269.701L260.827 269.706L260.824 269.713C255.274 280.601 246.705 291.836 239.52 300.353C235.929 304.61 232.684 308.186 230.338 310.698C229.165 311.954 228.216 312.944 227.561 313.62C227.232 313.958 226.979 314.216 226.806 314.391C226.778 314.42 226.752 314.447 226.728 314.47C226.704 314.495 226.682 314.517 226.662 314.538C226.62 314.444 226.568 314.326 226.505 314.185C226.324 313.78 226.058 313.18 225.715 312.404C225.03 310.851 224.038 308.594 222.814 305.773C220.368 300.132 216.993 292.241 213.281 283.241C205.857 265.235 197.094 242.807 191.719 225.074Z" stroke="#242224" stroke-width="0.829284"/>
<path fill-rule="evenodd" clip-rule="evenodd" d="M414.492 116.966C411.922 116.504 409.497 116.681 407.368 117.591C404.994 118.605 403.234 120.428 402.093 122.832L403.386 123.344L401.369 124.692C399.325 131.213 400.974 140.867 406.41 150.388C414.621 164.765 428.361 173.392 437.101 169.656C440.486 168.209 442.624 165.12 443.497 161.043L421.023 137.422L414.492 116.966ZM408.722 98.8921L403.921 83.8533L404.004 82.7496L419.823 76.0681C421.103 75.3483 423.399 76.8766 424.152 79.3257L439.701 129.862C439.968 130.732 440.483 131.58 441.133 132.221L474.847 165.476C476.391 166.998 476.871 169.253 476.155 170.358C475.884 170.852 475.46 171.252 474.94 171.493L461.531 177.718L459.111 177.454L456.577 174.791L443.036 177.555C442.584 177.647 442.228 177.933 442.015 178.376L424.421 214.927C423.455 216.935 420.259 215.191 419.438 212.207L410.708 180.476L400.66 178.618L388.317 161.11L380.888 139.633L381.82 135.212L368.789 121.573C366.806 119.497 366.745 116.323 368.686 116.152L401.101 113.293C401.64 113.245 402.065 112.943 402.305 112.435L408.722 98.8921Z" fill="#ADDCF6"/>
<path d="M414.352 117.01L420.883 137.466L421.163 137.377L414.632 116.921L414.352 117.01ZM420.917 137.523L443.391 161.144L443.603 160.942L421.13 137.321L420.917 137.523ZM443.353 161.012C442.488 165.056 440.373 168.097 437.044 169.521L437.159 169.79C440.599 168.32 442.761 165.184 443.64 161.074L443.353 161.012ZM437.044 169.521C432.738 171.361 427.172 170.166 421.636 166.69C416.105 163.217 410.633 157.485 406.538 150.314L406.283 150.46C410.399 157.667 415.903 163.437 421.48 166.938C427.051 170.436 432.725 171.686 437.159 169.79L437.044 169.521ZM406.538 150.314C401.112 140.814 399.482 131.203 401.509 124.735L401.229 124.648C399.169 131.222 400.835 140.92 406.283 150.46L406.538 150.314ZM401.451 124.814L403.468 123.466L403.305 123.222L401.288 124.57L401.451 124.814ZM403.44 123.207L402.147 122.695L402.039 122.968L403.332 123.48L403.44 123.207ZM402.226 122.895C403.353 120.518 405.089 118.724 407.426 117.726L407.311 117.456C404.9 118.487 403.115 120.337 401.961 122.769L402.226 122.895ZM407.426 117.726C409.523 116.829 411.918 116.653 414.466 117.11L414.518 116.821C411.926 116.356 409.471 116.532 407.311 117.456L407.426 117.726ZM402.439 112.498L408.855 98.9547L408.589 98.8293L402.173 112.372L402.439 112.498ZM401.115 113.438C401.708 113.386 402.177 113.05 402.439 112.498L402.173 112.372C401.954 112.835 401.574 113.103 401.089 113.146L401.115 113.438ZM368.698 116.298L401.115 113.438L401.089 113.146L368.673 116.006L368.698 116.298ZM368.895 121.471C367.927 120.458 367.432 119.18 367.413 118.145C367.403 117.628 367.512 117.183 367.727 116.861C367.938 116.543 368.258 116.337 368.698 116.298L368.673 116.006C368.143 116.052 367.743 116.307 367.483 116.698C367.225 117.084 367.109 117.594 367.119 118.151C367.141 119.265 367.669 120.612 368.683 121.674L368.895 121.471ZM381.927 135.111L368.895 121.471L368.683 121.674L381.714 135.313L381.927 135.111ZM381.031 139.663L381.964 135.242L381.677 135.181L380.744 139.603L381.031 139.663ZM388.456 161.062L381.026 139.585L380.749 139.681L388.178 161.158L388.456 161.062ZM400.78 178.533L388.437 161.026L388.197 161.195L400.54 178.702L400.78 178.533ZM410.735 180.332L400.687 178.474L400.634 178.762L410.682 180.62L410.735 180.332ZM419.58 212.168L410.85 180.437L410.566 180.515L419.297 212.246L419.58 212.168ZM424.289 214.863C424.067 215.325 423.725 215.56 423.327 215.624C422.921 215.69 422.439 215.58 421.946 215.311C420.96 214.772 419.98 213.623 419.58 212.168L419.297 212.246C419.718 213.775 420.747 214.99 421.805 215.568C422.335 215.857 422.883 215.993 423.374 215.914C423.872 215.834 424.293 215.534 424.554 214.991L424.289 214.863ZM441.883 178.312L424.289 214.863L424.554 214.991L442.148 178.439L441.883 178.312ZM443.007 177.411C442.507 177.513 442.115 177.831 441.883 178.312L442.148 178.439C442.343 178.035 442.662 177.781 443.066 177.699L443.007 177.411ZM456.548 174.647L443.007 177.411L443.066 177.699L456.607 174.934L456.548 174.647ZM456.471 174.892L459.004 177.555L459.217 177.353L456.684 174.69L456.471 174.892ZM459.095 177.6L461.515 177.863L461.547 177.572L459.127 177.308L459.095 177.6ZM461.593 177.851L475.002 171.626L474.879 171.36L461.469 177.585L461.593 177.851ZM475.002 171.626C475.551 171.371 475.998 170.949 476.284 170.429L476.026 170.288C475.77 170.754 475.37 171.132 474.879 171.36L475.002 171.626ZM474.744 165.58C475.496 166.322 475.989 167.242 476.206 168.109C476.425 168.981 476.359 169.774 476.032 170.278L476.279 170.438C476.667 169.838 476.72 168.95 476.491 168.038C476.261 167.12 475.741 166.152 474.95 165.372L474.744 165.58ZM441.03 132.326L474.744 165.58L474.95 165.372L441.236 132.117L441.03 132.326ZM439.56 129.905C439.835 130.799 440.363 131.668 441.03 132.326L441.236 132.117C440.604 131.493 440.102 130.666 439.841 129.819L439.56 129.905ZM424.013 79.3688L439.56 129.905L439.841 129.819L424.293 79.2825L424.013 79.3688ZM419.895 76.1958C420.461 75.8782 421.289 76.0422 422.1 76.6274C422.902 77.2069 423.645 78.1748 424.013 79.3688L424.293 79.2825C423.907 78.0275 423.126 77.0066 422.271 76.3897C421.425 75.7786 420.466 75.5381 419.751 75.9403L419.895 76.1958ZM419.766 75.9328L403.947 82.6149L404.061 82.8848L419.88 76.2033L419.766 75.9328ZM403.858 82.7386L403.774 83.8423L404.067 83.8648L404.15 82.7605L403.858 82.7386ZM403.781 83.8982L408.582 98.9369L408.862 98.8477L404.06 83.809L403.781 83.8982ZM421.023 137.422L420.883 137.466L420.894 137.499L420.917 137.523L421.023 137.422ZM443.497 161.043L443.64 161.074L443.657 160.998L443.603 160.942L443.497 161.043ZM401.369 124.692L401.288 124.57L401.245 124.598L401.229 124.648L401.369 124.692ZM403.386 123.344L403.468 123.466L403.701 123.31L403.44 123.207L403.386 123.344ZM402.093 122.832L401.961 122.769L401.893 122.911L402.039 122.968L402.093 122.832ZM414.492 116.966L414.632 116.921L414.605 116.837L414.518 116.821L414.492 116.966ZM381.821 135.212L381.964 135.242L381.98 135.166L381.927 135.111L381.821 135.212ZM380.888 139.633L380.744 139.603L380.736 139.642L380.749 139.681L380.888 139.633ZM388.317 161.11L388.178 161.158L388.185 161.178L388.197 161.195L388.317 161.11ZM400.66 178.618L400.54 178.702L400.575 178.751L400.634 178.762L400.66 178.618ZM410.708 180.476L410.85 180.437L410.825 180.349L410.735 180.332L410.708 180.476ZM456.577 174.791L456.684 174.69L456.627 174.631L456.548 174.647L456.577 174.791ZM459.111 177.454L459.004 177.555L459.042 177.594L459.095 177.6L459.111 177.454ZM461.531 177.718L461.515 177.863L461.555 177.868L461.593 177.851L461.531 177.718ZM476.155 170.358L476.032 170.278L476.029 170.283L476.026 170.288L476.155 170.358ZM419.823 76.0681L419.88 76.2033L419.888 76.1998L419.895 76.1958L419.823 76.0681ZM404.004 82.7496L403.947 82.6149L403.865 82.6494L403.858 82.7386L404.004 82.7496ZM408.722 98.892L408.855 98.9547L408.88 98.9023L408.862 98.8477L408.722 98.892ZM403.921 83.8533L403.774 83.8423L403.772 83.8711L403.781 83.8982L403.921 83.8533Z" fill="#242224"/>
<path d="M424.175 215.945L440.139 181.919L424.285 181.625L407.219 198.686L412.061 220.386L424.175 215.945Z" fill="#ADDCF6"/>
<path d="M424.175 215.945L440.139 181.919L424.285 181.625L407.219 198.686L412.061 220.386L424.175 215.945Z" stroke="#242224" stroke-width="0.422935"/>
<path d="M366.331 116.453L351.365 123.355L383.073 122.707L398.041 113.218L366.331 116.453Z" fill="#ADDCF6"/>
<path d="M366.331 116.453L351.365 123.355L383.073 122.707L398.041 113.218L366.331 116.453Z" stroke="#242224" stroke-width="0.422935"/>
<path fill-rule="evenodd" clip-rule="evenodd" d="M420.58 176.324C429.32 172.589 429.749 157.905 421.538 143.528C413.328 129.15 399.587 120.524 390.847 124.259C382.107 127.995 381.678 142.678 389.889 157.056C398.099 171.433 411.84 180.06 420.58 176.324ZM407.631 85.994C406.73 83.065 403.622 81.4532 402.686 83.4293L385.784 119.104C385.544 119.611 385.119 119.914 384.581 119.961L352.164 122.821C350.224 122.992 350.285 126.166 352.268 128.242L387.637 165.26C388.121 165.766 388.524 166.388 388.794 167.045L409.356 216.993C410.526 219.834 413.512 220.991 414.222 218.877L425.514 185.282C425.712 184.691 426.127 184.314 426.682 184.222L460.877 178.544C462.781 178.228 462.543 174.93 460.475 172.963L424.663 138.902C423.982 138.255 423.44 137.38 423.163 136.479L407.631 85.994Z" fill="#ADDCF6"/>
<mask id="mask19_114_8345" style="mask-type:luminance" maskUnits="userSpaceOnUse" x="350" y="81" width="113" height="140">
<mask id="mask20_114_8345" style="mask-type:luminance" maskUnits="userSpaceOnUse" x="350" y="81" width="113" height="140">
<path d="M350.158 81.9712H462.763V220.549H350.158V81.9712Z" fill="white"/>
</mask>
<g mask="url(#mask20_114_8345)">
<path d="M350.146 81.8959H462.797V220.632H350.146V81.8959Z" fill="black"/>
<mask id="mask21_114_8345" style="mask-type:luminance" maskUnits="userSpaceOnUse" x="350" y="81" width="113" height="140">
<path d="M350.146 81.8959H462.797V220.632H350.146V81.8959Z" fill="white"/>
</mask>
<g mask="url(#mask21_114_8345)">
<path fill-rule="evenodd" clip-rule="evenodd" d="M420.58 176.324C429.32 172.589 429.749 157.905 421.539 143.528C413.328 129.15 399.587 120.524 390.847 124.26C382.108 127.995 381.679 142.678 389.889 157.056C398.1 171.434 411.841 180.06 420.58 176.324ZM407.632 85.9942C406.731 83.0652 403.623 81.4533 402.687 83.4294L385.785 119.104C385.545 119.611 385.12 119.914 384.581 119.961L352.165 122.821C350.225 122.992 350.285 126.166 352.268 128.242L387.637 165.26C388.121 165.766 388.524 166.388 388.795 167.045L409.356 216.993C410.526 219.834 413.512 220.991 414.223 218.877L425.514 185.282C425.713 184.691 426.128 184.314 426.683 184.222L460.878 178.544C462.782 178.228 462.544 174.93 460.476 172.963L424.663 138.902C423.982 138.255 423.441 137.38 423.163 136.479L407.632 85.9942Z" fill="white"/>
</g>
</g>
</mask>
<g mask="url(#mask19_114_8345)">
<mask id="mask22_114_8345" style="mask-type:luminance" maskUnits="userSpaceOnUse" x="350" y="81" width="113" height="140">
<path d="M350.158 81.9712H462.763V220.549H350.158V81.9712Z" fill="white"/>
</mask>
<g mask="url(#mask22_114_8345)">
<path d="M420.35 175.785C416.237 177.543 410.831 176.428 405.348 172.986C399.887 169.557 394.463 163.881 390.399 156.765L389.379 157.347C393.527 164.609 399.078 170.435 404.724 173.979C410.349 177.511 416.183 178.842 420.811 176.864L420.35 175.785ZM390.399 156.765C386.334 149.647 384.429 142.488 384.599 136.684C384.768 130.872 387.001 126.541 391.078 124.799L390.617 123.72C385.954 125.713 383.602 130.592 383.425 136.65C383.248 142.716 385.234 150.087 389.379 157.347L390.399 156.765ZM391.078 124.799C395.19 123.041 400.596 124.155 406.079 127.598C411.541 131.027 416.965 136.703 421.028 143.818L422.048 143.237C417.901 135.976 412.349 130.149 406.704 126.605C401.078 123.073 395.244 121.742 390.617 123.72L391.078 124.799ZM421.028 143.818C425.094 150.937 426.999 158.096 426.829 163.9C426.659 169.712 424.426 174.043 420.35 175.785L420.811 176.864C425.474 174.871 427.825 169.991 428.002 163.934C428.179 157.867 426.194 150.496 422.048 143.237L421.028 143.818ZM407.071 86.1668L422.602 136.651L423.724 136.306L408.192 85.8221L407.071 86.1668ZM422.602 136.651C422.909 137.648 423.505 138.611 424.259 139.328L425.068 138.478C424.46 137.9 423.972 137.111 423.724 136.306L422.602 136.651ZM424.259 139.328L460.071 173.388L460.88 172.538L425.068 138.478L424.259 139.328ZM460.071 173.388C461.003 174.275 461.511 175.455 461.58 176.415C461.615 176.894 461.537 177.275 461.395 177.531C461.264 177.768 461.07 177.917 460.781 177.965L460.974 179.123C461.637 179.013 462.127 178.631 462.422 178.099C462.706 177.587 462.797 176.961 462.751 176.331C462.66 175.07 462.016 173.618 460.88 172.538L460.071 173.388ZM460.781 177.965L426.586 183.643L426.779 184.801L460.974 179.123L460.781 177.965ZM426.586 183.643C425.79 183.776 425.216 184.326 424.957 185.095L426.07 185.468C426.209 185.056 426.465 184.853 426.779 184.801L426.586 183.643ZM424.957 185.095L413.666 218.69L414.779 219.064L426.07 185.468L424.957 185.095ZM413.666 218.69C413.537 219.075 413.333 219.248 413.126 219.323C412.9 219.405 412.575 219.402 412.173 219.246C411.366 218.934 410.433 218.067 409.899 216.769L408.813 217.216C409.449 218.76 410.594 219.892 411.749 220.34C412.329 220.565 412.957 220.632 413.527 220.425C414.116 220.212 414.552 219.736 414.779 219.064L413.666 218.69ZM409.899 216.769L389.337 166.822L388.252 167.268L408.813 217.216L409.899 216.769ZM389.337 166.822C389.039 166.098 388.596 165.414 388.062 164.854L387.212 165.665C387.645 166.118 388.008 166.677 388.252 167.268L389.337 166.822ZM388.062 164.854L352.693 127.837L351.844 128.647L387.212 165.665L388.062 164.854ZM352.693 127.837C351.794 126.896 351.349 125.721 351.332 124.806C351.323 124.348 351.421 123.999 351.572 123.773C351.71 123.566 351.91 123.432 352.216 123.405L352.113 122.236C351.449 122.295 350.929 122.622 350.595 123.123C350.273 123.605 350.146 124.211 350.159 124.828C350.182 126.062 350.759 127.511 351.844 128.647L352.693 127.837ZM352.216 123.405L384.633 120.546L384.53 119.377L352.113 122.236L352.216 123.405ZM384.633 120.546C385.389 120.479 385.99 120.042 386.315 119.355L385.254 118.853C385.099 119.181 384.851 119.348 384.53 119.377L384.633 120.546ZM386.315 119.355L403.217 83.6803L402.156 83.1779L385.254 118.853L386.315 119.355ZM403.217 83.6803C403.375 83.3459 403.593 83.2061 403.834 83.1612C404.103 83.1117 404.473 83.1704 404.902 83.3931C405.759 83.838 406.663 84.8421 407.071 86.1668L408.192 85.8221C407.699 84.2178 406.598 82.9512 405.442 82.3516C404.865 82.0518 404.225 81.8958 403.62 82.0075C402.987 82.1249 402.465 82.5242 402.156 83.1779L403.217 83.6803Z" fill="#242224"/>
</g>
</g>
<path d="M188.55 319.658L519.537 167.398C519.723 167.313 519.911 167.514 519.812 167.694C518.844 170.03 517.318 172.093 515.368 173.703L512.243 176.281L511.575 176.639L506.198 180.788C504.49 182.106 502.638 183.228 500.679 184.133L169.297 337.134L166.36 336.257L188.55 319.658Z" fill="#33B0FF"/>
<path d="M188.55 319.658L519.537 167.398C519.723 167.313 519.911 167.514 519.812 167.694C518.844 170.03 517.318 172.093 515.368 173.703L512.243 176.281L511.575 176.639L506.198 180.788C504.49 182.106 502.638 183.228 500.679 184.133L169.297 337.134L166.36 336.257L188.55 319.658Z" stroke="#242224" stroke-width="0.829284"/>
<path d="M177.612 330.016L511.888 176.521L495.764 190.47C493.724 192.234 491.446 193.704 488.997 194.835L173.662 341.042L158.359 347.492L155.422 346.615L177.612 330.016Z" fill="#33B0FF"/>
<path d="M177.612 330.016L511.888 176.521L495.764 190.47C493.724 192.234 491.446 193.704 488.997 194.835L173.662 341.042L158.359 347.492L155.422 346.615L177.612 330.016Z" stroke="#242224" stroke-width="0.829284"/>
<path d="M203.68 299.029L520.854 149.541" stroke="#FCF8F2" stroke-width="0.913871" stroke-dasharray="5.48 5.48"/>
<path d="M473.34 51.2496L138.242 200.419L129.479 200.208L132.998 197.851L463.717 47.8366C467.502 46.1201 471.973 47.3435 474.355 50.7478L473.34 51.2496Z" fill="#33B0FF"/>
<path d="M473.34 51.2496L138.242 200.419L129.479 200.208L132.998 197.851L463.717 47.8366C467.502 46.1201 471.973 47.3435 474.355 50.7478L473.34 51.2496Z" stroke="#242224" stroke-width="0.829284"/>
<path d="M154.173 303.487C141.572 293.921 131.351 270.641 131.351 251.508C131.351 232.376 141.572 224.616 154.173 234.182C166.773 243.749 176.994 267.028 176.994 286.161C176.994 305.293 166.773 313.053 154.173 303.487ZM193.934 271.564L170.562 220.903C161.508 200.282 149.58 190.888 138.313 195.189L129.552 199.551L114.39 213.745C105.336 220.619 105.336 242.929 114.39 263.55L137.762 316.783C145.483 334.369 147.978 349.55 156.907 348.054C158.447 347.796 171.584 342.734 173.662 341.042L185.701 331.622L196.883 322.533C205.936 315.659 202.987 292.184 193.934 271.564Z" fill="#33B0FF"/>
<path d="M154.173 303.487C141.572 293.921 131.351 270.641 131.351 251.508C131.351 232.376 141.572 224.616 154.173 234.182C166.773 243.749 176.994 267.028 176.994 286.161C176.994 305.293 166.773 313.053 154.173 303.487ZM193.934 271.564L170.562 220.903C161.508 200.282 149.58 190.888 138.313 195.189L129.552 199.551L114.39 213.745C105.336 220.619 105.336 242.929 114.39 263.55L137.762 316.783C145.483 334.369 147.978 349.55 156.907 348.054C158.447 347.796 171.584 342.734 173.662 341.042L185.701 331.622L196.883 322.533C205.936 315.659 202.987 292.184 193.934 271.564Z" stroke="#242224" stroke-width="1.09631"/>
<path d="M143.943 308.206C131.343 298.64 121.122 275.359 121.122 256.228C121.122 237.095 131.343 229.335 143.943 238.901C156.543 248.467 166.764 271.747 166.764 290.88C166.764 310.012 156.543 317.772 143.943 308.206ZM183.704 276.282L160.332 225.623C151.279 205.001 136.586 193.846 127.532 200.72L104.16 218.465C95.1065 225.338 95.1065 247.648 104.16 268.269L127.532 321.502C136.586 342.123 151.279 353.278 160.332 346.404L183.704 326.087C192.758 319.214 192.758 296.904 183.704 276.282Z" fill="#33B0FF"/>
<path d="M143.943 308.206C131.343 298.64 121.122 275.359 121.122 256.228C121.122 237.095 131.343 229.335 143.943 238.901C156.543 248.467 166.764 271.747 166.764 290.88C166.764 310.012 156.543 317.772 143.943 308.206ZM183.704 276.282L160.332 225.623C151.279 205.001 136.586 193.846 127.532 200.72L104.16 218.465C95.1065 225.338 95.1065 247.648 104.16 268.269L127.532 321.502C136.586 342.123 151.279 353.278 160.332 346.404L183.704 326.087C192.758 319.214 192.758 296.904 183.704 276.282Z" stroke="#242224" stroke-width="1.09631"/>
<path d="M473.505 49.7724L472.61 49.0036L149.202 195.359L149.344 195.415C151.026 196.076 152.641 196.893 154.169 197.857L154.417 198.013L476.333 52.5932L473.505 49.7724Z" fill="#1D8AED"/>
<path d="M473.505 49.7724L472.61 49.0036L149.202 195.359L149.344 195.415C151.026 196.076 152.641 196.893 154.169 197.857L154.417 198.013L476.333 52.5932L473.505 49.7724Z" stroke="#242224" stroke-width="0.829284"/>
<path d="M515.587 173.541L511.765 176.574L199.32 319.985L200.189 318.489L201.299 315.739L201.734 313.518L520.028 167.258L519.263 168.879C518.716 170.036 517.981 171.092 517.088 172.006L515.587 173.541Z" fill="#1D8AED"/>
<path d="M515.587 173.541L511.765 176.574L199.32 319.985L200.189 318.489L201.299 315.739L201.734 313.518L520.028 167.258L519.263 168.879C518.716 170.036 517.981 171.092 517.088 172.006L515.587 173.541Z" stroke="#242224" stroke-width="0.829284"/>
</g>
<path d="M410.604 39.5222L413.467 45.7652L413.728 45.6449L410.866 39.4025L410.604 39.5222ZM413.538 45.5741L155.774 163.661L155.895 163.923L413.658 45.836L413.538 45.5741ZM155.966 163.732L153.103 157.489L152.841 157.609L155.704 163.852L155.966 163.732ZM152.854 157.466L143.233 171.01L143.467 171.177L153.089 157.633L152.854 157.466ZM143.337 171.237L159.883 172.794L159.91 172.507L143.364 170.951L143.337 171.237ZM160.027 172.591L157.165 166.348L156.903 166.468L159.766 172.71L160.027 172.591ZM157.094 166.539L414.857 48.4514L414.737 48.1901L156.974 166.277L157.094 166.539ZM414.666 48.3806L417.529 54.623L417.791 54.5033L414.928 48.2609L414.666 48.3806ZM417.777 54.6466L427.399 41.1018L427.164 40.9355L417.542 54.4803L417.777 54.6466ZM427.295 40.8756L410.748 39.319L410.721 39.6056L427.268 41.1622L427.295 40.8756ZM413.598 45.7048L413.658 45.836L413.788 45.7756L413.728 45.6449L413.598 45.7048ZM155.834 163.792L155.704 163.852L155.763 163.983L155.895 163.923L155.834 163.792ZM152.972 157.55L153.103 157.489L152.999 157.263L152.854 157.466L152.972 157.55ZM143.35 171.094L143.233 171.01L143.089 171.214L143.337 171.237L143.35 171.094ZM159.896 172.651L159.883 172.794L160.131 172.817L160.027 172.591L159.896 172.651ZM157.034 166.407L156.974 166.277L156.843 166.337L156.903 166.468L157.034 166.407ZM414.797 48.3207L414.928 48.2609L414.868 48.1297L414.737 48.1901L414.797 48.3207ZM417.659 54.5632L417.529 54.623L417.633 54.8498L417.777 54.6466L417.659 54.5632ZM410.735 39.4623L410.748 39.319L410.5 39.2955L410.604 39.5222L410.735 39.4623ZM427.281 41.0189L427.399 41.1018L427.543 40.8987L427.295 40.8756L427.281 41.0189Z" fill="#FCF8F2"/>
</g>
<defs>
<clipPath id="clip0_114_8345">
<rect width="640" height="426.092" fill="white" transform="translate(0 0.459839)"/>
</clipPath>
</defs>
</svg>
