<svg width="146" height="40" viewBox="0 0 146 40" fill="none" xmlns="http://www.w3.org/2000/svg">
<mask id="mask0_166_6596" style="mask-type:luminance" maskUnits="userSpaceOnUse" x="24" y="9" width="98" height="22">
<path d="M121.45 9H24.6001V30.7077H121.45V9Z" fill="white"/>
</mask>
<g mask="url(#mask0_166_6596)">
<path d="M40.4943 10.562C39.4705 10.562 38.6294 11.3981 38.6294 12.4376C38.6294 13.4772 39.4711 14.2678 40.4943 14.2678C41.5176 14.2678 42.3593 13.4316 42.3593 12.4376C42.3593 11.4437 41.5402 10.562 40.4943 10.562Z" fill="#202024"/>
<path d="M42.0178 15.4165H38.9927V26.5325H42.0178V15.4165Z" fill="#202024"/>
<path d="M74.0878 15.1226C72.8824 15.1226 71.5407 15.6423 70.8579 16.7948V15.4164H67.9238V26.5325H70.949V20.1386C70.949 18.8508 71.7222 17.8343 73.0413 17.8343C74.4968 17.8343 75.111 18.8059 75.111 20.0482V26.5325H78.1362V19.5284C78.1362 17.0887 76.8623 15.1226 74.0878 15.1226Z" fill="#202024"/>
<path d="M85.1572 15.0776C81.8136 15.0776 79.2891 17.5404 79.2891 20.9742C79.2891 24.4079 81.8136 26.8713 85.1572 26.8713C88.5008 26.8713 91.0253 24.386 91.0253 20.9742C91.0253 17.5623 88.5008 15.0776 85.1572 15.0776ZM85.1572 24.1377C83.6785 24.1377 82.3142 23.0533 82.3142 20.9748C82.3142 18.8963 83.6785 17.8119 85.1572 17.8119C86.6359 17.8119 88.0002 18.8739 88.0002 20.9748C88.0002 23.0757 86.6359 24.1377 85.1572 24.1377Z" fill="#202024"/>
<path d="M105.039 15.1001C103.56 15.1001 102.378 15.5974 101.49 16.9527C100.922 15.7553 99.6931 15.1001 98.1698 15.1001C96.9419 15.1001 95.509 15.6873 94.8947 16.7717V15.4164H92.0059V26.5325H95.031V20.0257C95.031 18.8059 95.8043 17.8343 97.1234 17.8343C98.4424 17.8343 99.102 18.7378 99.102 19.9359V26.5331H102.105V20.0263C102.105 18.8289 102.878 17.8349 104.174 17.8349C105.562 17.8349 106.153 18.7384 106.153 19.9364V26.5337H109.087V19.3268C109.087 16.3442 107.108 15.1019 105.039 15.1019V15.1001Z" fill="#202024"/>
<path d="M118.211 15.4165L115.459 21.9233L112.48 15.4165H109.091L113.844 25.1311L111.206 30.9153H114.413L121.441 15.4165H118.211Z" fill="#202024"/>
<path d="M49.0327 24.1371C47.554 24.1371 46.1897 23.0527 46.1897 20.9742C46.1897 18.8957 47.5547 17.8113 49.0327 17.8113C49.95 17.8113 50.7596 18.221 51.2423 19.0341L54.0955 18.1046C53.1776 16.2502 51.3393 15.0776 49.0327 15.0776C45.6891 15.0776 43.1646 17.5404 43.1646 20.9742C43.1646 24.4079 45.6891 26.8713 49.0327 26.8713C51.8114 26.8713 53.9091 25.1536 54.5383 22.6151H51.3965C50.9465 23.6268 50.0572 24.1371 49.0327 24.1371Z" fill="#202024"/>
<path d="M60.9082 15.0776C57.5646 15.0776 55.04 17.5404 55.04 20.9742C55.04 24.4079 57.5646 26.8713 60.9082 26.8713C64.2518 26.8713 66.7763 24.386 66.7763 20.9742C66.7763 17.5623 64.2518 15.0776 60.9082 15.0776ZM60.9082 24.1377C59.4295 24.1377 58.0652 23.0533 58.0652 20.9748C58.0652 18.8963 59.4302 17.8119 60.9082 17.8119C62.3863 17.8119 63.7512 18.8739 63.7512 20.9748C63.7512 23.0757 62.3863 24.1377 60.9082 24.1377Z" fill="#202024"/>
<path d="M35.0023 16.7968C35.6225 15.9802 35.7518 15.1961 35.7518 14.2583C35.7518 13.3204 34.8922 10.5117 31.7599 10.5117H24.5732V26.5215H32.3361C36.203 26.5215 37.8351 23.8611 37.8351 21.0536C37.8351 19.7663 37.2959 18.0959 35.0023 16.7968ZM27.6085 12.9686H31.2688C32.1111 12.9686 32.7933 13.6469 32.7933 14.483C32.7933 15.3197 32.1105 15.9973 31.2688 15.9973H27.6085V12.9686ZM31.9778 24.0646H27.6085V18.4548H31.9778C33.5373 18.4548 34.8011 19.7108 34.8011 21.2594C34.8011 22.9765 33.6773 24.0646 31.9778 24.0646Z" fill="#202024"/>
</g>
</svg>
