<svg width="146" height="40" viewBox="0 0 146 40" fill="none" xmlns="http://www.w3.org/2000/svg">
<mask id="mask0_166_6644" style="mask-type:luminance" maskUnits="userSpaceOnUse" x="20" y="7" width="106" height="26">
<path d="M125.353 7.66797H20.4229V32.8298H125.353V7.66797Z" fill="white"/>
</mask>
<g mask="url(#mask0_166_6644)">
<path d="M48.7815 20.6159C48.7815 16.5042 50.9605 14.4651 55.2355 14.4651C56.9821 14.4651 58.0134 14.7827 58.8953 15.1838L58.1467 17.2397C57.032 16.9388 56.5665 16.8218 55.2688 16.8048C53.1396 16.7717 51.6595 17.9748 51.6595 20.4484C51.6595 22.9224 53.2231 24.2428 55.6018 24.2428C56.7492 24.2428 57.4315 24.1426 58.3291 23.9086L58.9283 26.048C57.7972 26.4658 56.8161 26.6162 55.3023 26.6162C50.9941 26.6162 48.7815 24.4936 48.7815 20.6159ZM66.8473 21.8861C66.8473 20.4154 66.4817 19.2955 64.9504 19.2955C63.4536 19.2955 63.0381 20.4154 63.0381 21.9032C63.0381 23.474 63.5039 24.4267 64.984 24.4267C66.4817 24.4267 66.8473 23.4406 66.8473 21.8861ZM60.2429 21.9697C60.2429 18.9442 62.1229 17.0889 65.0006 17.0889C68.2276 17.0889 69.6754 18.9111 69.6754 21.8865C69.6754 24.995 67.6451 26.65 64.8506 26.65C61.8568 26.65 60.2429 24.8281 60.2429 21.9697ZM70.5745 17.3232H73.552L75.0824 22.2706L75.5481 24.0924L76.0642 22.2706L77.7602 17.3232H80.6715L77.1451 26.4491H73.8511L70.5745 17.3232ZM87.0423 24.1259V22.6888L85.6792 22.7225C84.8634 22.7389 84.2654 23.0063 84.2654 23.6749C84.2654 24.2098 84.7809 24.4437 85.2799 24.4437C85.812 24.4437 86.4443 24.293 87.0428 24.1262L87.0423 24.1259ZM81.5698 23.8417C81.5698 21.5352 83.6663 21.0672 85.463 21.0672H87.0428V20.4986C87.0428 19.6966 86.5267 19.4626 85.3966 19.4626C84.4977 19.4626 83.533 19.6632 82.6844 19.8635L82.1362 17.841C83.1673 17.4402 84.3649 17.1059 85.812 17.1059C88.6237 17.1059 89.7544 17.9082 89.7544 19.9641V24.0256C89.7544 24.3264 90.0542 24.3933 90.5692 24.41L90.4696 26.516C90.2533 26.5327 90.0365 26.5327 89.8202 26.5327C88.7233 26.5327 87.5589 26.3488 87.3094 25.5633C86.644 26.0817 85.6958 26.5995 84.6974 26.5995C82.7016 26.5995 81.5698 25.6636 81.5698 23.8417ZM92.633 13.8464H95.411V26.4494H92.633V13.8464ZM103.113 20.9502C103.146 19.8471 102.664 19.0782 101.766 19.0782C100.818 19.0782 100.202 19.7467 100.152 20.9502H103.113ZM97.3072 22.0196C97.3072 18.2927 99.2538 17.1059 101.999 17.1059C104.86 17.1059 105.958 18.9779 105.958 21.7358V22.7386H100.069C100.053 24.176 101.183 24.4434 102.63 24.4434C103.246 24.4434 104.278 24.2428 105.226 24.0757L105.642 26.1981C104.627 26.4993 103.329 26.65 102.231 26.65C99.2377 26.65 97.3072 25.6636 97.3072 22.0196ZM107.855 17.3232H110.633V18.2425C111.182 17.8247 112.38 17.0889 113.594 17.0889C116.438 17.0889 116.638 18.66 116.638 20.7329V26.4494H113.877V20.9669C113.877 19.7133 113.594 19.496 112.662 19.496C111.83 19.496 111.082 19.7635 110.633 19.9808V26.4491H107.855V17.3232ZM119.366 23.6077V19.3791H118.036V17.3232H119.366V15.4509H122.127V17.3232H124.939V19.3791H122.127V23.591C122.127 24.2595 122.377 24.3097 123.126 24.3097C123.742 24.3097 125.089 24.1259 125.089 24.1259L125.355 26.3154C124.706 26.4993 123.825 26.633 123.16 26.633C121.413 26.633 119.366 26.7165 119.366 23.6077ZM32.944 13.535V7.6665C26.0254 7.6665 20.4229 13.2964 20.4229 20.2479C20.4229 27.1997 26.0257 32.8299 32.944 32.8299V26.9614C29.2512 26.9614 26.2632 23.9587 26.2632 20.2479C26.2632 16.5377 29.2512 13.535 32.944 13.535Z" fill="#202024"/>
<path d="M39.6492 13.535C39.2657 13.535 38.886 13.4591 38.5317 13.3116C38.1774 13.1642 37.8555 12.9481 37.5843 12.6756C37.3131 12.4031 37.098 12.0796 36.9513 11.7236C36.8045 11.3676 36.729 10.9861 36.729 10.6008C36.729 10.2154 36.8045 9.83387 36.9513 9.47786C37.098 9.12187 37.3131 8.7984 37.5843 8.52593C37.8555 8.25346 38.1774 8.03732 38.5317 7.88986C38.886 7.7424 39.2657 7.6665 39.6492 7.6665C40.4237 7.6665 41.1664 7.97565 41.7141 8.52593C42.2617 9.07621 42.5694 9.82254 42.5694 10.6008C42.5694 11.379 42.2617 12.1253 41.7141 12.6756C41.1664 13.2259 40.4237 13.535 39.6492 13.535Z" fill="#202024"/>
<path d="M39.5999 32.8299C38.8254 32.8299 38.0826 32.5208 37.535 31.9705C36.9874 31.4202 36.6797 30.6739 36.6797 29.8957C36.6797 29.1175 36.9874 28.3711 37.535 27.8208C38.0826 27.2705 38.8254 26.9614 39.5999 26.9614C40.3744 26.9614 41.1171 27.2705 41.6648 27.8208C42.2124 28.3711 42.5201 29.1175 42.5201 29.8957C42.5201 30.6739 42.2124 31.4202 41.6648 31.9705C41.1171 32.5208 40.3744 32.8299 39.5999 32.8299Z" fill="#202024"/>
<path d="M39.6259 20.2478C39.6259 23.9587 36.6379 26.9613 32.9448 26.9613V13.5347C36.6376 13.5347 39.6259 16.5373 39.6259 20.2478Z" fill="#202024"/>
</g>
</svg>
