<svg width="146" height="40" viewBox="0 0 146 40" fill="none" xmlns="http://www.w3.org/2000/svg">
<path d="M86.1886 23.5216H89.1298V25.391H83.9438V15.4492H86.1886V23.5216Z" fill="#202024"/>
<path d="M96.1214 25.4897C95.2553 25.4897 94.4588 25.2725 93.7318 24.8382C93.0144 24.404 92.4411 23.7997 92.0125 23.0255C91.5922 22.2418 91.3818 21.3638 91.3818 20.3913C91.3818 19.4189 91.5922 18.5455 92.0125 17.7713C92.4411 16.9972 93.0144 16.3929 93.7318 15.9586C94.4588 15.5243 95.2553 15.3071 96.1214 15.3071C96.988 15.3071 97.78 15.5243 98.4975 15.9586C99.2244 16.3929 99.7933 16.9972 100.205 17.7713C100.624 18.5455 100.835 19.4189 100.835 20.3913C100.835 21.3638 100.624 22.2418 100.205 23.0255C99.7844 23.7997 99.2155 24.404 98.4975 24.8382C97.78 25.2725 96.988 25.4897 96.1214 25.4897ZM96.1214 23.2804C96.8566 23.2804 97.4433 23.016 97.8808 22.4873C98.3272 21.9586 98.5504 21.2599 98.5504 20.3913C98.5504 19.5133 98.3272 18.8146 97.8808 18.2953C97.4433 17.7666 96.8566 17.5023 96.1214 17.5023C95.3777 17.5023 94.7822 17.7619 94.3358 18.2812C93.8983 18.8005 93.6795 19.5039 93.6795 20.3913C93.6795 21.2694 93.8983 21.9728 94.3358 22.5015C94.7822 23.0208 95.3777 23.2804 96.1214 23.2804Z" fill="#202024"/>
<path d="M103.267 20.4065C103.267 19.4246 103.463 18.5512 103.857 17.7865C104.251 17.0123 104.798 16.4128 105.498 15.9879C106.207 15.5536 107.008 15.3364 107.901 15.3364C108.995 15.3364 109.931 15.648 110.71 16.2711C111.489 16.8943 112.01 17.744 112.273 18.8203H109.805C109.621 18.4049 109.358 18.0886 109.017 17.8715C108.684 17.6543 108.303 17.5457 107.875 17.5457C107.183 17.5457 106.623 17.8054 106.194 18.3246C105.765 18.8439 105.551 19.5378 105.551 20.4065C105.551 21.2751 105.765 21.969 106.194 22.4883C106.623 23.0076 107.183 23.2672 107.875 23.2672C108.303 23.2672 108.684 23.1586 109.017 22.9415C109.358 22.7244 109.621 22.408 109.805 21.9926H112.273C112.01 23.0689 111.489 23.9187 110.71 24.5418C109.931 25.1555 108.995 25.4623 107.901 25.4623C107.008 25.4623 106.207 25.2499 105.498 24.8251C104.798 24.3907 104.251 23.7912 103.857 23.0265C103.463 22.2617 103.267 21.3884 103.267 20.4065Z" fill="#202024"/>
<path d="M120.554 25.391L117.456 21.0008V25.391H115.211V15.4492H117.456V19.8111L120.528 15.4492H123.167L119.596 20.321L123.298 25.391H120.554Z" fill="#202024"/>
<path d="M30.2113 20.3993V29.9945L22.5 25.2948V15.6997L30.2113 20.3993Z" fill="#202024"/>
<path opacity="0.25" d="M30.2109 20.3993L37.9222 15.6997V25.2948L30.2109 29.9945V20.3993Z" fill="#202024"/>
<path opacity="0.5" d="M30.2113 11L37.9225 15.6996L30.2113 20.3993L22.5 15.6996L30.2113 11Z" fill="#202024"/>
<path d="M50.297 18.5937C50.1306 18.2633 49.89 18.0131 49.5749 17.8431C49.2686 17.6638 48.9053 17.5741 48.4852 17.5741C47.7588 17.5741 47.1767 17.8337 46.7391 18.353C46.3015 18.8628 46.0827 19.5473 46.0827 20.4065C46.0827 21.3223 46.3103 22.0399 46.7654 22.5591C47.2293 23.0689 47.8638 23.3239 48.669 23.3239C49.2204 23.3239 49.6843 23.1728 50.0606 22.8707C50.4457 22.5685 50.7258 22.1342 50.9009 21.5678H48.052V19.7833H52.9358V22.0351C52.7695 22.6394 52.485 23.2011 52.0824 23.7204C51.6886 24.2397 51.1853 24.6598 50.5726 24.9808C49.96 25.3018 49.2686 25.4623 48.4983 25.4623C47.5881 25.4623 46.7741 25.2499 46.0564 24.8251C45.3475 24.3907 44.7917 23.7912 44.3891 23.0265C43.9953 22.2617 43.7983 21.3884 43.7983 20.4065C43.7983 19.4246 43.9953 18.5512 44.3891 17.7865C44.7917 17.0123 45.3475 16.4128 46.0564 15.9879C46.7654 15.5536 47.575 15.3364 48.4852 15.3364C49.588 15.3364 50.5158 15.6244 51.2685 16.2003C52.0299 16.7762 52.5332 17.5741 52.7783 18.5937H50.297Z" fill="#202024"/>
<path d="M57.9862 17.3894V19.4005H60.9926V21.2698H57.9862V23.4508H61.3864V25.391H55.7412V15.4492H61.3864V17.3894H57.9862Z" fill="#202024"/>
<path d="M71.037 15.4492V17.3894H68.5951V25.391H66.3501V17.3894H63.9082V15.4492H71.037Z" fill="#202024"/>
<path d="M79.3069 20.2926C79.8407 20.4154 80.2693 20.7033 80.5933 21.1565C80.9172 21.6003 81.0792 22.1102 81.0792 22.686C81.0792 23.5169 80.8075 24.1778 80.2649 24.6687C79.7311 25.1502 78.983 25.391 78.0201 25.391H73.7271V15.4492H77.8757C78.8121 15.4492 79.5429 15.6805 80.0684 16.1432C80.6022 16.6058 80.8688 17.2336 80.8688 18.0267C80.8688 18.6121 80.7246 19.0983 80.4357 19.4854C80.1558 19.8725 79.7795 20.1416 79.3069 20.2926ZM75.972 19.4713H77.4424C77.81 19.4713 78.0901 19.3863 78.2828 19.2163C78.4837 19.037 78.5845 18.7773 78.5845 18.4374C78.5845 18.0975 78.4837 17.8379 78.2828 17.6585C78.0901 17.4791 77.81 17.3894 77.4424 17.3894H75.972V19.4713ZM77.6262 23.4367C78.0026 23.4367 78.2911 23.347 78.4926 23.1675C78.703 22.9787 78.8077 22.7097 78.8077 22.3603C78.8077 22.011 78.6986 21.7372 78.4798 21.5389C78.2694 21.3407 77.9763 21.2415 77.6 21.2415H75.972V23.4367H77.6262Z" fill="#202024"/>
</svg>
