<svg width="146" height="40" viewBox="0 0 146 40" fill="none" xmlns="http://www.w3.org/2000/svg">
<path d="M46.9515 24.9828L38.6541 26.9036C38.3515 26.9795 38.1245 27.2828 38.1245 27.5861V33.298C38.1245 33.7782 38.5028 34.0816 38.982 33.9805L50.5579 31.3013C51.0371 31.2002 51.2388 30.7452 51.0371 30.3156L48.9438 25.9938C48.616 25.3113 48.9438 24.6037 49.6752 24.452L57.2412 22.6323C57.7708 22.5059 58.2247 21.9499 58.2247 21.3938V16.1115C58.2247 15.6312 57.8464 15.3027 57.3673 15.4291L46.4471 18.0323C45.7661 18.184 45.4635 18.8411 45.7661 19.473L47.6828 23.4411C48.0107 24.1234 47.6828 24.8059 46.9515 24.9828Z" fill="#202024"/>
<path d="M41.4796 10.703L43.6485 15.1513C43.9259 15.7326 43.6485 16.3392 43.018 16.4655L39.008 17.4007C38.5036 17.5271 38.1001 18.0325 38.1001 18.538V23.3149C38.1001 24.1237 38.7558 24.6292 39.5376 24.4522L43.2702 23.5929C43.7746 23.4918 44.1781 22.961 44.1781 22.4556L44.2033 17.5523C44.2033 16.8699 44.7581 16.1875 45.4139 16.0359L57.6455 13.104C57.9481 13.0282 58.1751 12.7249 58.1751 12.4216V6.70961C58.1751 6.2294 57.7968 5.90083 57.3176 6.0272L41.9587 9.71726C41.4796 9.81836 41.2778 10.2733 41.4796 10.703Z" fill="#202024"/>
<path d="M78.9352 23.9995H71.9493V12.9995H68.7251V26.9995H78.9352V23.9995Z" fill="#202024"/>
<path d="M81.0386 26.9995H84.2627V12.9995H81.0386V26.9995Z" fill="#202024"/>
<path d="M86.6709 27.0004H89.736V23.9204H86.6709V27.0004Z" fill="#202024"/>
<path d="M95.3601 21.5395H102.107V18.7795H95.3601V15.8395H102.685V12.9995H92.1357V26.9995H95.3601V21.5395Z" fill="#202024"/>
<path d="M104.877 26.9995H108.101V12.9995H104.877V26.9995Z" fill="#202024"/>
</svg>
