<svg width="146" height="40" viewBox="0 0 146 40" fill="none" xmlns="http://www.w3.org/2000/svg">
<path d="M38.2546 17.7521C38.4743 17.8115 38.7163 17.8113 39.2004 17.8109L42.6876 17.8081C43.1706 17.8077 43.4121 17.8075 43.6313 17.748C43.9235 17.6688 44.19 17.5133 44.4039 17.2971C44.5644 17.135 44.6852 16.9237 44.9268 16.5013L47.6504 11.7376L44.6715 10L41.5012 15.5449C41.3381 15.8301 41.2566 15.9728 41.1564 16.0312C41.0229 16.109 40.8585 16.1089 40.7251 16.0311C40.625 15.9727 40.5435 15.83 40.3805 15.5447L37.2134 10.0006L34.2339 11.737L36.9566 16.5032C37.1985 16.9267 37.3194 17.1384 37.4802 17.3008C37.6946 17.5174 37.9617 17.673 38.2546 17.7521Z" fill="#202024"/>
<path d="M47.6502 28.2626L44.4798 22.7176C44.3167 22.4324 44.2352 22.2897 44.2352 22.1729C44.2351 22.0173 44.3173 21.8734 44.4508 21.7956C44.5509 21.7373 44.7139 21.7373 45.0401 21.7373H51.3771V18.2627H45.9343C45.4507 18.2627 45.209 18.2627 44.9895 18.3221C44.6969 18.4012 44.4302 18.5568 44.216 18.7732C44.0554 18.9355 43.9345 19.1469 43.6928 19.5699L41.9478 22.6231C41.7062 23.046 41.5853 23.2576 41.5265 23.4792C41.4482 23.7747 41.4482 24.0859 41.5266 24.3814C41.5854 24.603 41.7063 24.8145 41.9481 25.2374L44.6713 30.0003L47.6502 28.2626Z" fill="#202024"/>
<path d="M40.3542 23.4808C40.2955 23.2592 40.1746 23.0477 39.9331 22.625L38.1917 19.578C37.9495 19.1542 37.8284 18.9424 37.6675 18.7799C37.4529 18.5633 37.1856 18.4077 36.8925 18.3287C36.6726 18.2695 36.4304 18.2699 35.946 18.2707L30.5 18.2795L30.5055 21.7539L36.8367 21.7438C37.1633 21.7433 37.3265 21.7429 37.4268 21.8013C37.5604 21.879 37.6428 22.0229 37.6429 22.1786C37.643 22.2955 37.5614 22.4383 37.3982 22.724L34.2339 28.2631L37.2134 29.9996L39.9333 25.2384C40.1748 24.8155 40.2956 24.6041 40.3543 24.3826C40.4326 24.0872 40.4326 23.7761 40.3542 23.4808Z" fill="#202024"/>
<path d="M60.0334 10.8672H56.4673V29.1294H68.8367V26.2075H60.0334V10.8672Z" fill="#202024"/>
<path d="M70.3076 14.0914V10.8672H73.7491V14.0914H70.3076Z" fill="#202024"/>
<path d="M70.3076 29.1299V15.5781H73.7491V29.1299H70.3076Z" fill="#202024"/>
<path d="M75.2217 15.5777H78.6632V17.3661C79.4363 16.0059 80.9077 15.2754 82.5536 15.2754C85.7706 15.2754 87.1921 17.2653 87.1921 20.5904V29.1295H83.7506V21.346C83.7506 19.5827 83.3766 18.0714 81.4313 18.0714C79.162 18.0714 78.6632 19.9354 78.6632 22.0765V29.1295H75.2217V15.5777Z" fill="#202024"/>
<path fill-rule="evenodd" clip-rule="evenodd" d="M95.1899 15.2754C99.3297 15.2754 101.923 18.5248 101.774 23.3108H91.8731C92.0477 25.6282 93.6438 26.7617 95.2648 26.7617C96.3122 26.7617 97.3845 26.3839 98.0827 25.1999H101.624C100.901 27.2151 98.9307 29.457 95.2897 29.457C90.9754 29.457 88.4565 26.2075 88.4565 22.3032C88.4565 18.2729 91.2247 15.2754 95.1899 15.2754ZM98.2822 20.9178C98.2075 18.6256 96.6114 17.8195 95.165 17.8195C93.8682 17.8195 92.1974 18.6507 91.923 20.9178H98.2822Z" fill="#202024"/>
<path d="M103.241 15.5777H106.683V17.3661C107.456 16.0059 108.927 15.2754 110.573 15.2754C113.79 15.2754 115.211 17.2653 115.211 20.5904V29.1295H111.77V21.346C111.77 19.5827 111.396 18.0714 109.451 18.0714C107.182 18.0714 106.683 19.9354 106.683 22.0765V29.1295H103.241V15.5777Z" fill="#202024"/>
</svg>
