<svg width="146" height="40" viewBox="0 0 146 40" fill="none" xmlns="http://www.w3.org/2000/svg">
<mask id="mask0_166_6671" style="mask-type:luminance" maskUnits="userSpaceOnUse" x="23" y="7" width="100" height="25">
<path d="M23.6973 8.42871H121.739V31.3728H23.6973V8.42871Z" fill="white" stroke="white"/>
</mask>
<g mask="url(#mask0_166_6671)">
<mask id="path-2-inside-1_166_6671" fill="white">
<path d="M38.522 23.0643C38.9511 22.5929 39.3362 22.0718 39.6678 21.5012C40.4722 20.1265 40.8769 18.613 40.8769 16.9704C40.8769 15.3278 40.4771 13.7894 39.6775 12.4049C38.8779 11.0203 37.8053 9.9286 36.4548 9.12964C35.1043 8.33067 33.6465 7.92871 32.0815 7.92871C30.5164 7.92871 29.0294 8.33067 27.674 9.12964C26.3186 9.9286 25.2362 11.0154 24.4318 12.395C23.6273 13.7696 23.2275 15.2683 23.2275 16.9009C23.2275 18.5336 23.6322 20.1315 24.4366 21.5111C24.7828 22.1016 25.1728 22.6376 25.6165 23.1189C24.1197 24.0469 23.2031 25.2975 23.2031 26.6721C23.2031 29.5404 27.2059 31.8678 32.1205 31.8678C37.035 31.8678 41.0378 29.5354 41.0378 26.6721C41.0378 25.2727 40.0822 23.9973 38.5269 23.0594M25.7189 28.8953C24.8315 28.2253 24.3489 27.4512 24.3489 26.6721C24.3489 25.7094 25.0802 24.7566 26.4112 23.9923C26.4356 23.9774 26.46 23.9626 26.4892 23.9526C26.8549 24.2553 27.2449 24.5283 27.6594 24.7764C27.7032 24.8012 27.7422 24.826 27.7861 24.8508C26.3576 25.5654 25.4556 26.6274 25.4556 27.8135C25.4556 28.1906 25.5483 28.5578 25.7189 28.9002M32.1205 30.5428C30.0971 30.5428 28.9904 29.6446 28.9904 29.1881C28.9904 28.7315 30.0971 27.8333 32.1205 27.8333C34.1438 27.8333 35.2505 28.7315 35.2505 29.1881C35.2505 29.6446 34.1438 30.5428 32.1205 30.5428ZM36.367 29.4908C36.3865 29.3915 36.4012 29.2873 36.4012 29.1831C36.4012 27.7886 34.4802 26.6522 32.1205 26.6522C29.7607 26.6522 27.8397 27.7886 27.8397 29.1831C27.8397 29.2873 27.8495 29.3866 27.8739 29.4908C27.0889 29.0193 26.6014 28.4288 26.6014 27.8135C26.6014 26.8904 27.7032 26.022 29.2585 25.5208C30.1264 25.8185 31.0332 25.9674 31.9742 25.9674C32.9834 25.9674 33.9488 25.8086 34.8703 25.486C36.484 25.9773 37.6347 26.8706 37.6347 27.8135C37.6347 28.4288 37.1471 29.0193 36.3622 29.4908M38.5171 28.9002C38.6878 28.5529 38.7804 28.1906 38.7804 27.8135C38.7804 26.6026 37.8346 25.5208 36.3524 24.8012C36.3719 24.7913 36.3963 24.7764 36.4158 24.7665C36.8546 24.5084 37.269 24.2206 37.6493 23.898C37.7078 23.9278 37.7663 23.9626 37.8248 23.9923C39.1558 24.7566 39.8872 25.7094 39.8872 26.6721C39.8872 27.4512 39.4094 28.2253 38.5171 28.8953"/>
</mask>
<path d="M38.522 23.0643C38.9511 22.5929 39.3362 22.0718 39.6678 21.5012C40.4722 20.1265 40.8769 18.613 40.8769 16.9704C40.8769 15.3278 40.4771 13.7894 39.6775 12.4049C38.8779 11.0203 37.8053 9.9286 36.4548 9.12964C35.1043 8.33067 33.6465 7.92871 32.0815 7.92871C30.5164 7.92871 29.0294 8.33067 27.674 9.12964C26.3186 9.9286 25.2362 11.0154 24.4318 12.395C23.6273 13.7696 23.2275 15.2683 23.2275 16.9009C23.2275 18.5336 23.6322 20.1315 24.4366 21.5111C24.7828 22.1016 25.1728 22.6376 25.6165 23.1189C24.1197 24.0469 23.2031 25.2975 23.2031 26.6721C23.2031 29.5404 27.2059 31.8678 32.1205 31.8678C37.035 31.8678 41.0378 29.5354 41.0378 26.6721C41.0378 25.2727 40.0822 23.9973 38.5269 23.0594M25.7189 28.8953C24.8315 28.2253 24.3489 27.4512 24.3489 26.6721C24.3489 25.7094 25.0802 24.7566 26.4112 23.9923C26.4356 23.9774 26.46 23.9626 26.4892 23.9526C26.8549 24.2553 27.2449 24.5283 27.6594 24.7764C27.7032 24.8012 27.7422 24.826 27.7861 24.8508C26.3576 25.5654 25.4556 26.6274 25.4556 27.8135C25.4556 28.1906 25.5483 28.5578 25.7189 28.9002M32.1205 30.5428C30.0971 30.5428 28.9904 29.6446 28.9904 29.1881C28.9904 28.7315 30.0971 27.8333 32.1205 27.8333C34.1438 27.8333 35.2505 28.7315 35.2505 29.1881C35.2505 29.6446 34.1438 30.5428 32.1205 30.5428ZM36.367 29.4908C36.3865 29.3915 36.4012 29.2873 36.4012 29.1831C36.4012 27.7886 34.4802 26.6522 32.1205 26.6522C29.7607 26.6522 27.8397 27.7886 27.8397 29.1831C27.8397 29.2873 27.8495 29.3866 27.8739 29.4908C27.0889 29.0193 26.6014 28.4288 26.6014 27.8135C26.6014 26.8904 27.7032 26.022 29.2585 25.5208C30.1264 25.8185 31.0332 25.9674 31.9742 25.9674C32.9834 25.9674 33.9488 25.8086 34.8703 25.486C36.484 25.9773 37.6347 26.8706 37.6347 27.8135C37.6347 28.4288 37.1471 29.0193 36.3622 29.4908M38.5171 28.9002C38.6878 28.5529 38.7804 28.1906 38.7804 27.8135C38.7804 26.6026 37.8346 25.5208 36.3524 24.8012C36.3719 24.7913 36.3963 24.7764 36.4158 24.7665C36.8546 24.5084 37.269 24.2206 37.6493 23.898C37.7078 23.9278 37.7663 23.9626 37.8248 23.9923C39.1558 24.7566 39.8872 25.7094 39.8872 26.6721C39.8872 27.4512 39.4094 28.2253 38.5171 28.8953" fill="#202024"/>
<path d="M39.6678 21.5012L38.8047 20.9961L38.8031 20.9988L39.6678 21.5012ZM24.4318 12.395L25.2948 12.9001L25.2956 12.8987L24.4318 12.395ZM24.4366 21.5111L23.5728 22.0148L23.5739 22.0168L24.4366 21.5111ZM25.6165 23.1189L26.1434 23.9688L27.1721 23.3311L26.3518 22.4412L25.6165 23.1189ZM26.4112 23.9923L26.9091 24.8595L26.9209 24.8528L26.9324 24.8458L26.4112 23.9923ZM26.4892 23.9526L27.1269 23.1823L26.6968 22.8262L26.1679 23.0056L26.4892 23.9526ZM27.6594 24.7764L27.1457 25.6344L27.1563 25.6408L27.1671 25.6469L27.6594 24.7764ZM27.7861 24.8508L28.2335 25.7452L29.9133 24.9049L28.2783 23.9804L27.7861 24.8508ZM27.8739 29.4908L27.359 30.3481L29.3862 31.5656L28.8476 29.263L27.8739 29.4908ZM29.2585 25.5208L29.583 24.5749L29.2684 24.467L28.9518 24.569L29.2585 25.5208ZM34.8703 25.486L35.1615 24.5294L34.8486 24.4341L34.5399 24.5422L34.8703 25.486ZM36.3524 24.8012L35.8988 23.91L34.1062 24.8223L35.9157 25.7008L36.3524 24.8012ZM36.4158 24.7665L36.8694 25.6577L36.8965 25.6439L36.9227 25.6285L36.4158 24.7665ZM37.6493 23.898L38.1029 23.0068L37.5099 22.705L37.0024 23.1354L37.6493 23.898ZM37.8248 23.9923L38.3227 23.1251L38.3009 23.1125L38.2784 23.1011L37.8248 23.9923ZM39.2616 23.7374C39.7372 23.2148 40.1646 22.6367 40.5324 22.0035L38.8031 20.9988C38.5079 21.507 38.1649 21.971 37.7824 22.3913L39.2616 23.7374ZM40.5308 22.0062C41.4276 20.4739 41.8769 18.7852 41.8769 16.9704H39.8769C39.8769 18.4408 39.5168 19.7792 38.8047 20.9961L40.5308 22.0062ZM41.8769 16.9704C41.8769 15.1601 41.4347 13.448 40.5435 11.9048L38.8116 12.905C39.5195 14.1308 39.8769 15.4955 39.8769 16.9704H41.8769ZM40.5435 11.9048C39.66 10.375 38.466 9.15757 36.964 8.26897L35.9456 9.9903C37.1446 10.6996 38.0958 11.6657 38.8116 12.905L40.5435 11.9048ZM36.964 8.26897C35.4606 7.37961 33.8272 6.92871 32.0815 6.92871V8.92871C33.4658 8.92871 34.7479 9.28174 35.9456 9.9903L36.964 8.26897ZM32.0815 6.92871C30.3389 6.92871 28.6764 7.37794 27.1662 8.26817L28.1818 9.99111C29.3824 9.28341 30.6939 8.92871 32.0815 8.92871V6.92871ZM27.1662 8.26817C25.6625 9.15454 24.4579 10.3649 23.5679 11.8912L25.2956 12.8987C26.0145 11.6659 26.9747 10.7027 28.1818 9.99111L27.1662 8.26817ZM23.5687 11.8899C22.672 13.4221 22.2275 15.0959 22.2275 16.9009H24.2275C24.2275 15.4406 24.5826 14.1171 25.2948 12.9001L23.5687 11.8899ZM22.2275 16.9009C22.2275 18.697 22.6726 20.471 23.5728 22.0148L25.3005 21.0073C24.5918 19.792 24.2275 18.3701 24.2275 16.9009H22.2275ZM23.5739 22.0168C23.9526 22.6627 24.3843 23.2575 24.8812 23.7967L26.3518 22.4412C25.9614 22.0176 25.613 21.5405 25.2993 21.0054L23.5739 22.0168ZM25.0896 22.269C23.4371 23.2935 22.2031 24.8149 22.2031 26.6721H24.2031C24.2031 25.78 24.8023 24.8003 26.1434 23.9688L25.0896 22.269ZM22.2031 26.6721C22.2031 28.6112 23.5483 30.1806 25.3157 31.2097C27.1084 32.2537 29.5178 32.8678 32.1205 32.8678V30.8678C29.8086 30.8678 27.7593 30.3183 26.322 29.4814C24.8594 28.6297 24.2031 27.6013 24.2031 26.6721H22.2031ZM32.1205 32.8678C34.7235 32.8678 37.1329 32.2522 38.9255 31.2077C40.6923 30.1783 42.0378 28.609 42.0378 26.6721H40.0378C40.0378 27.5985 39.3819 28.6271 37.9186 29.4797C36.4812 30.3172 34.4319 30.8678 32.1205 30.8678V32.8678ZM42.0378 26.6721C42.0378 24.7794 40.7519 23.2334 39.0433 22.203L38.0105 23.9157C39.4125 24.7612 40.0378 25.7659 40.0378 26.6721H42.0378ZM26.3214 28.0972C25.5657 27.5266 25.3489 27.0139 25.3489 26.6721H23.3489C23.3489 27.8885 24.0974 28.9241 25.1163 29.6934L26.3214 28.0972ZM25.3489 26.6721C25.3489 26.2457 25.6947 25.5568 26.9091 24.8595L25.9133 23.1251C24.4657 23.9563 23.3489 25.173 23.3489 26.6721H25.3489ZM26.9324 24.8458C26.9485 24.836 26.936 24.8439 26.9188 24.853C26.8977 24.8643 26.8604 24.8827 26.8105 24.8996L26.1679 23.0056C26.0181 23.0565 25.9037 23.1305 25.89 23.1389L26.9324 24.8458ZM25.8515 24.7229C26.2591 25.0603 26.691 25.3622 27.1457 25.6344L28.173 23.9184C27.7989 23.6944 27.4507 23.4504 27.1269 23.1823L25.8515 24.7229ZM27.1671 25.6469C27.1766 25.6522 27.1869 25.6583 27.209 25.6716C27.2283 25.6831 27.2595 25.7018 27.2939 25.7213L28.2783 23.9804C28.2689 23.975 28.2586 23.9689 28.2364 23.9556C28.2171 23.9441 28.186 23.9254 28.1516 23.9059L27.1671 25.6469ZM27.3387 23.9565C25.761 24.7458 24.4556 26.0753 24.4556 27.8135H26.4556C26.4556 27.1795 26.9542 26.3851 28.2335 25.7452L27.3387 23.9565ZM24.4556 27.8135C24.4556 28.3574 24.5897 28.8764 24.8239 29.3463L26.6139 28.4542C26.5068 28.2392 26.4556 28.0239 26.4556 27.8135H24.4556ZM32.1205 29.5428C31.2537 29.5428 30.6355 29.3501 30.2662 29.1537C30.0785 29.0539 29.9756 28.9643 29.9337 28.9184C29.8639 28.8418 29.9904 28.9339 29.9904 29.1881H27.9904C27.9904 29.6705 28.2552 30.0461 28.4561 30.2663C28.685 30.5172 28.9852 30.7378 29.3272 30.9196C30.0171 31.2864 30.9639 31.5428 32.1205 31.5428V29.5428ZM29.9904 29.1881C29.9904 29.4422 29.8639 29.5343 29.9337 29.4577C29.9756 29.4118 30.0785 29.3222 30.2662 29.2224C30.6355 29.026 31.2537 28.8333 32.1205 28.8333V26.8333C30.9639 26.8333 30.0171 27.0897 29.3272 27.4566C28.9852 27.6384 28.685 27.8589 28.4561 28.1099C28.2552 28.3301 27.9904 28.7057 27.9904 29.1881H29.9904ZM32.1205 28.8333C32.9872 28.8333 33.6054 29.026 33.9747 29.2224C34.1624 29.3222 34.2653 29.4118 34.3072 29.4577C34.3771 29.5343 34.2505 29.4422 34.2505 29.1881H36.2505C36.2505 28.7057 35.9857 28.3301 35.7848 28.1099C35.5559 27.8589 35.2557 27.6384 34.9138 27.4566C34.2239 27.0897 33.2771 26.8333 32.1205 26.8333V28.8333ZM34.2505 29.1881C34.2505 28.9339 34.3771 28.8418 34.3072 28.9184C34.2653 28.9643 34.1624 29.0539 33.9747 29.1537C33.6054 29.3501 32.9872 29.5428 32.1205 29.5428V31.5428C33.2771 31.5428 34.2239 31.2864 34.9138 30.9196C35.2557 30.7378 35.5559 30.5172 35.7848 30.2663C35.9857 30.0461 36.2505 29.6705 36.2505 29.1881H34.2505ZM37.3483 29.6836C37.3743 29.5511 37.4012 29.3769 37.4012 29.1831H35.4012C35.4012 29.1977 35.3988 29.232 35.3858 29.298L37.3483 29.6836ZM37.4012 29.1831C37.4012 27.988 36.5852 27.0842 35.6547 26.534C34.7009 25.97 33.4487 25.6522 32.1205 25.6522V27.6522C33.152 27.6522 34.0401 27.9027 34.6367 28.2555C35.2567 28.6221 35.4012 28.9837 35.4012 29.1831H37.4012ZM32.1205 25.6522C30.7922 25.6522 29.54 25.97 28.5862 26.534C27.6557 27.0842 26.8397 27.988 26.8397 29.1831H28.8397C28.8397 28.9837 28.9843 28.6221 29.6042 28.2555C30.2008 27.9027 31.0889 27.6522 32.1205 27.6522V25.6522ZM26.8397 29.1831C26.8397 29.3536 26.8561 29.5302 26.9002 29.7186L28.8476 29.263C28.8429 29.2429 28.8397 29.221 28.8397 29.1831H26.8397ZM28.3887 28.6335C27.6906 28.2142 27.6014 27.8847 27.6014 27.8135H25.6014C25.6014 28.9729 26.4872 29.8245 27.359 30.3481L28.3887 28.6335ZM27.6014 27.8135C27.6014 27.7685 27.6332 27.5746 27.9903 27.2743C28.3334 26.9858 28.8711 26.6963 29.5653 26.4726L28.9518 24.569C28.0907 24.8465 27.2998 25.2418 26.7031 25.7436C26.1205 26.2335 25.6014 26.9353 25.6014 27.8135H27.6014ZM28.934 26.4667C29.9092 26.8013 30.926 26.9674 31.9742 26.9674V24.9674C31.1405 24.9674 30.3435 24.8358 29.583 24.5749L28.934 26.4667ZM31.9742 26.9674C33.0904 26.9674 34.1678 26.7914 35.2006 26.4299L34.5399 24.5422C33.7297 24.8258 32.8765 24.9674 31.9742 24.9674V26.9674ZM34.579 26.4427C35.2991 26.6619 35.8617 26.956 36.2223 27.2527C36.5995 27.563 36.6347 27.7667 36.6347 27.8135H38.6347C38.6347 26.9174 38.0945 26.203 37.4929 25.7081C36.8748 25.1997 36.0552 24.8015 35.1615 24.5294L34.579 26.4427ZM36.6347 27.8135C36.6347 27.8847 36.5454 28.2142 35.8473 28.6335L36.877 30.3481C37.7488 29.8245 38.6347 28.9729 38.6347 27.8135H36.6347ZM39.4147 29.3412C39.645 28.8724 39.7804 28.3602 39.7804 27.8135H37.7804C37.7804 28.021 37.7306 28.2333 37.6196 28.4593L39.4147 29.3412ZM39.7804 27.8135C39.7804 26.0371 38.4136 24.6903 36.7891 23.9016L35.9157 25.7008C37.2556 26.3513 37.7804 27.1681 37.7804 27.8135H39.7804ZM36.806 25.6924C36.8249 25.6828 36.841 25.674 36.8514 25.6683C36.8618 25.6625 36.8717 25.657 36.8763 25.6543C36.8792 25.6527 36.8809 25.6517 36.8824 25.6509C36.8838 25.6501 36.8842 25.6499 36.884 25.65C36.8838 25.6501 36.8824 25.6509 36.8802 25.652C36.878 25.6532 36.8743 25.6552 36.8694 25.6577L35.9622 23.8753C35.9433 23.8849 35.9272 23.8936 35.9168 23.8994C35.9064 23.9052 35.8965 23.9107 35.8919 23.9134C35.889 23.915 35.8873 23.916 35.8858 23.9168C35.8844 23.9176 35.884 23.9178 35.8842 23.9177C35.8844 23.9176 35.8858 23.9168 35.888 23.9157C35.8902 23.9145 35.8939 23.9125 35.8988 23.91L36.806 25.6924ZM36.9227 25.6285C37.4041 25.3454 37.8665 25.0251 38.2961 24.6607L37.0024 23.1354C36.6715 23.4161 36.3051 23.6715 35.9089 23.9045L36.9227 25.6285ZM37.1957 24.7893C37.2077 24.7954 37.2224 24.8033 37.2543 24.8209C37.2809 24.8356 37.3247 24.8599 37.3713 24.8836L38.2784 23.1011C38.2664 23.095 38.2517 23.087 38.2199 23.0695C38.1932 23.0548 38.1494 23.0305 38.1029 23.0068L37.1957 24.7893ZM37.3269 24.8595C38.5413 25.5568 38.8872 26.2457 38.8872 26.6721H40.8872C40.8872 25.173 39.7704 23.9563 38.3227 23.1251L37.3269 24.8595ZM38.8872 26.6721C38.8872 27.0159 38.6729 27.5278 37.9167 28.0956L39.1176 29.6949C40.1459 28.9229 40.8872 27.8865 40.8872 26.6721H38.8872Z" fill="#202024" mask="url(#path-2-inside-1_166_6671)"/>
<path d="M91.7681 19.7841C91.2318 19.3424 90.5005 18.9057 89.5888 18.479C88.7941 18.1117 88.1749 17.7941 87.7507 17.5311C87.3363 17.2731 87.034 17.0001 86.8439 16.7173C86.6586 16.4394 86.566 16.097 86.566 15.7099C86.566 15.3228 86.6635 14.9605 86.8536 14.6479C87.0438 14.3353 87.3119 14.0822 87.6532 13.8986C87.9945 13.715 88.3845 13.6207 88.8038 13.6207C89.3645 13.6207 89.8521 13.7596 90.2519 14.0326C90.6516 14.3055 91.0222 14.7372 91.3537 15.303L91.4025 15.3873L92.9041 14.499L92.8603 14.4147C92.4507 13.6207 91.8998 12.9954 91.2221 12.5537C90.5395 12.1071 89.7302 11.8838 88.8038 11.8838C88.053 11.8838 87.3607 12.0525 86.7464 12.39C86.132 12.7274 85.6396 13.1939 85.2886 13.7745C84.9375 14.3551 84.7571 15.0102 84.7571 15.7099C84.7571 16.4096 84.8985 16.9952 85.1813 17.4865C85.4592 17.9728 85.8688 18.4095 86.3953 18.7767C86.917 19.1439 87.6191 19.531 88.4918 19.928C89.2719 20.2952 89.8911 20.6476 90.325 20.9701C90.754 21.2927 91.0612 21.6401 91.2416 22.0073C91.422 22.3745 91.5146 22.8162 91.5146 23.3124C91.5146 23.8087 91.4074 24.2355 91.1977 24.6126C90.9881 24.9947 90.6858 25.2974 90.3006 25.5207C89.9154 25.7441 89.4571 25.8532 88.9452 25.8532C88.1895 25.8532 87.5264 25.6349 86.9706 25.2081C86.4099 24.7764 85.9809 24.161 85.6884 23.3769L85.6542 23.2827L83.9819 23.9923L84.0112 24.0767C84.2501 24.7764 84.6011 25.3917 85.0594 25.9177C85.5226 26.4438 86.0882 26.8557 86.7464 27.1534C87.4045 27.4512 88.1456 27.6 88.9452 27.6C89.7448 27.6 90.5151 27.4214 91.1782 27.0641C91.8461 26.7068 92.3776 26.2006 92.7627 25.5604C93.1479 24.9203 93.3429 24.1709 93.3429 23.3372C93.3429 22.5581 93.2162 21.8783 92.9626 21.3125C92.7091 20.7468 92.3093 20.2307 91.7681 19.7891" fill="#202024"/>
<path d="M121.865 21.3076C121.611 20.7419 121.211 20.2258 120.67 19.7841C120.134 19.3424 119.402 18.9057 118.491 18.479C117.696 18.1117 117.077 17.7941 116.653 17.5311C116.238 17.2731 115.936 17.0001 115.746 16.7173C115.56 16.4394 115.468 16.097 115.468 15.7099C115.468 15.3228 115.565 14.9605 115.755 14.6479C115.946 14.3353 116.214 14.0822 116.555 13.8986C116.896 13.715 117.286 13.6207 117.706 13.6207C118.266 13.6207 118.754 13.7596 119.154 14.0326C119.554 14.3055 119.924 14.7372 120.256 15.303L120.304 15.3873L121.806 14.499L121.762 14.4147C121.353 13.6207 120.802 12.9954 120.124 12.5537C119.441 12.1071 118.632 11.8838 117.706 11.8838C116.955 11.8838 116.263 12.0575 115.648 12.39C115.034 12.7274 114.541 13.1939 114.19 13.7745C113.839 14.3551 113.659 15.0102 113.659 15.7099C113.659 16.4096 113.8 16.9952 114.083 17.4865C114.361 17.9728 114.771 18.4095 115.297 18.7767C115.819 19.1439 116.526 19.531 117.394 19.928C118.174 20.2952 118.793 20.6476 119.227 20.9701C119.656 21.2927 119.963 21.6401 120.143 22.0073C120.324 22.3745 120.416 22.8162 120.416 23.3124C120.416 23.8087 120.309 24.2355 120.1 24.6126C119.89 24.9947 119.588 25.2974 119.202 25.5207C118.817 25.7441 118.359 25.8532 117.847 25.8532C117.091 25.8532 116.428 25.6349 115.872 25.2081C115.312 24.7764 114.883 24.161 114.59 23.3769L114.556 23.2827L112.884 23.9923L112.913 24.0767C113.152 24.7764 113.503 25.3917 113.961 25.9177C114.424 26.4438 114.99 26.8557 115.648 27.1534C116.306 27.4512 117.047 27.6 117.847 27.6C118.647 27.6 119.417 27.4214 120.08 27.0641C120.748 26.7068 121.279 26.2006 121.665 25.5604C122.05 24.9203 122.245 24.1709 122.245 23.3372C122.245 22.5581 122.118 21.8783 121.865 21.3125" fill="#202024"/>
<path d="M108.558 12.3447L107.793 13.9724L101.635 27.0883L103.454 27.133L110.314 12.3447H108.558Z" fill="#202024"/>
<path d="M68.0818 27.133L68.8424 25.5053L75.0002 12.3894L73.1816 12.3447L66.3218 27.133H68.0818Z" fill="#202024"/>
<path d="M74.2539 16.5582L78.403 25.5056L79.1587 27.1333H80.9236L75.1413 14.6675L74.2539 16.5582Z" fill="#202024"/>
<path d="M56.8488 11.894C52.5974 11.894 49.1504 15.4075 49.1504 19.7447C49.1504 24.0819 52.5974 27.5954 56.8488 27.5954C61.1003 27.5954 64.5473 24.0819 64.5473 19.7447C64.5473 15.4075 61.1003 11.894 56.8488 11.894ZM56.8488 25.8536C53.5432 25.8536 50.8666 23.1192 50.8666 19.7497C50.8666 16.3801 53.5432 13.6458 56.8488 13.6458C60.1544 13.6458 62.8311 16.3801 62.8311 19.7497C62.8311 23.1192 60.1544 25.8536 56.8488 25.8536Z" fill="#202024"/>
<path d="M91.7681 19.7841C91.2318 19.3424 90.5005 18.9057 89.5888 18.479C88.7941 18.1117 88.1749 17.7941 87.7507 17.5311C87.3363 17.2731 87.034 17.0001 86.8439 16.7173C86.6586 16.4394 86.566 16.097 86.566 15.7099C86.566 15.3228 86.6635 14.9605 86.8536 14.6479C87.0438 14.3353 87.3119 14.0822 87.6532 13.8986C87.9945 13.715 88.3845 13.6207 88.8038 13.6207C89.3645 13.6207 89.8521 13.7596 90.2519 14.0326C90.6516 14.3055 91.0222 14.7372 91.3537 15.303L91.4025 15.3873L92.9041 14.499L92.8603 14.4147C92.4507 13.6207 91.8998 12.9954 91.2221 12.5537C90.5395 12.1071 89.7302 11.8838 88.8038 11.8838C88.053 11.8838 87.3607 12.0525 86.7464 12.39C86.132 12.7274 85.6396 13.1939 85.2886 13.7745C84.9375 14.3551 84.7571 15.0102 84.7571 15.7099C84.7571 16.4096 84.8985 16.9952 85.1813 17.4865C85.4592 17.9728 85.8688 18.4095 86.3953 18.7767C86.917 19.1439 87.6191 19.531 88.4918 19.928C89.2719 20.2952 89.8911 20.6476 90.325 20.9701C90.754 21.2927 91.0612 21.6401 91.2416 22.0073C91.422 22.3745 91.5146 22.8162 91.5146 23.3124C91.5146 23.8087 91.4074 24.2355 91.1977 24.6126C90.9881 24.9947 90.6858 25.2974 90.3006 25.5207C89.9154 25.7441 89.4571 25.8532 88.9452 25.8532C88.1895 25.8532 87.5264 25.6349 86.9706 25.2081C86.4099 24.7764 85.9809 24.161 85.6884 23.3769L85.6542 23.2827L83.9819 23.9923L84.0112 24.0767C84.2501 24.7764 84.6011 25.3917 85.0594 25.9177C85.5226 26.4438 86.0882 26.8557 86.7464 27.1534C87.4045 27.4512 88.1456 27.6 88.9452 27.6C89.7448 27.6 90.5151 27.4214 91.1782 27.0641C91.8461 26.7068 92.3776 26.2006 92.7627 25.5604C93.1479 24.9203 93.3429 24.1709 93.3429 23.3372C93.3429 22.5581 93.2162 21.8783 92.9626 21.3125C92.7091 20.7468 92.3093 20.2307 91.7681 19.7891" fill="#202024"/>
<path d="M121.865 21.3076C121.611 20.7419 121.211 20.2258 120.67 19.7841C120.134 19.3424 119.402 18.9057 118.491 18.479C117.696 18.1117 117.077 17.7941 116.653 17.5311C116.238 17.2731 115.936 17.0001 115.746 16.7173C115.56 16.4394 115.468 16.097 115.468 15.7099C115.468 15.3228 115.565 14.9605 115.755 14.6479C115.946 14.3353 116.214 14.0822 116.555 13.8986C116.896 13.715 117.286 13.6207 117.706 13.6207C118.266 13.6207 118.754 13.7596 119.154 14.0326C119.554 14.3055 119.924 14.7372 120.256 15.303L120.304 15.3873L121.806 14.499L121.762 14.4147C121.353 13.6207 120.802 12.9954 120.124 12.5537C119.441 12.1071 118.632 11.8838 117.706 11.8838C116.955 11.8838 116.263 12.0575 115.648 12.39C115.034 12.7274 114.541 13.1939 114.19 13.7745C113.839 14.3551 113.659 15.0102 113.659 15.7099C113.659 16.4096 113.8 16.9952 114.083 17.4865C114.361 17.9728 114.771 18.4095 115.297 18.7767C115.819 19.1439 116.526 19.531 117.394 19.928C118.174 20.2952 118.793 20.6476 119.227 20.9701C119.656 21.2927 119.963 21.6401 120.143 22.0073C120.324 22.3745 120.416 22.8162 120.416 23.3124C120.416 23.8087 120.309 24.2355 120.1 24.6126C119.89 24.9947 119.588 25.2974 119.202 25.5207C118.817 25.7441 118.359 25.8532 117.847 25.8532C117.091 25.8532 116.428 25.6349 115.872 25.2081C115.312 24.7764 114.883 24.161 114.59 23.3769L114.556 23.2827L112.884 23.9923L112.913 24.0767C113.152 24.7764 113.503 25.3917 113.961 25.9177C114.424 26.4438 114.99 26.8557 115.648 27.1534C116.306 27.4512 117.047 27.6 117.847 27.6C118.647 27.6 119.417 27.4214 120.08 27.0641C120.748 26.7068 121.279 26.2006 121.665 25.5604C122.05 24.9203 122.245 24.1709 122.245 23.3372C122.245 22.5581 122.118 21.8783 121.865 21.3125" fill="#202024"/>
<path d="M108.558 12.3447L107.793 13.9724L101.635 27.0883L103.454 27.133L110.314 12.3447H108.558Z" fill="#202024"/>
<path d="M68.0818 27.133L68.8424 25.5053L75.0002 12.3894L73.1816 12.3447L66.3218 27.133H68.0818Z" fill="#202024"/>
<path d="M74.2539 16.5582L78.403 25.5056L79.1587 27.1333H80.9236L75.1413 14.6675L74.2539 16.5582Z" fill="#202024"/>
<path d="M56.8488 11.894C52.5974 11.894 49.1504 15.4075 49.1504 19.7447C49.1504 24.0819 52.5974 27.5954 56.8488 27.5954C61.1003 27.5954 64.5473 24.0819 64.5473 19.7447C64.5473 15.4075 61.1003 11.894 56.8488 11.894ZM56.8488 25.8536C53.5432 25.8536 50.8666 23.1192 50.8666 19.7497C50.8666 16.3801 53.5432 13.6458 56.8488 13.6458C60.1544 13.6458 62.8311 16.3801 62.8311 19.7497C62.8311 23.1192 60.1544 25.8536 56.8488 25.8536Z" fill="#202024"/>
<path d="M100.095 13.9724L99.3392 12.3447H97.5742L102.425 22.8057L103.313 20.915L100.095 13.9724Z" fill="#202024"/>
</g>
</svg>
