<svg width="146" height="40" viewBox="0 0 146 40" fill="none" xmlns="http://www.w3.org/2000/svg">
<path d="M82.8402 23.6923C83.2822 23.6923 83.7083 23.6923 84.1362 23.6923C84.2369 23.6923 84.2652 23.6537 84.2635 23.5554C84.2599 21.9754 84.2546 20.3953 84.2652 18.817C84.267 18.5098 84.3077 18.1955 84.3784 17.8971C84.5729 17.086 85.0644 16.5154 85.8706 16.2503C86.3056 16.1081 86.7599 16.0994 87.2143 16.152C87.598 16.1959 87.9534 16.3153 88.2681 16.5383C88.7508 16.8771 89.0018 17.3616 89.1344 17.9199C89.2105 18.2394 89.2052 18.5625 89.2052 18.8873C89.1981 20.3356 89.2016 21.784 89.2016 23.2324C89.2016 23.3605 89.2016 23.4887 89.2016 23.6168C89.2016 23.6748 89.2175 23.7029 89.283 23.7011C89.6808 23.6976 90.0786 23.6994 90.4764 23.6941C90.6267 23.6941 90.6267 23.6871 90.6267 23.5378C90.6267 21.9069 90.6267 20.2759 90.6267 18.645C90.6267 18.2675 90.5948 17.8936 90.5135 17.5249C90.2678 16.4171 89.6578 15.5973 88.581 15.1636C87.9269 14.9003 87.2444 14.8353 86.5442 14.9301C85.6496 15.0495 84.9106 15.4357 84.3678 16.1661C84.343 16.1994 84.3253 16.2363 84.3041 16.2714C84.2918 16.2609 84.2776 16.2503 84.2652 16.2398C84.2635 16.2187 84.2582 16.1994 84.2582 16.1784C84.2617 15.8413 84.2635 15.506 84.2705 15.1689C84.2723 15.0758 84.2458 15.0407 84.1468 15.0425C83.7755 15.0477 83.4024 15.0442 83.0311 15.0442C82.9693 15.0442 82.9091 15.0442 82.8402 15.0442V23.6941V23.6923ZM63.869 15.0425C63.869 15.2216 63.869 15.3813 63.869 15.5411C63.869 18.1078 63.869 20.6762 63.869 23.2429C63.869 23.357 63.8797 23.4711 63.862 23.5817C63.8461 23.6853 63.8885 23.6976 63.9734 23.6976C64.3641 23.6941 64.7548 23.6941 65.1438 23.6923C65.2835 23.6923 65.2817 23.6923 65.2817 23.5519C65.2817 22.0192 65.2764 20.4866 65.2817 18.9557C65.2817 18.4659 65.3454 17.9831 65.5328 17.5196C65.752 16.9789 66.1268 16.5909 66.6502 16.3487C67.246 16.073 67.8772 16.0625 68.5084 16.1942C69.152 16.3276 69.6329 16.6945 69.937 17.2826C70.1668 17.7286 70.2535 18.2061 70.257 18.7012C70.2623 19.6158 70.257 20.5305 70.257 21.4434C70.257 22.1667 70.2552 22.8918 70.2499 23.6151C70.2499 23.7011 70.2959 23.6976 70.3542 23.6976C70.7344 23.6976 71.1127 23.6976 71.4929 23.6976C71.682 23.6976 71.682 23.6976 71.682 23.508C71.682 21.9648 71.6927 20.4216 71.6767 18.8785C71.6714 18.4326 71.6325 17.9778 71.5441 17.5407C71.3125 16.3996 70.6743 15.5639 69.5551 15.1426C68.7718 14.8476 67.9621 14.8072 67.1488 15.0126C66.4203 15.1952 65.8192 15.5727 65.3825 16.1889C65.363 16.217 65.3383 16.2416 65.3153 16.2661C65.287 16.2082 65.2817 16.1608 65.2817 16.1116C65.2852 15.7974 65.287 15.4831 65.2976 15.1689C65.3012 15.0635 65.264 15.039 65.165 15.0425C64.9776 15.0495 64.7902 15.0442 64.601 15.0442C64.3588 15.0442 64.1166 15.0442 63.8655 15.0442L63.869 15.0425ZM117.573 27.7566C117.595 27.7671 117.602 27.7724 117.609 27.7724C118.054 27.7688 118.5 27.7688 118.945 27.7601C118.983 27.7601 119.037 27.7162 119.053 27.6811C119.145 27.4739 119.23 27.2632 119.317 27.0543C119.902 25.6323 120.489 24.212 121.074 22.79C121.444 21.8946 121.811 21.001 122.181 20.1056C122.821 18.5537 123.463 17 124.103 15.448C124.156 15.3181 124.204 15.1882 124.255 15.0548C124.228 15.0477 124.218 15.0425 124.209 15.0425C123.763 15.0425 123.318 15.0407 122.872 15.0442C122.842 15.0442 122.798 15.0846 122.786 15.1145C122.37 16.1871 121.96 17.2616 121.548 18.3342C121.104 19.4894 120.657 20.6429 120.211 21.798C120.181 21.8788 120.155 21.9596 120.128 22.0403C120.118 22.0421 120.107 22.0456 120.095 22.0473C120.068 22.0087 120.036 21.9718 120.019 21.9297C119.966 21.8016 119.918 21.6716 119.867 21.5417C119.234 19.9195 118.599 18.2974 117.966 16.6752C117.766 16.1626 117.563 15.6482 117.363 15.1355C117.34 15.0776 117.315 15.0372 117.239 15.0372C116.771 15.0407 116.304 15.0372 115.835 15.039C115.818 15.039 115.8 15.0442 115.774 15.0477C115.788 15.0916 115.798 15.1303 115.813 15.1654C116.003 15.6271 116.196 16.0888 116.387 16.5523C116.985 18.0077 117.581 19.4648 118.178 20.9202C118.521 21.7542 118.862 22.5898 119.211 23.4202C119.271 23.5642 119.257 23.6818 119.197 23.8223C118.763 24.8563 118.337 25.8939 117.911 26.9297C117.798 27.2018 117.688 27.4757 117.575 27.753L117.573 27.7566ZM73.0735 15.0425C73.07 15.0829 73.0664 15.111 73.0664 15.139C73.0664 15.4568 73.0717 15.7746 73.0664 16.0941C73.0664 16.1942 73.1018 16.2187 73.1955 16.217C73.4908 16.2117 73.7843 16.217 74.0795 16.2135C74.1715 16.2135 74.198 16.238 74.198 16.3311C74.1962 18.7415 74.198 21.152 74.1944 23.5607C74.1944 23.659 74.221 23.6906 74.3164 23.6888C74.7001 23.6836 75.082 23.6836 75.4657 23.68C75.6195 23.68 75.6213 23.6783 75.6213 23.5238C75.6213 21.1327 75.6213 18.7398 75.6195 16.3487C75.6195 16.2451 75.6442 16.2117 75.7539 16.2117C76.2843 16.217 76.8147 16.2117 77.3451 16.2152C77.43 16.2152 77.4618 16.1924 77.46 16.1046C77.4565 15.7904 77.4583 15.4761 77.4653 15.1619C77.4671 15.0635 77.437 15.039 77.3398 15.039C76.8058 15.0442 76.2719 15.039 75.7379 15.0425C75.6513 15.0425 75.6195 15.0161 75.6213 14.9301C75.6301 14.6299 75.6266 14.3315 75.6442 14.0313C75.6796 13.4572 76.0244 13.0376 76.5848 12.9042C76.8076 12.8497 77.041 12.8357 77.2691 12.7971C77.3009 12.7918 77.3504 12.7514 77.3522 12.7268C77.361 12.3827 77.3628 12.0404 77.3663 11.6963C77.3663 11.6401 77.3433 11.6155 77.2868 11.6208C77.2143 11.6278 77.14 11.6313 77.0675 11.6401C76.7263 11.684 76.378 11.7016 76.0438 11.7788C75.135 11.9895 74.5339 12.532 74.3182 13.4554C74.2121 13.9101 74.1962 14.3736 74.2104 14.8388C74.2157 15.0442 74.2192 15.0442 74.0176 15.0442C73.7082 15.0442 73.3988 15.0442 73.077 15.0442L73.0735 15.0425ZM112.878 12.8568H111.442C111.438 12.8778 111.433 12.8919 111.433 12.9059C111.437 13.5713 111.44 14.2367 111.445 14.902C111.445 15.039 111.447 15.0425 111.309 15.0425C111 15.0425 110.69 15.0425 110.381 15.0425C110.317 15.0425 110.289 15.0565 110.291 15.1285C110.298 15.4533 110.301 15.7798 110.3 16.1046C110.3 16.1889 110.323 16.2205 110.411 16.2187C110.717 16.2135 111.023 16.2187 111.329 16.2152C111.408 16.2152 111.437 16.2363 111.437 16.3206C111.433 17.8848 111.431 19.4508 111.431 21.015C111.431 21.4048 111.431 21.7963 111.523 22.1808C111.642 22.6794 111.886 23.0884 112.337 23.357C112.756 23.6063 113.226 23.6783 113.701 23.6958C114.138 23.7116 114.578 23.6923 115.015 23.6958C115.107 23.6958 115.128 23.6625 115.13 23.5817C115.13 23.264 115.13 22.9462 115.139 22.6284C115.142 22.5266 115.111 22.502 115.01 22.5003C114.557 22.4933 114.105 22.495 113.654 22.4564C113.153 22.4125 112.883 22.1018 112.881 21.5997C112.878 19.8476 112.879 18.0972 112.879 16.3451C112.879 16.3065 112.879 16.2661 112.879 16.217C112.931 16.217 112.971 16.217 113.01 16.217C113.68 16.217 114.35 16.2135 115.02 16.217C115.116 16.217 115.139 16.1854 115.137 16.0958C115.134 15.7956 115.137 15.4954 115.137 15.197C115.137 15.1513 115.132 15.1039 115.128 15.0442H112.874V12.8603L112.878 12.8568ZM103.525 17.8672C103.525 18.559 103.525 19.2489 103.525 19.9406C103.525 21.1537 103.525 22.3686 103.525 23.5817C103.525 23.6695 103.544 23.7011 103.639 23.6994C104.011 23.6923 104.384 23.6958 104.755 23.6941C104.966 23.6941 104.967 23.6906 104.966 23.4764C104.966 22.8549 104.96 22.2334 104.96 21.6119C104.96 18.4606 104.964 15.3076 104.967 12.1563C104.967 12.0176 104.967 12.0176 104.826 12.0158C104.442 12.0158 104.06 12.0141 103.677 12.0123C103.576 12.0123 103.526 12.0626 103.526 12.1633C103.526 14.0646 103.526 15.9659 103.526 17.8672H103.525ZM79.0442 15.0425V23.6923C79.4933 23.6923 79.9335 23.6906 80.3755 23.6941C80.4516 23.6941 80.4728 23.666 80.4728 23.5993C80.4728 23.4466 80.4728 23.2921 80.4728 23.1393C80.4763 20.4849 80.4798 17.8321 80.4851 15.1777C80.4851 15.0741 80.4604 15.039 80.3508 15.0425C80.0608 15.0495 79.7691 15.0442 79.4791 15.0442C79.3359 15.0442 79.1945 15.0442 79.046 15.0442L79.0442 15.0425ZM107.331 15.0425V23.6941C107.764 23.6941 108.19 23.6923 108.617 23.6941C108.73 23.6941 108.753 23.6449 108.753 23.5414C108.749 21.1801 108.749 18.8188 108.751 16.4575C108.751 16.0326 108.756 15.6095 108.758 15.1847C108.758 15.0442 108.758 15.0425 108.62 15.0425C108.229 15.0425 107.84 15.0425 107.45 15.0425C107.414 15.0425 107.377 15.0425 107.331 15.0425ZM79.7762 11.7226C79.2634 11.7156 78.8214 12.1387 78.8143 12.6426C78.8073 13.178 79.2316 13.6117 79.7673 13.6134C80.2818 13.6152 80.7203 13.1938 80.7256 12.6882C80.7309 12.1563 80.3119 11.7279 79.7779 11.7226H79.7762ZM108.995 12.6689C108.995 12.1422 108.574 11.7226 108.045 11.7226C107.533 11.7226 107.1 12.1457 107.096 12.6514C107.092 13.1815 107.519 13.6117 108.045 13.6117C108.585 13.6117 108.995 13.2044 108.995 12.6707V12.6689ZM62.0303 18.7837C61.9772 18.1833 61.804 17.6197 61.5193 17.086C61.0967 16.2995 60.4779 15.7166 59.6699 15.3444C58.6303 14.8669 57.5465 14.7879 56.4397 15.0671C55.5857 15.283 54.8573 15.7166 54.2862 16.3873C53.5967 17.2001 53.305 18.1639 53.2696 19.2103C53.2519 19.6896 53.3014 20.1653 53.4199 20.6323C53.6957 21.7243 54.2756 22.6091 55.2533 23.2008C56.2063 23.7766 57.2477 23.9364 58.3421 23.7766C58.9592 23.6853 59.5391 23.4852 60.0695 23.1516C60.6866 22.7636 61.171 22.2545 61.5158 21.6155C61.8729 20.9571 62.0462 20.2514 62.0745 19.5035C62.0603 19.263 62.0497 19.0224 62.0303 18.7837ZM60.1897 21.1467C59.8344 21.791 59.2916 22.2018 58.5967 22.4388C58.0822 22.6144 57.5589 22.6284 57.0302 22.5354C55.9128 22.3405 55.2145 21.6611 54.8927 20.6095C54.6045 19.672 54.6363 18.7275 55.0005 17.8093C55.1667 17.3932 55.4425 17.0579 55.7891 16.77C56.2152 16.4154 56.6996 16.2117 57.2477 16.1608C58.8389 16.0081 60.1809 16.784 60.531 18.5063C60.5893 18.7872 60.5964 19.0786 60.6282 19.3648C60.6211 19.995 60.4938 20.5919 60.1897 21.1467ZM99.7427 15.0513V15.1759C99.748 15.5885 99.7551 16.0028 99.7604 16.4154C99.7604 16.4838 99.7516 16.5505 99.7463 16.619C99.7056 16.605 99.6932 16.5909 99.6844 16.5751C99.3661 16.0414 98.9188 15.6429 98.3689 15.3585C97.5468 14.9354 96.6752 14.823 95.7664 14.9758C94.6879 15.1584 93.8233 15.6903 93.1868 16.5716C92.6193 17.3616 92.3876 18.2623 92.3629 19.2208C92.3523 19.6966 92.4 20.1671 92.5149 20.6306C92.7483 21.5716 93.2062 22.3809 93.9789 22.9813C95.0698 23.8275 96.3021 24.0277 97.6246 23.6713C98.4874 23.4378 99.1734 22.9444 99.6596 22.1895C99.6791 22.1562 99.7038 22.1263 99.7445 22.0684C99.7533 22.1193 99.7586 22.1334 99.7569 22.1474C99.7533 22.6249 99.7498 23.1042 99.741 23.5835C99.7392 23.6748 99.7692 23.7011 99.8612 23.7011C100.25 23.6958 100.641 23.6994 101.032 23.6976C101.205 23.6976 101.208 23.6976 101.208 23.5185C101.208 20.757 101.208 17.9972 101.21 15.2356V15.0513H99.7427ZM99.3467 21.0993C98.8923 21.9244 98.1886 22.4283 97.2498 22.5565C96.3339 22.6829 95.4906 22.4862 94.794 21.8472C94.3024 21.396 94.0196 20.8237 93.8905 20.1759C93.7508 19.4736 93.7738 18.7766 94.0089 18.092C94.1539 17.6636 94.3643 17.2721 94.7002 16.9614C95.1688 16.5277 95.7045 16.2345 96.3569 16.1661C96.882 16.1116 97.3912 16.1468 97.8827 16.3399C98.788 16.6945 99.3325 17.3704 99.6066 18.2781C99.6596 18.4554 99.6932 18.6397 99.718 18.8223C99.741 19.0031 99.7427 19.1875 99.7533 19.3683C99.7622 19.981 99.6402 20.5621 99.3467 21.0993Z" fill="#202024"/>
<path d="M99.7421 15.0491V15.1738C99.7474 15.5863 99.7545 16.0007 99.7598 16.4132C99.7598 16.4817 99.7509 16.5484 99.7456 16.6169C99.705 16.6028 99.6926 16.5888 99.6838 16.573C99.3655 16.0393 98.9182 15.6408 98.3683 15.3564C97.5462 14.9333 96.6745 14.8209 95.7658 14.9736C94.6873 15.1562 93.8227 15.6882 93.1862 16.5695C92.6186 17.3595 92.387 18.2601 92.3623 19.2187C92.3517 19.6945 92.3994 20.165 92.5143 20.6284C92.7477 21.5694 93.2056 22.3788 93.9783 22.9792C95.0692 23.8254 96.3015 24.0255 97.624 23.6691C98.4868 23.4356 99.1728 22.9423 99.659 22.1874C99.6785 22.1541 99.7032 22.1242 99.7439 22.0663C99.7527 22.1172 99.758 22.1312 99.7562 22.1453C99.7527 22.6228 99.7492 23.1021 99.7403 23.5814C99.7386 23.6727 99.7686 23.699 99.8606 23.699C100.25 23.6937 100.64 23.6972 101.031 23.6955C101.204 23.6955 101.208 23.6955 101.208 23.5164C101.208 20.7548 101.208 17.995 101.21 15.2335V15.0491H99.7421ZM99.3461 21.0972C98.8917 21.9223 98.188 22.4262 97.2492 22.5543C96.3333 22.6807 95.49 22.4841 94.7933 21.8451C94.3018 21.3939 94.0189 20.8216 93.8899 20.1737C93.7502 19.4715 93.7732 18.7745 94.0083 18.0898C94.1533 17.6615 94.3637 17.27 94.6996 16.9592C95.1682 16.5256 95.7039 16.2324 96.3563 16.1639C96.8814 16.1095 97.3906 16.1446 97.8821 16.3377C98.7874 16.6924 99.3319 17.3683 99.606 18.2759C99.659 18.4532 99.6926 18.6376 99.7174 18.8202C99.7403 19.001 99.7421 19.1853 99.7527 19.3662C99.7616 19.9789 99.6396 20.56 99.3461 21.0972Z" fill="#202024"/>
<path d="M62.0303 18.7823C61.9772 18.1818 61.804 17.6183 61.5193 17.0846C61.0967 16.2981 60.4779 15.7152 59.6699 15.343C58.6303 14.8655 57.5465 14.7865 56.4397 15.0656C55.5857 15.2816 54.8573 15.7152 54.2862 16.3859C53.5967 17.1987 53.305 18.1625 53.2696 19.2089C53.2519 19.6881 53.3014 20.1639 53.4199 20.6309C53.6957 21.7229 54.2756 22.6077 55.2533 23.1993C56.2063 23.7752 57.2477 23.9349 58.3421 23.7752C58.9592 23.6839 59.5391 23.4838 60.0695 23.1502C60.6866 22.7622 61.171 22.2531 61.5158 21.614C61.8729 20.9557 62.0462 20.2499 62.0745 19.5021C62.0603 19.2615 62.0497 19.021 62.0303 18.7823ZM60.1897 21.1453C59.8344 21.7896 59.2916 22.2004 58.5967 22.4374C58.0822 22.613 57.5589 22.627 57.0302 22.534C55.9128 22.3391 55.2145 21.6597 54.8927 20.6081C54.6045 19.6706 54.6363 18.7261 55.0005 17.8079C55.1667 17.3918 55.4425 17.0565 55.7891 16.7686C56.2152 16.4139 56.6996 16.2103 57.2477 16.1594C58.8389 16.0066 60.1809 16.7826 60.531 18.5049C60.5893 18.7858 60.5964 19.0772 60.6282 19.3634C60.6211 19.9936 60.4938 20.5905 60.1897 21.1453Z" fill="#202024"/>
<path d="M82.8398 23.6913V15.0415C82.9088 15.0415 82.9689 15.0415 83.0308 15.0415C83.4021 15.0415 83.7751 15.045 84.1464 15.0397C84.2472 15.0397 84.272 15.0731 84.2702 15.1661C84.2631 15.5032 84.2614 15.8385 84.2578 16.1756C84.2578 16.1967 84.2631 16.216 84.2649 16.237C84.2773 16.2476 84.2914 16.2581 84.3038 16.2686C84.325 16.2335 84.3427 16.1967 84.3674 16.1633C84.9102 15.4347 85.6493 15.0467 86.5439 14.9274C87.2423 14.8343 87.9265 14.8993 88.5807 15.1609C89.6574 15.5945 90.2674 16.4144 90.5132 17.5221C90.5945 17.8908 90.6263 18.2648 90.6263 18.6422C90.6263 20.2732 90.6263 21.9041 90.6263 23.5351C90.6263 23.6843 90.6263 23.6896 90.476 23.6913C90.0782 23.6966 89.6804 23.6948 89.2826 23.6984C89.2172 23.6984 89.2013 23.672 89.2013 23.6141C89.203 23.4859 89.2013 23.3578 89.2013 23.2296C89.2013 21.7812 89.1977 20.3329 89.2048 18.8845C89.2048 18.558 89.2101 18.2349 89.1341 17.9172C89.0015 17.3589 88.7487 16.8761 88.2678 16.5355C87.953 16.3143 87.5977 16.1932 87.214 16.1493C86.7596 16.0984 86.3052 16.1054 85.8703 16.2476C85.0623 16.5127 84.5725 17.0832 84.378 17.8943C84.3073 18.1928 84.2667 18.507 84.2649 18.8143C84.2543 20.3943 84.2596 21.9744 84.2631 23.5526C84.2631 23.651 84.2348 23.6896 84.1358 23.6896C83.7097 23.6878 83.2819 23.6896 82.8398 23.6896V23.6913Z" fill="#202024"/>
<path d="M63.8687 15.0423C64.1198 15.0423 64.362 15.0423 64.6042 15.0423C64.7917 15.0423 64.9808 15.0475 65.1683 15.0405C65.2673 15.037 65.3044 15.0616 65.3009 15.1669C65.2902 15.4812 65.2885 15.7954 65.2849 16.1097C65.2849 16.1588 65.2902 16.2062 65.3185 16.2642C65.3415 16.2378 65.3663 16.2133 65.3857 16.1869C65.8242 15.5707 66.4253 15.1932 67.152 15.0107C67.9653 14.807 68.7751 14.8456 69.5583 15.1406C70.6757 15.5619 71.314 16.3976 71.5474 17.5387C71.6358 17.9759 71.6747 18.4288 71.68 18.8765C71.6959 20.4197 71.6853 21.9628 71.6853 23.506C71.6853 23.6956 71.6853 23.6956 71.4961 23.6956C71.116 23.6956 70.7376 23.6956 70.3575 23.6956C70.2991 23.6956 70.2514 23.6991 70.2532 23.6131C70.2585 22.8898 70.2602 22.1647 70.2602 21.4414C70.2602 20.5268 70.2673 19.6121 70.2602 18.6992C70.2567 18.2059 70.1701 17.7266 69.9402 17.2807C69.6379 16.6925 69.157 16.3256 68.5116 16.1922C67.8822 16.0623 67.251 16.0728 66.6534 16.3467C66.1301 16.589 65.7552 16.9769 65.536 17.5177C65.3486 17.9811 65.2867 18.4622 65.2849 18.9537C65.2796 20.4864 65.2849 22.019 65.2849 23.5499C65.2849 23.6904 65.2849 23.6904 65.147 23.6904C64.7563 23.6904 64.3656 23.6904 63.9766 23.6956C63.89 23.6956 63.8493 23.6833 63.8652 23.5798C63.8811 23.4692 63.8723 23.3533 63.8723 23.2409C63.8723 20.6742 63.8723 18.1058 63.8723 15.5391C63.8723 15.3793 63.8723 15.2178 63.8723 15.0405L63.8687 15.0423Z" fill="#202024"/>
<path d="M117.573 27.7568C117.686 27.4795 117.798 27.2056 117.909 26.9335C118.337 25.8977 118.761 24.8601 119.194 23.8261C119.253 23.6856 119.269 23.568 119.209 23.424C118.86 22.5919 118.517 21.758 118.176 20.924C117.578 19.4686 116.983 18.0115 116.385 16.5561C116.196 16.0926 116.001 15.6327 115.81 15.1692C115.796 15.1341 115.786 15.0954 115.771 15.0515C115.8 15.048 115.817 15.0428 115.833 15.0428C116.302 15.0428 116.769 15.0428 117.237 15.041C117.313 15.041 117.34 15.0814 117.361 15.1393C117.561 15.6537 117.762 16.1664 117.964 16.679C118.597 18.3012 119.232 19.9233 119.865 21.5455C119.916 21.6754 119.962 21.8054 120.017 21.9335C120.034 21.9756 120.068 22.0125 120.093 22.0511C120.103 22.0494 120.114 22.0459 120.126 22.0441C120.154 21.9634 120.179 21.8808 120.209 21.8018C120.655 20.6467 121.1 19.4932 121.546 18.338C121.96 17.2654 122.37 16.1909 122.784 15.1183C122.796 15.0867 122.84 15.048 122.87 15.048C123.316 15.0445 123.761 15.0445 124.207 15.0463C124.217 15.0463 124.228 15.0515 124.253 15.0586C124.202 15.192 124.154 15.3237 124.101 15.4518C123.461 17.0038 122.819 18.5575 122.179 20.1094C121.809 21.0048 121.442 21.8984 121.072 22.7938C120.487 24.2158 119.9 25.6361 119.315 27.0581C119.228 27.267 119.145 27.4777 119.051 27.6849C119.035 27.7217 118.98 27.7639 118.943 27.7639C118.498 27.7726 118.052 27.7744 117.607 27.7762C117.6 27.7762 117.594 27.7709 117.571 27.7604L117.573 27.7568Z" fill="#202024"/>
<path d="M73.0727 15.0428C73.3962 15.0428 73.7039 15.0428 74.0133 15.0428C74.2148 15.0428 74.2113 15.0428 74.206 14.8374C74.1936 14.3721 74.2078 13.9087 74.3138 13.454C74.5295 12.5323 75.1289 11.988 76.0395 11.7774C76.3736 11.7001 76.7219 11.6826 77.0632 11.6387C77.1356 11.6299 77.2099 11.6264 77.2824 11.6193C77.339 11.6141 77.362 11.6387 77.362 11.6948C77.3584 12.0389 77.3567 12.3813 77.3478 12.7254C77.3478 12.75 77.2965 12.7903 77.2647 12.7956C77.0366 12.8342 76.805 12.8483 76.5805 12.9027C76.0218 13.0379 75.6752 13.4557 75.6399 14.0298C75.6222 14.3282 75.6257 14.6285 75.6169 14.9287C75.6134 15.0147 75.647 15.041 75.7336 15.041C76.2675 15.0375 76.8015 15.041 77.3354 15.0375C77.4309 15.0375 77.4627 15.0621 77.461 15.1604C77.4539 15.4747 77.4521 15.7889 77.4557 16.1032C77.4557 16.1909 77.4256 16.2155 77.3407 16.2138C76.8103 16.2102 76.2799 16.2155 75.7495 16.2102C75.6399 16.2102 75.6151 16.2436 75.6151 16.3472C75.6187 18.7383 75.6169 21.1312 75.6169 23.5223C75.6169 23.6751 75.6169 23.6768 75.4613 23.6786C75.0776 23.6821 74.6957 23.6821 74.3121 23.6874C74.2184 23.6874 74.1901 23.6558 74.1901 23.5592C74.1936 21.1488 74.1901 18.7383 74.1936 16.3296C74.1936 16.2383 74.1653 16.2102 74.0752 16.212C73.7799 16.2173 73.4864 16.212 73.1911 16.2155C73.0974 16.2155 73.0603 16.1927 73.0621 16.0926C73.0674 15.7749 73.0621 15.4571 73.0621 15.1376C73.0621 15.1095 73.0656 15.0814 73.0691 15.041L73.0727 15.0428Z" fill="#202024"/>
<path d="M112.877 12.857V15.041H115.131C115.135 15.1024 115.14 15.1481 115.14 15.1937C115.14 15.4939 115.135 15.7941 115.14 16.0926C115.14 16.1804 115.117 16.2137 115.023 16.2137C114.353 16.212 113.683 16.2137 113.013 16.2137C112.974 16.2137 112.934 16.2137 112.882 16.2137C112.882 16.2647 112.882 16.3033 112.882 16.3419C112.882 18.094 112.881 19.8443 112.884 21.5964C112.884 22.0968 113.155 22.4093 113.657 22.4531C114.106 22.4918 114.56 22.49 115.013 22.497C115.114 22.497 115.144 22.5234 115.142 22.6252C115.133 22.943 115.133 23.2607 115.133 23.5785C115.133 23.6592 115.11 23.6926 115.018 23.6926C114.58 23.6891 114.141 23.7084 113.705 23.6926C113.229 23.675 112.76 23.6031 112.34 23.3538C111.889 23.0852 111.645 22.6761 111.526 22.1775C111.434 21.793 111.434 21.4015 111.434 21.0118C111.434 19.4476 111.434 17.8816 111.44 16.3173C111.44 16.2331 111.411 16.2102 111.332 16.212C111.026 16.2155 110.72 16.212 110.414 16.2155C110.324 16.2155 110.303 16.1856 110.303 16.1014C110.303 15.7766 110.301 15.4501 110.294 15.1253C110.294 15.0533 110.322 15.0392 110.384 15.0392C110.694 15.041 111.003 15.0392 111.312 15.0392C111.45 15.0392 111.45 15.0357 111.448 14.8988C111.443 14.2334 111.44 13.568 111.436 12.9027C111.436 12.8886 111.441 12.8746 111.445 12.8535H112.881L112.877 12.857Z" fill="#202024"/>
<path d="M103.523 17.8671C103.523 15.9658 103.523 14.0645 103.523 12.1632C103.523 12.0625 103.573 12.0122 103.673 12.0122C104.057 12.0122 104.439 12.014 104.822 12.0157C104.964 12.0157 104.965 12.0175 104.964 12.1562C104.962 15.3075 104.958 18.4605 104.957 21.6118C104.957 22.2333 104.96 22.8548 104.962 23.4763C104.962 23.6905 104.962 23.6922 104.752 23.694C104.38 23.6975 104.007 23.694 103.636 23.6993C103.54 23.701 103.521 23.6694 103.521 23.5816C103.523 22.3685 103.521 21.1536 103.521 19.9405C103.521 19.2488 103.521 18.5588 103.521 17.8671H103.523Z" fill="#202024"/>
<path d="M79.0418 15.0415C79.1903 15.0415 79.3335 15.0415 79.475 15.0415C79.7649 15.0415 80.0567 15.0468 80.3466 15.0398C80.4545 15.0363 80.481 15.0714 80.481 15.175C80.4739 17.8294 80.4722 20.4822 80.4686 23.1366C80.4686 23.2894 80.4686 23.4439 80.4686 23.5966C80.4686 23.6633 80.4474 23.6932 80.3714 23.6914C79.9294 23.6879 79.4891 23.6896 79.04 23.6896V15.0398L79.0418 15.0415Z" fill="#202024"/>
<path d="M107.329 15.0425C107.375 15.0425 107.41 15.0425 107.447 15.0425C107.838 15.0425 108.227 15.0425 108.618 15.0425C108.754 15.0425 108.755 15.046 108.755 15.1847C108.752 15.6095 108.748 16.0326 108.748 16.4575C108.748 18.8188 108.748 21.1801 108.75 23.5414C108.75 23.6449 108.727 23.6958 108.614 23.6941C108.188 23.6906 107.762 23.6941 107.329 23.6941V15.0425Z" fill="#202024"/>
<path d="M79.7762 11.7222C80.3101 11.7292 80.7291 12.1576 80.7238 12.6878C80.7185 13.1917 80.2818 13.6148 79.7656 13.613C79.2316 13.6112 78.8055 13.1776 78.8126 12.6422C78.8197 12.1401 79.2617 11.7169 79.7744 11.7222H79.7762Z" fill="#202024"/>
<path d="M108.995 12.6673C108.995 13.201 108.584 13.6083 108.045 13.6083C107.518 13.6083 107.092 13.1799 107.096 12.648C107.099 12.1423 107.532 11.7192 108.045 11.7192C108.574 11.7192 108.995 12.1406 108.995 12.6655V12.6673Z" fill="#202024"/>
<path d="M47.967 19.6402C47.9741 21.5661 47.5374 23.4674 46.6887 25.1984C45.8418 26.9294 44.6042 28.4445 43.0766 29.6278C41.5472 30.8111 39.765 31.6292 37.8679 32.0224C35.9708 32.4157 34.0083 32.3701 32.1306 31.8908V17.8161L36.6356 23.1321C36.9415 23.4937 37.3534 23.7536 37.8131 23.8747C38.2728 23.9958 38.759 23.9748 39.2063 23.8132C39.6537 23.6517 40.0391 23.3568 40.3114 22.9688C40.5837 22.5808 40.7304 22.1208 40.7304 21.6468V8.24457C42.8963 9.27159 44.7244 10.8867 46.0045 12.9039C47.2845 14.9211 47.9652 17.2561 47.967 19.6402ZM33.8386 16.15L38.3435 21.466V7.38783C35.283 6.61712 32.044 7.00335 29.2558 8.47279C26.4676 9.94399 24.33 12.3913 23.2568 15.3407C22.1836 18.2901 22.2543 21.531 23.453 24.4312C24.6518 27.3332 26.8937 29.6875 29.7438 31.0358V17.6335C29.7438 17.1613 29.8905 16.6995 30.1628 16.3116C30.4351 15.9236 30.8223 15.6286 31.2678 15.4671C31.7151 15.3056 32.2013 15.2828 32.661 15.4057C33.1207 15.5268 33.5309 15.7866 33.8386 16.1483V16.15Z" fill="#202024"/>
</svg>
