<svg width="146" height="40" viewBox="0 0 146 40" fill="none" xmlns="http://www.w3.org/2000/svg">
<path fill-rule="evenodd" clip-rule="evenodd" d="M30.6406 20.1372C30.6406 11.2255 37.8574 4.00098 46.7598 4.00098C55.6622 4.00098 62.879 11.2255 62.879 20.1372C62.879 29.049 55.6622 36.2735 46.7598 36.2735C37.8574 36.2735 30.6406 29.049 30.6406 20.1372ZM49.9143 19.5425C48.9192 19.598 48.1097 19.5137 47.3003 19.4293C46.4909 19.345 45.6815 19.2607 44.6863 19.3162C44.2088 19.3428 43.7023 19.4102 43.2211 19.523C43.5145 15.964 46.1199 12.8502 49.6628 12.6526C51.8368 12.5313 54.0096 13.8293 54.1278 15.936C54.2436 18.0068 52.6104 19.392 49.9143 19.5425ZM44.5849 27.0449C42.5253 27.1562 40.4668 25.9664 40.355 24.0351C40.245 22.137 41.7924 20.8672 44.3465 20.7293C45.2893 20.6783 46.0562 20.7557 46.823 20.833C47.5898 20.9103 48.3567 20.9876 49.2995 20.9367C49.752 20.9123 50.2317 20.8505 50.6876 20.747C50.4097 24.0094 47.9413 26.8638 44.5849 27.0449Z" fill="#202024"/>
<path d="M69.1523 22.8169H71.4823C71.4823 23.2121 71.5937 23.4957 71.8163 23.6679C72.0389 23.8401 72.3248 23.9262 72.6739 23.9262C72.9623 23.9262 73.1976 23.873 73.3798 23.7667C73.5669 23.6552 73.6605 23.4754 73.6605 23.2272C73.6605 23.0803 73.6201 22.9613 73.5391 22.8701C73.4632 22.7739 73.3443 22.6903 73.1825 22.6194C73.0205 22.5434 72.8131 22.4675 72.56 22.3914C72.3071 22.3155 72.0035 22.2192 71.6493 22.1028C71.3306 22.0015 71.0295 21.8977 70.7462 21.7912C70.4678 21.6799 70.2225 21.5431 70.0099 21.381C69.7974 21.2189 69.6306 21.0214 69.5091 20.7884C69.3927 20.5554 69.3345 20.2667 69.3345 19.9223C69.3345 19.5271 69.4129 19.1853 69.5698 18.8966C69.7266 18.6079 69.9467 18.3698 70.2301 18.1824C70.5134 17.995 70.8524 17.8557 71.2471 17.7645C71.6417 17.6682 72.0769 17.6201 72.5524 17.6201C73.1343 17.6201 73.6353 17.686 74.0553 17.8177C74.4752 17.9494 74.8193 18.1292 75.0875 18.3571C75.3556 18.5851 75.5529 18.8535 75.6794 19.1625C75.811 19.4714 75.8767 19.8032 75.8767 20.1578H73.5315C73.5315 19.8488 73.4506 19.6082 73.2887 19.436C73.1318 19.2638 72.8915 19.1777 72.5676 19.1777C72.3197 19.1777 72.1072 19.2335 71.9301 19.3448C71.7531 19.4512 71.6645 19.6133 71.6645 19.8311C71.6645 19.9779 71.705 20.097 71.7859 20.1882C71.872 20.2743 71.9959 20.3527 72.1578 20.4237C72.3197 20.4946 72.5196 20.568 72.7574 20.6441C72.9952 20.715 73.2685 20.801 73.5771 20.9023C73.911 20.9935 74.2222 21.0948 74.5106 21.2062C74.799 21.3177 75.052 21.4545 75.2696 21.6165C75.4922 21.7736 75.6667 21.9736 75.7932 22.2167C75.9248 22.4548 75.9906 22.7587 75.9906 23.1285C75.9906 23.5641 75.8995 23.9364 75.7174 24.2453C75.5352 24.5492 75.2898 24.7974 74.9812 24.9899C74.6775 25.1824 74.3234 25.3191 73.9186 25.4002C73.5139 25.4862 73.0888 25.5293 72.6435 25.5293C71.5355 25.5293 70.6753 25.2989 70.0631 24.8379C69.4559 24.372 69.1523 23.6983 69.1523 22.8169Z" fill="#202024"/>
<path d="M76.5825 19.596V17.8257H77.759V15.5996H80.1269V17.8257H81.8346V19.596H80.1269V22.2779C80.1269 22.5565 80.1522 22.7794 80.2028 22.9465C80.2534 23.1086 80.3242 23.2377 80.4153 23.334C80.5114 23.4252 80.6253 23.4859 80.7568 23.5163C80.8934 23.5417 81.0452 23.5543 81.2122 23.5543C81.3134 23.5543 81.4424 23.5518 81.5992 23.5467C81.7561 23.5366 81.8927 23.5214 82.0091 23.5011V25.3245C81.832 25.3549 81.6094 25.3828 81.3412 25.4082C81.0781 25.4335 80.767 25.4461 80.4077 25.4461C80.1294 25.4461 79.8359 25.4259 79.5274 25.3854C79.2187 25.3448 78.9327 25.2385 78.6697 25.0663C78.4066 24.894 78.189 24.6307 78.017 24.2761C77.8449 23.9165 77.759 23.4252 77.759 22.8021V19.596H76.5825Z" fill="#202024"/>
<path fill-rule="evenodd" clip-rule="evenodd" d="M82.9575 20.0052C82.7804 20.4864 82.6919 21.0081 82.6919 21.5703C82.6919 22.1325 82.7804 22.6543 82.9575 23.1354C83.1396 23.6166 83.3901 24.032 83.7088 24.3814C84.0327 24.7309 84.4097 25.007 84.8397 25.2096C85.2748 25.4122 85.7404 25.5135 86.2363 25.5135C86.813 25.5135 87.3089 25.3919 87.7238 25.1488C88.1386 24.9057 88.4395 24.6119 88.6272 24.2675V25.3235H91.0024V17.8247H88.6272V18.896C88.4193 18.5313 88.1083 18.2299 87.6934 17.9918C87.2836 17.7537 86.7978 17.6348 86.2363 17.6348C85.7353 17.6348 85.2697 17.736 84.8397 17.9386C84.4097 18.1412 84.0327 18.4173 83.7088 18.7668C83.3901 19.1112 83.1396 19.524 82.9575 20.0052ZM85.1813 22.3149C85.0953 22.0768 85.0522 21.8286 85.0522 21.5703C85.0522 21.312 85.0953 21.0688 85.1813 20.8409C85.2723 20.613 85.3937 20.4104 85.5455 20.2331C85.7024 20.0558 85.8896 19.9166 86.1072 19.8152C86.3248 19.714 86.5676 19.6633 86.8358 19.6633C87.1091 19.6633 87.3544 19.714 87.572 19.8152C87.7896 19.9166 87.9743 20.0558 88.126 20.2331C88.2829 20.4104 88.4044 20.613 88.4902 20.8409C88.5811 21.0688 88.6272 21.312 88.6272 21.5703C88.6272 21.8337 88.5811 22.0819 88.4902 22.3149C88.4044 22.5479 88.2829 22.7505 88.126 22.9227C87.9743 23.0898 87.787 23.2266 87.5644 23.3329C87.3469 23.4343 87.104 23.4849 86.8358 23.4849C86.5676 23.4849 86.3248 23.4343 86.1072 23.3329C85.8896 23.2266 85.7024 23.0898 85.5455 22.9227C85.3937 22.7505 85.2723 22.5479 85.1813 22.3149Z" fill="#202024"/>
<path d="M92.2778 19.596V17.8257H93.454V15.5996H95.8224V17.8257H97.5298V19.596H95.8224V22.2779C95.8224 22.5565 95.8477 22.7794 95.8977 22.9465C95.9484 23.1086 96.0192 23.2377 96.1107 23.334C96.2069 23.4252 96.3203 23.4859 96.4522 23.5163C96.5886 23.5417 96.7405 23.5543 96.9075 23.5543C97.0088 23.5543 97.1378 23.5518 97.2943 23.5467C97.4515 23.5366 97.588 23.5214 97.7043 23.5011V25.3245C97.5275 25.3549 97.3047 25.3828 97.0365 25.4082C96.7734 25.4335 96.4619 25.4461 96.1027 25.4461C95.8247 25.4461 95.531 25.4259 95.2224 25.3854C94.9139 25.3448 94.6278 25.2385 94.3647 25.0663C94.1016 24.894 93.884 24.6307 93.7125 24.2761C93.5403 23.9165 93.454 23.4252 93.454 22.8021V19.596H92.2778Z" fill="#202024"/>
<path d="M98.8799 22.2774V17.8252H101.24V21.6696C101.24 22.2065 101.336 22.6446 101.529 22.984C101.721 23.3183 102.065 23.4854 102.561 23.4854C103.057 23.4854 103.421 23.3158 103.653 22.9764C103.891 22.6319 104.01 22.1685 104.01 21.586V17.8252H106.386V25.324H104.01V24.2528C103.802 24.6479 103.486 24.9568 103.062 25.1797C102.636 25.4026 102.128 25.514 101.536 25.514C101.02 25.514 100.595 25.433 100.261 25.2709C99.9323 25.1088 99.664 24.9036 99.4567 24.6554C99.2184 24.3668 99.0618 24.0325 98.9858 23.6526C98.915 23.2727 98.8799 22.8143 98.8799 22.2774Z" fill="#202024"/>
<path d="M107.92 22.8169H110.25C110.25 23.2121 110.361 23.4957 110.584 23.6679C110.806 23.8401 111.092 23.9262 111.441 23.9262C111.73 23.9262 111.965 23.873 112.148 23.7667C112.335 23.6552 112.428 23.4754 112.428 23.2272C112.428 23.0803 112.388 22.9613 112.306 22.8701C112.231 22.7739 112.112 22.6903 111.95 22.6194C111.788 22.5434 111.58 22.4675 111.328 22.3914C111.075 22.3155 110.771 22.2192 110.417 22.1028C110.098 22.0015 109.797 21.8977 109.513 21.7912C109.235 21.6799 108.99 21.5431 108.778 21.381C108.565 21.2189 108.398 21.0214 108.276 20.7884C108.16 20.5554 108.102 20.2667 108.102 19.9223C108.102 19.5271 108.18 19.1853 108.337 18.8966C108.494 18.6079 108.714 18.3698 108.997 18.1824C109.281 17.995 109.62 17.8557 110.015 17.7645C110.409 17.6682 110.844 17.6201 111.32 17.6201C111.902 17.6201 112.402 17.686 112.822 17.8177C113.243 17.9494 113.587 18.1292 113.855 18.3571C114.123 18.5851 114.32 18.8535 114.447 19.1625C114.579 19.4714 114.644 19.8032 114.644 20.1578H112.299C112.299 19.8488 112.219 19.6082 112.056 19.436C111.899 19.2638 111.659 19.1777 111.335 19.1777C111.087 19.1777 110.875 19.2335 110.698 19.3448C110.52 19.4512 110.432 19.6133 110.432 19.8311C110.432 19.9779 110.472 20.097 110.553 20.1882C110.639 20.2743 110.763 20.3527 110.926 20.4237C111.087 20.4946 111.287 20.568 111.524 20.6441C111.763 20.715 112.036 20.801 112.344 20.9023C112.678 20.9935 112.99 21.0948 113.278 21.2062C113.567 21.3177 113.819 21.4545 114.037 21.6165C114.26 21.7736 114.434 21.9736 114.561 22.2167C114.692 22.4548 114.758 22.7587 114.758 23.1285C114.758 23.5641 114.667 23.9364 114.485 24.2453C114.303 24.5492 114.057 24.7974 113.748 24.9899C113.445 25.1824 113.091 25.3191 112.686 25.4002C112.281 25.4862 111.856 25.5293 111.411 25.5293C110.303 25.5293 109.443 25.2989 108.831 24.8379C108.223 24.372 107.92 23.6983 107.92 22.8169Z" fill="#202024"/>
</svg>
