<svg width="146" height="40" viewBox="0 0 146 40" fill="none" xmlns="http://www.w3.org/2000/svg">
<path d="M54.1138 17.192H51.0034V15.3588H59.4734V17.192H56.363V25.079H54.1138V17.192ZM61.6043 18.5944C61.8634 18.2333 62.2107 17.9601 62.6457 17.7749C63.0899 17.59 63.599 17.4973 64.1729 17.4973V19.497C63.9325 19.4784 63.7704 19.4691 63.687 19.4691C63.0668 19.4691 62.5808 19.645 62.229 19.9968C61.8772 20.3393 61.7013 20.8577 61.7013 21.552V25.079H59.5353V17.6083H61.6043V18.5944ZM72.2083 17.6083V25.079H70.153V24.1902C69.866 24.5141 69.5235 24.7642 69.1255 24.9401C68.7275 25.1067 68.297 25.1901 67.8342 25.1901C66.8529 25.1901 66.0754 24.9076 65.5015 24.343C64.9276 23.7784 64.6406 22.9406 64.6406 21.8297V17.6083H66.8067V21.5103C66.8067 22.7137 67.3113 23.3155 68.3201 23.3155C68.8385 23.3155 69.2552 23.1489 69.5701 22.8154C69.8846 22.4729 70.0419 21.9686 70.0419 21.302V17.6083H72.2083ZM75.8953 25.1901C75.2749 25.1901 74.6685 25.116 74.0763 24.968C73.4837 24.8104 73.0115 24.6162 72.6597 24.3847L73.382 22.8295C73.7152 23.0424 74.1177 23.2183 74.5899 23.3569C75.062 23.4866 75.5249 23.5515 75.9785 23.5515C76.8949 23.5515 77.3533 23.3248 77.3533 22.871C77.3533 22.6581 77.2281 22.5054 76.9783 22.4129C76.7283 22.3204 76.3441 22.2415 75.8257 22.1767C75.2148 22.0842 74.7102 21.9776 74.3122 21.8576C73.9142 21.7372 73.5672 21.5241 73.2709 21.2188C72.9839 20.9132 72.8404 20.4783 72.8404 19.9134C72.8404 19.4415 72.9746 19.0248 73.243 18.6637C73.5206 18.2933 73.9187 18.0064 74.4371 17.8028C74.9648 17.5993 75.5849 17.4973 76.2979 17.4973C76.8256 17.4973 77.3485 17.5576 77.8669 17.678C78.3946 17.789 78.8298 17.9463 79.1723 18.1498L78.4501 19.6912C77.793 19.3211 77.0756 19.1359 76.2979 19.1359C75.835 19.1359 75.488 19.2007 75.2565 19.3301C75.0251 19.4598 74.9092 19.6264 74.9092 19.8302C74.9092 20.0616 75.0344 20.2234 75.2842 20.3162C75.5342 20.4086 75.9322 20.4966 76.4783 20.58C77.0894 20.6818 77.5892 20.7929 77.9779 20.9132C78.3669 21.0243 78.7046 21.2326 78.9916 21.5382C79.2786 21.8435 79.4221 22.2694 79.4221 22.8154C79.4221 23.2783 79.2834 23.6904 79.0057 24.0512C78.7278 24.4124 78.3204 24.6948 77.7837 24.8983C77.256 25.0929 76.6265 25.1901 75.8953 25.1901ZM84.7438 24.7179C84.531 24.8752 84.2672 24.9956 83.9523 25.079C83.647 25.1529 83.3228 25.1901 82.9803 25.1901C82.0918 25.1901 81.402 24.9632 80.9115 24.5096C80.43 24.0561 80.1893 23.3894 80.1893 22.5102V19.4415H79.0369V17.7749H80.1893V15.9562H82.3554V17.7749H84.2161V19.4415H82.3554V22.4822C82.3554 22.7971 82.4343 23.0424 82.5916 23.2183C82.7582 23.3849 82.9896 23.4683 83.2859 23.4683C83.6284 23.4683 83.9199 23.3756 84.1606 23.1903L84.7438 24.7179ZM103.07 15.3588L99.89 25.079H97.4739L95.3355 18.4971L93.1277 25.079H90.7254L87.5319 15.3588H89.8645L92.0585 22.1908L94.3497 15.3588H96.4323L98.6542 22.2463L100.917 15.3588H103.07ZM105.797 17.4973C106.954 17.4973 107.843 17.7749 108.463 18.3305C109.083 18.8766 109.393 19.705 109.393 20.816V25.079H107.366V24.1485C106.959 24.8428 106.2 25.1901 105.089 25.1901C104.515 25.1901 104.015 25.0929 103.589 24.8983C103.172 24.7041 102.853 24.4355 102.631 24.093C102.409 23.7505 102.298 23.3617 102.298 22.9265C102.298 22.2325 102.557 21.6862 103.075 21.2881C103.603 20.8901 104.413 20.6911 105.505 20.6911H107.227C107.227 20.2189 107.084 19.8578 106.797 19.6081C106.51 19.3487 106.079 19.2191 105.505 19.2191C105.107 19.2191 104.714 19.2839 104.325 19.4136C103.945 19.5339 103.621 19.7005 103.353 19.9134L102.575 18.3999C102.983 18.1129 103.469 17.8908 104.033 17.7335C104.607 17.5759 105.195 17.4973 105.797 17.4973ZM105.63 23.7319C106.001 23.7319 106.329 23.6487 106.616 23.4821C106.903 23.3062 107.107 23.0517 107.227 22.7185V21.9545H105.741C104.853 21.9545 104.408 22.2463 104.408 22.8295C104.408 23.1072 104.515 23.3293 104.728 23.4959C104.95 23.6532 105.251 23.7319 105.63 23.7319ZM110.521 14.7759H112.687V25.079H110.521V14.7759ZM113.864 14.7759H116.03V25.079H113.864V14.7759ZM124.525 21.3713C124.525 21.3992 124.511 21.5937 124.484 21.9545H118.832C118.934 22.4174 119.175 22.783 119.554 23.0517C119.934 23.32 120.406 23.4542 120.971 23.4542C121.359 23.4542 121.702 23.3987 121.998 23.2876C122.303 23.1672 122.586 22.9823 122.845 22.7323L123.998 23.9819C123.294 24.7873 122.266 25.1901 120.915 25.1901C120.072 25.1901 119.327 25.028 118.679 24.7041C118.031 24.3706 117.532 23.9126 117.18 23.3293C116.828 22.7461 116.652 22.0842 116.652 21.3437C116.652 20.6125 116.823 19.9551 117.166 19.3718C117.518 18.7796 117.994 18.3212 118.596 17.9973C119.207 17.6639 119.887 17.4973 120.637 17.4973C121.369 17.4973 122.031 17.6548 122.623 17.9694C123.215 18.2843 123.678 18.7379 124.011 19.3301C124.354 19.9134 124.525 20.5938 124.525 21.3713ZM120.651 19.1359C120.16 19.1359 119.749 19.2746 119.415 19.5525C119.082 19.8302 118.878 20.2096 118.804 20.6911H122.484C122.41 20.2189 122.206 19.844 121.873 19.5664C121.54 19.2794 121.132 19.1359 120.651 19.1359ZM129.952 24.7179C129.74 24.8752 129.476 24.9956 129.161 25.079C128.856 25.1529 128.532 25.1901 128.189 25.1901C127.3 25.1901 126.611 24.9632 126.12 24.5096C125.639 24.0561 125.398 23.3894 125.398 22.5102V19.4415H124.245V17.7749H125.398V15.9562H127.564V17.7749H129.425V19.4415H127.564V22.4822C127.564 22.7971 127.643 23.0424 127.8 23.2183C127.967 23.3849 128.198 23.4683 128.494 23.4683C128.837 23.4683 129.129 23.3756 129.369 23.1903L129.952 24.7179Z" fill="#202024"/>
<path fill-rule="evenodd" clip-rule="evenodd" d="M25.757 5.68164H35.1685C40.5644 5.68164 44.9387 10.0559 44.9387 15.4518V24.8633C44.9387 30.2593 40.5644 34.6335 35.1685 34.6335H25.757C20.3611 34.6335 15.9868 30.2593 15.9868 24.8633V15.4518C15.9868 10.0559 20.3611 5.68164 25.757 5.68164ZM32.4965 9.39133C31.3714 8.45159 29.7351 8.45157 28.6099 9.39129C26.7429 10.9506 24.6088 10.9445 23.5675 10.9416L23.4435 10.9413C22.6316 10.9413 21.8536 11.267 21.2838 11.8455C20.714 12.4239 20.4001 13.2067 20.4124 14.0186C20.4643 17.4596 20.6017 20.0211 20.8921 21.9593C21.1819 23.8934 21.6627 25.5036 22.6098 26.8228C23.5731 28.1647 24.7993 28.8823 25.7501 29.4084C25.9288 29.5072 26.1041 29.6025 26.2782 29.6971L26.2785 29.6973C27.0731 30.1292 27.8416 30.5469 28.7862 31.2245C29.8424 31.9821 31.2641 31.9821 32.3202 31.2245C33.2656 30.5464 34.0351 30.1284 34.831 29.6961L34.8311 29.6961C35.0043 29.602 35.1788 29.5073 35.3566 29.409C36.3076 28.8834 37.5348 28.1663 38.4996 26.8255C39.4487 25.5064 39.9313 23.8961 40.2223 21.9609C40.5139 20.022 40.652 17.4599 40.7039 14.0186C40.7162 13.2067 40.4022 12.4239 39.8325 11.8455C39.2627 11.267 38.4847 10.9413 37.6727 10.9413L37.5479 10.9416C36.4969 10.9445 34.3633 10.9505 32.4965 9.39133ZM26.8882 21.0609C26.732 20.0181 26.6193 18.6408 26.5475 16.7798C27.7354 16.5665 29.1362 16.157 30.5532 15.3749C31.9736 16.1588 33.3778 16.5684 34.5685 16.7813C34.4965 18.6411 34.3834 20.0173 34.2267 21.0593C33.9981 22.5794 33.7154 23.0935 33.5781 23.2843C33.4566 23.4532 33.2763 23.6313 32.4239 24.1024C32.2966 24.1728 32.1568 24.2484 32.0058 24.3301C31.5968 24.5514 31.1052 24.8174 30.5533 25.1453C30.0029 24.8182 29.5126 24.5527 29.1047 24.3318L29.1047 24.3318C28.953 24.2496 28.8128 24.1737 28.6851 24.1031C27.8343 23.6324 27.6556 23.4549 27.5351 23.287C27.3983 23.0964 27.1162 22.5821 26.8882 21.0609Z" fill="#202024"/>
</svg>
